G04*
G04 #@! TF.GenerationSoftware,Altium Limited,Altium Designer,18.1.7 (191)*
G04*
G04 Layer_Color=255*
%FSLAX25Y25*%
%MOIN*%
G70*
G01*
G75*
%ADD10C,0.01000*%
%ADD12C,0.00787*%
%ADD14R,0.01181X0.04724*%
%ADD15R,0.04724X0.01181*%
%ADD16R,0.05512X0.04331*%
%ADD17R,0.04331X0.05512*%
%ADD18R,0.11811X0.05906*%
%ADD19R,0.05512X0.04724*%
%ADD20R,0.09449X0.12992*%
%ADD21R,0.09449X0.03937*%
%ADD41C,0.07874*%
%ADD42C,0.06496*%
%ADD43R,0.07480X0.07480*%
%ADD44C,0.07480*%
%ADD45C,0.07480*%
%ADD46O,0.07480X0.07480*%
%ADD47R,0.07480X0.07480*%
%ADD48C,0.06000*%
%ADD49R,0.07480X0.07480*%
D10*
X540331Y183000D02*
Y419220D01*
X186000Y183000D02*
X540331D01*
X186000D02*
Y419220D01*
X540331D01*
D12*
X410264Y277488D02*
X427193D01*
Y338512D01*
X410264D02*
X427193D01*
X410264Y277488D02*
Y338512D01*
D14*
X349173Y272268D02*
D03*
X351142D02*
D03*
X353110D02*
D03*
X355079D02*
D03*
X357047D02*
D03*
X359016D02*
D03*
X360984D02*
D03*
X362953D02*
D03*
X364921D02*
D03*
X366890D02*
D03*
X368858D02*
D03*
X370827D02*
D03*
Y305732D02*
D03*
X368858D02*
D03*
X366890D02*
D03*
X364921D02*
D03*
X362953D02*
D03*
X360984D02*
D03*
X359016D02*
D03*
X357047D02*
D03*
X355079D02*
D03*
X353110D02*
D03*
X351142D02*
D03*
X349173D02*
D03*
D15*
X376732Y278173D02*
D03*
Y280142D02*
D03*
Y282110D02*
D03*
Y284079D02*
D03*
Y286047D02*
D03*
Y288016D02*
D03*
Y289984D02*
D03*
Y291953D02*
D03*
Y293921D02*
D03*
Y295890D02*
D03*
Y297858D02*
D03*
Y299827D02*
D03*
X343268D02*
D03*
Y297858D02*
D03*
Y295890D02*
D03*
Y293921D02*
D03*
Y291953D02*
D03*
Y289984D02*
D03*
Y288016D02*
D03*
Y286047D02*
D03*
Y284079D02*
D03*
Y282110D02*
D03*
Y280142D02*
D03*
Y278173D02*
D03*
D16*
X389697Y272563D02*
D03*
Y280437D02*
D03*
X528000Y346937D02*
D03*
Y339063D02*
D03*
X330500Y286563D02*
D03*
Y294437D02*
D03*
X376500Y314063D02*
D03*
Y321937D02*
D03*
X412000Y241437D02*
D03*
Y233563D02*
D03*
X428500Y241437D02*
D03*
Y233563D02*
D03*
D17*
X322437Y278173D02*
D03*
X314563D02*
D03*
X470437Y298500D02*
D03*
X462563D02*
D03*
X409563Y272563D02*
D03*
X417437D02*
D03*
X345437Y244500D02*
D03*
X337563D02*
D03*
X394437Y247500D02*
D03*
X386563D02*
D03*
X339937Y319500D02*
D03*
X332063D02*
D03*
X510437Y334500D02*
D03*
X502563D02*
D03*
X510437Y350500D02*
D03*
X502563D02*
D03*
D18*
X304500Y328000D02*
D03*
D19*
X363276Y244760D02*
D03*
X372724D02*
D03*
Y252240D02*
D03*
X363276D02*
D03*
D20*
X458583Y330000D02*
D03*
D21*
X481417Y339055D02*
D03*
Y330000D02*
D03*
Y320945D02*
D03*
D41*
X382520Y203500D02*
D03*
X422480D02*
D03*
D42*
X504000Y381500D02*
D03*
Y403154D02*
D03*
D43*
X261000Y211000D02*
D03*
D44*
Y221000D02*
D03*
X263000Y349500D02*
D03*
X216500Y348500D02*
D03*
Y393000D02*
D03*
D45*
X208500Y235000D02*
D03*
D46*
Y225000D02*
D03*
Y215000D02*
D03*
D47*
Y205000D02*
D03*
D48*
X516000Y276000D02*
D03*
X506000D02*
D03*
X474504D02*
D03*
X464504D02*
D03*
X516000Y206709D02*
D03*
X506000D02*
D03*
X474504D02*
D03*
X464504D02*
D03*
X291500Y402500D02*
D03*
Y392500D02*
D03*
Y352500D02*
D03*
Y362500D02*
D03*
Y372500D02*
D03*
Y382500D02*
D03*
D49*
X253000Y349500D02*
D03*
X206500Y348500D02*
D03*
Y393000D02*
D03*
M02*
