G04*
G04 #@! TF.GenerationSoftware,Altium Limited,Altium Designer,18.1.7 (191)*
G04*
G04 Layer_Color=8388736*
%FSLAX25Y25*%
%MOIN*%
G70*
G01*
G75*
%ADD10C,0.01000*%
%ADD12C,0.00787*%
%ADD22C,0.00000*%
%ADD23R,0.01981X0.05524*%
%ADD24R,0.05524X0.01981*%
%ADD25R,0.06312X0.05131*%
%ADD26R,0.05131X0.06312*%
%ADD27R,0.12611X0.06706*%
%ADD28R,0.06312X0.05524*%
%ADD29R,0.10249X0.13792*%
%ADD30R,0.10249X0.04737*%
%ADD31C,0.08674*%
%ADD32C,0.07296*%
%ADD33R,0.08280X0.08280*%
%ADD34C,0.08280*%
%ADD35C,0.08280*%
%ADD36O,0.08280X0.08280*%
%ADD37R,0.08280X0.08280*%
%ADD38C,0.06800*%
%ADD39R,0.08280X0.08280*%
%ADD40C,0.13398*%
D10*
X540331Y183000D02*
Y419220D01*
X186000Y183000D02*
X540331D01*
X186000D02*
Y419220D01*
X540331D01*
D12*
X410264Y277488D02*
X427193D01*
Y338512D01*
X410264D02*
X427193D01*
X410264Y277488D02*
Y338512D01*
D22*
X264429Y211000D02*
G03*
X264429Y211000I-3429J0D01*
G01*
Y221000D02*
G03*
X264429Y221000I-3429J0D01*
G01*
X266429Y349500D02*
G03*
X266429Y349500I-3429J0D01*
G01*
X256429D02*
G03*
X256429Y349500I-3429J0D01*
G01*
X219929Y348500D02*
G03*
X219929Y348500I-3429J0D01*
G01*
X209929D02*
G03*
X209929Y348500I-3429J0D01*
G01*
X219929Y393000D02*
G03*
X219929Y393000I-3429J0D01*
G01*
X209929D02*
G03*
X209929Y393000I-3429J0D01*
G01*
D23*
X349173Y272268D02*
D03*
X351142D02*
D03*
X353110D02*
D03*
X355079D02*
D03*
X357047D02*
D03*
X359016D02*
D03*
X360984D02*
D03*
X362953D02*
D03*
X364921D02*
D03*
X366890D02*
D03*
X368858D02*
D03*
X370827D02*
D03*
Y305732D02*
D03*
X368858D02*
D03*
X366890D02*
D03*
X364921D02*
D03*
X362953D02*
D03*
X360984D02*
D03*
X359016D02*
D03*
X357047D02*
D03*
X355079D02*
D03*
X353110D02*
D03*
X351142D02*
D03*
X349173D02*
D03*
D24*
X376732Y278173D02*
D03*
Y280142D02*
D03*
Y282110D02*
D03*
Y284079D02*
D03*
Y286047D02*
D03*
Y288016D02*
D03*
Y289984D02*
D03*
Y291953D02*
D03*
Y293921D02*
D03*
Y295890D02*
D03*
Y297858D02*
D03*
Y299827D02*
D03*
X343268D02*
D03*
Y297858D02*
D03*
Y295890D02*
D03*
Y293921D02*
D03*
Y291953D02*
D03*
Y289984D02*
D03*
Y288016D02*
D03*
Y286047D02*
D03*
Y284079D02*
D03*
Y282110D02*
D03*
Y280142D02*
D03*
Y278173D02*
D03*
D25*
X389697Y272563D02*
D03*
Y280437D02*
D03*
X528000Y346937D02*
D03*
Y339063D02*
D03*
X330500Y286563D02*
D03*
Y294437D02*
D03*
X376500Y314063D02*
D03*
Y321937D02*
D03*
X412000Y241437D02*
D03*
Y233563D02*
D03*
X428500Y241437D02*
D03*
Y233563D02*
D03*
D26*
X322437Y278173D02*
D03*
X314563D02*
D03*
X470437Y298500D02*
D03*
X462563D02*
D03*
X409563Y272563D02*
D03*
X417437D02*
D03*
X345437Y244500D02*
D03*
X337563D02*
D03*
X394437Y247500D02*
D03*
X386563D02*
D03*
X339937Y319500D02*
D03*
X332063D02*
D03*
X510437Y334500D02*
D03*
X502563D02*
D03*
X510437Y350500D02*
D03*
X502563D02*
D03*
D27*
X304500Y328000D02*
D03*
D28*
X363276Y244760D02*
D03*
X372724D02*
D03*
Y252240D02*
D03*
X363276D02*
D03*
D29*
X458583Y330000D02*
D03*
D30*
X481417Y339055D02*
D03*
Y330000D02*
D03*
Y320945D02*
D03*
D31*
X382520Y203500D02*
D03*
X422480D02*
D03*
D32*
X504000Y381500D02*
D03*
Y403154D02*
D03*
D33*
X261000Y211000D02*
D03*
D34*
Y221000D02*
D03*
X263000Y349500D02*
D03*
X216500Y348500D02*
D03*
Y393000D02*
D03*
D35*
X208500Y235000D02*
D03*
D36*
Y225000D02*
D03*
Y215000D02*
D03*
D37*
Y205000D02*
D03*
D38*
X516000Y276000D02*
D03*
X506000D02*
D03*
X474504D02*
D03*
X464504D02*
D03*
X516000Y206709D02*
D03*
X506000D02*
D03*
X474504D02*
D03*
X464504D02*
D03*
X291500Y402500D02*
D03*
Y392500D02*
D03*
Y352500D02*
D03*
Y362500D02*
D03*
Y372500D02*
D03*
Y382500D02*
D03*
D39*
X253000Y349500D02*
D03*
X206500Y348500D02*
D03*
Y393000D02*
D03*
D40*
X209000Y300000D02*
D03*
X517500D02*
D03*
M02*
