G04*
G04 #@! TF.GenerationSoftware,Altium Limited,Altium Designer,18.1.7 (191)*
G04*
G04 Layer_Color=32896*
%FSLAX25Y25*%
%MOIN*%
G70*
G01*
G75*
%ADD10C,0.01000*%
%ADD11C,0.00100*%
%ADD12C,0.00787*%
%ADD13C,0.00200*%
%ADD56C,0.00394*%
D10*
X359286Y191999D02*
X358334Y187000D01*
X359048Y191999D02*
X358334Y188190D01*
X357382Y191999D02*
X358334Y187000D01*
X357382Y191999D02*
X356429Y187000D01*
X357143Y191999D02*
X356429Y188190D01*
X355477Y191999D02*
X356429Y187000D01*
X360000Y191999D02*
X358334D01*
X356191D02*
X354763D01*
X353501D02*
X353739Y191761D01*
X353501Y191523D01*
X353263Y191761D01*
X353501Y191999D01*
Y190333D02*
Y187000D01*
X353263Y190333D02*
Y187000D01*
X354216Y190333D02*
X353263D01*
X354216Y187000D02*
X352549D01*
X350931Y190333D02*
Y187000D01*
X350693Y190333D02*
Y187000D01*
Y189619D02*
X350216Y190095D01*
X349502Y190333D01*
X349026D01*
X348312Y190095D01*
X348074Y189619D01*
Y187000D01*
X349026Y190333D02*
X348550Y190095D01*
X348312Y189619D01*
Y187000D01*
X351645Y190333D02*
X350693D01*
X351645Y187000D02*
X349978D01*
X349026D02*
X347360D01*
X346003Y190333D02*
Y187000D01*
X345765Y190333D02*
Y187000D01*
Y189619D02*
X345289Y190095D01*
X344575Y190333D01*
X344099D01*
X343385Y190095D01*
X343146Y189619D01*
Y187000D01*
X344099Y190333D02*
X343623Y190095D01*
X343385Y189619D01*
Y187000D01*
X346717Y190333D02*
X345765D01*
X346717Y187000D02*
X345051D01*
X344099D02*
X342432D01*
X341075Y191999D02*
X341314Y191761D01*
X341075Y191523D01*
X340837Y191761D01*
X341075Y191999D01*
Y190333D02*
Y187000D01*
X340837Y190333D02*
Y187000D01*
X341790Y190333D02*
X340837D01*
X341790Y187000D02*
X340123D01*
X338981Y188904D02*
X336124D01*
Y189380D01*
X336362Y189857D01*
X336600Y190095D01*
X337076Y190333D01*
X337790D01*
X338505Y190095D01*
X338981Y189619D01*
X339219Y188904D01*
Y188428D01*
X338981Y187714D01*
X338505Y187238D01*
X337790Y187000D01*
X337314D01*
X336600Y187238D01*
X336124Y187714D01*
X336362Y188904D02*
Y189619D01*
X336600Y190095D01*
X337790Y190333D02*
X338267Y190095D01*
X338743Y189619D01*
X338981Y188904D01*
Y188428D01*
X338743Y187714D01*
X338267Y187238D01*
X337790Y187000D01*
X335124Y187476D02*
X335362Y187238D01*
X335124Y187000D01*
X334886Y187238D01*
X335124Y187476D01*
X329126Y191047D02*
X328888Y190809D01*
X329126Y190571D01*
X329364Y190809D01*
Y191047D01*
X329126Y191523D01*
X328888Y191761D01*
X328173Y191999D01*
X327221D01*
X326507Y191761D01*
X326269Y191523D01*
X326031Y191047D01*
Y190571D01*
X326269Y190095D01*
X326983Y189619D01*
X328173Y189142D01*
X328650Y188904D01*
X329126Y188428D01*
X329364Y187714D01*
Y187000D01*
X327221Y191999D02*
X326745Y191761D01*
X326507Y191523D01*
X326269Y191047D01*
Y190571D01*
X326507Y190095D01*
X327221Y189619D01*
X328173Y189142D01*
X329364Y187476D02*
X329126Y187714D01*
X328650D01*
X327459Y187238D01*
X326745D01*
X326269Y187476D01*
X326031Y187714D01*
Y188190D01*
X328650Y187714D02*
X327459Y187000D01*
X326507D01*
X326269Y187238D01*
X326031Y187714D01*
X324817Y191999D02*
X325293Y189619D01*
X324817Y190095D01*
X324103Y190333D01*
X323389D01*
X322675Y190095D01*
X322199Y189619D01*
X321960Y188904D01*
Y188428D01*
X322199Y187714D01*
X322675Y187238D01*
X323389Y187000D01*
X324103D01*
X324817Y187238D01*
X325055Y187476D01*
X325293Y187952D01*
Y188190D01*
X325055Y188428D01*
X324817Y188190D01*
X325055Y187952D01*
X323389Y190333D02*
X322913Y190095D01*
X322437Y189619D01*
X322199Y188904D01*
Y188428D01*
X322437Y187714D01*
X322913Y187238D01*
X323389Y187000D01*
X324817Y191999D02*
X322437D01*
X324817Y191761D02*
X323627D01*
X322437Y191999D01*
X316700Y191047D02*
X320746Y187000D01*
X321223D01*
X316224Y191999D01*
X315748D01*
X316700Y191047D01*
X314438Y191999D02*
X315152Y191761D01*
X315629Y191047D01*
X315867Y189857D01*
Y189142D01*
X315629Y187952D01*
X315152Y187238D01*
X314438Y187000D01*
X313962D01*
X313248Y187238D01*
X312772Y187952D01*
X312534Y189142D01*
Y189857D01*
X312772Y191047D01*
X313248Y191761D01*
X313962Y191999D01*
X314438D01*
X314914Y191761D01*
X315152Y191523D01*
X315390Y191047D01*
X315629Y189857D01*
Y189142D01*
X315390Y187952D01*
X315152Y187476D01*
X314914Y187238D01*
X314438Y187000D01*
X313962D02*
X313486Y187238D01*
X313248Y187476D01*
X313010Y187952D01*
X312772Y189142D01*
Y189857D01*
X313010Y191047D01*
X313248Y191523D01*
X313486Y191761D01*
X313962Y191999D01*
X311320D02*
X311796Y189619D01*
X311320Y190095D01*
X310606Y190333D01*
X309892D01*
X309177Y190095D01*
X308701Y189619D01*
X308463Y188904D01*
Y188428D01*
X308701Y187714D01*
X309177Y187238D01*
X309892Y187000D01*
X310606D01*
X311320Y187238D01*
X311558Y187476D01*
X311796Y187952D01*
Y188190D01*
X311558Y188428D01*
X311320Y188190D01*
X311558Y187952D01*
X309892Y190333D02*
X309416Y190095D01*
X308940Y189619D01*
X308701Y188904D01*
Y188428D01*
X308940Y187714D01*
X309416Y187238D01*
X309892Y187000D01*
X311320Y191999D02*
X308940D01*
X311320Y191761D02*
X310130D01*
X308940Y191999D01*
X303203Y191047D02*
X307249Y187000D01*
X307726D01*
X302727Y191999D01*
X302250D01*
X303203Y191047D01*
X302131D02*
X301893Y190809D01*
X302131Y190571D01*
X302369Y190809D01*
Y191047D01*
X302131Y191523D01*
X301893Y191761D01*
X301179Y191999D01*
X300227D01*
X299513Y191761D01*
X299275Y191523D01*
X299037Y191047D01*
Y190571D01*
X299275Y190095D01*
X299989Y189619D01*
X301179Y189142D01*
X301655Y188904D01*
X302131Y188428D01*
X302369Y187714D01*
Y187000D01*
X300227Y191999D02*
X299751Y191761D01*
X299513Y191523D01*
X299275Y191047D01*
Y190571D01*
X299513Y190095D01*
X300227Y189619D01*
X301179Y189142D01*
X302369Y187476D02*
X302131Y187714D01*
X301655D01*
X300465Y187238D01*
X299751D01*
X299275Y187476D01*
X299037Y187714D01*
Y188190D01*
X301655Y187714D02*
X300465Y187000D01*
X299513D01*
X299275Y187238D01*
X299037Y187714D01*
X296871Y191999D02*
X297585Y191761D01*
X298061Y191047D01*
X298299Y189857D01*
Y189142D01*
X298061Y187952D01*
X297585Y187238D01*
X296871Y187000D01*
X296394D01*
X295680Y187238D01*
X295204Y187952D01*
X294966Y189142D01*
Y189857D01*
X295204Y191047D01*
X295680Y191761D01*
X296394Y191999D01*
X296871D01*
X297347Y191761D01*
X297585Y191523D01*
X297823Y191047D01*
X298061Y189857D01*
Y189142D01*
X297823Y187952D01*
X297585Y187476D01*
X297347Y187238D01*
X296871Y187000D01*
X296394D02*
X295918Y187238D01*
X295680Y187476D01*
X295442Y187952D01*
X295204Y189142D01*
Y189857D01*
X295442Y191047D01*
X295680Y191523D01*
X295918Y191761D01*
X296394Y191999D01*
X293990Y191047D02*
X293752Y190809D01*
X293990Y190571D01*
X294228Y190809D01*
Y191047D01*
X293990Y191523D01*
X293752Y191761D01*
X293038Y191999D01*
X292086D01*
X291372Y191761D01*
X291134Y191523D01*
X290896Y191047D01*
Y190571D01*
X291134Y190095D01*
X291848Y189619D01*
X293038Y189142D01*
X293514Y188904D01*
X293990Y188428D01*
X294228Y187714D01*
Y187000D01*
X292086Y191999D02*
X291610Y191761D01*
X291372Y191523D01*
X291134Y191047D01*
Y190571D01*
X291372Y190095D01*
X292086Y189619D01*
X293038Y189142D01*
X294228Y187476D02*
X293990Y187714D01*
X293514D01*
X292324Y187238D01*
X291610D01*
X291134Y187476D01*
X290896Y187714D01*
Y188190D01*
X293514Y187714D02*
X292324Y187000D01*
X291372D01*
X291134Y187238D01*
X290896Y187714D01*
X289920Y191047D02*
X289682Y190809D01*
X289920Y190571D01*
X290158Y190809D01*
Y191047D01*
X289920Y191523D01*
X289682Y191761D01*
X288967Y191999D01*
X288015D01*
X287301Y191761D01*
X287063Y191285D01*
Y190571D01*
X287301Y190095D01*
X288015Y189857D01*
X288730D01*
X288015Y191999D02*
X287539Y191761D01*
X287301Y191285D01*
Y190571D01*
X287539Y190095D01*
X288015Y189857D01*
X287539Y189619D01*
X287063Y189142D01*
X286825Y188666D01*
Y187952D01*
X287063Y187476D01*
X287301Y187238D01*
X288015Y187000D01*
X288967D01*
X289682Y187238D01*
X289920Y187476D01*
X290158Y187952D01*
Y188190D01*
X289920Y188428D01*
X289682Y188190D01*
X289920Y187952D01*
X287301Y189380D02*
X287063Y188666D01*
Y187952D01*
X287301Y187476D01*
X287539Y187238D01*
X288015Y187000D01*
X540331Y183000D02*
Y419220D01*
X186000Y183000D02*
X540331D01*
X186000D02*
Y419220D01*
X540331D01*
D11*
X300500Y267700D02*
X300600D01*
X306300Y235200D02*
X308900D01*
X306300Y235100D02*
X308500D01*
X306300Y235000D02*
X308000D01*
X306400Y234900D02*
X307600D01*
X306400Y234800D02*
X307100D01*
X306500Y234700D02*
X306700D01*
X312000Y244400D02*
X316000D01*
X312000Y244300D02*
X316000D01*
X312100Y244200D02*
X316000D01*
X312100Y244100D02*
X315900D01*
X312200Y244000D02*
X315900D01*
X312200Y243900D02*
X315800D01*
X312300Y243800D02*
X315800D01*
X312400Y243700D02*
X315700D01*
X312500Y243600D02*
X315600D01*
X312700Y243500D02*
X315500D01*
X312800Y243400D02*
X315400D01*
X313000Y243300D02*
X315200D01*
X313200Y243200D02*
X315000D01*
X313600Y243100D02*
X314700D01*
X310400Y251300D02*
X315600D01*
X310600Y251200D02*
X315600D01*
X310800Y251100D02*
X315700D01*
X310900Y251000D02*
X315700D01*
X311000Y250900D02*
X315700D01*
X311100Y250800D02*
X315700D01*
X311100Y250700D02*
X315700D01*
X311200Y250600D02*
X315700D01*
X311200Y250500D02*
X315700D01*
X311300Y250400D02*
X315700D01*
X311300Y250300D02*
X315700D01*
X311300Y250200D02*
X315700D01*
X311300Y250100D02*
X315700D01*
X311300Y250000D02*
X315700D01*
X311300Y249900D02*
X315800D01*
X311300Y249800D02*
X315800D01*
X311300Y249700D02*
X315800D01*
X311300Y249600D02*
X315800D01*
X311300Y249500D02*
X315800D01*
X311300Y249400D02*
X315800D01*
X311400Y249300D02*
X315800D01*
X311400Y249200D02*
X315800D01*
X311400Y249100D02*
X315800D01*
X311400Y249000D02*
X315800D01*
X311400Y248900D02*
X315800D01*
X311400Y248800D02*
X315900D01*
X311400Y248700D02*
X315900D01*
X311400Y248600D02*
X315900D01*
X311400Y248500D02*
X315900D01*
X311400Y248400D02*
X315900D01*
X311400Y248300D02*
X315900D01*
X311400Y248200D02*
X315900D01*
X311500Y248100D02*
X315900D01*
X311500Y248000D02*
X315900D01*
X311500Y247900D02*
X315900D01*
X311500Y247800D02*
X315900D01*
X311500Y247700D02*
X316000D01*
X311500Y247600D02*
X316000D01*
X311500Y247500D02*
X316000D01*
X311500Y247400D02*
X316000D01*
X311500Y247300D02*
X316000D01*
X311500Y247200D02*
X316000D01*
X311500Y247100D02*
X316000D01*
X311500Y247000D02*
X316000D01*
X311600Y246900D02*
X316000D01*
X311600Y246800D02*
X316000D01*
X311600Y246700D02*
X316000D01*
X311600Y246600D02*
X316000D01*
X311600Y246500D02*
X316100D01*
X311600Y246400D02*
X316100D01*
X311600Y246300D02*
X316100D01*
X311600Y246200D02*
X316100D01*
X311600Y246100D02*
X316100D01*
X311600Y246000D02*
X316100D01*
X311600Y245900D02*
X316100D01*
X311700Y245800D02*
X316100D01*
X311700Y245700D02*
X316100D01*
X311700Y245600D02*
X316100D01*
X311700Y245500D02*
X316100D01*
X311700Y245400D02*
X316100D01*
X311700Y245300D02*
X316100D01*
X311800Y245200D02*
X316100D01*
X311800Y245100D02*
X316100D01*
X311800Y245000D02*
X316100D01*
X311800Y244900D02*
X316100D01*
X311900Y244800D02*
X316100D01*
X311900Y244700D02*
X316100D01*
X311900Y244600D02*
X316100D01*
X317900Y244400D02*
X322000D01*
X317800Y244300D02*
X322100D01*
X317800Y244200D02*
X322100D01*
X317800Y244100D02*
X322200D01*
X317800Y244000D02*
X322200D01*
X317800Y243900D02*
X322300D01*
X317700Y243800D02*
X322300D01*
X317700Y243700D02*
X322400D01*
X317700Y243600D02*
X322400D01*
X317600Y243500D02*
X322500D01*
X317600Y243400D02*
X322600D01*
X317500Y243300D02*
X322600D01*
X317500Y243200D02*
X322700D01*
X317400Y243100D02*
X322700D01*
X317300Y243000D02*
X322800D01*
X317300Y242900D02*
X322800D01*
X317200Y242800D02*
X322900D01*
X317100Y242700D02*
X323000D01*
X317500Y250100D02*
X318800D01*
X317600Y250000D02*
X318800D01*
X317600Y249900D02*
X318900D01*
X317600Y249800D02*
X319000D01*
X317600Y249700D02*
X319000D01*
X317600Y249600D02*
X319100D01*
X317600Y249500D02*
X319100D01*
X317600Y249400D02*
X319200D01*
X317600Y249300D02*
X319200D01*
X317600Y249200D02*
X319300D01*
X321000Y249100D02*
X324900D01*
X317600D02*
X319400D01*
X321100Y249000D02*
X324900D01*
X317600D02*
X319400D01*
X321100Y248900D02*
X324900D01*
X317600D02*
X319500D01*
X321200Y248800D02*
X324800D01*
X317700D02*
X319500D01*
X321200Y248700D02*
X324800D01*
X317700D02*
X319600D01*
X321300Y248600D02*
X324800D01*
X317700D02*
X319600D01*
X321300Y248500D02*
X324700D01*
X317700D02*
X319700D01*
X321400Y248400D02*
X324700D01*
X317700D02*
X319700D01*
X321500Y248300D02*
X324700D01*
X317700D02*
X319800D01*
X321500Y248200D02*
X324600D01*
X317700D02*
X319900D01*
X321600Y248100D02*
X324600D01*
X317700D02*
X319900D01*
X321600Y248000D02*
X324600D01*
X317700D02*
X320000D01*
X321700Y247900D02*
X324600D01*
X317700D02*
X320000D01*
X321700Y247800D02*
X324500D01*
X317700D02*
X320100D01*
X321800Y247700D02*
X324500D01*
X317700D02*
X320100D01*
X321800Y247600D02*
X324500D01*
X317800D02*
X320200D01*
X321900Y247500D02*
X324400D01*
X317800D02*
X320300D01*
X321900Y247400D02*
X324400D01*
X317800D02*
X320300D01*
X322000Y247300D02*
X324400D01*
X317800D02*
X320400D01*
X322100Y247200D02*
X324300D01*
X317800D02*
X320400D01*
X322100Y247100D02*
X324300D01*
X317800D02*
X320500D01*
X322200Y247000D02*
X324300D01*
X317800D02*
X320500D01*
X322200Y246900D02*
X324200D01*
X317800D02*
X320600D01*
X322300Y246800D02*
X324200D01*
X317800D02*
X320600D01*
X322300Y246700D02*
X324200D01*
X317800D02*
X320700D01*
X322400Y246600D02*
X324100D01*
X317800D02*
X320800D01*
X322400Y246500D02*
X324100D01*
X317800D02*
X320800D01*
X322500Y246400D02*
X324100D01*
X317900D02*
X320900D01*
X322500Y246300D02*
X324000D01*
X317900D02*
X320900D01*
X322600Y246200D02*
X324000D01*
X317900D02*
X321000D01*
X322700Y246100D02*
X324000D01*
X317900D02*
X321000D01*
X322700Y246000D02*
X323900D01*
X317900D02*
X321100D01*
X322800Y245900D02*
X323900D01*
X317900D02*
X321200D01*
X322800Y245800D02*
X323900D01*
X317900D02*
X321200D01*
X322900Y245700D02*
X323900D01*
X317900D02*
X321300D01*
X322900Y245600D02*
X323800D01*
X317900D02*
X321300D01*
X323000Y245500D02*
X323800D01*
X317900D02*
X321400D01*
X323000Y245400D02*
X323800D01*
X317900D02*
X321400D01*
X323100Y245300D02*
X323700D01*
X317900D02*
X321500D01*
X323100Y245200D02*
X323700D01*
X317900D02*
X321600D01*
X323200Y245100D02*
X323700D01*
X317900D02*
X321600D01*
X323300Y245000D02*
X323600D01*
X317900D02*
X321700D01*
X323300Y244900D02*
X323600D01*
X317900D02*
X321700D01*
X323400Y244800D02*
X323600D01*
X317900D02*
X321800D01*
X323400Y244700D02*
X323500D01*
X317900D02*
X321800D01*
X317900Y244600D02*
X321900D01*
X325300Y244400D02*
X329900D01*
X325300Y244300D02*
X329900D01*
X325200Y244200D02*
X329900D01*
X325200Y244100D02*
X329900D01*
X325200Y244000D02*
X329900D01*
X325100Y243900D02*
X329900D01*
X325100Y243800D02*
X329900D01*
X325100Y243700D02*
X329900D01*
X325800Y240300D02*
X332600D01*
X325900Y240200D02*
X332100D01*
X325900Y240100D02*
X331600D01*
X326000Y240000D02*
X331200D01*
X326000Y239900D02*
X330700D01*
X326100Y239800D02*
X330300D01*
X326100Y239700D02*
X329800D01*
X326200Y239600D02*
X329300D01*
X326300Y239500D02*
X328900D01*
X326300Y239400D02*
X328400D01*
X326400Y239300D02*
X327900D01*
X326400Y239200D02*
X327500D01*
X326500Y239100D02*
X327000D01*
X329400Y251900D02*
X332400D01*
X329800Y251800D02*
X332400D01*
X330200Y251700D02*
X332400D01*
X330700Y251600D02*
X332400D01*
X331000Y251500D02*
X332400D01*
X331100Y251400D02*
X332500D01*
X331100Y251300D02*
X332500D01*
X331100Y251200D02*
X332600D01*
X331100Y251100D02*
X332600D01*
X331100Y251000D02*
X332700D01*
X331100Y250900D02*
X332800D01*
X331200Y250100D02*
X332600D01*
X327500D02*
X328000D01*
X331200Y250000D02*
X332600D01*
X327500D02*
X328000D01*
X331200Y249900D02*
X332600D01*
X327500D02*
X328100D01*
X331200Y249800D02*
X332600D01*
X327600D02*
X328100D01*
X331200Y249700D02*
X332600D01*
X327600D02*
X328100D01*
X331200Y249600D02*
X332600D01*
X327600D02*
X328100D01*
X331200Y249500D02*
X332600D01*
X327600D02*
X328100D01*
X331200Y249400D02*
X332600D01*
X327600D02*
X328100D01*
X331200Y249300D02*
X332700D01*
X327600D02*
X328100D01*
X331200Y249200D02*
X332700D01*
X327600D02*
X328100D01*
X331200Y249100D02*
X332700D01*
X327600D02*
X328100D01*
X331300Y249000D02*
X332700D01*
X327600D02*
X328200D01*
X331300Y248900D02*
X332700D01*
X326700D02*
X329500D01*
X331300Y248800D02*
X332700D01*
X326700D02*
X329500D01*
X331300Y248700D02*
X332700D01*
X326700D02*
X329500D01*
X331300Y248600D02*
X332700D01*
X326600D02*
X329500D01*
X331300Y248500D02*
X332700D01*
X326600D02*
X329500D01*
X331300Y248400D02*
X332700D01*
X326600D02*
X329500D01*
X331300Y248300D02*
X332700D01*
X326500D02*
X329500D01*
X331300Y248200D02*
X332700D01*
X326500D02*
X329600D01*
X331300Y248100D02*
X332800D01*
X326500D02*
X329600D01*
X331300Y248000D02*
X332800D01*
X326400D02*
X329600D01*
X331400Y247900D02*
X332800D01*
X326400D02*
X329600D01*
X331400Y247800D02*
X332800D01*
X326400D02*
X329600D01*
X331400Y247700D02*
X332800D01*
X326300D02*
X329600D01*
X331400Y247600D02*
X332800D01*
X326300D02*
X329600D01*
X331400Y247500D02*
X332800D01*
X326300D02*
X329600D01*
X331400Y247400D02*
X332800D01*
X326300D02*
X329600D01*
X331400Y247300D02*
X332800D01*
X326200D02*
X329600D01*
X331400Y247200D02*
X332800D01*
X326200D02*
X329600D01*
X331400Y247100D02*
X332800D01*
X326200D02*
X329600D01*
X331400Y247000D02*
X332900D01*
X326100D02*
X329700D01*
X331400Y246900D02*
X332900D01*
X326100D02*
X329700D01*
X331400Y246800D02*
X332900D01*
X326100D02*
X329700D01*
X331500Y246700D02*
X332900D01*
X326000D02*
X329700D01*
X331500Y246600D02*
X332900D01*
X326000D02*
X329700D01*
X331500Y246500D02*
X332900D01*
X326000D02*
X329700D01*
X331500Y246400D02*
X332900D01*
X325900D02*
X329700D01*
X331500Y246300D02*
X332900D01*
X325900D02*
X329700D01*
X331500Y246200D02*
X332900D01*
X325900D02*
X329700D01*
X331500Y246100D02*
X332900D01*
X325800D02*
X329700D01*
X331500Y246000D02*
X332900D01*
X325800D02*
X329700D01*
X325800Y245900D02*
X329800D01*
X325700Y245800D02*
X329800D01*
X325700Y245700D02*
X329800D01*
X325700Y245600D02*
X329800D01*
X325600Y245500D02*
X329800D01*
X325600Y245400D02*
X329800D01*
X325600Y245300D02*
X329800D01*
X325600Y245200D02*
X329800D01*
X325500Y245100D02*
X329800D01*
X325500Y245000D02*
X329800D01*
X325500Y244900D02*
X329800D01*
X325400Y244800D02*
X329800D01*
X325400Y244700D02*
X329900D01*
X325400Y244600D02*
X329900D01*
X337200Y243600D02*
X340800D01*
X334900D02*
X336900D01*
X337500Y243500D02*
X340600D01*
X334900D02*
X336600D01*
X337900Y243400D02*
X340300D01*
X334900D02*
X336500D01*
X338500Y243300D02*
X339800D01*
X334900D02*
X336300D01*
X334900Y243200D02*
X336200D01*
X334900Y243100D02*
X336200D01*
X334900Y243000D02*
X336100D01*
X334900Y242900D02*
X336100D01*
X334800Y242800D02*
X336300D01*
X334800Y242700D02*
X336500D01*
X334800Y242600D02*
X336700D01*
X334700Y242500D02*
X336800D01*
X334600Y242400D02*
X337100D01*
X334500Y242300D02*
X337300D01*
X334400Y242200D02*
X337600D01*
X334300Y242100D02*
X337900D01*
X334100Y242000D02*
X338400D01*
X333700Y241900D02*
X339100D01*
X333600Y252400D02*
X336200D01*
X333800Y252300D02*
X335900D01*
X333900Y252200D02*
X335700D01*
X334000Y252100D02*
X335500D01*
X334100Y252000D02*
X335500D01*
X334100Y251900D02*
X335500D01*
X334100Y251800D02*
X335500D01*
X334200Y251700D02*
X335500D01*
X334200Y251600D02*
X335500D01*
X334200Y251500D02*
X335500D01*
X334200Y251400D02*
X335500D01*
X337600Y251300D02*
X339300D01*
X334200D02*
X335500D01*
X337200Y251200D02*
X339800D01*
X334100D02*
X335600D01*
X336900Y251100D02*
X340100D01*
X334100D02*
X335600D01*
X336800Y251000D02*
X340300D01*
X334000D02*
X335600D01*
X336800Y250900D02*
X340500D01*
X333900D02*
X335600D01*
X336800Y250800D02*
X340600D01*
X333700D02*
X335600D01*
X336800Y250700D02*
X340800D01*
X336900Y250600D02*
X340900D01*
X343700Y243800D02*
X348800D01*
X343600Y243700D02*
X348300D01*
X343600Y243600D02*
X347900D01*
X343500Y243500D02*
X347400D01*
X343400Y243400D02*
X346900D01*
X343300Y243300D02*
X346500D01*
X343200Y243200D02*
X346000D01*
X343100Y243100D02*
X345500D01*
X343000Y243000D02*
X345100D01*
X342900Y242900D02*
X344600D01*
X342700Y242800D02*
X344100D01*
X342500Y242700D02*
X343700D01*
X342400Y242600D02*
X343200D01*
X342200Y242500D02*
X342800D01*
X342000Y242400D02*
X342300D01*
X341200Y252200D02*
X345500D01*
X341400Y252100D02*
X345600D01*
X341600Y252000D02*
X345700D01*
X341700Y251900D02*
X345800D01*
X341900Y251800D02*
X345800D01*
X342000Y251700D02*
X345900D01*
X342100Y251600D02*
X346000D01*
X342300Y251500D02*
X346100D01*
X342400Y251400D02*
X346100D01*
X342500Y251300D02*
X346200D01*
X342600Y251200D02*
X346300D01*
X342700Y251100D02*
X346400D01*
X342800Y251000D02*
X346400D01*
X342900Y250900D02*
X346500D01*
X343000Y250800D02*
X346600D01*
X343100Y250700D02*
X346700D01*
X343100Y250600D02*
X346800D01*
X343200Y250500D02*
X346800D01*
X343300Y250400D02*
X346900D01*
X343400Y250300D02*
X347000D01*
X343400Y250200D02*
X347100D01*
X343500Y250100D02*
X347100D01*
X343500Y250000D02*
X347200D01*
X343600Y249900D02*
X347300D01*
X343700Y249800D02*
X347400D01*
X343700Y249700D02*
X347400D01*
X343800Y249600D02*
X347500D01*
X343800Y249500D02*
X347600D01*
X343900Y249400D02*
X347700D01*
X343900Y249300D02*
X347700D01*
X343900Y249200D02*
X347800D01*
X344000Y249100D02*
X347900D01*
X344000Y249000D02*
X348000D01*
X344100Y248900D02*
X348100D01*
X344100Y248800D02*
X348100D01*
X344100Y248700D02*
X348200D01*
X344200Y248600D02*
X348300D01*
X344200Y248500D02*
X348400D01*
X344200Y248400D02*
X348400D01*
X344200Y248300D02*
X348500D01*
X344300Y248200D02*
X348600D01*
X344300Y248100D02*
X348700D01*
X344300Y248000D02*
X348700D01*
X344300Y247900D02*
X348800D01*
X344400Y247800D02*
X348900D01*
X311900Y244500D02*
X316100D01*
X317900D02*
X321900D01*
X325300D02*
X329900D01*
X333300Y252500D02*
X336500D01*
X306000Y236400D02*
X314500D01*
X306000Y236300D02*
X314000D01*
X306000Y236200D02*
X313600D01*
X306100Y236100D02*
X313100D01*
X306100Y236000D02*
X312700D01*
X306100Y235900D02*
X312200D01*
X306100Y235800D02*
X311700D01*
X306200Y235700D02*
X311300D01*
X306200Y235600D02*
X310800D01*
X306200Y235500D02*
X310300D01*
X306200Y235400D02*
X309900D01*
X306300Y235300D02*
X309400D01*
X303900Y244400D02*
X310500D01*
X304000Y244300D02*
X310500D01*
X304000Y244200D02*
X310500D01*
X304000Y244100D02*
X310600D01*
X304000Y244000D02*
X310600D01*
X304100Y243900D02*
X310700D01*
X304100Y243800D02*
X310700D01*
X304100Y243700D02*
X310800D01*
X304100Y243600D02*
X310900D01*
X304200Y243500D02*
X310900D01*
X304200Y243400D02*
X311000D01*
X304200Y243300D02*
X311100D01*
X304200Y243200D02*
X311200D01*
X304300Y243100D02*
X311200D01*
X304300Y243000D02*
X311300D01*
X304300Y242900D02*
X311400D01*
X304400Y242800D02*
X311500D01*
X304400Y242700D02*
X311700D01*
X304400Y242600D02*
X311800D01*
X304400Y242500D02*
X311900D01*
X304500Y242400D02*
X312100D01*
X304500Y242300D02*
X312300D01*
X304500Y242200D02*
X312500D01*
X304500Y242100D02*
X312700D01*
X304600Y242000D02*
X313100D01*
X304600Y241900D02*
X313600D01*
X305700Y237700D02*
X320500D01*
X305700Y237600D02*
X320100D01*
X305700Y237500D02*
X319600D01*
X305700Y237400D02*
X319100D01*
X305800Y237300D02*
X318700D01*
X305800Y237200D02*
X318200D01*
X305800Y237100D02*
X317700D01*
X305800Y237000D02*
X317300D01*
X305900Y236900D02*
X316800D01*
X305900Y236800D02*
X316400D01*
X305900Y236700D02*
X315900D01*
X305900Y236600D02*
X315400D01*
X302200Y251300D02*
X309700D01*
X302200Y251200D02*
X309700D01*
X302200Y251100D02*
X309700D01*
X302300Y251000D02*
X309700D01*
X302300Y250900D02*
X309700D01*
X302300Y250800D02*
X309700D01*
X302300Y250700D02*
X309800D01*
X302400Y250600D02*
X309800D01*
X302400Y250500D02*
X309800D01*
X302400Y250400D02*
X309800D01*
X302400Y250300D02*
X309800D01*
X302500Y250200D02*
X309800D01*
X302500Y250100D02*
X309800D01*
X302500Y250000D02*
X309800D01*
X302500Y249900D02*
X309800D01*
X302600Y249800D02*
X309800D01*
X302600Y249700D02*
X309800D01*
X302600Y249600D02*
X309900D01*
X302600Y249500D02*
X309900D01*
X302700Y249400D02*
X309900D01*
X302700Y249300D02*
X309900D01*
X302700Y249200D02*
X309900D01*
X302700Y249100D02*
X309900D01*
X302800Y249000D02*
X309900D01*
X302800Y248900D02*
X309900D01*
X302800Y248800D02*
X309900D01*
X302800Y248700D02*
X309900D01*
X302900Y248600D02*
X309900D01*
X302900Y248500D02*
X310000D01*
X302900Y248400D02*
X310000D01*
X302900Y248300D02*
X310000D01*
X303000Y248200D02*
X310000D01*
X303000Y248100D02*
X310000D01*
X303000Y248000D02*
X310000D01*
X303100Y247900D02*
X310000D01*
X303100Y247800D02*
X310000D01*
X303100Y247700D02*
X310000D01*
X303100Y247600D02*
X310000D01*
X303200Y247500D02*
X310000D01*
X303200Y247400D02*
X310000D01*
X303200Y247300D02*
X310100D01*
X303200Y247200D02*
X310100D01*
X303300Y247100D02*
X310100D01*
X303300Y247000D02*
X310100D01*
X303300Y246900D02*
X310100D01*
X303300Y246800D02*
X310100D01*
X303400Y246700D02*
X310100D01*
X303400Y246600D02*
X310100D01*
X303400Y246500D02*
X310100D01*
X303400Y246400D02*
X310100D01*
X303500Y246300D02*
X310100D01*
X303500Y246200D02*
X310200D01*
X303500Y246100D02*
X310200D01*
X303500Y246000D02*
X310200D01*
X303600Y245900D02*
X310200D01*
X303600Y245800D02*
X310200D01*
X303600Y245700D02*
X310200D01*
X303600Y245600D02*
X310200D01*
X303700Y245500D02*
X310200D01*
X303700Y245400D02*
X310300D01*
X303700Y245300D02*
X310300D01*
X303700Y245200D02*
X310300D01*
X303800Y245100D02*
X310300D01*
X303800Y245000D02*
X310300D01*
X303800Y244900D02*
X310300D01*
X303800Y244800D02*
X310400D01*
X303900Y244700D02*
X310400D01*
X303900Y244600D02*
X310400D01*
X300400Y267600D02*
X301000D01*
X300400Y267500D02*
X301400D01*
X300400Y267400D02*
X301700D01*
X300300Y267300D02*
X302100D01*
X300300Y267200D02*
X302500D01*
X300300Y267100D02*
X302900D01*
X300200Y267000D02*
X303300D01*
X300200Y266900D02*
X303600D01*
X300200Y266800D02*
X304000D01*
X300100Y266700D02*
X304400D01*
X300100Y266600D02*
X304800D01*
X300100Y266500D02*
X305200D01*
X300100Y266400D02*
X305600D01*
X300000Y266300D02*
X305900D01*
X300000Y266200D02*
X306300D01*
X300000Y266100D02*
X306700D01*
X299900Y266000D02*
X307100D01*
X299900Y265900D02*
X307500D01*
X299900Y265800D02*
X307800D01*
X299800Y265700D02*
X308200D01*
X299800Y265600D02*
X308600D01*
X299800Y265500D02*
X309000D01*
X299800Y265400D02*
X309400D01*
X299700Y265300D02*
X309800D01*
X299700Y265200D02*
X310100D01*
X299700Y265100D02*
X310500D01*
X299600Y265000D02*
X310900D01*
X299600Y264900D02*
X311300D01*
X299600Y264800D02*
X311700D01*
X299500Y264700D02*
X312000D01*
X299500Y264600D02*
X312400D01*
X299500Y264500D02*
X312800D01*
X299500Y264400D02*
X313200D01*
X299400Y264300D02*
X313600D01*
X299400Y264200D02*
X313900D01*
X299400Y264100D02*
X314300D01*
X299300Y264000D02*
X314700D01*
X299300Y263900D02*
X315100D01*
X299300Y263800D02*
X315500D01*
X299200Y263700D02*
X315900D01*
X299200Y263600D02*
X316200D01*
X299200Y263500D02*
X316600D01*
X299200Y263400D02*
X317000D01*
X299100Y263300D02*
X317400D01*
X299100Y263200D02*
X317800D01*
X299100Y263100D02*
X318100D01*
X299100Y263000D02*
X318500D01*
X299100Y262900D02*
X318900D01*
X299100Y262800D02*
X319300D01*
X299200Y262700D02*
X319700D01*
X299200Y262600D02*
X320100D01*
X299200Y262500D02*
X320400D01*
X299200Y262400D02*
X320800D01*
X344100Y244400D02*
X351300D01*
X334800D02*
X341900D01*
X331700D02*
X333100D01*
X344000Y244300D02*
X351100D01*
X334900D02*
X341800D01*
X331700D02*
X333100D01*
X344000Y244200D02*
X350600D01*
X334900D02*
X341700D01*
X331700D02*
X333100D01*
X343900Y244100D02*
X350200D01*
X334900D02*
X341600D01*
X331700D02*
X333100D01*
X343800Y244000D02*
X349700D01*
X334900D02*
X341500D01*
X331700D02*
X333100D01*
X343800Y243900D02*
X349300D01*
X334900D02*
X341400D01*
X331700D02*
X333100D01*
X334900Y243800D02*
X341200D01*
X331600D02*
X333100D01*
X334900Y243700D02*
X341000D01*
X331600D02*
X333100D01*
X331600Y243600D02*
X333200D01*
X325000D02*
X329800D01*
X331600Y243500D02*
X333200D01*
X325000D02*
X329800D01*
X331600Y243400D02*
X333200D01*
X325000D02*
X329800D01*
X331600Y243300D02*
X333200D01*
X324900D02*
X329700D01*
X331500Y243200D02*
X333200D01*
X324900D02*
X329600D01*
X331500Y243100D02*
X333200D01*
X324900D02*
X329500D01*
X331500Y243000D02*
X333200D01*
X324800D02*
X328800D01*
X331400Y242900D02*
X333200D01*
X324800D02*
X328500D01*
X331400Y242800D02*
X333200D01*
X324800D02*
X328400D01*
X331300Y242700D02*
X333200D01*
X324800D02*
X328300D01*
X331300Y242600D02*
X333200D01*
X324700D02*
X328200D01*
X331200Y242500D02*
X333200D01*
X324700D02*
X328200D01*
X331100Y242400D02*
X333300D01*
X324700D02*
X328100D01*
X331000Y242300D02*
X333300D01*
X324700D02*
X328100D01*
X330800Y242200D02*
X333300D01*
X324800D02*
X328100D01*
X330600Y242100D02*
X333300D01*
X324800D02*
X328100D01*
X330400Y242000D02*
X333300D01*
X324900D02*
X328300D01*
X329900Y241900D02*
X333300D01*
X324900D02*
X328900D01*
X325000Y241800D02*
X339500D01*
X325100Y241700D02*
X339100D01*
X325100Y241600D02*
X338600D01*
X325200Y241500D02*
X338100D01*
X325200Y241400D02*
X337700D01*
X325300Y241300D02*
X337200D01*
X325300Y241200D02*
X336700D01*
X325400Y241100D02*
X336300D01*
X325400Y241000D02*
X335800D01*
X325500Y240900D02*
X335400D01*
X325500Y240800D02*
X334900D01*
X325600Y240700D02*
X334400D01*
X325700Y240600D02*
X334000D01*
X325700Y240500D02*
X333500D01*
X325800Y240400D02*
X333000D01*
X340700Y252400D02*
X345400D01*
X341000Y252300D02*
X345500D01*
X331100Y250800D02*
X333000D01*
X331100Y250700D02*
X335600D01*
X331100Y250600D02*
X335600D01*
X336900Y250500D02*
X341000D01*
X331100D02*
X335600D01*
X331100Y250400D02*
X341100D01*
X331100Y250300D02*
X341200D01*
X331200Y250200D02*
X341300D01*
X335300Y250100D02*
X341400D01*
X335300Y250000D02*
X341500D01*
X335300Y249900D02*
X341600D01*
X335300Y249800D02*
X341600D01*
X335300Y249700D02*
X341700D01*
X335300Y249600D02*
X341800D01*
X335300Y249500D02*
X341800D01*
X335300Y249400D02*
X341900D01*
X335300Y249300D02*
X341900D01*
X335400Y249200D02*
X342000D01*
X335400Y249100D02*
X342000D01*
X335400Y249000D02*
X342100D01*
X334500Y248900D02*
X342100D01*
X334500Y248800D02*
X342200D01*
X334500Y248700D02*
X342200D01*
X334500Y248600D02*
X342200D01*
X334500Y248500D02*
X342300D01*
X334500Y248400D02*
X342300D01*
X334500Y248300D02*
X342300D01*
X334500Y248200D02*
X342300D01*
X334500Y248100D02*
X342400D01*
X334500Y248000D02*
X342400D01*
X334500Y247900D02*
X342400D01*
X334600Y247800D02*
X342400D01*
X344400Y247700D02*
X349000D01*
X334600D02*
X342500D01*
X344400Y247600D02*
X349000D01*
X334600D02*
X342500D01*
X344400Y247500D02*
X349100D01*
X334600D02*
X342500D01*
X344400Y247400D02*
X349200D01*
X334600D02*
X342500D01*
X344400Y247300D02*
X349300D01*
X334600D02*
X342500D01*
X344500Y247200D02*
X349300D01*
X334600D02*
X342500D01*
X344500Y247100D02*
X349400D01*
X334600D02*
X342500D01*
X344500Y247000D02*
X349500D01*
X334600D02*
X342500D01*
X344500Y246900D02*
X349600D01*
X334600D02*
X342500D01*
X344500Y246800D02*
X349700D01*
X334600D02*
X342500D01*
X344500Y246700D02*
X349700D01*
X334600D02*
X342500D01*
X344500Y246600D02*
X349800D01*
X334700D02*
X342500D01*
X344500Y246500D02*
X349900D01*
X334700D02*
X342500D01*
X344500Y246400D02*
X350000D01*
X334700D02*
X342500D01*
X344500Y246300D02*
X350000D01*
X334700D02*
X342500D01*
X344500Y246200D02*
X350100D01*
X334700D02*
X342500D01*
X344500Y246100D02*
X350200D01*
X334700D02*
X342500D01*
X344500Y246000D02*
X350300D01*
X334700D02*
X342500D01*
X344500Y245900D02*
X350300D01*
X334700D02*
X342500D01*
X331500D02*
X333000D01*
X344500Y245800D02*
X350400D01*
X334700D02*
X342400D01*
X331500D02*
X333000D01*
X344400Y245700D02*
X350500D01*
X334700D02*
X342400D01*
X331500D02*
X333000D01*
X344400Y245600D02*
X350600D01*
X334700D02*
X342400D01*
X331500D02*
X333000D01*
X344400Y245500D02*
X350600D01*
X334700D02*
X342400D01*
X331600D02*
X333000D01*
X344400Y245400D02*
X350700D01*
X334800D02*
X342300D01*
X331600D02*
X333000D01*
X344400Y245300D02*
X350800D01*
X334800D02*
X342300D01*
X331600D02*
X333000D01*
X344300Y245200D02*
X350900D01*
X334800D02*
X342300D01*
X331600D02*
X333000D01*
X344300Y245100D02*
X351000D01*
X334800D02*
X342200D01*
X331600D02*
X333000D01*
X344300Y245000D02*
X351000D01*
X334800D02*
X342200D01*
X331600D02*
X333000D01*
X344200Y244900D02*
X351100D01*
X334800D02*
X342100D01*
X331600D02*
X333000D01*
X344200Y244800D02*
X351200D01*
X334800D02*
X342100D01*
X331600D02*
X333000D01*
X344200Y244700D02*
X351300D01*
X334800D02*
X342100D01*
X331600D02*
X333100D01*
X344100Y244600D02*
X351300D01*
X334800D02*
X342000D01*
X331600D02*
X333100D01*
X339700Y252700D02*
X345200D01*
X340100Y252600D02*
X345200D01*
X303900Y244500D02*
X310400D01*
X306000Y236500D02*
X315000D01*
X340500Y252500D02*
X345300D01*
X344100Y244500D02*
X351400D01*
X334800D02*
X341900D01*
X331600D02*
X333100D01*
X317000Y242600D02*
X323000D01*
X316800Y242500D02*
X323100D01*
X316700Y242400D02*
X323100D01*
X316500Y242300D02*
X323200D01*
X316300Y242200D02*
X323200D01*
X316100Y242100D02*
X323300D01*
X315700Y242000D02*
X323300D01*
X315100Y241900D02*
X323400D01*
X304600Y241800D02*
X323500D01*
X304600Y241700D02*
X323500D01*
X304700Y241600D02*
X323600D01*
X304700Y241500D02*
X323600D01*
X304700Y241400D02*
X323700D01*
X304700Y241300D02*
X323700D01*
X304800Y241200D02*
X323800D01*
X304800Y241100D02*
X323900D01*
X304800Y241000D02*
X323900D01*
X304800Y240900D02*
X324000D01*
X304900Y240800D02*
X324000D01*
X304900Y240700D02*
X324100D01*
X304900Y240600D02*
X324100D01*
X304900Y240500D02*
X324200D01*
X305000Y240400D02*
X324200D01*
X305000Y240300D02*
X324300D01*
X305000Y240200D02*
X324400D01*
X305000Y240100D02*
X324400D01*
X305100Y240000D02*
X324500D01*
X305100Y239900D02*
X324500D01*
X305100Y239800D02*
X324600D01*
X305100Y239700D02*
X324600D01*
X305200Y239600D02*
X324700D01*
X305200Y239500D02*
X324800D01*
X305200Y239400D02*
X324800D01*
X305200Y239300D02*
X324900D01*
X305300Y239200D02*
X324900D01*
X305300Y239100D02*
X325000D01*
X305300Y239000D02*
X325000D01*
X305300Y238900D02*
X325100D01*
X305400Y238800D02*
X325200D01*
X305400Y238700D02*
X325200D01*
X305400Y238600D02*
X324700D01*
X305400Y238500D02*
X324200D01*
X305500Y238400D02*
X323800D01*
X305500Y238300D02*
X323300D01*
X305500Y238200D02*
X322900D01*
X305600Y238100D02*
X322400D01*
X305600Y238000D02*
X321900D01*
X305600Y237900D02*
X321500D01*
X305600Y237800D02*
X321000D01*
X301800Y252400D02*
X332800D01*
X301900Y252300D02*
X332700D01*
X302000Y252200D02*
X332600D01*
X302000Y252100D02*
X332500D01*
X302000Y252000D02*
X332500D01*
X302000Y251900D02*
X329200D01*
X302100Y251800D02*
X329200D01*
X302100Y251700D02*
X329200D01*
X302100Y251600D02*
X329300D01*
X302100Y251500D02*
X329300D01*
X302200Y251400D02*
X329300D01*
X318500Y251300D02*
X329300D01*
X318500Y251200D02*
X329300D01*
X318600Y251100D02*
X329300D01*
X318600Y251000D02*
X329300D01*
X318600Y250900D02*
X329300D01*
X318600Y250800D02*
X329300D01*
X318600Y250700D02*
X329300D01*
X318600Y250600D02*
X329300D01*
X318600Y250500D02*
X329400D01*
X318600Y250400D02*
X329400D01*
X318600Y250300D02*
X329400D01*
X318600Y250200D02*
X329400D01*
X319800Y250100D02*
X325300D01*
X320100Y250000D02*
X325200D01*
X320300Y249900D02*
X325200D01*
X320400Y249800D02*
X325200D01*
X320600Y249700D02*
X325100D01*
X320700Y249600D02*
X325100D01*
X320800Y249500D02*
X325100D01*
X320800Y249400D02*
X325000D01*
X320900Y249300D02*
X325000D01*
X321000Y249200D02*
X325000D01*
X299800Y260400D02*
X328300D01*
X299800Y260300D02*
X328700D01*
X299800Y260200D02*
X329100D01*
X299800Y260100D02*
X329500D01*
X299900Y260000D02*
X329900D01*
X299900Y259900D02*
X330300D01*
X299900Y259800D02*
X330700D01*
X299900Y259700D02*
X331000D01*
X300000Y259600D02*
X331400D01*
X300000Y259500D02*
X331800D01*
X300000Y259400D02*
X332200D01*
X300000Y259300D02*
X332600D01*
X300100Y259200D02*
X333000D01*
X300100Y259100D02*
X333400D01*
X300100Y259000D02*
X333700D01*
X300100Y258900D02*
X334100D01*
X300200Y258800D02*
X334500D01*
X300200Y258700D02*
X334900D01*
X300200Y258600D02*
X335300D01*
X300200Y258500D02*
X335700D01*
X300300Y258400D02*
X336000D01*
X300300Y258300D02*
X336400D01*
X300300Y258200D02*
X336800D01*
X301800Y252600D02*
X336900D01*
X299300Y262300D02*
X321200D01*
X299300Y262200D02*
X321600D01*
X299300Y262100D02*
X322000D01*
X299300Y262000D02*
X322300D01*
X299400Y261900D02*
X322700D01*
X299400Y261800D02*
X323100D01*
X299400Y261700D02*
X323500D01*
X299400Y261600D02*
X323900D01*
X299500Y261500D02*
X324300D01*
X299500Y261400D02*
X324500D01*
X299500Y261300D02*
X324900D01*
X299500Y261200D02*
X325200D01*
X299600Y261100D02*
X325600D01*
X299600Y261000D02*
X326000D01*
X299600Y260900D02*
X326400D01*
X299700Y260800D02*
X326800D01*
X299700Y260700D02*
X327200D01*
X299700Y260600D02*
X327600D01*
X301800Y252500D02*
X333200D01*
X299700Y260500D02*
X327900D01*
X300300Y258100D02*
X337200D01*
X300400Y258000D02*
X337600D01*
X300400Y257900D02*
X338000D01*
X300400Y257800D02*
X338300D01*
X300500Y257700D02*
X338700D01*
X300500Y257600D02*
X339100D01*
X300500Y257500D02*
X339500D01*
X300500Y257400D02*
X339900D01*
X300600Y257300D02*
X340300D01*
X300600Y257200D02*
X340700D01*
X300600Y257100D02*
X341100D01*
X300600Y257000D02*
X341400D01*
X300700Y256900D02*
X341800D01*
X300700Y256800D02*
X342000D01*
X300700Y256700D02*
X342100D01*
X300700Y256600D02*
X342200D01*
X300800Y256500D02*
X342300D01*
X300800Y256400D02*
X342300D01*
X300800Y256300D02*
X342400D01*
X300800Y256200D02*
X342500D01*
X300900Y256100D02*
X342600D01*
X300900Y256000D02*
X342600D01*
X300900Y255900D02*
X342700D01*
X300900Y255800D02*
X342800D01*
X301000Y255700D02*
X342900D01*
X301000Y255600D02*
X342900D01*
X301000Y255500D02*
X343000D01*
X301000Y255400D02*
X343100D01*
X301100Y255300D02*
X343200D01*
X301100Y255200D02*
X343200D01*
X301100Y255100D02*
X343300D01*
X301100Y255000D02*
X343400D01*
X301200Y254900D02*
X343500D01*
X301200Y254800D02*
X343500D01*
X301200Y254700D02*
X343600D01*
X301300Y254600D02*
X343700D01*
X301300Y254500D02*
X343800D01*
X301300Y254400D02*
X343900D01*
X301300Y254300D02*
X343900D01*
X301400Y254200D02*
X344000D01*
X301400Y254100D02*
X344100D01*
X301400Y254000D02*
X344200D01*
X301400Y253900D02*
X344200D01*
X301500Y253800D02*
X344300D01*
X301500Y253700D02*
X344400D01*
X301500Y253600D02*
X344500D01*
X301500Y253500D02*
X344500D01*
X301600Y253400D02*
X344600D01*
X301600Y253300D02*
X344700D01*
X301600Y253200D02*
X344800D01*
X301600Y253100D02*
X344800D01*
X301700Y253000D02*
X344900D01*
X301700Y252900D02*
X345000D01*
X301700Y252800D02*
X345100D01*
X301700Y252700D02*
X337400D01*
X284700Y203400D02*
X289600D01*
X284700Y203300D02*
X289600D01*
X284700Y203200D02*
X289600D01*
X287600Y203100D02*
X289600D01*
X284700D02*
X286700D01*
X287700Y203000D02*
X289600D01*
X284700D02*
X286600D01*
X290600Y202900D02*
X292400D01*
X287800D02*
X289600D01*
X284700D02*
X286500D01*
X290600Y202800D02*
X292300D01*
X287900D02*
X289600D01*
X284700D02*
X286400D01*
X290600Y202700D02*
X292200D01*
X288000D02*
X289600D01*
X284700D02*
X286300D01*
X290600Y202600D02*
X292100D01*
X288000D02*
X289600D01*
X284700D02*
X286300D01*
X290600Y202500D02*
X292100D01*
X288000D02*
X289600D01*
X284700D02*
X286300D01*
X290600Y202400D02*
X292100D01*
X288000D02*
X289600D01*
X284700D02*
X286300D01*
X290600Y202300D02*
X292100D01*
X288000D02*
X289600D01*
X284700D02*
X286300D01*
X290600Y202200D02*
X292100D01*
X288000D02*
X289600D01*
X284700D02*
X286300D01*
X290600Y202100D02*
X292100D01*
X288000D02*
X289600D01*
X284700D02*
X286300D01*
X288000Y202000D02*
X289600D01*
X288000Y201900D02*
X289600D01*
X288000Y201800D02*
X289600D01*
X287900Y201700D02*
X289600D01*
X287800Y201600D02*
X289600D01*
X287700Y201500D02*
X289600D01*
X287600Y201400D02*
X289600D01*
X285900Y201300D02*
X289600D01*
X285800Y201200D02*
X289600D01*
X285700Y201100D02*
X289600D01*
X285600Y201000D02*
X289500D01*
X285500Y200900D02*
X289400D01*
X285400Y200800D02*
X289300D01*
X285300Y200700D02*
X289200D01*
X285200Y200600D02*
X289100D01*
X285100Y200500D02*
X289000D01*
X285000Y200400D02*
X288900D01*
X284900Y200300D02*
X288800D01*
X284800Y200200D02*
X288700D01*
X284700Y200100D02*
X288600D01*
X284700Y200000D02*
X288500D01*
X284700Y199900D02*
X288400D01*
X284700Y199800D02*
X286700D01*
X284700Y199700D02*
X286600D01*
X284700Y199600D02*
X286500D01*
X284700Y199500D02*
X286400D01*
X284700Y199400D02*
X286300D01*
X284700Y199300D02*
X286300D01*
X284700Y199200D02*
X286300D01*
X290600Y199100D02*
X292100D01*
X288000D02*
X289600D01*
X284700D02*
X286300D01*
X290600Y199000D02*
X292100D01*
X288000D02*
X289600D01*
X284700D02*
X286300D01*
X290600Y198900D02*
X292100D01*
X288000D02*
X289600D01*
X284700D02*
X286300D01*
X290600Y198800D02*
X292100D01*
X288000D02*
X289600D01*
X284700D02*
X286300D01*
X290600Y198700D02*
X292100D01*
X288000D02*
X289600D01*
X284700D02*
X286300D01*
X290600Y198600D02*
X292100D01*
X288000D02*
X289600D01*
X284700D02*
X286300D01*
X290600Y198500D02*
X292200D01*
X288000D02*
X289600D01*
X284700D02*
X286300D01*
X290600Y198400D02*
X292300D01*
X287900D02*
X289600D01*
X284700D02*
X286400D01*
X290600Y198300D02*
X292400D01*
X287800D02*
X289600D01*
X284700D02*
X286500D01*
X287700Y198200D02*
X289600D01*
X284700D02*
X286600D01*
X287600Y198100D02*
X289600D01*
X284700D02*
X286700D01*
X284700Y198000D02*
X289600D01*
X284700Y197900D02*
X289600D01*
X284700Y197800D02*
X289600D01*
X284800Y197700D02*
X289500D01*
X284900Y197600D02*
X289400D01*
X285000Y197500D02*
X289300D01*
X285100Y197400D02*
X289200D01*
X285200Y197300D02*
X289100D01*
X285300Y197200D02*
X289000D01*
X285400Y197100D02*
X288900D01*
X285500Y197000D02*
X288800D01*
X285600Y196900D02*
X288700D01*
X285700Y196800D02*
X288600D01*
X285800Y196700D02*
X288500D01*
X285900Y196600D02*
X288400D01*
X285300Y211400D02*
X288500D01*
X285200Y211300D02*
X288500D01*
X285100Y211200D02*
X288500D01*
X285000Y211100D02*
X288500D01*
X285000Y211000D02*
X288500D01*
X285000Y210900D02*
X288500D01*
X287400Y210800D02*
X288500D01*
X285000D02*
X286300D01*
X287400Y210700D02*
X288500D01*
X285000D02*
X286200D01*
X287400Y210600D02*
X288500D01*
X285000D02*
X286100D01*
X287400Y210500D02*
X288500D01*
X285000D02*
X286100D01*
X287400Y210400D02*
X288500D01*
X285000D02*
X286100D01*
X287400Y210300D02*
X288500D01*
X285000D02*
X286100D01*
X287400Y210200D02*
X288500D01*
X285000D02*
X286100D01*
X287400Y210100D02*
X288500D01*
X285000D02*
X286100D01*
X287400Y210000D02*
X288500D01*
X285000D02*
X286100D01*
X287400Y209900D02*
X288500D01*
X285000D02*
X286100D01*
X287400Y209800D02*
X288500D01*
X285000D02*
X286200D01*
X287400Y209700D02*
X288500D01*
X285000D02*
X286300D01*
X285000Y209600D02*
X288500D01*
X285000Y209500D02*
X288500D01*
X285000Y209400D02*
X288500D01*
X285100Y209300D02*
X288500D01*
X285200Y209200D02*
X288500D01*
X285300Y209100D02*
X288500D01*
X285400Y209000D02*
X288500D01*
X285500Y208900D02*
X288500D01*
X285600Y208800D02*
X288500D01*
X285700Y208700D02*
X288500D01*
X285800Y208600D02*
X288500D01*
X285700Y208500D02*
X288500D01*
X287400Y208400D02*
X288500D01*
X285700D02*
X286900D01*
X287400Y208300D02*
X288500D01*
X285700D02*
X286900D01*
X287400Y208200D02*
X288500D01*
X285600D02*
X286800D01*
X287400Y208100D02*
X288500D01*
X285600D02*
X286800D01*
X287400Y208000D02*
X288500D01*
X285600D02*
X286800D01*
X287400Y207900D02*
X288500D01*
X285600D02*
X286700D01*
X287400Y207800D02*
X288500D01*
X285500D02*
X286700D01*
X287400Y207700D02*
X288500D01*
X285500D02*
X286700D01*
X287400Y207600D02*
X288500D01*
X285500D02*
X286700D01*
X287400Y207500D02*
X288500D01*
X285500D02*
X286600D01*
X287400Y207400D02*
X288500D01*
X285400D02*
X286600D01*
X287400Y207300D02*
X288500D01*
X285400D02*
X286600D01*
X287400Y207200D02*
X288500D01*
X285400D02*
X286500D01*
X287400Y207100D02*
X288500D01*
X285300D02*
X286500D01*
X287400Y207000D02*
X288500D01*
X285300D02*
X286500D01*
X287400Y206900D02*
X288500D01*
X285300D02*
X286500D01*
X287400Y206800D02*
X288500D01*
X285300D02*
X286400D01*
X287400Y206700D02*
X288500D01*
X285200D02*
X286400D01*
X287400Y206600D02*
X288500D01*
X285200D02*
X286400D01*
X287400Y206500D02*
X288500D01*
X285200D02*
X286400D01*
X287400Y206400D02*
X288500D01*
X285100D02*
X286300D01*
X287400Y206300D02*
X288500D01*
X285100D02*
X286300D01*
X287400Y206200D02*
X288500D01*
X285100D02*
X286300D01*
X285900Y204600D02*
X288400D01*
X285800Y204500D02*
X288500D01*
X285700Y204400D02*
X288600D01*
X285600Y204300D02*
X288700D01*
X285500Y204200D02*
X288800D01*
X285400Y204100D02*
X288900D01*
X285300Y204000D02*
X289000D01*
X285200Y203900D02*
X289100D01*
X285100Y203800D02*
X289200D01*
X285000Y203700D02*
X289300D01*
X284900Y203600D02*
X289400D01*
X285800Y211900D02*
X288500D01*
X285700Y211800D02*
X288500D01*
X285600Y211700D02*
X288500D01*
X285500Y211600D02*
X288500D01*
X296500Y203400D02*
X298100D01*
X296500Y203300D02*
X298100D01*
X296500Y203200D02*
X298100D01*
X296500Y203100D02*
X298100D01*
X293500D02*
X295500D01*
X296500Y203000D02*
X298100D01*
X293600D02*
X295500D01*
X296500Y202900D02*
X298100D01*
X293700D02*
X295500D01*
X296500Y202800D02*
X298100D01*
X293800D02*
X295500D01*
X296500Y202700D02*
X298100D01*
X293900D02*
X295500D01*
X296500Y202600D02*
X298100D01*
X293900D02*
X295500D01*
X296500Y202500D02*
X298100D01*
X293900D02*
X295500D01*
X296500Y202400D02*
X298100D01*
X293900D02*
X295500D01*
X296500Y202300D02*
X298100D01*
X293900D02*
X295500D01*
X296500Y202200D02*
X298100D01*
X293900D02*
X295500D01*
X296500Y202100D02*
X298100D01*
X293900D02*
X295500D01*
X296500Y202000D02*
X298100D01*
X293900D02*
X295500D01*
X296500Y201900D02*
X298100D01*
X293900D02*
X295500D01*
X296500Y201800D02*
X298100D01*
X293900D02*
X295500D01*
X296500Y201700D02*
X298100D01*
X293900D02*
X295500D01*
X296500Y201600D02*
X298100D01*
X293900D02*
X295500D01*
X296500Y201500D02*
X298100D01*
X293900D02*
X295500D01*
X296500Y201400D02*
X298100D01*
X293900D02*
X295500D01*
X296500Y201300D02*
X298100D01*
X293900D02*
X295500D01*
X296500Y201200D02*
X298100D01*
X293900D02*
X295500D01*
X296500Y201100D02*
X298100D01*
X293900D02*
X295500D01*
X296500Y201000D02*
X298100D01*
X293900D02*
X295500D01*
X296500Y200900D02*
X298100D01*
X293900D02*
X295500D01*
X296500Y200800D02*
X298100D01*
X293900D02*
X295500D01*
X296500Y200700D02*
X298100D01*
X293900D02*
X295500D01*
X296500Y200600D02*
X298100D01*
X293900D02*
X295500D01*
X296500Y200500D02*
X298100D01*
X293900D02*
X295500D01*
X296500Y200400D02*
X298100D01*
X293900D02*
X295500D01*
X296500Y200300D02*
X298100D01*
X293900D02*
X295500D01*
X296500Y200200D02*
X298100D01*
X293900D02*
X295500D01*
X296500Y200100D02*
X298100D01*
X293900D02*
X295500D01*
X296500Y200000D02*
X298100D01*
X293900D02*
X295500D01*
X296500Y199900D02*
X298100D01*
X293900D02*
X295500D01*
X296500Y199800D02*
X298100D01*
X293900D02*
X295500D01*
X296500Y199700D02*
X298100D01*
X293900D02*
X295500D01*
X296500Y199600D02*
X298100D01*
X293900D02*
X295500D01*
X296500Y199500D02*
X298100D01*
X293900D02*
X295500D01*
X296500Y199400D02*
X298100D01*
X293900D02*
X295500D01*
X296500Y199300D02*
X298100D01*
X293900D02*
X295500D01*
X296500Y199200D02*
X298100D01*
X293900D02*
X295500D01*
X296500Y199100D02*
X298100D01*
X293900D02*
X295500D01*
X296500Y199000D02*
X298100D01*
X293900D02*
X295500D01*
X296500Y198900D02*
X298100D01*
X293900D02*
X295500D01*
X296500Y198800D02*
X298100D01*
X293900D02*
X295500D01*
X296500Y198700D02*
X298100D01*
X293900D02*
X295500D01*
X296500Y198600D02*
X298100D01*
X293900D02*
X295500D01*
X296500Y198500D02*
X298100D01*
X293900D02*
X295500D01*
X296500Y198400D02*
X298100D01*
X293800D02*
X295500D01*
X296500Y198300D02*
X298100D01*
X293700D02*
X295500D01*
X296500Y198200D02*
X298100D01*
X293600D02*
X295500D01*
X296500Y198100D02*
X298100D01*
X293500D02*
X295500D01*
X296500Y198000D02*
X298100D01*
X296500Y197900D02*
X298100D01*
X296500Y197800D02*
X298100D01*
X296500Y197700D02*
X298100D01*
X296500Y197600D02*
X298100D01*
X296500Y197500D02*
X298100D01*
X296500Y197400D02*
X298100D01*
X296500Y197300D02*
X298100D01*
X296500Y197200D02*
X298100D01*
X296500Y197100D02*
X298100D01*
X296500Y197000D02*
X298100D01*
X296500Y196900D02*
X298100D01*
X296500Y196800D02*
X298100D01*
X296500Y196700D02*
X298100D01*
X296500Y196600D02*
X298100D01*
X298500Y211400D02*
X299900D01*
X293500D02*
X296700D01*
X298400Y211300D02*
X299900D01*
X293500D02*
X296700D01*
X298400Y211200D02*
X299900D01*
X293500D02*
X296700D01*
X298400Y211100D02*
X300000D01*
X293500D02*
X296700D01*
X298400Y211000D02*
X300000D01*
X293500D02*
X296700D01*
X298400Y210900D02*
X300000D01*
X293500D02*
X296700D01*
X298300Y210800D02*
X300000D01*
X294500D02*
X295600D01*
X298300Y210700D02*
X300000D01*
X294500D02*
X295600D01*
X298300Y210600D02*
X300000D01*
X294500D02*
X295600D01*
X298300Y210500D02*
X300100D01*
X294500D02*
X295600D01*
X298300Y210400D02*
X300100D01*
X294500D02*
X295600D01*
X298200Y210300D02*
X300100D01*
X294500D02*
X295600D01*
X298200Y210200D02*
X300100D01*
X294500D02*
X295600D01*
X298200Y210100D02*
X300100D01*
X294500D02*
X295600D01*
X298200Y210000D02*
X300200D01*
X294500D02*
X295600D01*
X298200Y209900D02*
X300200D01*
X294500D02*
X295600D01*
X298100Y209800D02*
X300200D01*
X294500D02*
X295600D01*
X298100Y209700D02*
X300200D01*
X294500D02*
X295600D01*
X298100Y209600D02*
X300200D01*
X294500D02*
X295600D01*
X298100Y209500D02*
X300300D01*
X294500D02*
X295600D01*
X298100Y209400D02*
X300300D01*
X294500D02*
X295600D01*
X298000Y209300D02*
X300300D01*
X294500D02*
X295600D01*
X298000Y209200D02*
X300300D01*
X294500D02*
X295600D01*
X298000Y209100D02*
X300300D01*
X294500D02*
X295600D01*
X299200Y209000D02*
X300400D01*
X298000D02*
X299100D01*
X294500D02*
X295600D01*
X299200Y208900D02*
X300400D01*
X298000D02*
X299100D01*
X294500D02*
X295600D01*
X299300Y208800D02*
X300400D01*
X297900D02*
X299100D01*
X294500D02*
X295600D01*
X299300Y208700D02*
X300400D01*
X297900D02*
X299100D01*
X294500D02*
X295600D01*
X299300Y208600D02*
X300400D01*
X297900D02*
X299100D01*
X294500D02*
X295600D01*
X297900Y208500D02*
X299000D01*
X294500D02*
X295600D01*
X297900Y208400D02*
X299000D01*
X294500D02*
X295600D01*
X297800Y208300D02*
X299000D01*
X294500D02*
X295600D01*
X297800Y208200D02*
X299000D01*
X294500D02*
X295600D01*
X297800Y208100D02*
X299000D01*
X294500D02*
X295600D01*
X297800Y208000D02*
X298900D01*
X294500D02*
X295600D01*
X297800Y207900D02*
X298900D01*
X294500D02*
X295600D01*
X297700Y207800D02*
X298900D01*
X294500D02*
X295600D01*
X297700Y207700D02*
X298900D01*
X294500D02*
X295600D01*
X294500Y207600D02*
X295600D01*
X294500Y207500D02*
X295600D01*
X294500Y207400D02*
X295600D01*
X294500Y207300D02*
X295600D01*
X294500Y207200D02*
X295600D01*
X294500Y207100D02*
X295600D01*
X294500Y207000D02*
X295600D01*
X294500Y206900D02*
X295600D01*
X294500Y206800D02*
X295600D01*
X294500Y206700D02*
X295600D01*
X294500Y206600D02*
X295600D01*
X297500Y206500D02*
X298700D01*
X294500D02*
X295600D01*
X297500Y206400D02*
X298600D01*
X294500D02*
X295600D01*
X297400Y206300D02*
X298600D01*
X294500D02*
X295600D01*
X297400Y206200D02*
X298600D01*
X294500D02*
X295600D01*
X296500Y204600D02*
X298100D01*
X296500Y204500D02*
X298100D01*
X296500Y204400D02*
X298100D01*
X296500Y204300D02*
X298100D01*
X296500Y204200D02*
X298100D01*
X296500Y204100D02*
X298100D01*
X296500Y204000D02*
X298100D01*
X296500Y203900D02*
X298100D01*
X296500Y203800D02*
X298100D01*
X296500Y203700D02*
X298100D01*
X296500Y203600D02*
X298100D01*
X298500Y211900D02*
X299800D01*
X293500D02*
X296700D01*
X298500Y211800D02*
X299800D01*
X293500D02*
X296700D01*
X298500Y211700D02*
X299800D01*
X293500D02*
X296700D01*
X298500Y211600D02*
X299900D01*
X293500D02*
X296700D01*
X304500Y203100D02*
X306500D01*
X304500Y203000D02*
X306400D01*
X304500Y202900D02*
X306300D01*
X304500Y202800D02*
X306200D01*
X304500Y202700D02*
X306100D01*
X304500Y202600D02*
X306000D01*
X304500Y202500D02*
X306000D01*
X304500Y202400D02*
X306000D01*
X304500Y202300D02*
X306000D01*
X304500Y202200D02*
X306000D01*
X304500Y202100D02*
X306000D01*
X304500Y202000D02*
X306000D01*
X304500Y201900D02*
X306000D01*
X304500Y201800D02*
X306000D01*
X304500Y201700D02*
X306000D01*
X304500Y201600D02*
X306000D01*
X304500Y201500D02*
X306000D01*
X304500Y201400D02*
X306000D01*
X304500Y201300D02*
X306000D01*
X304500Y201200D02*
X306000D01*
X304500Y201100D02*
X306000D01*
X304500Y201000D02*
X306000D01*
X304500Y200900D02*
X306000D01*
X304500Y200800D02*
X306000D01*
X304500Y200700D02*
X306000D01*
X304500Y200600D02*
X306000D01*
X304500Y200500D02*
X306000D01*
X304500Y200400D02*
X306000D01*
X304500Y200300D02*
X306000D01*
X304500Y200200D02*
X306000D01*
X304500Y200100D02*
X306000D01*
X304500Y200000D02*
X306000D01*
X304500Y199900D02*
X306000D01*
X304500Y199800D02*
X306000D01*
X304500Y199700D02*
X306000D01*
X304500Y199600D02*
X306000D01*
X304500Y199500D02*
X306000D01*
X304500Y199400D02*
X306000D01*
X304500Y199300D02*
X306000D01*
X304500Y199200D02*
X306000D01*
X304500Y199100D02*
X306000D01*
X304500Y199000D02*
X306000D01*
X304500Y198900D02*
X306000D01*
X304500Y198800D02*
X306000D01*
X304500Y198700D02*
X306000D01*
X304500Y198600D02*
X306000D01*
X304500Y198500D02*
X306100D01*
X304500Y198400D02*
X306200D01*
X304500Y198300D02*
X306300D01*
X304500Y198200D02*
X306400D01*
X304500Y198100D02*
X306500D01*
X305400Y196900D02*
X308400D01*
X305500Y196800D02*
X308300D01*
X305600Y196700D02*
X308200D01*
X305700Y196600D02*
X308100D01*
X305000Y211400D02*
X306100D01*
X303600D02*
X304200D01*
X301700D02*
X302900D01*
X305000Y211300D02*
X306100D01*
X303600D02*
X304300D01*
X301700D02*
X302900D01*
X305000Y211200D02*
X306100D01*
X303600D02*
X304300D01*
X301700D02*
X302900D01*
X305000Y211100D02*
X306100D01*
X303500D02*
X304300D01*
X301800D02*
X302900D01*
X304900Y211000D02*
X306100D01*
X303500D02*
X304400D01*
X301800D02*
X302900D01*
X304900Y210900D02*
X306100D01*
X303500D02*
X304400D01*
X301800D02*
X302900D01*
X306900Y210800D02*
X308300D01*
X304900D02*
X306100D01*
X303500D02*
X304400D01*
X301800D02*
X302900D01*
X306900Y210700D02*
X308200D01*
X304900D02*
X306100D01*
X303400D02*
X304400D01*
X301800D02*
X302900D01*
X306900Y210600D02*
X308100D01*
X304900D02*
X306000D01*
X303400D02*
X304500D01*
X301800D02*
X302900D01*
X306900Y210500D02*
X308000D01*
X304900D02*
X306000D01*
X303400D02*
X304500D01*
X301800D02*
X303000D01*
X306900Y210400D02*
X308000D01*
X304900D02*
X306000D01*
X303300D02*
X304500D01*
X301800D02*
X303000D01*
X306900Y210300D02*
X308000D01*
X304900D02*
X306000D01*
X303300D02*
X304500D01*
X301800D02*
X303000D01*
X306900Y210200D02*
X308000D01*
X304900D02*
X306000D01*
X303300D02*
X304600D01*
X301800D02*
X303000D01*
X306900Y210100D02*
X308000D01*
X304900D02*
X306000D01*
X303300D02*
X304600D01*
X301900D02*
X303000D01*
X306900Y210000D02*
X308000D01*
X304800D02*
X306000D01*
X303200D02*
X304600D01*
X301900D02*
X303000D01*
X306900Y209900D02*
X308100D01*
X304800D02*
X306000D01*
X303200D02*
X304600D01*
X301900D02*
X303000D01*
X306900Y209800D02*
X308200D01*
X304800D02*
X306000D01*
X303200D02*
X304700D01*
X301900D02*
X303000D01*
X306900Y209700D02*
X308300D01*
X304800D02*
X306000D01*
X303200D02*
X304700D01*
X301900D02*
X303000D01*
X304800Y209600D02*
X305900D01*
X303100D02*
X304700D01*
X301900D02*
X303000D01*
X304800Y209500D02*
X305900D01*
X301900D02*
X304700D01*
X301900Y209400D02*
X305900D01*
X301900Y209300D02*
X305900D01*
X301900Y209200D02*
X305900D01*
X302000Y209100D02*
X305900D01*
X302000Y209000D02*
X305900D01*
X302000Y208900D02*
X305900D01*
X302000Y208800D02*
X305900D01*
X302000Y208700D02*
X305900D01*
X302000Y208600D02*
X305800D01*
X302000Y208500D02*
X305800D01*
X302000Y208400D02*
X305800D01*
X302000Y208300D02*
X305800D01*
X302000Y208200D02*
X305800D01*
X302100Y208100D02*
X305800D01*
X304000Y208000D02*
X305800D01*
X302100D02*
X303900D01*
X304000Y207900D02*
X305800D01*
X302100D02*
X303900D01*
X304000Y207800D02*
X305800D01*
X302100D02*
X303800D01*
X304000Y207700D02*
X305800D01*
X302100D02*
X303800D01*
X304100Y207600D02*
X305700D01*
X302100D02*
X303800D01*
X304100Y207500D02*
X305700D01*
X302100D02*
X303800D01*
X304100Y207400D02*
X305700D01*
X302100D02*
X303700D01*
X304200Y207300D02*
X305700D01*
X302100D02*
X303700D01*
X304200Y207200D02*
X305700D01*
X302100D02*
X303700D01*
X304200Y207100D02*
X305700D01*
X302200D02*
X303700D01*
X304200Y207000D02*
X305700D01*
X302200D02*
X303600D01*
X307300Y206900D02*
X308400D01*
X304300D02*
X305700D01*
X302200D02*
X303600D01*
X307200Y206800D02*
X308400D01*
X304300D02*
X305700D01*
X302200D02*
X303600D01*
X307200Y206700D02*
X308400D01*
X304300D02*
X305700D01*
X302200D02*
X303500D01*
X307200Y206600D02*
X308300D01*
X304300D02*
X305600D01*
X302200D02*
X303500D01*
X307100Y206500D02*
X308300D01*
X304400D02*
X305600D01*
X302200D02*
X303500D01*
X307100Y206400D02*
X308300D01*
X304400D02*
X305600D01*
X302200D02*
X303500D01*
X307100Y206300D02*
X308300D01*
X304400D02*
X305600D01*
X302200D02*
X303400D01*
X307100Y206200D02*
X308200D01*
X304400D02*
X305600D01*
X302200D02*
X303400D01*
X305700Y204600D02*
X308100D01*
X305600Y204500D02*
X308200D01*
X305500Y204400D02*
X308300D01*
X305400Y204300D02*
X308400D01*
X305000Y211900D02*
X306200D01*
X303700D02*
X304100D01*
X301700D02*
X302800D01*
X305000Y211800D02*
X306200D01*
X303700D02*
X304100D01*
X301700D02*
X302800D01*
X305000Y211700D02*
X306200D01*
X303700D02*
X304200D01*
X301700D02*
X302800D01*
X305000Y211600D02*
X306100D01*
X303700D02*
X304200D01*
X301700D02*
X302800D01*
X310400Y203400D02*
X315200D01*
X310300Y203300D02*
X315200D01*
X310300Y203200D02*
X315200D01*
X313600Y203100D02*
X315200D01*
X310300D02*
X312400D01*
X313700Y203000D02*
X315200D01*
X310300D02*
X312200D01*
X313700Y202900D02*
X315200D01*
X310300D02*
X312100D01*
X313700Y202800D02*
X315200D01*
X310300D02*
X312000D01*
X313700Y202700D02*
X315200D01*
X310300D02*
X311900D01*
X313700Y202600D02*
X315200D01*
X310300D02*
X311900D01*
X313700Y202500D02*
X315200D01*
X310300D02*
X311900D01*
X313700Y202400D02*
X315200D01*
X310300D02*
X311900D01*
X313700Y202300D02*
X315200D01*
X310300D02*
X311900D01*
X313700Y202200D02*
X315200D01*
X310300D02*
X311900D01*
X313700Y202100D02*
X315200D01*
X310300D02*
X311900D01*
X313700Y202000D02*
X315200D01*
X310300D02*
X311900D01*
X313700Y201900D02*
X315200D01*
X310300D02*
X311900D01*
X313700Y201800D02*
X315200D01*
X310300D02*
X311900D01*
X313700Y201700D02*
X315200D01*
X310300D02*
X312000D01*
X313700Y201600D02*
X315200D01*
X310300D02*
X312100D01*
X313700Y201500D02*
X315200D01*
X310300D02*
X312200D01*
X313600Y201400D02*
X315200D01*
X310300D02*
X312300D01*
X310300Y201300D02*
X315200D01*
X310300Y201200D02*
X315200D01*
X310400Y201100D02*
X315200D01*
X310400Y201000D02*
X315200D01*
X310500Y200900D02*
X315200D01*
X310600Y200800D02*
X315200D01*
X310700Y200700D02*
X315200D01*
X310800Y200600D02*
X315200D01*
X310800Y200500D02*
X315200D01*
X310700Y200400D02*
X315200D01*
X310600Y200300D02*
X315200D01*
X310500Y200200D02*
X315200D01*
X310400Y200100D02*
X315200D01*
X310300Y200000D02*
X315200D01*
X310300Y199900D02*
X315200D01*
X313600Y199800D02*
X315200D01*
X310300D02*
X312300D01*
X313700Y199700D02*
X315200D01*
X310300D02*
X312200D01*
X313700Y199600D02*
X315200D01*
X310300D02*
X312100D01*
X313700Y199500D02*
X315200D01*
X310300D02*
X312000D01*
X313700Y199400D02*
X315200D01*
X310300D02*
X311900D01*
X313700Y199300D02*
X315200D01*
X310300D02*
X311900D01*
X313700Y199200D02*
X315200D01*
X310300D02*
X311900D01*
X313700Y199100D02*
X315200D01*
X310300D02*
X311900D01*
X313700Y199000D02*
X315200D01*
X310300D02*
X311900D01*
X313700Y198900D02*
X315200D01*
X310300D02*
X311900D01*
X313700Y198800D02*
X315200D01*
X310300D02*
X311900D01*
X313700Y198700D02*
X315200D01*
X310300D02*
X311900D01*
X313700Y198600D02*
X315200D01*
X310300D02*
X311900D01*
X313700Y198500D02*
X315200D01*
X310300D02*
X311900D01*
X313700Y198400D02*
X315200D01*
X310300D02*
X312000D01*
X313700Y198300D02*
X315200D01*
X310300D02*
X312100D01*
X313700Y198200D02*
X315200D01*
X310300D02*
X312200D01*
X313600Y198100D02*
X315200D01*
X310300D02*
X312400D01*
X310300Y198000D02*
X315200D01*
X310300Y197900D02*
X315200D01*
X310400Y197800D02*
X315200D01*
X310500Y197700D02*
X315200D01*
X310600Y197600D02*
X315200D01*
X310700Y197500D02*
X315200D01*
X310800Y197400D02*
X315200D01*
X310900Y197300D02*
X315200D01*
X311000Y197200D02*
X315200D01*
X311100Y197100D02*
X315200D01*
X311200Y197000D02*
X315200D01*
X311300Y196900D02*
X315200D01*
X311400Y196800D02*
X315200D01*
X311500Y196700D02*
X315200D01*
X311600Y196600D02*
X315200D01*
X311200Y211400D02*
X314700D01*
X311200Y211300D02*
X314700D01*
X311200Y211200D02*
X314700D01*
X311200Y211100D02*
X314700D01*
X311200Y211000D02*
X314700D01*
X311200Y210900D02*
X314700D01*
X313600Y210800D02*
X314700D01*
X309300D02*
X310400D01*
X313600Y210700D02*
X314700D01*
X309300D02*
X310400D01*
X313600Y210600D02*
X314700D01*
X309300D02*
X310400D01*
X313600Y210500D02*
X314700D01*
X309300D02*
X310400D01*
X313600Y210400D02*
X314700D01*
X309300D02*
X310400D01*
X313600Y210300D02*
X314700D01*
X309300D02*
X310400D01*
X313600Y210200D02*
X314700D01*
X309300D02*
X310400D01*
X313600Y210100D02*
X314700D01*
X309300D02*
X310400D01*
X313600Y210000D02*
X314700D01*
X309300D02*
X310400D01*
X313600Y209900D02*
X314700D01*
X309300D02*
X310400D01*
X313600Y209800D02*
X314700D01*
X309300D02*
X310400D01*
X313600Y209700D02*
X314700D01*
X309300D02*
X310400D01*
X312500Y209600D02*
X314700D01*
X312400Y209500D02*
X314700D01*
X312500Y209400D02*
X314700D01*
X312500Y209300D02*
X314700D01*
X312500Y209200D02*
X314700D01*
X312500Y209100D02*
X314700D01*
X312500Y209000D02*
X314700D01*
X312500Y208900D02*
X314700D01*
X312500Y208800D02*
X314700D01*
X312500Y208700D02*
X314700D01*
X312400Y208600D02*
X314700D01*
X312500Y208500D02*
X314700D01*
X313600Y208400D02*
X314700D01*
X309300D02*
X310400D01*
X313600Y208300D02*
X314700D01*
X309300D02*
X310400D01*
X313600Y208200D02*
X314700D01*
X309300D02*
X310400D01*
X313600Y208100D02*
X314700D01*
X309300D02*
X310400D01*
X313600Y208000D02*
X314700D01*
X309300D02*
X310400D01*
X313600Y207900D02*
X314700D01*
X309300D02*
X310400D01*
X313600Y207800D02*
X314700D01*
X309300D02*
X310400D01*
X313600Y207700D02*
X314700D01*
X309300D02*
X310400D01*
X313600Y207600D02*
X314700D01*
X309300D02*
X310400D01*
X313600Y207500D02*
X314700D01*
X309300D02*
X310400D01*
X313600Y207400D02*
X314700D01*
X309300D02*
X310400D01*
X313600Y207300D02*
X314700D01*
X309300D02*
X310400D01*
X311200Y207200D02*
X314700D01*
X309300D02*
X310400D01*
X311200Y207100D02*
X314700D01*
X309300D02*
X310400D01*
X311200Y207000D02*
X314700D01*
X309300D02*
X310400D01*
X311200Y206900D02*
X314700D01*
X309300D02*
X310400D01*
X311200Y206800D02*
X314700D01*
X309300D02*
X310400D01*
X311200Y206700D02*
X314700D01*
X309300D02*
X310400D01*
X311200Y206600D02*
X314700D01*
X309300D02*
X310400D01*
X311200Y206500D02*
X314700D01*
X309300D02*
X310400D01*
X311200Y206400D02*
X314700D01*
X309300D02*
X310400D01*
X311200Y206300D02*
X314700D01*
X309300D02*
X310400D01*
X311200Y206200D02*
X314700D01*
X309300D02*
X310400D01*
X311600Y204600D02*
X315200D01*
X311500Y204500D02*
X315200D01*
X311400Y204400D02*
X315200D01*
X311300Y204300D02*
X315200D01*
X311200Y204200D02*
X315200D01*
X311100Y204100D02*
X315200D01*
X311000Y204000D02*
X315200D01*
X310900Y203900D02*
X315200D01*
X310800Y203800D02*
X315200D01*
X310700Y203700D02*
X315200D01*
X310600Y203600D02*
X315200D01*
X311200Y211900D02*
X314700D01*
X311200Y211800D02*
X314700D01*
X311200Y211700D02*
X314700D01*
X311200Y211600D02*
X314700D01*
X322100Y203100D02*
X324100D01*
X319100D02*
X321100D01*
X322100Y203000D02*
X324000D01*
X319200D02*
X321100D01*
X322100Y202900D02*
X323900D01*
X319300D02*
X321100D01*
X322100Y202800D02*
X323800D01*
X319400D02*
X321100D01*
X322100Y202700D02*
X323700D01*
X319500D02*
X321100D01*
X322100Y202600D02*
X323600D01*
X319500D02*
X321100D01*
X322100Y202500D02*
X323600D01*
X319500D02*
X321100D01*
X322100Y202400D02*
X323600D01*
X319500D02*
X321100D01*
X322100Y202300D02*
X323600D01*
X319500D02*
X321100D01*
X322100Y202200D02*
X323600D01*
X319500D02*
X321100D01*
X322100Y202100D02*
X323600D01*
X319500D02*
X321100D01*
X322100Y202000D02*
X323600D01*
X319500D02*
X321100D01*
X322100Y201900D02*
X323600D01*
X319500D02*
X321100D01*
X322100Y201800D02*
X323700D01*
X319500D02*
X321100D01*
X322100Y201700D02*
X323800D01*
X319500D02*
X321100D01*
X322100Y201600D02*
X323900D01*
X319500D02*
X321100D01*
X322100Y201500D02*
X324000D01*
X319500D02*
X321100D01*
X322100Y201400D02*
X324100D01*
X319500D02*
X321100D01*
X319500Y201300D02*
X321100D01*
X319500Y201200D02*
X321100D01*
X319500Y201100D02*
X321100D01*
X319500Y201000D02*
X321100D01*
X319500Y200900D02*
X321100D01*
X319500Y200800D02*
X321100D01*
X319500Y200700D02*
X321100D01*
X319500Y200600D02*
X321100D01*
X319500Y200500D02*
X321100D01*
X319500Y200400D02*
X321100D01*
X319500Y200300D02*
X321100D01*
X319500Y200200D02*
X321100D01*
X319500Y200100D02*
X321100D01*
X319500Y200000D02*
X321100D01*
X319500Y199900D02*
X321100D01*
X319500Y199800D02*
X321100D01*
X319500Y199700D02*
X321100D01*
X319500Y199600D02*
X321100D01*
X319500Y199500D02*
X321100D01*
X319500Y199400D02*
X321100D01*
X319500Y199300D02*
X321100D01*
X319500Y199200D02*
X321100D01*
X319500Y199100D02*
X321100D01*
X319500Y199000D02*
X321100D01*
X319500Y198900D02*
X321100D01*
X319500Y198800D02*
X321100D01*
X319500Y198700D02*
X321100D01*
X322800Y198600D02*
X324400D01*
X319500D02*
X321100D01*
X322800Y198500D02*
X324400D01*
X319500D02*
X321100D01*
X322800Y198400D02*
X324400D01*
X319400D02*
X321100D01*
X322700Y198300D02*
X324400D01*
X319300D02*
X321100D01*
X322700Y198200D02*
X324300D01*
X319200D02*
X321100D01*
X322700Y198100D02*
X324300D01*
X319100D02*
X321100D01*
X322700Y198000D02*
X324300D01*
X322600Y197900D02*
X324200D01*
X322600Y197800D02*
X324200D01*
X322600Y197700D02*
X324200D01*
X322600Y197600D02*
X324200D01*
X322500Y197500D02*
X324100D01*
X322500Y197400D02*
X324100D01*
X316600D02*
X320700D01*
X322500Y197300D02*
X324100D01*
X316700D02*
X320600D01*
X322400Y197200D02*
X324100D01*
X316800D02*
X320500D01*
X322400Y197100D02*
X324000D01*
X316900D02*
X320400D01*
X322400Y197000D02*
X324000D01*
X317000D02*
X320300D01*
X322300Y196900D02*
X324000D01*
X317100D02*
X320200D01*
X322300Y196800D02*
X323900D01*
X317200D02*
X320100D01*
X322300Y196700D02*
X323900D01*
X317300D02*
X320000D01*
X322300Y196600D02*
X323900D01*
X317400D02*
X319900D01*
X321800Y211400D02*
X323200D01*
X319700D02*
X320800D01*
X321800Y211300D02*
X323200D01*
X319700D02*
X320800D01*
X321700Y211200D02*
X323200D01*
X319700D02*
X320800D01*
X321700Y211100D02*
X323200D01*
X319700D02*
X320800D01*
X321600Y211000D02*
X323200D01*
X319700D02*
X320800D01*
X321600Y210900D02*
X323200D01*
X319700D02*
X320800D01*
X321500Y210800D02*
X323200D01*
X319700D02*
X320800D01*
X317800D02*
X319000D01*
X321500Y210700D02*
X323200D01*
X319700D02*
X320800D01*
X317800D02*
X319000D01*
X321500Y210600D02*
X323200D01*
X319700D02*
X320800D01*
X317800D02*
X319000D01*
X321400Y210500D02*
X323200D01*
X319700D02*
X320800D01*
X317800D02*
X319000D01*
X321400Y210400D02*
X323200D01*
X319700D02*
X320800D01*
X317800D02*
X319000D01*
X321300Y210300D02*
X323200D01*
X319700D02*
X320800D01*
X317800D02*
X319000D01*
X321300Y210200D02*
X323200D01*
X319700D02*
X320800D01*
X317800D02*
X319000D01*
X321200Y210100D02*
X323200D01*
X319700D02*
X320800D01*
X317800D02*
X319000D01*
X321200Y210000D02*
X323200D01*
X319700D02*
X320800D01*
X317800D02*
X319000D01*
X321100Y209900D02*
X323200D01*
X319700D02*
X320800D01*
X317800D02*
X319000D01*
X321100Y209800D02*
X323200D01*
X319700D02*
X320800D01*
X317800D02*
X319000D01*
X321100Y209700D02*
X323200D01*
X319700D02*
X320800D01*
X317800D02*
X319000D01*
X321000Y209600D02*
X323200D01*
X319700D02*
X320800D01*
X317800D02*
X319000D01*
X321000Y209500D02*
X323200D01*
X319700D02*
X320800D01*
X317800D02*
X319000D01*
X320900Y209400D02*
X323200D01*
X319700D02*
X320800D01*
X317800D02*
X319000D01*
X320900Y209300D02*
X323200D01*
X319700D02*
X320800D01*
X317800D02*
X319000D01*
X319700Y209200D02*
X323200D01*
X317800D02*
X319000D01*
X319700Y209100D02*
X323200D01*
X317800D02*
X319000D01*
X319700Y209000D02*
X323200D01*
X317800D02*
X319000D01*
X319700Y208900D02*
X323200D01*
X317800D02*
X319000D01*
X322100Y208800D02*
X323200D01*
X319700D02*
X322000D01*
X317800D02*
X319000D01*
X322100Y208700D02*
X323200D01*
X319700D02*
X322000D01*
X317800D02*
X319000D01*
X322100Y208600D02*
X323200D01*
X319700D02*
X321900D01*
X317800D02*
X319000D01*
X322100Y208500D02*
X323200D01*
X319700D02*
X321900D01*
X317800D02*
X319000D01*
X322100Y208400D02*
X323200D01*
X319700D02*
X321800D01*
X317800D02*
X319000D01*
X322100Y208300D02*
X323200D01*
X319700D02*
X321800D01*
X317800D02*
X319000D01*
X322100Y208200D02*
X323200D01*
X319700D02*
X321700D01*
X317800D02*
X319000D01*
X322100Y208100D02*
X323200D01*
X319700D02*
X321700D01*
X317800D02*
X319000D01*
X322100Y208000D02*
X323200D01*
X319700D02*
X321600D01*
X317800D02*
X319000D01*
X322100Y207900D02*
X323200D01*
X319700D02*
X321600D01*
X317800D02*
X319000D01*
X322100Y207800D02*
X323200D01*
X319700D02*
X321600D01*
X317800D02*
X319000D01*
X322100Y207700D02*
X323200D01*
X319700D02*
X321500D01*
X317800D02*
X319000D01*
X322100Y207600D02*
X323200D01*
X319700D02*
X321500D01*
X317800D02*
X319000D01*
X322100Y207500D02*
X323200D01*
X319700D02*
X321400D01*
X317800D02*
X319000D01*
X322100Y207400D02*
X323200D01*
X319700D02*
X321400D01*
X317800D02*
X319000D01*
X322100Y207300D02*
X323200D01*
X319700D02*
X321300D01*
X317800D02*
X319000D01*
X322100Y207200D02*
X323200D01*
X319700D02*
X321300D01*
X322100Y207100D02*
X323200D01*
X319700D02*
X321200D01*
X322100Y207000D02*
X323200D01*
X319700D02*
X321200D01*
X322100Y206900D02*
X323200D01*
X319700D02*
X321200D01*
X322100Y206800D02*
X323200D01*
X319700D02*
X321100D01*
X322100Y206700D02*
X323200D01*
X319700D02*
X321100D01*
X322100Y206600D02*
X323200D01*
X319700D02*
X321000D01*
X322100Y206500D02*
X323200D01*
X319700D02*
X321000D01*
X322100Y206400D02*
X323200D01*
X319700D02*
X320900D01*
X322100Y206300D02*
X323200D01*
X319700D02*
X320900D01*
X322100Y206200D02*
X323200D01*
X319700D02*
X320800D01*
X317400Y204600D02*
X319900D01*
X317300Y204500D02*
X320000D01*
X317200Y204400D02*
X320100D01*
X317100Y204300D02*
X320200D01*
X317000Y204200D02*
X320300D01*
X316900Y204100D02*
X320400D01*
X316800Y204000D02*
X320500D01*
X316700Y203900D02*
X320600D01*
X316600Y203800D02*
X320700D01*
X322000Y211900D02*
X323200D01*
X319700D02*
X320800D01*
X322000Y211800D02*
X323200D01*
X319700D02*
X320800D01*
X321900Y211700D02*
X323200D01*
X319700D02*
X320800D01*
X321900Y211600D02*
X323200D01*
X319700D02*
X320800D01*
X325400Y203100D02*
X327000D01*
X325400Y203000D02*
X327000D01*
X325400Y202900D02*
X327000D01*
X325400Y202800D02*
X327000D01*
X325400Y202700D02*
X327000D01*
X325400Y202600D02*
X327000D01*
X325400Y202500D02*
X327000D01*
X325400Y202400D02*
X327000D01*
X325400Y202300D02*
X327000D01*
X325400Y202200D02*
X327000D01*
X325400Y202100D02*
X327000D01*
X325400Y202000D02*
X327000D01*
X325400Y201900D02*
X327000D01*
X325400Y201800D02*
X327000D01*
X325400Y201700D02*
X327000D01*
X325400Y201600D02*
X327000D01*
X325400Y201500D02*
X327000D01*
X325400Y201400D02*
X327000D01*
X331500Y200300D02*
X332000D01*
X330300D02*
X330900D01*
X329100D02*
X329700D01*
X331500Y200200D02*
X332100D01*
X330300D02*
X330900D01*
X329100D02*
X329800D01*
X331500Y200100D02*
X332100D01*
X330300D02*
X330900D01*
X329100D02*
X329800D01*
X331500Y200000D02*
X332100D01*
X330300D02*
X330900D01*
X329100D02*
X329800D01*
X331500Y199900D02*
X332100D01*
X330300D02*
X330900D01*
X329200D02*
X329900D01*
X331500Y199800D02*
X332100D01*
X330300D02*
X330900D01*
X329200D02*
X329900D01*
X325400D02*
X327000D01*
X331500Y199700D02*
X332100D01*
X330300D02*
X330900D01*
X329300D02*
X330000D01*
X325400D02*
X327000D01*
X331500Y199600D02*
X332100D01*
X330300D02*
X330900D01*
X329300D02*
X330000D01*
X325400D02*
X327000D01*
X331500Y199500D02*
X332100D01*
X330300D02*
X330900D01*
X329300D02*
X330000D01*
X325400D02*
X327000D01*
X331500Y199400D02*
X332100D01*
X330300D02*
X330900D01*
X329400D02*
X330100D01*
X325400D02*
X327000D01*
X331500Y199300D02*
X332100D01*
X330300D02*
X330900D01*
X329400D02*
X330100D01*
X325400D02*
X327000D01*
X331500Y199200D02*
X332100D01*
X330300D02*
X330900D01*
X329500D02*
X330200D01*
X325400D02*
X327000D01*
X331500Y199100D02*
X332100D01*
X329500D02*
X330900D01*
X325400D02*
X327000D01*
X331500Y199000D02*
X332100D01*
X329600D02*
X330900D01*
X325400D02*
X327000D01*
X329600Y198900D02*
X330900D01*
X325400D02*
X327000D01*
X329600Y198800D02*
X330900D01*
X325400D02*
X327000D01*
X329700Y198700D02*
X330900D01*
X325400D02*
X327000D01*
X329700Y198600D02*
X330900D01*
X325400D02*
X327000D01*
X329800Y198500D02*
X330900D01*
X325400D02*
X327000D01*
X329700Y198400D02*
X330900D01*
X325400D02*
X327000D01*
X331500Y198300D02*
X332100D01*
X329700D02*
X330900D01*
X325400D02*
X327000D01*
X331500Y198200D02*
X332100D01*
X329600D02*
X330900D01*
X325400D02*
X327000D01*
X331500Y198100D02*
X332100D01*
X329600D02*
X330900D01*
X325400D02*
X327000D01*
X331500Y198000D02*
X332100D01*
X329600D02*
X330900D01*
X325400D02*
X327000D01*
X331500Y197900D02*
X332100D01*
X330300D02*
X330900D01*
X329500D02*
X330200D01*
X325400D02*
X327000D01*
X331500Y197800D02*
X332100D01*
X330300D02*
X330900D01*
X329500D02*
X330200D01*
X325400D02*
X327000D01*
X331500Y197700D02*
X332100D01*
X330300D02*
X330900D01*
X329400D02*
X330100D01*
X325400D02*
X327000D01*
X331500Y197600D02*
X332100D01*
X330300D02*
X330900D01*
X329400D02*
X330100D01*
X325400D02*
X327000D01*
X331500Y197500D02*
X332100D01*
X330300D02*
X330900D01*
X329300D02*
X330100D01*
X325400D02*
X327000D01*
X331500Y197400D02*
X332100D01*
X330300D02*
X330900D01*
X329300D02*
X330000D01*
X325400D02*
X327000D01*
X331500Y197300D02*
X332100D01*
X330300D02*
X330900D01*
X329300D02*
X330000D01*
X325400D02*
X327000D01*
X331500Y197200D02*
X332100D01*
X330300D02*
X330900D01*
X329200D02*
X329900D01*
X325400D02*
X327000D01*
X331500Y197100D02*
X332100D01*
X330300D02*
X330900D01*
X329200D02*
X329900D01*
X325400D02*
X327000D01*
X331500Y197000D02*
X332100D01*
X330300D02*
X330900D01*
X329100D02*
X329900D01*
X325400D02*
X327000D01*
X331500Y196900D02*
X332100D01*
X330300D02*
X330900D01*
X329100D02*
X329800D01*
X325400D02*
X327000D01*
X331500Y196800D02*
X332100D01*
X330300D02*
X330900D01*
X329000D02*
X329800D01*
X325400D02*
X327000D01*
X331500Y196700D02*
X332100D01*
X330300D02*
X330900D01*
X329000D02*
X329800D01*
X325400D02*
X327000D01*
X330300Y196600D02*
X330900D01*
X329100D02*
X329700D01*
X325400D02*
X327000D01*
X326300Y211400D02*
X327400D01*
X326300Y211300D02*
X327400D01*
X326300Y211200D02*
X327400D01*
X326300Y211100D02*
X327400D01*
X326300Y211000D02*
X327400D01*
X326300Y210900D02*
X327400D01*
X326300Y210800D02*
X327400D01*
X326300Y210700D02*
X327400D01*
X326300Y210600D02*
X327400D01*
X326300Y210500D02*
X327400D01*
X326300Y210400D02*
X327400D01*
X326300Y210300D02*
X327400D01*
X326300Y210200D02*
X327400D01*
X326300Y210100D02*
X327400D01*
X326300Y210000D02*
X327400D01*
X326300Y209900D02*
X327400D01*
X326300Y209800D02*
X327400D01*
X326300Y209700D02*
X327400D01*
X326300Y209600D02*
X327400D01*
X326300Y209500D02*
X327400D01*
X326300Y209400D02*
X327400D01*
X326300Y209300D02*
X327400D01*
X326300Y209200D02*
X327400D01*
X326300Y209100D02*
X327400D01*
X326300Y209000D02*
X327400D01*
X326300Y208900D02*
X327400D01*
X326300Y208800D02*
X327400D01*
X326300Y208700D02*
X327400D01*
X326300Y208600D02*
X327400D01*
X326300Y208500D02*
X327400D01*
X326300Y208400D02*
X327400D01*
X326300Y208300D02*
X327400D01*
X326300Y208200D02*
X327400D01*
X326300Y208100D02*
X327400D01*
X326300Y208000D02*
X327400D01*
X326300Y207900D02*
X327400D01*
X326300Y207800D02*
X327400D01*
X326300Y207700D02*
X327400D01*
X326300Y207600D02*
X327400D01*
X326300Y207500D02*
X327400D01*
X326200Y207400D02*
X327400D01*
X326100Y207300D02*
X327400D01*
X324600Y206300D02*
X326700D01*
X324700Y206200D02*
X326600D01*
X328500Y212600D02*
X330500D01*
X328600Y212500D02*
X329800D01*
X326300Y211900D02*
X327400D01*
X326300Y211800D02*
X327400D01*
X326300Y211700D02*
X327400D01*
X326300Y211600D02*
X327400D01*
X328600Y224600D02*
X329800D01*
X328500Y224500D02*
X330600D01*
X338600Y200300D02*
X340200D01*
X335100D02*
X335700D01*
X333900D02*
X334500D01*
X332700D02*
X333300D01*
X338500Y200200D02*
X340300D01*
X337600D02*
X338200D01*
X336200D02*
X336900D01*
X335100D02*
X335700D01*
X333900D02*
X334500D01*
X332700D02*
X333300D01*
X338500Y200100D02*
X340300D01*
X337500D02*
X338200D01*
X336200D02*
X336900D01*
X335100D02*
X335700D01*
X333900D02*
X334500D01*
X332700D02*
X333300D01*
X338500Y200000D02*
X340300D01*
X337500D02*
X338200D01*
X336300D02*
X336900D01*
X335100D02*
X335700D01*
X333900D02*
X334500D01*
X332700D02*
X333300D01*
X338500Y199900D02*
X340300D01*
X337500D02*
X338200D01*
X336300D02*
X336900D01*
X335100D02*
X335700D01*
X333900D02*
X334500D01*
X332700D02*
X333300D01*
X338500Y199800D02*
X340300D01*
X337400D02*
X338100D01*
X336300D02*
X337000D01*
X335100D02*
X335700D01*
X333900D02*
X334500D01*
X332700D02*
X333300D01*
X339100Y199700D02*
X339700D01*
X337400D02*
X338100D01*
X336300D02*
X337000D01*
X335100D02*
X335700D01*
X333900D02*
X334500D01*
X332700D02*
X333300D01*
X339100Y199600D02*
X339700D01*
X337400D02*
X338000D01*
X336400D02*
X337000D01*
X335100D02*
X335700D01*
X333900D02*
X334500D01*
X332700D02*
X333300D01*
X339100Y199500D02*
X339700D01*
X337300D02*
X338000D01*
X336400D02*
X337100D01*
X335100D02*
X335700D01*
X333900D02*
X334500D01*
X332700D02*
X333300D01*
X339100Y199400D02*
X339700D01*
X337300D02*
X338000D01*
X336400D02*
X337100D01*
X335100D02*
X335700D01*
X333900D02*
X334500D01*
X332700D02*
X333300D01*
X339100Y199300D02*
X339700D01*
X337300D02*
X337900D01*
X336500D02*
X337100D01*
X335100D02*
X335700D01*
X333900D02*
X334500D01*
X332700D02*
X333300D01*
X339100Y199200D02*
X339700D01*
X337300D02*
X337900D01*
X336500D02*
X337100D01*
X335100D02*
X335700D01*
X333900D02*
X334500D01*
X332700D02*
X333300D01*
X339100Y199100D02*
X339700D01*
X337200D02*
X337900D01*
X336500D02*
X337100D01*
X335100D02*
X335700D01*
X333900D02*
X334500D01*
X332700D02*
X333300D01*
X339100Y199000D02*
X339700D01*
X336600D02*
X337800D01*
X335100D02*
X335700D01*
X333900D02*
X334500D01*
X332700D02*
X333300D01*
X339100Y198900D02*
X339700D01*
X336600D02*
X337800D01*
X335100D02*
X335700D01*
X333900D02*
X334500D01*
X339100Y198800D02*
X339700D01*
X336600D02*
X337700D01*
X335100D02*
X335700D01*
X333900D02*
X334500D01*
X339100Y198700D02*
X339700D01*
X336700D02*
X337700D01*
X335100D02*
X335700D01*
X333900D02*
X334500D01*
X339100Y198600D02*
X339700D01*
X336700D02*
X337700D01*
X335100D02*
X335700D01*
X333900D02*
X334500D01*
X339100Y198500D02*
X339700D01*
X336700D02*
X337600D01*
X335100D02*
X335700D01*
X333900D02*
X334500D01*
X339100Y198400D02*
X339700D01*
X336800D02*
X337600D01*
X335100D02*
X335700D01*
X333900D02*
X334500D01*
X339100Y198300D02*
X339700D01*
X336800D02*
X337500D01*
X335100D02*
X335700D01*
X333900D02*
X334500D01*
X332700D02*
X333300D01*
X339100Y198200D02*
X339700D01*
X336800D02*
X337500D01*
X335100D02*
X335700D01*
X333900D02*
X334500D01*
X332700D02*
X333300D01*
X339100Y198100D02*
X339700D01*
X336800D02*
X337500D01*
X335100D02*
X335700D01*
X333900D02*
X334500D01*
X332700D02*
X333300D01*
X339100Y198000D02*
X339700D01*
X336800D02*
X337500D01*
X335100D02*
X335700D01*
X333900D02*
X334500D01*
X332700D02*
X333300D01*
X339100Y197900D02*
X339700D01*
X336800D02*
X337500D01*
X335100D02*
X335700D01*
X333900D02*
X334500D01*
X332700D02*
X333300D01*
X339100Y197800D02*
X339700D01*
X336800D02*
X337500D01*
X335100D02*
X335700D01*
X333900D02*
X334500D01*
X332700D02*
X333300D01*
X339100Y197700D02*
X339700D01*
X336800D02*
X337500D01*
X335100D02*
X335700D01*
X333900D02*
X334500D01*
X332700D02*
X333300D01*
X339100Y197600D02*
X339700D01*
X336800D02*
X337500D01*
X335100D02*
X335700D01*
X333900D02*
X334500D01*
X332700D02*
X333300D01*
X339100Y197500D02*
X339700D01*
X336800D02*
X337500D01*
X335100D02*
X335700D01*
X333900D02*
X334500D01*
X332700D02*
X333300D01*
X339100Y197400D02*
X339700D01*
X336800D02*
X337500D01*
X335100D02*
X335700D01*
X333900D02*
X334500D01*
X332700D02*
X333300D01*
X339100Y197300D02*
X339700D01*
X336800D02*
X337500D01*
X335000D02*
X335700D01*
X333900D02*
X334600D01*
X332700D02*
X333300D01*
X339100Y197200D02*
X339700D01*
X336800D02*
X337500D01*
X334900D02*
X335700D01*
X333900D02*
X334600D01*
X332700D02*
X333300D01*
X339100Y197100D02*
X339700D01*
X336800D02*
X337500D01*
X333900D02*
X335700D01*
X332700D02*
X333300D01*
X339100Y197000D02*
X339700D01*
X336800D02*
X337500D01*
X333900D02*
X335600D01*
X332700D02*
X333300D01*
X339100Y196900D02*
X339700D01*
X336800D02*
X337500D01*
X334000D02*
X335600D01*
X332700D02*
X333300D01*
X339100Y196800D02*
X339700D01*
X336800D02*
X337500D01*
X334100D02*
X335500D01*
X332700D02*
X333300D01*
X339100Y196700D02*
X339700D01*
X336800D02*
X337500D01*
X334200D02*
X335400D01*
X332700D02*
X333300D01*
X336900Y196600D02*
X337500D01*
X334400D02*
X335200D01*
X333800Y208900D02*
X340400D01*
X333700Y208800D02*
X340400D01*
X333700Y208700D02*
X340300D01*
X333600Y208600D02*
X340200D01*
X333500Y208500D02*
X340200D01*
X333500Y208400D02*
X340100D01*
X333400Y208300D02*
X340100D01*
X333400Y208200D02*
X340000D01*
X333300Y208100D02*
X340000D01*
X333200Y208000D02*
X339900D01*
X333200Y207900D02*
X339800D01*
X333100Y207800D02*
X339800D01*
X333100Y207700D02*
X339700D01*
X333000Y207600D02*
X339700D01*
X332900Y207500D02*
X339600D01*
X332900Y207400D02*
X339500D01*
X332800Y207300D02*
X339500D01*
X332700Y207200D02*
X339400D01*
X332700Y207100D02*
X339400D01*
X332600Y207000D02*
X339300D01*
X332600Y206900D02*
X339300D01*
X337000Y230000D02*
X337700D01*
X336300Y229900D02*
X337800D01*
X335600Y229800D02*
X337800D01*
X335400Y229700D02*
X337900D01*
X335300Y229600D02*
X337900D01*
X335300Y229500D02*
X337900D01*
X335300Y229400D02*
X338000D01*
X335300Y229300D02*
X338000D01*
X335300Y229200D02*
X338100D01*
X335300Y229100D02*
X338100D01*
X335200Y229000D02*
X338200D01*
X335200Y228900D02*
X338200D01*
X335200Y228800D02*
X338200D01*
X335200Y228700D02*
X338300D01*
X335200Y228600D02*
X338300D01*
X335200Y228500D02*
X338400D01*
X335200Y228400D02*
X338400D01*
X342100Y200300D02*
X343000D01*
X342000Y200200D02*
X343100D01*
X340800D02*
X341400D01*
X342000Y200100D02*
X343300D01*
X340700D02*
X341400D01*
X342000Y200000D02*
X343300D01*
X340700D02*
X341400D01*
X342000Y199900D02*
X343400D01*
X340700D02*
X341400D01*
X342600Y199800D02*
X343500D01*
X342000D02*
X342400D01*
X340700D02*
X341400D01*
X342700Y199700D02*
X343500D01*
X342100D02*
X342200D01*
X340700D02*
X341400D01*
X342800Y199600D02*
X343500D01*
X340700D02*
X341400D01*
X342800Y199500D02*
X343600D01*
X340700D02*
X341400D01*
X342900Y199400D02*
X343600D01*
X340700D02*
X341400D01*
X342900Y199300D02*
X343600D01*
X340700D02*
X341400D01*
X343000Y199200D02*
X343600D01*
X340700D02*
X341400D01*
X343000Y199100D02*
X343700D01*
X340700D02*
X341400D01*
X343000Y199000D02*
X343700D01*
X340700D02*
X341400D01*
X343000Y198900D02*
X343700D01*
X340700D02*
X341400D01*
X343000Y198800D02*
X343700D01*
X340700D02*
X341400D01*
X343000Y198700D02*
X343700D01*
X340700D02*
X341400D01*
X343000Y198600D02*
X343700D01*
X340700D02*
X341400D01*
X343000Y198500D02*
X343700D01*
X340700D02*
X341400D01*
X343000Y198400D02*
X343700D01*
X340700D02*
X341400D01*
X343000Y198300D02*
X343700D01*
X340700D02*
X341400D01*
X343000Y198200D02*
X343700D01*
X340700D02*
X341400D01*
X343000Y198100D02*
X343700D01*
X340700D02*
X341400D01*
X343000Y198000D02*
X343700D01*
X340700D02*
X341400D01*
X343000Y197900D02*
X343700D01*
X340700D02*
X341400D01*
X343000Y197800D02*
X343700D01*
X340700D02*
X341400D01*
X343000Y197700D02*
X343700D01*
X340700D02*
X341400D01*
X342900Y197600D02*
X343600D01*
X340700D02*
X341400D01*
X342900Y197500D02*
X343600D01*
X340700D02*
X341400D01*
X342800Y197400D02*
X343600D01*
X340700D02*
X341400D01*
X342700Y197300D02*
X343600D01*
X340700D02*
X341400D01*
X342000Y197200D02*
X343500D01*
X340700D02*
X341400D01*
X342000Y197100D02*
X343500D01*
X340700D02*
X341400D01*
X342000Y197000D02*
X343400D01*
X340700D02*
X341400D01*
X342000Y196900D02*
X343300D01*
X340700D02*
X341400D01*
X342000Y196800D02*
X343200D01*
X340700D02*
X341400D01*
X342000Y196700D02*
X343000D01*
X340700D02*
X341400D01*
X340800Y196600D02*
X341400D01*
X340700Y209300D02*
X347500D01*
X340700Y209200D02*
X347600D01*
X340700Y209100D02*
X347600D01*
X340700Y209000D02*
X347600D01*
X340700Y208900D02*
X347600D01*
X340800Y208800D02*
X347600D01*
X340800Y208700D02*
X347600D01*
X340800Y208600D02*
X347600D01*
X340800Y208500D02*
X347600D01*
X340800Y208400D02*
X347600D01*
X340800Y208300D02*
X347600D01*
X340800Y208200D02*
X347700D01*
X340800Y208100D02*
X347700D01*
X340800Y208000D02*
X347700D01*
X340900Y207900D02*
X347700D01*
X340900Y207800D02*
X347700D01*
X340900Y207700D02*
X347700D01*
X340900Y207600D02*
X347800D01*
X340900Y207500D02*
X347800D01*
X340900Y207400D02*
X347800D01*
X341000Y207300D02*
X347800D01*
X341000Y207200D02*
X347900D01*
X341000Y207100D02*
X347900D01*
X341000Y207000D02*
X347900D01*
X341000Y206900D02*
X347900D01*
X341100Y206800D02*
X348000D01*
X341100Y206700D02*
X348000D01*
X341100Y206600D02*
X348000D01*
X341100Y206500D02*
X348000D01*
X341200Y206400D02*
X348100D01*
X341200Y206300D02*
X348100D01*
X341200Y206200D02*
X348100D01*
X341200Y206100D02*
X348200D01*
X341300Y206000D02*
X348200D01*
X341300Y205900D02*
X348300D01*
X341300Y205800D02*
X348300D01*
X341300Y205700D02*
X348300D01*
X341400Y205600D02*
X348400D01*
X341400Y205500D02*
X348400D01*
X340600Y219400D02*
X347400D01*
X340600Y219300D02*
X347400D01*
X340600Y219200D02*
X347400D01*
X340600Y219100D02*
X347400D01*
X340600Y219000D02*
X347400D01*
X340600Y218900D02*
X347400D01*
X340600Y218800D02*
X347400D01*
X340600Y218700D02*
X347400D01*
X340600Y218600D02*
X347400D01*
X340600Y218500D02*
X347400D01*
X340600Y218400D02*
X347400D01*
X340600Y218300D02*
X347400D01*
X340600Y218200D02*
X347400D01*
X340600Y218100D02*
X347400D01*
X340600Y218000D02*
X347400D01*
X340600Y217900D02*
X347400D01*
X340600Y217800D02*
X347400D01*
X340600Y217700D02*
X347400D01*
X340600Y217600D02*
X347400D01*
X340600Y217500D02*
X347400D01*
X340600Y217400D02*
X347400D01*
X340600Y217300D02*
X347400D01*
X340600Y217200D02*
X347400D01*
X340600Y217100D02*
X347400D01*
X340600Y217000D02*
X347400D01*
X340600Y216900D02*
X347400D01*
X340600Y216800D02*
X347400D01*
X340600Y216700D02*
X347400D01*
X340600Y216600D02*
X347400D01*
X340600Y216500D02*
X347400D01*
X340600Y216400D02*
X347400D01*
X340600Y216300D02*
X347400D01*
X340600Y216200D02*
X347400D01*
X340600Y216100D02*
X347400D01*
X340600Y216000D02*
X347400D01*
X340600Y215900D02*
X347400D01*
X340600Y215800D02*
X347400D01*
X340600Y215700D02*
X347400D01*
X340600Y215600D02*
X347400D01*
X340600Y215500D02*
X347400D01*
X340600Y215400D02*
X347400D01*
X340600Y215300D02*
X347400D01*
X340600Y215200D02*
X347400D01*
X340600Y215100D02*
X347400D01*
X340600Y215000D02*
X347400D01*
X340600Y222700D02*
X347400D01*
X340600Y222600D02*
X347400D01*
X340600Y222500D02*
X347400D01*
X340600Y222400D02*
X347400D01*
X340600Y222300D02*
X347400D01*
X340600Y222200D02*
X347400D01*
X340600Y222100D02*
X347400D01*
X340600Y222000D02*
X347400D01*
X340600Y221900D02*
X347400D01*
X340600Y221800D02*
X347400D01*
X340600Y221700D02*
X347400D01*
X340600Y221600D02*
X347400D01*
X340600Y221500D02*
X347400D01*
X340600Y221400D02*
X347400D01*
X340600Y221300D02*
X347400D01*
X340600Y221200D02*
X347400D01*
X340600Y221100D02*
X347400D01*
X340600Y221000D02*
X347400D01*
X340600Y220900D02*
X347400D01*
X340600Y220800D02*
X347400D01*
X340600Y220700D02*
X347400D01*
X340600Y220600D02*
X347400D01*
X340600Y220500D02*
X347400D01*
X340600Y220400D02*
X347400D01*
X340600Y220300D02*
X347400D01*
X340600Y220200D02*
X347400D01*
X340600Y220100D02*
X347400D01*
X340600Y220000D02*
X347400D01*
X340600Y219900D02*
X347400D01*
X340600Y219800D02*
X347400D01*
X340600Y219700D02*
X347400D01*
X340600Y219600D02*
X347400D01*
X340700Y230100D02*
X341700D01*
X348600Y197100D02*
X355100D01*
X348900Y197000D02*
X354700D01*
X349300Y196900D02*
X354300D01*
X349800Y196800D02*
X353700D01*
X350600Y196700D02*
X353000D01*
X360100Y203400D02*
X361600D01*
X360000Y203300D02*
X361500D01*
X359900Y203200D02*
X361500D01*
X359900Y203100D02*
X361400D01*
X359800Y203000D02*
X361400D01*
X359800Y202900D02*
X361300D01*
X359700Y202800D02*
X361300D01*
X359800Y202700D02*
X361200D01*
X360000Y202600D02*
X361200D01*
X360100Y202500D02*
X361100D01*
X360200Y202400D02*
X361100D01*
X360400Y202300D02*
X361000D01*
X360500Y202200D02*
X361000D01*
X357700D02*
X359800D01*
X360700Y202100D02*
X360900D01*
X357800D02*
X360000D01*
X357800Y202000D02*
X360100D01*
X357800Y201900D02*
X360300D01*
X357800Y201800D02*
X360400D01*
X357800Y201700D02*
X360600D01*
X357800Y201600D02*
X360600D01*
X358000Y201500D02*
X360500D01*
X358100Y201400D02*
X360500D01*
X358200Y201300D02*
X360400D01*
X358300Y201200D02*
X360400D01*
X357500D02*
X357600D01*
X358500Y201100D02*
X360300D01*
X357300D02*
X357800D01*
X358600Y201000D02*
X360200D01*
X358700Y200900D02*
X360200D01*
X358900Y200800D02*
X360100D01*
X359000Y200700D02*
X360000D01*
X359100Y200600D02*
X359900D01*
X359300Y200500D02*
X359900D01*
X359400Y200400D02*
X359800D01*
X359500Y200300D02*
X359700D01*
X361100Y211400D02*
X363100D01*
X359700D02*
X360400D01*
X361200Y211300D02*
X363100D01*
X359600D02*
X360600D01*
X361300Y211200D02*
X363100D01*
X359500D02*
X360700D01*
X362000Y211100D02*
X363100D01*
X359300D02*
X360800D01*
X362100Y211000D02*
X363100D01*
X359200D02*
X360900D01*
X362100Y210900D02*
X363100D01*
X359100D02*
X361100D01*
X362200Y210800D02*
X363100D01*
X359000D02*
X361100D01*
X362200Y210700D02*
X363100D01*
X358900D02*
X361100D01*
X362200Y210600D02*
X363100D01*
X358700D02*
X361100D01*
X362300Y210500D02*
X363100D01*
X358600D02*
X361200D01*
X362400Y210400D02*
X363100D01*
X358500D02*
X361300D01*
X362500Y210300D02*
X363100D01*
X358400D02*
X361400D01*
X362700Y210200D02*
X363100D01*
X361800D02*
X361900D01*
X358200D02*
X361600D01*
X362800Y210100D02*
X363100D01*
X358100D02*
X362000D01*
X362900Y210000D02*
X363100D01*
X358000D02*
X362200D01*
X357900Y209900D02*
X362300D01*
X357700Y209800D02*
X362400D01*
X357600Y209700D02*
X362600D01*
X357600Y209600D02*
X362700D01*
X357600Y209500D02*
X362800D01*
X357600Y209400D02*
X363000D01*
X357500Y209300D02*
X363000D01*
X357400Y209200D02*
X363000D01*
X358600Y209100D02*
X363000D01*
X357300D02*
X358100D01*
X358700Y209000D02*
X363000D01*
X358800Y208900D02*
X363000D01*
X358800Y208800D02*
X363000D01*
X358800Y208700D02*
X363000D01*
X358900Y208600D02*
X362900D01*
X359000Y208500D02*
X362900D01*
X359100Y208400D02*
X362900D01*
X359300Y208300D02*
X362900D01*
X359400Y208200D02*
X362900D01*
X359500Y208100D02*
X362900D01*
X359700Y208000D02*
X362900D01*
X359800Y207900D02*
X362800D01*
X360000Y207800D02*
X362800D01*
X360100Y207700D02*
X362800D01*
X360200Y207600D02*
X362800D01*
X360400Y207500D02*
X362800D01*
X360500Y207400D02*
X362800D01*
X360600Y207300D02*
X362800D01*
X360800Y207200D02*
X362700D01*
X360900Y207100D02*
X362700D01*
X361000Y207000D02*
X362700D01*
X361200Y206900D02*
X362700D01*
X361300Y206800D02*
X362700D01*
X361500Y206700D02*
X362600D01*
X361600Y206600D02*
X362600D01*
X361700Y206500D02*
X362600D01*
X361800Y206400D02*
X362600D01*
X361800Y206300D02*
X362500D01*
X361800Y206200D02*
X362500D01*
X361800Y206100D02*
X362500D01*
X361900Y206000D02*
X362500D01*
X361800Y205900D02*
X362500D01*
X361800Y205800D02*
X362400D01*
X361700Y205700D02*
X362400D01*
X361600Y205600D02*
X362400D01*
X361500Y205500D02*
X362300D01*
X361500Y205400D02*
X362300D01*
X361400Y205300D02*
X362300D01*
X361300Y205200D02*
X362300D01*
X361200Y205100D02*
X362200D01*
X361200Y205000D02*
X362200D01*
X361100Y204900D02*
X362200D01*
X361000Y204800D02*
X362100D01*
X361000Y204700D02*
X362100D01*
X361000Y204600D02*
X362100D01*
X361100Y204500D02*
X362000D01*
X361000Y204400D02*
X362000D01*
X361000Y204300D02*
X361900D01*
X360900Y204200D02*
X361900D01*
X360800Y204100D02*
X361900D01*
X360600Y204000D02*
X361800D01*
X360400Y203900D02*
X361800D01*
X360300Y203800D02*
X361700D01*
X360300Y203700D02*
X361700D01*
X360200Y203600D02*
X361700D01*
X360600Y219400D02*
X363100D01*
X360500Y219300D02*
X363100D01*
X360400Y219200D02*
X363100D01*
X360300Y219100D02*
X363100D01*
X360200Y219000D02*
X363100D01*
X360200Y218900D02*
X363100D01*
X360100Y218800D02*
X363100D01*
X360000Y218700D02*
X363100D01*
X359900Y218600D02*
X363100D01*
X359900Y218500D02*
X363100D01*
X359800Y218400D02*
X363100D01*
X359800Y218300D02*
X363100D01*
X359900Y218200D02*
X363100D01*
X360000Y218100D02*
X363100D01*
X360100Y218000D02*
X363100D01*
X360200Y217900D02*
X363100D01*
X360300Y217800D02*
X363100D01*
X360400Y217700D02*
X363100D01*
X360500Y217600D02*
X363100D01*
X360700Y217500D02*
X363100D01*
X361200Y217400D02*
X363100D01*
X360800D02*
X361100D01*
X361400Y217300D02*
X363100D01*
X361500Y217200D02*
X363100D01*
X361600Y217100D02*
X363100D01*
X361600Y217000D02*
X363100D01*
X361600Y216900D02*
X363100D01*
X361700Y216800D02*
X363100D01*
X361800Y216700D02*
X363100D01*
X361900Y216600D02*
X363100D01*
X362100Y216500D02*
X363100D01*
X362200Y216400D02*
X363100D01*
X362300Y216300D02*
X363100D01*
X362500Y216200D02*
X363100D01*
X362600Y216100D02*
X363100D01*
X362700Y216000D02*
X363100D01*
X362800Y215900D02*
X363100D01*
X362800Y215800D02*
X363100D01*
X362800Y215700D02*
X363100D01*
X362800Y215600D02*
X363100D01*
X362900Y215500D02*
X363100D01*
X362800Y215400D02*
X363100D01*
X362700Y215300D02*
X363100D01*
X362700Y215200D02*
X363100D01*
X362600Y215100D02*
X363100D01*
X362500Y215000D02*
X363100D01*
X362400Y214900D02*
X363100D01*
X362400Y214800D02*
X363100D01*
X362300Y214700D02*
X363100D01*
X362200Y214600D02*
X363100D01*
X362100Y214500D02*
X363100D01*
X362000Y214400D02*
X363100D01*
X362000Y214300D02*
X363100D01*
X362000Y214200D02*
X363100D01*
X362000Y214100D02*
X363100D01*
X362000Y214000D02*
X363100D01*
X362000Y213900D02*
X363100D01*
X362100Y213800D02*
X363100D01*
X362200Y213700D02*
X363100D01*
X362300Y213600D02*
X363100D01*
X362400Y213500D02*
X363100D01*
X362600Y213400D02*
X363100D01*
X362700Y213300D02*
X363100D01*
X362800Y213200D02*
X363100D01*
X362900Y213100D02*
X363100D01*
X360300Y212000D02*
X363100D01*
X360400Y211900D02*
X363100D01*
X360600Y211800D02*
X363100D01*
X360700Y211700D02*
X363100D01*
X360800Y211600D02*
X363100D01*
X361900Y227400D02*
X363100D01*
X361400Y227300D02*
X363100D01*
X362200Y222100D02*
X363100D01*
X362300Y222000D02*
X363100D01*
X362400Y221900D02*
X363100D01*
X362500Y221800D02*
X363100D01*
X362500Y221700D02*
X363100D01*
X362500Y221600D02*
X363100D01*
X362400Y221500D02*
X363100D01*
X362400Y221400D02*
X363100D01*
X362300Y221300D02*
X363100D01*
X362200Y221200D02*
X363100D01*
X361900Y221100D02*
X363100D01*
X361800Y221000D02*
X363100D01*
X361700Y220900D02*
X363100D01*
X361600Y220800D02*
X363100D01*
X361500Y220700D02*
X363100D01*
X361500Y220600D02*
X363100D01*
X361400Y220500D02*
X363100D01*
X361300Y220400D02*
X363100D01*
X361200Y220300D02*
X363100D01*
X361200Y220200D02*
X363100D01*
X361100Y220100D02*
X363100D01*
X361000Y220000D02*
X363100D01*
X360900Y219900D02*
X363100D01*
X360900Y219800D02*
X363100D01*
X360800Y219700D02*
X363100D01*
X360700Y219600D02*
X363100D01*
X357200Y228200D02*
X358100D01*
X356600Y228100D02*
X358500D01*
X362900Y227800D02*
X363100D01*
X362700Y227700D02*
X363100D01*
X362500Y227600D02*
X363100D01*
X285400Y211500D02*
X288500D01*
X284800Y203500D02*
X289500D01*
X298500Y211500D02*
X299900D01*
X293500D02*
X296700D01*
X296500Y203500D02*
X298100D01*
X305000Y211500D02*
X306100D01*
X303600D02*
X304200D01*
X301700D02*
X302900D01*
X311200D02*
X314700D01*
X310500Y203500D02*
X315200D01*
X321900Y211500D02*
X323200D01*
X319700D02*
X320800D01*
X326300D02*
X327400D01*
X340600Y219500D02*
X347400D01*
X360900Y211500D02*
X363100D01*
X359800D02*
X360300D01*
X360100Y203500D02*
X361600D01*
X362200Y227500D02*
X363100D01*
X360600Y219500D02*
X363100D01*
X299100Y203400D02*
X303500D01*
X290600D02*
X295500D01*
X299100Y203300D02*
X303500D01*
X290600D02*
X295500D01*
X299100Y203200D02*
X303500D01*
X290600D02*
X295500D01*
X300500Y203100D02*
X302100D01*
X290600D02*
X292600D01*
X300500Y203000D02*
X302000D01*
X290600D02*
X292500D01*
X300500Y202900D02*
X302000D01*
X300500Y202800D02*
X302000D01*
X300500Y202700D02*
X302000D01*
X300500Y202600D02*
X302000D01*
X300500Y202500D02*
X302000D01*
X300500Y202400D02*
X302000D01*
X300500Y202300D02*
X302000D01*
X300500Y202200D02*
X302000D01*
X300500Y202100D02*
X302000D01*
X300500Y202000D02*
X302000D01*
X300500Y201900D02*
X302000D01*
X300500Y201800D02*
X302000D01*
X300500Y201700D02*
X302000D01*
X300500Y201600D02*
X302000D01*
X300500Y201500D02*
X302000D01*
X300500Y201400D02*
X302000D01*
X300500Y201300D02*
X302000D01*
X300500Y201200D02*
X302000D01*
X300500Y201100D02*
X302000D01*
X300500Y201000D02*
X302000D01*
X300500Y200900D02*
X302000D01*
X300500Y200800D02*
X302000D01*
X300500Y200700D02*
X302000D01*
X300500Y200600D02*
X302000D01*
X300500Y200500D02*
X302000D01*
X300500Y200400D02*
X302000D01*
X300500Y200300D02*
X302000D01*
X300500Y200200D02*
X302000D01*
X300500Y200100D02*
X302000D01*
X300500Y200000D02*
X302000D01*
X300500Y199900D02*
X302000D01*
X300500Y199800D02*
X302000D01*
X300500Y199700D02*
X302000D01*
X300500Y199600D02*
X302000D01*
X300500Y199500D02*
X302000D01*
X300500Y199400D02*
X302000D01*
X300500Y199300D02*
X302000D01*
X300500Y199200D02*
X302000D01*
X300500Y199100D02*
X302000D01*
X300500Y199000D02*
X302000D01*
X300500Y198900D02*
X302000D01*
X300500Y198800D02*
X302000D01*
X300500Y198700D02*
X302000D01*
X300500Y198600D02*
X302000D01*
X300500Y198500D02*
X302000D01*
X300500Y198400D02*
X302000D01*
X300500Y198300D02*
X302000D01*
X300500Y198200D02*
X302000D01*
X290600D02*
X292500D01*
X300500Y198100D02*
X302000D01*
X290600D02*
X292600D01*
X300500Y198000D02*
X302000D01*
X290600D02*
X295500D01*
X300500Y197900D02*
X302000D01*
X290600D02*
X295500D01*
X300500Y197800D02*
X302000D01*
X290600D02*
X295500D01*
X300500Y197700D02*
X302000D01*
X290700D02*
X295400D01*
X300500Y197600D02*
X302000D01*
X290800D02*
X295300D01*
X300500Y197500D02*
X302000D01*
X290900D02*
X295200D01*
X300500Y197400D02*
X302000D01*
X291000D02*
X295100D01*
X300500Y197300D02*
X302000D01*
X291100D02*
X295000D01*
X300500Y197200D02*
X302000D01*
X291200D02*
X294900D01*
X300500Y197100D02*
X302000D01*
X291300D02*
X294800D01*
X300500Y197000D02*
X302000D01*
X291400D02*
X294700D01*
X300500Y196900D02*
X302000D01*
X291500D02*
X294600D01*
X300500Y196800D02*
X302000D01*
X291600D02*
X294500D01*
X300500Y196700D02*
X302000D01*
X291700D02*
X294400D01*
X300500Y196600D02*
X302000D01*
X291800D02*
X294300D01*
X289200Y211400D02*
X292700D01*
X289200Y211300D02*
X292700D01*
X289200Y211200D02*
X292700D01*
X289200Y211100D02*
X292700D01*
X289200Y211000D02*
X292700D01*
X289200Y210900D02*
X292700D01*
X291600Y210800D02*
X292700D01*
X291600Y210700D02*
X292700D01*
X291600Y210600D02*
X292700D01*
X291600Y210500D02*
X292700D01*
X291600Y210400D02*
X292700D01*
X291600Y210300D02*
X292700D01*
X291600Y210200D02*
X292700D01*
X291600Y210100D02*
X292700D01*
X291600Y210000D02*
X292700D01*
X291600Y209900D02*
X292700D01*
X291600Y209800D02*
X292700D01*
X291600Y209700D02*
X292700D01*
X290500Y209600D02*
X292700D01*
X290500Y209500D02*
X292700D01*
X290500Y209400D02*
X292700D01*
X290500Y209300D02*
X292700D01*
X290500Y209200D02*
X292700D01*
X290500Y209100D02*
X292700D01*
X290500Y209000D02*
X292700D01*
X290500Y208900D02*
X292700D01*
X290500Y208800D02*
X292700D01*
X290500Y208700D02*
X292700D01*
X290500Y208600D02*
X292700D01*
X299300Y208500D02*
X300500D01*
X290500D02*
X292700D01*
X299300Y208400D02*
X300500D01*
X291600D02*
X292700D01*
X299400Y208300D02*
X300500D01*
X291600D02*
X292700D01*
X299400Y208200D02*
X300500D01*
X291600D02*
X292700D01*
X299400Y208100D02*
X300500D01*
X291600D02*
X292700D01*
X299400Y208000D02*
X300600D01*
X291600D02*
X292700D01*
X299400Y207900D02*
X300600D01*
X291600D02*
X292700D01*
X299400Y207800D02*
X300600D01*
X291600D02*
X292700D01*
X299500Y207700D02*
X300600D01*
X291600D02*
X292700D01*
X297700Y207600D02*
X300600D01*
X291600D02*
X292700D01*
X297700Y207500D02*
X300700D01*
X291600D02*
X292700D01*
X297700Y207400D02*
X300700D01*
X291600D02*
X292700D01*
X297600Y207300D02*
X300700D01*
X291600D02*
X292700D01*
X297600Y207200D02*
X300700D01*
X289200D02*
X292700D01*
X297600Y207100D02*
X300700D01*
X289200D02*
X292700D01*
X297600Y207000D02*
X300800D01*
X289200D02*
X292700D01*
X297600Y206900D02*
X300800D01*
X289200D02*
X292700D01*
X297500Y206800D02*
X300800D01*
X289200D02*
X292700D01*
X297500Y206700D02*
X300800D01*
X289200D02*
X292700D01*
X297500Y206600D02*
X300800D01*
X289200D02*
X292700D01*
X299700Y206500D02*
X300900D01*
X289200D02*
X292700D01*
X299700Y206400D02*
X300900D01*
X289200D02*
X292700D01*
X299800Y206300D02*
X300900D01*
X289200D02*
X292700D01*
X299800Y206200D02*
X300900D01*
X289200D02*
X292700D01*
X299100Y204600D02*
X303500D01*
X291800D02*
X294300D01*
X299100Y204500D02*
X303500D01*
X291700D02*
X294400D01*
X299100Y204400D02*
X303500D01*
X291600D02*
X294500D01*
X299100Y204300D02*
X303500D01*
X291500D02*
X294600D01*
X299100Y204200D02*
X303500D01*
X291400D02*
X294700D01*
X299100Y204100D02*
X303500D01*
X291300D02*
X294800D01*
X299100Y204000D02*
X303500D01*
X291200D02*
X294900D01*
X299100Y203900D02*
X303500D01*
X291100D02*
X295000D01*
X299100Y203800D02*
X303500D01*
X291000D02*
X295100D01*
X299100Y203700D02*
X303500D01*
X290900D02*
X295200D01*
X299100Y203600D02*
X303500D01*
X290800D02*
X295300D01*
X289200Y211900D02*
X292700D01*
X289200Y211800D02*
X292700D01*
X289200Y211700D02*
X292700D01*
X289200Y211600D02*
X292700D01*
X322100Y203400D02*
X327000D01*
X316200D02*
X321100D01*
X322100Y203300D02*
X327000D01*
X316200D02*
X321100D01*
X322100Y203200D02*
X327000D01*
X316200D02*
X321100D01*
X316200Y203100D02*
X318200D01*
X307300D02*
X309300D01*
X316200Y203000D02*
X318100D01*
X307400D02*
X309300D01*
X316200Y202900D02*
X318000D01*
X307600D02*
X309300D01*
X316200Y202800D02*
X317900D01*
X307700D02*
X309300D01*
X316200Y202700D02*
X317800D01*
X307800D02*
X309300D01*
X316200Y202600D02*
X317800D01*
X307800D02*
X309300D01*
X316200Y202500D02*
X317800D01*
X307800D02*
X309300D01*
X316200Y202400D02*
X317800D01*
X307800D02*
X309300D01*
X316200Y202300D02*
X317800D01*
X307800D02*
X309300D01*
X316200Y202200D02*
X317800D01*
X307800D02*
X309300D01*
X329600Y202100D02*
X336400D01*
X316200D02*
X317800D01*
X307800D02*
X309300D01*
X329600Y202000D02*
X336400D01*
X316200D02*
X317800D01*
X307800D02*
X309300D01*
X329500Y201900D02*
X336300D01*
X316200D02*
X317800D01*
X307800D02*
X309300D01*
X329400Y201800D02*
X336300D01*
X316200D02*
X317800D01*
X307800D02*
X309300D01*
X329400Y201700D02*
X336200D01*
X316200D02*
X317800D01*
X307800D02*
X309300D01*
X329300Y201600D02*
X336100D01*
X316200D02*
X317800D01*
X307800D02*
X309300D01*
X329200Y201500D02*
X336100D01*
X316200D02*
X317800D01*
X307800D02*
X309300D01*
X329200Y201400D02*
X336000D01*
X316200D02*
X317800D01*
X307800D02*
X309300D01*
X329100Y201300D02*
X336000D01*
X322100D02*
X327000D01*
X316200D02*
X317800D01*
X307800D02*
X309300D01*
X329100Y201200D02*
X335900D01*
X322100D02*
X327000D01*
X316200D02*
X317800D01*
X307800D02*
X309300D01*
X322100Y201100D02*
X327000D01*
X316200D02*
X317800D01*
X307800D02*
X309300D01*
X322200Y201000D02*
X327000D01*
X316200D02*
X317800D01*
X307800D02*
X309300D01*
X322300Y200900D02*
X327000D01*
X316200D02*
X317800D01*
X307800D02*
X309300D01*
X322400Y200800D02*
X327000D01*
X316200D02*
X317800D01*
X307800D02*
X309300D01*
X322500Y200700D02*
X327000D01*
X316200D02*
X317800D01*
X307800D02*
X309300D01*
X322600Y200600D02*
X327000D01*
X316200D02*
X317800D01*
X307800D02*
X309300D01*
X322700Y200500D02*
X327000D01*
X316200D02*
X317800D01*
X307800D02*
X309300D01*
X322800Y200400D02*
X327000D01*
X316200D02*
X317800D01*
X307800D02*
X309300D01*
X322900Y200300D02*
X327000D01*
X316200D02*
X317800D01*
X307800D02*
X309300D01*
X323000Y200200D02*
X327000D01*
X316200D02*
X317800D01*
X307800D02*
X309300D01*
X323100Y200100D02*
X327000D01*
X316200D02*
X317800D01*
X307800D02*
X309300D01*
X323200Y200000D02*
X327000D01*
X316200D02*
X317800D01*
X307800D02*
X309300D01*
X323200Y199900D02*
X327000D01*
X316200D02*
X317800D01*
X307800D02*
X309300D01*
X323200Y199800D02*
X324800D01*
X316200D02*
X317800D01*
X307800D02*
X309300D01*
X323100Y199700D02*
X324700D01*
X316200D02*
X317800D01*
X307800D02*
X309300D01*
X323100Y199600D02*
X324700D01*
X316200D02*
X317800D01*
X307800D02*
X309300D01*
X323100Y199500D02*
X324700D01*
X316200D02*
X317800D01*
X307800D02*
X309300D01*
X323000Y199400D02*
X324700D01*
X316200D02*
X317800D01*
X307800D02*
X309300D01*
X323000Y199300D02*
X324600D01*
X316200D02*
X317800D01*
X307800D02*
X309300D01*
X323000Y199200D02*
X324600D01*
X316200D02*
X317800D01*
X307800D02*
X309300D01*
X323000Y199100D02*
X324600D01*
X316200D02*
X317800D01*
X307800D02*
X309300D01*
X322900Y199000D02*
X324600D01*
X316200D02*
X317800D01*
X307800D02*
X309300D01*
X331500Y198900D02*
X333300D01*
X322900D02*
X324500D01*
X316200D02*
X317800D01*
X307800D02*
X309300D01*
X331500Y198800D02*
X333300D01*
X322900D02*
X324500D01*
X316200D02*
X317800D01*
X307800D02*
X309300D01*
X331500Y198700D02*
X333300D01*
X322900D02*
X324500D01*
X316200D02*
X317800D01*
X307800D02*
X309300D01*
X331500Y198600D02*
X333300D01*
X316200D02*
X317800D01*
X307800D02*
X309300D01*
X331500Y198500D02*
X333300D01*
X316200D02*
X317800D01*
X307800D02*
X309300D01*
X331500Y198400D02*
X333300D01*
X316200D02*
X317900D01*
X307700D02*
X309300D01*
X316200Y198300D02*
X318000D01*
X307600D02*
X309300D01*
X316200Y198200D02*
X318100D01*
X307500D02*
X309300D01*
X316200Y198100D02*
X318200D01*
X307300D02*
X309300D01*
X316200Y198000D02*
X321100D01*
X316200Y197900D02*
X321100D01*
X316200Y197800D02*
X321100D01*
X316300Y197700D02*
X321000D01*
X304600D02*
X309200D01*
X316400Y197600D02*
X320900D01*
X304700D02*
X309100D01*
X316500Y197500D02*
X320800D01*
X304800D02*
X309000D01*
X304900Y197400D02*
X308900D01*
X305000Y197300D02*
X308800D01*
X305100Y197200D02*
X308700D01*
X305200Y197100D02*
X308600D01*
X305300Y197000D02*
X308500D01*
X323900Y211400D02*
X325000D01*
X315700D02*
X319000D01*
X307200D02*
X310400D01*
X323900Y211300D02*
X325000D01*
X315600D02*
X319000D01*
X307100D02*
X310400D01*
X323900Y211200D02*
X325000D01*
X315500D02*
X319000D01*
X307000D02*
X310400D01*
X323900Y211100D02*
X325000D01*
X315400D02*
X319000D01*
X306900D02*
X310400D01*
X323900Y211000D02*
X325000D01*
X315400D02*
X319000D01*
X306900D02*
X310400D01*
X323900Y210900D02*
X325000D01*
X315400D02*
X319000D01*
X306900D02*
X310400D01*
X323900Y210800D02*
X325000D01*
X315400D02*
X316800D01*
X323900Y210700D02*
X325000D01*
X315400D02*
X316700D01*
X323900Y210600D02*
X325000D01*
X315400D02*
X316600D01*
X323900Y210500D02*
X325000D01*
X315400D02*
X316600D01*
X323900Y210400D02*
X325000D01*
X315400D02*
X316600D01*
X323900Y210300D02*
X325000D01*
X315400D02*
X316600D01*
X323900Y210200D02*
X325000D01*
X315400D02*
X316600D01*
X323900Y210100D02*
X325000D01*
X315400D02*
X316600D01*
X323900Y210000D02*
X325000D01*
X315400D02*
X316600D01*
X323900Y209900D02*
X325000D01*
X315400D02*
X316600D01*
X323900Y209800D02*
X325000D01*
X315400D02*
X316600D01*
X323900Y209700D02*
X325000D01*
X315400D02*
X316600D01*
X323900Y209600D02*
X325000D01*
X315400D02*
X316600D01*
X306900D02*
X310400D01*
X323900Y209500D02*
X325000D01*
X315400D02*
X316600D01*
X306900D02*
X310400D01*
X323900Y209400D02*
X325000D01*
X315400D02*
X316600D01*
X306900D02*
X310400D01*
X323900Y209300D02*
X325000D01*
X315400D02*
X316600D01*
X307000D02*
X310400D01*
X323900Y209200D02*
X325000D01*
X315400D02*
X316600D01*
X307100D02*
X310400D01*
X323900Y209100D02*
X325000D01*
X315400D02*
X316600D01*
X307200D02*
X310400D01*
X323900Y209000D02*
X325000D01*
X315400D02*
X316600D01*
X307300D02*
X310400D01*
X323900Y208900D02*
X325000D01*
X315400D02*
X316600D01*
X307400D02*
X310400D01*
X323900Y208800D02*
X325000D01*
X315400D02*
X316600D01*
X307500D02*
X310400D01*
X323900Y208700D02*
X325000D01*
X315400D02*
X316600D01*
X307600D02*
X310400D01*
X323900Y208600D02*
X325000D01*
X315400D02*
X316600D01*
X307700D02*
X310400D01*
X323900Y208500D02*
X325000D01*
X315400D02*
X316600D01*
X307700D02*
X310400D01*
X323900Y208400D02*
X325000D01*
X315400D02*
X316600D01*
X307700D02*
X308800D01*
X323900Y208300D02*
X325000D01*
X315400D02*
X316600D01*
X307600D02*
X308800D01*
X323900Y208200D02*
X325000D01*
X315400D02*
X316600D01*
X307600D02*
X308800D01*
X323900Y208100D02*
X325000D01*
X315400D02*
X316600D01*
X307600D02*
X308800D01*
X323900Y208000D02*
X325000D01*
X315400D02*
X316600D01*
X307600D02*
X308700D01*
X323900Y207900D02*
X325000D01*
X315400D02*
X316600D01*
X307500D02*
X308700D01*
X323900Y207800D02*
X325000D01*
X315400D02*
X316600D01*
X307500D02*
X308700D01*
X323900Y207700D02*
X325000D01*
X315400D02*
X316600D01*
X307500D02*
X308700D01*
X323900Y207600D02*
X325000D01*
X315400D02*
X316600D01*
X307400D02*
X308600D01*
X323900Y207500D02*
X325100D01*
X315400D02*
X316600D01*
X307400D02*
X308600D01*
X323900Y207400D02*
X325200D01*
X315400D02*
X316700D01*
X307400D02*
X308600D01*
X323900Y207300D02*
X325300D01*
X315400D02*
X316800D01*
X307400D02*
X308500D01*
X323900Y207200D02*
X327400D01*
X315400D02*
X319000D01*
X307300D02*
X308500D01*
X323900Y207100D02*
X327400D01*
X315400D02*
X319000D01*
X307300D02*
X308500D01*
X323900Y207000D02*
X327400D01*
X315500D02*
X319000D01*
X307300D02*
X308500D01*
X324000Y206900D02*
X327300D01*
X315600D02*
X319000D01*
X324100Y206800D02*
X327200D01*
X315700D02*
X319000D01*
X324200Y206700D02*
X327100D01*
X315800D02*
X319000D01*
X324300Y206600D02*
X327000D01*
X315900D02*
X319000D01*
X324400Y206500D02*
X326900D01*
X316000D02*
X319000D01*
X324500Y206400D02*
X326800D01*
X316100D02*
X319000D01*
X316200Y206300D02*
X319000D01*
X316300Y206200D02*
X319000D01*
X323300Y204600D02*
X327000D01*
X323200Y204500D02*
X327000D01*
X323100Y204400D02*
X327000D01*
X323000Y204300D02*
X327000D01*
X322900Y204200D02*
X327000D01*
X305300D02*
X308500D01*
X322800Y204100D02*
X327000D01*
X305200D02*
X308600D01*
X322700Y204000D02*
X327000D01*
X305100D02*
X308700D01*
X322600Y203900D02*
X327000D01*
X305000D02*
X308800D01*
X322500Y203800D02*
X327000D01*
X304900D02*
X308900D01*
X322400Y203700D02*
X327000D01*
X316500D02*
X320800D01*
X304800D02*
X309000D01*
X322300Y203600D02*
X327000D01*
X316400D02*
X320900D01*
X304700D02*
X309100D01*
X327300Y219400D02*
X335300D01*
X327300Y219300D02*
X335300D01*
X327300Y219200D02*
X335300D01*
X327300Y219100D02*
X335200D01*
X327300Y219000D02*
X335200D01*
X327300Y218900D02*
X335200D01*
X327300Y218800D02*
X335300D01*
X327300Y218700D02*
X335200D01*
X327300Y218600D02*
X335200D01*
X327300Y218500D02*
X335200D01*
X327300Y218400D02*
X335300D01*
X327300Y218300D02*
X335200D01*
X327300Y218200D02*
X335200D01*
X327300Y218100D02*
X335200D01*
X327300Y218000D02*
X335300D01*
X327300Y217900D02*
X335300D01*
X327300Y217800D02*
X335300D01*
X327300Y217700D02*
X335300D01*
X327300Y217600D02*
X335300D01*
X327300Y217500D02*
X335300D01*
X327400Y217400D02*
X335300D01*
X327500Y217300D02*
X335400D01*
X327700Y217200D02*
X335400D01*
X328100Y217100D02*
X335400D01*
X328500Y217000D02*
X335500D01*
X328900Y216900D02*
X335500D01*
X329200Y216800D02*
X335500D01*
X329200Y216700D02*
X335600D01*
X329200Y216600D02*
X335600D01*
X329200Y216500D02*
X335600D01*
X329300Y216400D02*
X335700D01*
X329300Y216300D02*
X335700D01*
X329300Y216200D02*
X335800D01*
X329300Y216100D02*
X335800D01*
X329300Y216000D02*
X335900D01*
X329400Y215900D02*
X336000D01*
X329300Y215800D02*
X336100D01*
X329100Y215700D02*
X336200D01*
X329000Y215600D02*
X336300D01*
X328900Y215500D02*
X336400D01*
X323900Y211900D02*
X325000D01*
X316200D02*
X319000D01*
X307700D02*
X310400D01*
X323900Y211800D02*
X325000D01*
X316100D02*
X319000D01*
X307600D02*
X310400D01*
X323900Y211700D02*
X325000D01*
X316000D02*
X319000D01*
X307500D02*
X310400D01*
X323900Y211600D02*
X325000D01*
X315900D02*
X319000D01*
X307400D02*
X310400D01*
X328200Y222100D02*
X336300D01*
X328400Y222000D02*
X336200D01*
X328500Y221900D02*
X336200D01*
X328600Y221800D02*
X336100D01*
X328800Y221700D02*
X336000D01*
X328900Y221600D02*
X335900D01*
X329000Y221500D02*
X335900D01*
X329100Y221400D02*
X335800D01*
X329300Y221300D02*
X335700D01*
X329300Y221200D02*
X335700D01*
X329300Y221100D02*
X335600D01*
X329300Y221000D02*
X335600D01*
X329300Y220900D02*
X335600D01*
X329200Y220800D02*
X335500D01*
X329200Y220700D02*
X335500D01*
X329200Y220600D02*
X335500D01*
X329200Y220500D02*
X335500D01*
X329200Y220400D02*
X335400D01*
X329200Y220300D02*
X335400D01*
X329100Y220200D02*
X335400D01*
X329000Y220100D02*
X335400D01*
X328600Y220000D02*
X335400D01*
X328200Y219900D02*
X335400D01*
X327900Y219800D02*
X335300D01*
X327600Y219700D02*
X335300D01*
X327400Y219600D02*
X335300D01*
X331900Y228500D02*
X332600D01*
X331800Y228400D02*
X332700D01*
X331600Y228300D02*
X332800D01*
X331500Y228200D02*
X333000D01*
X331400Y228100D02*
X333100D01*
X331300Y228000D02*
X333200D01*
X331100Y227900D02*
X333400D01*
X331000Y227800D02*
X333500D01*
X330900Y227700D02*
X333600D01*
X330800Y227600D02*
X333800D01*
X342200Y203400D02*
X359600D01*
X342200Y203300D02*
X359500D01*
X342300Y203200D02*
X359400D01*
X342300Y203100D02*
X359300D01*
X342400Y203000D02*
X359300D01*
X342400Y202900D02*
X359300D01*
X342500Y202800D02*
X359300D01*
X342500Y202700D02*
X359300D01*
X342600Y202600D02*
X359300D01*
X342600Y202500D02*
X359400D01*
X342700Y202400D02*
X359500D01*
X342700Y202300D02*
X359700D01*
X342800Y202200D02*
X357200D01*
X342800Y202100D02*
X357000D01*
X342900Y202000D02*
X356900D01*
X342900Y201900D02*
X356900D01*
X343000Y201800D02*
X356800D01*
X343100Y201700D02*
X356700D01*
X343100Y201600D02*
X356700D01*
X343200Y201500D02*
X356700D01*
X343200Y201400D02*
X356700D01*
X343300Y201300D02*
X356800D01*
X343400Y201200D02*
X356900D01*
X343400Y201100D02*
X357100D01*
X343500Y201000D02*
X357900D01*
X343600Y200900D02*
X358000D01*
X343600Y200800D02*
X358200D01*
X343700Y200700D02*
X358300D01*
X343800Y200600D02*
X358500D01*
X343900Y200500D02*
X358600D01*
X343900Y200400D02*
X358700D01*
X344000Y200300D02*
X358900D01*
X344100Y200200D02*
X359000D01*
X344200Y200100D02*
X359200D01*
X344200Y200000D02*
X359300D01*
X344300Y199900D02*
X359400D01*
X344400Y199800D02*
X359300D01*
X344500Y199700D02*
X359300D01*
X344600Y199600D02*
X359200D01*
X344700Y199500D02*
X359100D01*
X344800Y199400D02*
X359000D01*
X344900Y199300D02*
X358900D01*
X345000Y199200D02*
X358800D01*
X345100Y199100D02*
X358700D01*
X345200Y199000D02*
X358600D01*
X345300Y198900D02*
X358400D01*
X345400Y198800D02*
X358300D01*
X345500Y198700D02*
X358200D01*
X345600Y198600D02*
X358100D01*
X345800Y198500D02*
X357900D01*
X345900Y198400D02*
X357800D01*
X346000Y198300D02*
X357600D01*
X346200Y198200D02*
X357500D01*
X346400Y198100D02*
X357300D01*
X346500Y198000D02*
X357100D01*
X346700Y197900D02*
X357000D01*
X346900Y197800D02*
X356800D01*
X347100Y197700D02*
X356600D01*
X347300Y197600D02*
X356400D01*
X347500Y197500D02*
X356200D01*
X347700Y197400D02*
X355900D01*
X348000Y197300D02*
X355700D01*
X348300Y197200D02*
X355400D01*
X356400Y211400D02*
X359100D01*
X356400Y211300D02*
X359000D01*
X356400Y211200D02*
X358800D01*
X356400Y211100D02*
X358700D01*
X356400Y211000D02*
X358600D01*
X356400Y210900D02*
X358500D01*
X356400Y210800D02*
X358300D01*
X356400Y210700D02*
X358200D01*
X356400Y210600D02*
X358100D01*
X356300Y210500D02*
X358000D01*
X356300Y210400D02*
X357800D01*
X356300Y210300D02*
X357700D01*
X356300Y210200D02*
X357600D01*
X356300Y210100D02*
X357500D01*
X356300Y210000D02*
X357000D01*
X356300Y209900D02*
X356800D01*
X356300Y209800D02*
X356700D01*
X356300Y209700D02*
X356700D01*
X356300Y209600D02*
X356600D01*
X356300Y209500D02*
X356700D01*
X356300Y209400D02*
X356700D01*
X356200Y209300D02*
X356700D01*
X356300Y209200D02*
X356800D01*
X356200Y209100D02*
X356900D01*
X356200Y209000D02*
X358000D01*
X356200Y208900D02*
X357900D01*
X356200Y208800D02*
X357900D01*
X356200Y208700D02*
X357900D01*
X356200Y208600D02*
X357900D01*
X356200Y208500D02*
X357900D01*
X356200Y208400D02*
X358000D01*
X356100Y208300D02*
X358200D01*
X356100Y208200D02*
X358700D01*
X356100Y208100D02*
X358800D01*
X356100Y208000D02*
X359000D01*
X356100Y207900D02*
X359100D01*
X356100Y207800D02*
X359200D01*
X356000Y207700D02*
X359400D01*
X356000Y207600D02*
X359500D01*
X356000Y207500D02*
X359700D01*
X356000Y207400D02*
X359800D01*
X355900Y207300D02*
X359900D01*
X355900Y207200D02*
X360100D01*
X355900Y207100D02*
X360200D01*
X355900Y207000D02*
X360400D01*
X355800Y206900D02*
X360500D01*
X355800Y206800D02*
X360600D01*
X355800Y206700D02*
X360800D01*
X355800Y206600D02*
X360900D01*
X355700Y206500D02*
X361000D01*
X355700Y206400D02*
X361200D01*
X355700Y206300D02*
X361300D01*
X355600Y206200D02*
X361400D01*
X355600Y206100D02*
X361400D01*
X355500Y206000D02*
X361400D01*
X355500Y205900D02*
X361300D01*
X355500Y205800D02*
X361300D01*
X355400Y205700D02*
X361200D01*
X355400Y205600D02*
X361100D01*
X355300Y205500D02*
X361100D01*
X355300Y205400D02*
X361000D01*
X341400D02*
X348500D01*
X355200Y205300D02*
X360900D01*
X341500D02*
X348500D01*
X355200Y205200D02*
X360800D01*
X341500D02*
X348600D01*
X355100Y205100D02*
X360800D01*
X341500D02*
X348700D01*
X355100Y205000D02*
X360700D01*
X341500D02*
X348700D01*
X355000Y204900D02*
X360400D01*
X341600D02*
X348800D01*
X354900Y204800D02*
X360200D01*
X341600D02*
X348900D01*
X354900Y204700D02*
X360200D01*
X341700D02*
X348900D01*
X354800Y204600D02*
X360100D01*
X341700D02*
X349000D01*
X354700Y204500D02*
X360100D01*
X341700D02*
X349100D01*
X354600Y204400D02*
X360100D01*
X341800D02*
X349200D01*
X354500Y204300D02*
X360100D01*
X341800D02*
X349300D01*
X354300Y204200D02*
X360200D01*
X341800D02*
X349400D01*
X354200Y204100D02*
X360100D01*
X341900D02*
X349500D01*
X354100Y204000D02*
X360000D01*
X341900D02*
X349700D01*
X353900Y203900D02*
X360000D01*
X342000D02*
X349800D01*
X353700Y203800D02*
X359900D01*
X342000D02*
X350000D01*
X353500Y203700D02*
X359800D01*
X342000D02*
X350200D01*
X353200Y203600D02*
X359700D01*
X342100D02*
X350500D01*
X356400Y219400D02*
X360100D01*
X356400Y219300D02*
X360000D01*
X356400Y219200D02*
X359900D01*
X356400Y219100D02*
X359800D01*
X356400Y219000D02*
X359800D01*
X356400Y218900D02*
X359700D01*
X356400Y218800D02*
X359600D01*
X356400Y218700D02*
X359500D01*
X356400Y218600D02*
X359500D01*
X356400Y218500D02*
X359400D01*
X356400Y218400D02*
X359400D01*
X356400Y218300D02*
X359400D01*
X356400Y218200D02*
X359400D01*
X356400Y218100D02*
X359400D01*
X356400Y218000D02*
X359400D01*
X356400Y217900D02*
X359600D01*
X356400Y217800D02*
X359700D01*
X356400Y217700D02*
X359800D01*
X356400Y217600D02*
X359900D01*
X356400Y217500D02*
X360100D01*
X356400Y217400D02*
X360200D01*
X356400Y217300D02*
X360300D01*
X356400Y217200D02*
X360400D01*
X356400Y217100D02*
X360600D01*
X356400Y217000D02*
X360700D01*
X356400Y216900D02*
X360600D01*
X356400Y216800D02*
X360700D01*
X356400Y216700D02*
X360700D01*
X356400Y216600D02*
X360800D01*
X356400Y216500D02*
X361400D01*
X356400Y216400D02*
X361500D01*
X356400Y216300D02*
X361700D01*
X356400Y216200D02*
X361800D01*
X356400Y216100D02*
X361900D01*
X356400Y216000D02*
X362000D01*
X356400Y215900D02*
X362200D01*
X356400Y215800D02*
X362300D01*
X356400Y215700D02*
X362400D01*
X356400Y215600D02*
X362400D01*
X356400Y215500D02*
X362400D01*
X356400Y215400D02*
X362300D01*
X356400Y215300D02*
X362200D01*
X356400Y215200D02*
X362100D01*
X356400Y215100D02*
X362100D01*
X356400Y215000D02*
X362000D01*
X356400Y214900D02*
X361900D01*
X356400Y214800D02*
X361800D01*
X356400Y214700D02*
X361800D01*
X356400Y214600D02*
X361700D01*
X356400Y214500D02*
X361600D01*
X356400Y214400D02*
X361200D01*
X356400Y214300D02*
X361100D01*
X356400Y214200D02*
X361100D01*
X356400Y214100D02*
X361000D01*
X356400Y214000D02*
X361000D01*
X356400Y213900D02*
X361000D01*
X356400Y213800D02*
X361000D01*
X356400Y213700D02*
X361100D01*
X356400Y213600D02*
X361200D01*
X356400Y213500D02*
X361800D01*
X356400Y213400D02*
X361900D01*
X356400Y213300D02*
X362000D01*
X356400Y213200D02*
X362200D01*
X356400Y213100D02*
X362300D01*
X356400Y213000D02*
X362400D01*
X356400Y212900D02*
X362600D01*
X356400Y212800D02*
X362700D01*
X356400Y212700D02*
X362800D01*
X356400Y212600D02*
X363000D01*
X356400Y212500D02*
X363100D01*
X356400Y212400D02*
X363100D01*
X356400Y212300D02*
X363100D01*
X356400Y212200D02*
X363100D01*
X356400Y212100D02*
X363100D01*
X356400Y212000D02*
X359800D01*
X356400Y211900D02*
X359700D01*
X356400Y211800D02*
X359600D01*
X356400Y211700D02*
X359500D01*
X356400Y211600D02*
X359300D01*
X356400Y227400D02*
X359900D01*
X356400Y227300D02*
X360400D01*
X356400Y227200D02*
X363100D01*
X356400Y227100D02*
X363100D01*
X356400Y227000D02*
X363100D01*
X356400Y226900D02*
X363100D01*
X356400Y226800D02*
X363100D01*
X356400Y226700D02*
X363100D01*
X356400Y226600D02*
X363100D01*
X356400Y226500D02*
X363100D01*
X356400Y226400D02*
X363100D01*
X356400Y226300D02*
X363100D01*
X356400Y226200D02*
X363100D01*
X356400Y226100D02*
X363100D01*
X356400Y226000D02*
X363100D01*
X356400Y225900D02*
X363100D01*
X356400Y225800D02*
X363100D01*
X356400Y225700D02*
X363100D01*
X356400Y225600D02*
X363100D01*
X356400Y225500D02*
X363100D01*
X356400Y225400D02*
X363100D01*
X356400Y225300D02*
X363100D01*
X356400Y225200D02*
X363100D01*
X356400Y225100D02*
X363100D01*
X356400Y225000D02*
X363100D01*
X356400Y224900D02*
X363100D01*
X356400Y224800D02*
X363100D01*
X356400Y224700D02*
X363100D01*
X356400Y224600D02*
X363100D01*
X356400Y224500D02*
X363100D01*
X356400Y224400D02*
X363100D01*
X356400Y224300D02*
X363100D01*
X356400Y224200D02*
X363100D01*
X356400Y224100D02*
X363100D01*
X356400Y224000D02*
X363100D01*
X356400Y223900D02*
X363100D01*
X356400Y223800D02*
X363100D01*
X356400Y223700D02*
X363100D01*
X356400Y223600D02*
X363100D01*
X356400Y223500D02*
X363100D01*
X356400Y223400D02*
X363100D01*
X356400Y223300D02*
X363100D01*
X356400Y223200D02*
X363100D01*
X356400Y223100D02*
X363100D01*
X356400Y223000D02*
X363100D01*
X356400Y222900D02*
X363100D01*
X356400Y222800D02*
X363100D01*
X356400Y222700D02*
X363100D01*
X356400Y222600D02*
X363100D01*
X356400Y222500D02*
X363100D01*
X356400Y222400D02*
X363100D01*
X356400Y222300D02*
X363100D01*
X356400Y222200D02*
X363100D01*
X356400Y222100D02*
X361800D01*
X356400Y222000D02*
X361700D01*
X356400Y221900D02*
X361700D01*
X356400Y221800D02*
X361600D01*
X356400Y221700D02*
X361600D01*
X356400Y221600D02*
X361600D01*
X356400Y221500D02*
X361600D01*
X356400Y221400D02*
X361600D01*
X356400Y221300D02*
X361500D01*
X356400Y221200D02*
X361400D01*
X356400Y221100D02*
X361300D01*
X356400Y221000D02*
X361300D01*
X356400Y220900D02*
X361200D01*
X356400Y220800D02*
X361100D01*
X356400Y220700D02*
X361000D01*
X356400Y220600D02*
X361000D01*
X356400Y220500D02*
X360900D01*
X356400Y220400D02*
X360800D01*
X356400Y220300D02*
X360700D01*
X356400Y220200D02*
X360700D01*
X356400Y220100D02*
X360600D01*
X356400Y220000D02*
X360500D01*
X356400Y219900D02*
X360400D01*
X356400Y219800D02*
X360400D01*
X356400Y219700D02*
X360300D01*
X356400Y219600D02*
X360200D01*
X340500Y230000D02*
X342700D01*
X340400Y229900D02*
X342800D01*
X340300Y229800D02*
X342800D01*
X340300Y229700D02*
X342800D01*
X340200Y229600D02*
X342900D01*
X340200Y229500D02*
X342900D01*
X340200Y229400D02*
X342900D01*
X340100Y229300D02*
X342900D01*
X340100Y229200D02*
X342900D01*
X340100Y229100D02*
X342900D01*
X340000Y229000D02*
X342900D01*
X340000Y228900D02*
X343000D01*
X340000Y228800D02*
X343000D01*
X339900Y228700D02*
X343000D01*
X339900Y228600D02*
X343000D01*
X339900Y228500D02*
X343000D01*
X339800Y228400D02*
X343100D01*
X356400Y228000D02*
X358700D01*
X356400Y227900D02*
X358900D01*
X356400Y227800D02*
X359000D01*
X356400Y227700D02*
X359200D01*
X356400Y227600D02*
X359400D01*
X289200Y211500D02*
X292700D01*
X299100Y203500D02*
X303500D01*
X290700D02*
X295400D01*
X323900Y211500D02*
X325000D01*
X315800D02*
X319000D01*
X307300D02*
X310400D01*
X322200Y203500D02*
X327000D01*
X316300D02*
X321000D01*
X304600D02*
X309200D01*
X330700Y227500D02*
X333900D01*
X327300Y219500D02*
X335300D01*
X356400Y211500D02*
X359200D01*
X352800Y203500D02*
X359600D01*
X342100D02*
X350900D01*
X356400Y227500D02*
X359700D01*
X356400Y219500D02*
X360100D01*
X304500Y203400D02*
X309300D01*
X304500Y203300D02*
X309300D01*
X304500Y203200D02*
X309300D01*
X304500Y198000D02*
X309300D01*
X304500Y197900D02*
X309300D01*
X304500Y197800D02*
X309300D01*
X330400Y203400D02*
X337200D01*
X330400Y203300D02*
X337200D01*
X330300Y203200D02*
X337100D01*
X330200Y203100D02*
X337000D01*
X330200Y203000D02*
X337000D01*
X330100Y202900D02*
X336900D01*
X330000Y202800D02*
X336900D01*
X330000Y202700D02*
X336800D01*
X329900Y202600D02*
X336700D01*
X329900Y202500D02*
X336700D01*
X329800Y202400D02*
X336600D01*
X329700Y202300D02*
X336600D01*
X329700Y202200D02*
X336500D01*
X332200Y211400D02*
X347400D01*
X332400Y211300D02*
X347400D01*
X332600Y211200D02*
X347400D01*
X332700Y211100D02*
X347400D01*
X332900Y211000D02*
X347500D01*
X333100Y210900D02*
X347500D01*
X333300Y210800D02*
X347500D01*
X333500Y210700D02*
X347500D01*
X333700Y210600D02*
X347500D01*
X334000Y210500D02*
X347500D01*
X334200Y210400D02*
X347500D01*
X334500Y210300D02*
X347500D01*
X334600Y210200D02*
X347500D01*
X334500Y210100D02*
X347500D01*
X334500Y210000D02*
X347500D01*
X334400Y209900D02*
X347500D01*
X334300Y209800D02*
X347500D01*
X334300Y209700D02*
X347500D01*
X334200Y209600D02*
X347500D01*
X334200Y209500D02*
X347500D01*
X334100Y209400D02*
X347500D01*
X334000Y209300D02*
X340600D01*
X334000Y209200D02*
X340600D01*
X333900Y209100D02*
X340500D01*
X333900Y209000D02*
X340500D01*
X332500Y206800D02*
X339200D01*
X332400Y206700D02*
X339100D01*
X332400Y206600D02*
X339100D01*
X332300Y206500D02*
X339000D01*
X332300Y206400D02*
X339000D01*
X332200Y206300D02*
X338900D01*
X332100Y206200D02*
X338800D01*
X332100Y206100D02*
X338800D01*
X332000Y206000D02*
X338700D01*
X331900Y205900D02*
X338700D01*
X331900Y205800D02*
X338600D01*
X331800Y205700D02*
X338600D01*
X331800Y205600D02*
X338500D01*
X331700Y205500D02*
X338400D01*
X331600Y205400D02*
X338400D01*
X331600Y205300D02*
X338300D01*
X331500Y205200D02*
X338300D01*
X331500Y205100D02*
X338200D01*
X331400Y205000D02*
X338100D01*
X331300Y204900D02*
X338100D01*
X331300Y204800D02*
X338000D01*
X331200Y204700D02*
X338000D01*
X331200Y204600D02*
X337900D01*
X331100Y204500D02*
X337900D01*
X331000Y204400D02*
X337800D01*
X331000Y204300D02*
X337700D01*
X330900Y204200D02*
X337700D01*
X330800Y204100D02*
X337600D01*
X330800Y204000D02*
X337600D01*
X330700Y203900D02*
X337500D01*
X330700Y203800D02*
X337400D01*
X330600Y203700D02*
X337400D01*
X330500Y203600D02*
X337300D01*
X328700Y215400D02*
X336500D01*
X328600Y215300D02*
X336600D01*
X328400Y215200D02*
X336800D01*
X328300Y215100D02*
X337000D01*
X328200Y215000D02*
X337300D01*
X328000Y214900D02*
X347400D01*
X327900Y214800D02*
X347400D01*
X327800Y214700D02*
X347400D01*
X327700Y214600D02*
X347400D01*
X327700Y214500D02*
X347400D01*
X327700Y214400D02*
X347400D01*
X327700Y214300D02*
X347400D01*
X327800Y214200D02*
X347400D01*
X327800Y214100D02*
X347400D01*
X327900Y214000D02*
X347400D01*
X327900Y213900D02*
X347400D01*
X328000Y213800D02*
X347400D01*
X328000Y213700D02*
X347400D01*
X328000Y213600D02*
X347400D01*
X328100Y213500D02*
X347400D01*
X328100Y213400D02*
X347400D01*
X328200Y213300D02*
X347400D01*
X328200Y213200D02*
X347400D01*
X328300Y213100D02*
X347400D01*
X328300Y213000D02*
X347400D01*
X328400Y212900D02*
X347400D01*
X328400Y212800D02*
X347400D01*
X328400Y212700D02*
X347400D01*
X331000Y212600D02*
X347400D01*
X331100Y212500D02*
X347400D01*
X331200Y212400D02*
X347400D01*
X331300Y212300D02*
X347400D01*
X331300Y212200D02*
X347400D01*
X331400Y212100D02*
X347400D01*
X331500Y212000D02*
X347400D01*
X331600Y211900D02*
X347400D01*
X331700Y211800D02*
X347400D01*
X331900Y211700D02*
X347400D01*
X332000Y211600D02*
X347400D01*
X330500Y227400D02*
X347400D01*
X330500Y227300D02*
X347400D01*
X330500Y227200D02*
X347400D01*
X330500Y227100D02*
X347400D01*
X330500Y227000D02*
X347400D01*
X330500Y226900D02*
X347400D01*
X330500Y226800D02*
X347400D01*
X330600Y226700D02*
X347400D01*
X330600Y226600D02*
X347400D01*
X330700Y226500D02*
X347400D01*
X330700Y226400D02*
X347400D01*
X330700Y226300D02*
X347400D01*
X330800Y226200D02*
X347400D01*
X330800Y226100D02*
X347400D01*
X330900Y226000D02*
X347400D01*
X330900Y225900D02*
X347400D01*
X331000Y225800D02*
X347400D01*
X331000Y225700D02*
X347400D01*
X331000Y225600D02*
X347400D01*
X331100Y225500D02*
X347400D01*
X331100Y225400D02*
X347400D01*
X331200Y225300D02*
X347400D01*
X331200Y225200D02*
X347400D01*
X331200Y225100D02*
X347400D01*
X331100Y225000D02*
X347400D01*
X331000Y224900D02*
X347400D01*
X331000Y224800D02*
X347400D01*
X330900Y224700D02*
X347400D01*
X330800Y224600D02*
X347400D01*
X330700Y224500D02*
X347400D01*
X328400Y224400D02*
X347400D01*
X328300Y224300D02*
X347400D01*
X328300Y224200D02*
X347400D01*
X328200Y224100D02*
X347400D01*
X328200Y224000D02*
X347400D01*
X328200Y223900D02*
X347400D01*
X328100Y223800D02*
X347400D01*
X328100Y223700D02*
X347400D01*
X328000Y223600D02*
X347400D01*
X328000Y223500D02*
X347400D01*
X327900Y223400D02*
X347400D01*
X327900Y223300D02*
X347400D01*
X327900Y223200D02*
X347400D01*
X327800Y223100D02*
X347400D01*
X327800Y223000D02*
X347400D01*
X327700Y222900D02*
X347400D01*
X327700Y222800D02*
X347400D01*
X327700Y222700D02*
X337400D01*
X327800Y222600D02*
X337100D01*
X327800Y222500D02*
X336900D01*
X327900Y222400D02*
X336700D01*
X328000Y222300D02*
X336600D01*
X328100Y222200D02*
X336500D01*
X335200Y228300D02*
X347400D01*
X335100Y228200D02*
X347400D01*
X335100Y228100D02*
X347400D01*
X335100Y228000D02*
X347400D01*
X335100Y227900D02*
X347400D01*
X335000Y227800D02*
X347400D01*
X334700Y227700D02*
X347400D01*
X334500Y227600D02*
X347400D01*
X332100Y211500D02*
X347400D01*
X330500Y203500D02*
X337300D01*
X334300Y227500D02*
X347400D01*
D12*
X432902Y291268D02*
G03*
X433295Y291268I197J0D01*
G01*
D02*
G03*
X432902Y291268I-197J0D01*
G01*
D02*
G03*
X433295Y291268I197J0D01*
G01*
X410264Y277488D02*
X427193D01*
Y338512D01*
X410264D02*
X427193D01*
X410264Y277488D02*
Y338512D01*
D13*
X427001Y349998D02*
X429001D01*
X428001D01*
Y345000D01*
X429001Y344000D01*
X430000D01*
X431000Y345000D01*
X425002Y344000D02*
X423003D01*
X424002D01*
Y349998D01*
X425002Y348998D01*
X461501Y224498D02*
X462501Y225498D01*
X464500D01*
X465500Y224498D01*
Y220500D01*
X464500Y219500D01*
X462501D01*
X461501Y220500D01*
Y222499D01*
X463501D01*
X459502Y219500D02*
Y225498D01*
X455503Y219500D01*
Y225498D01*
X453504D02*
Y219500D01*
X450505D01*
X449505Y220500D01*
Y224498D01*
X450505Y225498D01*
X453504D01*
X461500Y230500D02*
X460500Y229500D01*
X458501D01*
X457501Y230500D01*
Y234498D01*
X458501Y235498D01*
X460500D01*
X461500Y234498D01*
Y233499D01*
X460500Y232499D01*
X457501D01*
X455502Y235498D02*
Y231499D01*
X453503Y229500D01*
X451503Y231499D01*
Y235498D01*
D56*
X410264Y338512D02*
X412823D01*
X410264D02*
X412823D01*
X410264Y277488D02*
X412823D01*
X410264D02*
X412823D01*
X410264D02*
Y338512D01*
Y277488D02*
Y338512D01*
X434673Y273551D02*
Y342449D01*
X406327D02*
X434673D01*
X406327Y273551D02*
Y342449D01*
Y273551D02*
X434673D01*
M02*
