G04*
G04 #@! TF.GenerationSoftware,Altium Limited,Altium Designer,18.1.7 (191)*
G04*
G04 Layer_Physical_Order=1*
G04 Layer_Color=255*
%FSLAX25Y25*%
%MOIN*%
G70*
G01*
G75*
%ADD10C,0.01000*%
%ADD12C,0.00787*%
%ADD14R,0.01181X0.04724*%
%ADD15R,0.04724X0.01181*%
%ADD16R,0.05512X0.04331*%
%ADD17R,0.04331X0.05512*%
%ADD18R,0.11811X0.05906*%
%ADD19R,0.05512X0.04724*%
%ADD20R,0.09449X0.12992*%
%ADD21R,0.09449X0.03937*%
%ADD41C,0.07874*%
%ADD42C,0.06496*%
%ADD43R,0.07480X0.07480*%
%ADD44C,0.07480*%
%ADD45C,0.07480*%
%ADD46O,0.07480X0.07480*%
%ADD47R,0.07480X0.07480*%
%ADD48C,0.06000*%
%ADD49R,0.07480X0.07480*%
%ADD50C,0.01800*%
%ADD51C,0.12598*%
G36*
X540331Y183000D02*
X186000D01*
Y419220D01*
X540331D01*
Y183000D01*
D02*
G37*
%LPC*%
G36*
X291500Y406030D02*
X290586Y405910D01*
X289735Y405557D01*
X289004Y404996D01*
X288443Y404265D01*
X288090Y403414D01*
X287970Y402500D01*
X288090Y401586D01*
X288443Y400735D01*
X289004Y400004D01*
X289735Y399443D01*
X290586Y399090D01*
X291500Y398970D01*
X292414Y399090D01*
X293265Y399443D01*
X293996Y400004D01*
X294557Y400735D01*
X294910Y401586D01*
X295030Y402500D01*
X294910Y403414D01*
X294557Y404265D01*
X293996Y404996D01*
X293265Y405557D01*
X292414Y405910D01*
X291500Y406030D01*
D02*
G37*
G36*
X210740Y397240D02*
X202260D01*
Y388760D01*
X210740D01*
Y397240D01*
D02*
G37*
G36*
X216500Y397277D02*
X215393Y397131D01*
X214362Y396704D01*
X213476Y396024D01*
X212796Y395138D01*
X212369Y394107D01*
X212223Y393000D01*
X212369Y391893D01*
X212796Y390862D01*
X213476Y389976D01*
X214362Y389296D01*
X215393Y388869D01*
X216500Y388723D01*
X217607Y388869D01*
X218638Y389296D01*
X219524Y389976D01*
X220204Y390862D01*
X220631Y391893D01*
X220777Y393000D01*
X220631Y394107D01*
X220204Y395138D01*
X219524Y396024D01*
X218638Y396704D01*
X217607Y397131D01*
X216500Y397277D01*
D02*
G37*
G36*
X504500Y385719D02*
Y382000D01*
X508219D01*
X508139Y382609D01*
X507711Y383642D01*
X507030Y384530D01*
X506142Y385211D01*
X505109Y385639D01*
X504500Y385719D01*
D02*
G37*
G36*
X503500D02*
X502891Y385639D01*
X501858Y385211D01*
X500970Y384530D01*
X500289Y383642D01*
X499861Y382609D01*
X499781Y382000D01*
X503500D01*
Y385719D01*
D02*
G37*
G36*
X508219Y381000D02*
X504500D01*
Y377281D01*
X505109Y377361D01*
X506142Y377789D01*
X507030Y378470D01*
X507711Y379358D01*
X508139Y380391D01*
X508219Y381000D01*
D02*
G37*
G36*
X503500D02*
X499781D01*
X499861Y380391D01*
X500289Y379358D01*
X500970Y378470D01*
X501858Y377789D01*
X502891Y377361D01*
X503500Y377281D01*
Y381000D01*
D02*
G37*
G36*
X292000Y376469D02*
Y373000D01*
X295469D01*
X295397Y373544D01*
X294994Y374517D01*
X294353Y375353D01*
X293517Y375994D01*
X292544Y376397D01*
X292000Y376469D01*
D02*
G37*
G36*
X291000D02*
X290456Y376397D01*
X289483Y375994D01*
X288647Y375353D01*
X288006Y374517D01*
X287603Y373544D01*
X287531Y373000D01*
X291000D01*
Y376469D01*
D02*
G37*
G36*
X295469Y372000D02*
X292000D01*
Y368531D01*
X292544Y368603D01*
X293517Y369006D01*
X294353Y369647D01*
X294994Y370483D01*
X295397Y371456D01*
X295469Y372000D01*
D02*
G37*
G36*
X291000D02*
X287531D01*
X287603Y371456D01*
X288006Y370483D01*
X288647Y369647D01*
X289483Y369006D01*
X290456Y368603D01*
X291000Y368531D01*
Y372000D01*
D02*
G37*
G36*
X291500Y366030D02*
X290586Y365910D01*
X289735Y365557D01*
X289004Y364996D01*
X288443Y364265D01*
X288090Y363414D01*
X287970Y362500D01*
X288090Y361586D01*
X288443Y360735D01*
X289004Y360004D01*
X289735Y359443D01*
X290586Y359090D01*
X291500Y358970D01*
X292414Y359090D01*
X293265Y359443D01*
X293996Y360004D01*
X294557Y360735D01*
X294910Y361586D01*
X295030Y362500D01*
X294910Y363414D01*
X294557Y364265D01*
X293996Y364996D01*
X293265Y365557D01*
X292414Y365910D01*
X291500Y366030D01*
D02*
G37*
G36*
X505728Y354256D02*
X503063D01*
Y351000D01*
X505728D01*
Y354256D01*
D02*
G37*
G36*
X502063D02*
X499398D01*
Y351000D01*
X502063D01*
Y354256D01*
D02*
G37*
G36*
X257740Y354240D02*
X253500D01*
Y350000D01*
X257740D01*
Y354240D01*
D02*
G37*
G36*
X252500D02*
X248260D01*
Y350000D01*
X252500D01*
Y354240D01*
D02*
G37*
G36*
X211240Y353240D02*
X207000D01*
Y349000D01*
X211240D01*
Y353240D01*
D02*
G37*
G36*
X206000D02*
X201760D01*
Y349000D01*
X206000D01*
Y353240D01*
D02*
G37*
G36*
X291500Y356030D02*
X290586Y355910D01*
X289735Y355557D01*
X289004Y354996D01*
X288443Y354265D01*
X288090Y353414D01*
X287970Y352500D01*
X288090Y351586D01*
X288443Y350735D01*
X289004Y350004D01*
X289735Y349443D01*
X290586Y349090D01*
X291500Y348970D01*
X292414Y349090D01*
X293265Y349443D01*
X293996Y350004D01*
X294557Y350735D01*
X294910Y351586D01*
X295030Y352500D01*
X294910Y353414D01*
X294557Y354265D01*
X293996Y354996D01*
X293265Y355557D01*
X292414Y355910D01*
X291500Y356030D01*
D02*
G37*
G36*
X502063Y350000D02*
X499398D01*
Y346744D01*
X502063D01*
Y350000D01*
D02*
G37*
G36*
X263000Y353777D02*
X261893Y353631D01*
X260862Y353204D01*
X259976Y352524D01*
X259296Y351638D01*
X258869Y350607D01*
X258723Y349500D01*
X258869Y348393D01*
X259296Y347362D01*
X259976Y346476D01*
X260862Y345796D01*
X261893Y345369D01*
X263000Y345223D01*
X264107Y345369D01*
X265138Y345796D01*
X266024Y346476D01*
X266704Y347362D01*
X267131Y348393D01*
X267277Y349500D01*
X267131Y350607D01*
X266704Y351638D01*
X266024Y352524D01*
X265138Y353204D01*
X264107Y353631D01*
X263000Y353777D01*
D02*
G37*
G36*
X257740Y349000D02*
X253500D01*
Y344760D01*
X257740D01*
Y349000D01*
D02*
G37*
G36*
X252500D02*
X248260D01*
Y344760D01*
X252500D01*
Y349000D01*
D02*
G37*
G36*
X504000Y406934D02*
X503022Y406805D01*
X502110Y406427D01*
X501327Y405827D01*
X500726Y405044D01*
X500348Y404132D01*
X500220Y403154D01*
X500348Y402175D01*
X500726Y401263D01*
X501327Y400480D01*
X502110Y399880D01*
X503022Y399502D01*
X504000Y399373D01*
X504978Y399502D01*
X505849Y399863D01*
X526980Y378731D01*
Y349602D01*
X524744D01*
Y344905D01*
X524244Y344698D01*
X518020Y350922D01*
Y359000D01*
X517942Y359390D01*
X517721Y359721D01*
X501721Y375721D01*
X501390Y375942D01*
X501000Y376020D01*
X396000D01*
X395610Y375942D01*
X395279Y375721D01*
X370106Y350548D01*
X369885Y350217D01*
X369807Y349827D01*
Y315964D01*
X369307Y315696D01*
X368858Y315786D01*
X368312Y315677D01*
X367849Y315368D01*
X367540Y314904D01*
X367431Y314358D01*
X367540Y313812D01*
X367839Y313364D01*
Y308594D01*
X363972D01*
Y313041D01*
X364271Y313489D01*
X364380Y314035D01*
X364271Y314582D01*
X363962Y315045D01*
X363499Y315354D01*
X362953Y315463D01*
X362504Y315373D01*
X362004Y315641D01*
Y323016D01*
X361926Y323406D01*
X361705Y323737D01*
X294601Y390841D01*
X294910Y391586D01*
X295030Y392500D01*
X294910Y393414D01*
X294557Y394265D01*
X293996Y394996D01*
X293265Y395557D01*
X292414Y395910D01*
X291500Y396030D01*
X290586Y395910D01*
X289735Y395557D01*
X289004Y394996D01*
X288443Y394265D01*
X288090Y393414D01*
X287970Y392500D01*
X288090Y391586D01*
X288443Y390735D01*
X289004Y390004D01*
X289735Y389443D01*
X290586Y389090D01*
X291500Y388970D01*
X292414Y389090D01*
X293159Y389399D01*
X359965Y322593D01*
Y316184D01*
X359465Y315977D01*
X294601Y380841D01*
X294910Y381586D01*
X295030Y382500D01*
X294910Y383414D01*
X294557Y384265D01*
X293996Y384996D01*
X293265Y385557D01*
X292414Y385910D01*
X291500Y386030D01*
X290586Y385910D01*
X289735Y385557D01*
X289004Y384996D01*
X288443Y384265D01*
X288090Y383414D01*
X287970Y382500D01*
X288090Y381586D01*
X288443Y380735D01*
X289004Y380004D01*
X289735Y379443D01*
X290586Y379090D01*
X291500Y378970D01*
X292414Y379090D01*
X293159Y379399D01*
X357918Y314640D01*
Y308594D01*
X354052D01*
Y316405D01*
X353974Y316795D01*
X353753Y317126D01*
X332658Y338221D01*
X332327Y338442D01*
X331937Y338520D01*
X270000D01*
X269610Y338442D01*
X269279Y338221D01*
X225279Y294221D01*
X225058Y293890D01*
X224980Y293500D01*
Y242922D01*
X210708Y228650D01*
X210638Y228704D01*
X209607Y229131D01*
X208500Y229277D01*
X207393Y229131D01*
X206362Y228704D01*
X205476Y228024D01*
X204796Y227138D01*
X204369Y226107D01*
X204223Y225000D01*
X204369Y223893D01*
X204796Y222862D01*
X205476Y221976D01*
X206362Y221296D01*
X207393Y220869D01*
X208500Y220723D01*
X209607Y220869D01*
X210638Y221296D01*
X211524Y221976D01*
X212204Y222862D01*
X212631Y223893D01*
X212777Y225000D01*
X212631Y226107D01*
X212204Y227138D01*
X212150Y227208D01*
X226721Y241779D01*
X226942Y242110D01*
X227020Y242500D01*
Y293078D01*
X270422Y336480D01*
X331515D01*
X352013Y315982D01*
Y309095D01*
X351642D01*
Y305732D01*
X350642D01*
Y309095D01*
X350193D01*
Y310264D01*
X350115Y310654D01*
X349894Y310985D01*
X342602Y318277D01*
Y322756D01*
X337272D01*
Y316244D01*
X341751D01*
X348154Y309841D01*
Y308594D01*
X348083D01*
Y302870D01*
X348154D01*
Y302072D01*
X348231Y301682D01*
X348452Y301351D01*
X350698Y299106D01*
X351029Y298885D01*
X351419Y298807D01*
X373370D01*
Y298358D01*
X376732D01*
Y297358D01*
X373370D01*
Y296268D01*
X373870D01*
Y292831D01*
Y288894D01*
Y284957D01*
Y281020D01*
Y277083D01*
X379594D01*
Y279051D01*
Y282988D01*
Y286996D01*
X384516D01*
X384906Y287074D01*
X385237Y287295D01*
X391221Y293279D01*
X391442Y293610D01*
X391520Y294000D01*
Y317833D01*
X391819Y318281D01*
X391927Y318827D01*
X391819Y319373D01*
X391509Y319836D01*
X391046Y320146D01*
X390500Y320254D01*
X389954Y320146D01*
X389491Y319836D01*
X389181Y319373D01*
X389073Y318827D01*
X389181Y318281D01*
X389480Y317833D01*
Y294422D01*
X388850Y293792D01*
X388228Y293877D01*
X388221Y293889D01*
X388442Y294220D01*
X388520Y294610D01*
Y321770D01*
X388819Y322217D01*
X388927Y322764D01*
X388819Y323310D01*
X388509Y323773D01*
X388046Y324082D01*
X387500Y324191D01*
X386954Y324082D01*
X386491Y323773D01*
X386181Y323310D01*
X386073Y322764D01*
X386181Y322217D01*
X386480Y321770D01*
Y295033D01*
X386279Y294831D01*
X386058Y294500D01*
X386031Y294362D01*
X382672Y291004D01*
X379594D01*
Y292902D01*
X382421D01*
X382811Y292979D01*
X383142Y293200D01*
X384721Y294779D01*
X384942Y295110D01*
X385020Y295500D01*
Y307506D01*
X385319Y307954D01*
X385427Y308500D01*
X385319Y309046D01*
X385009Y309509D01*
X384546Y309819D01*
X384000Y309927D01*
X383454Y309819D01*
X382991Y309509D01*
X382952Y309452D01*
X382712Y309452D01*
X382397Y309521D01*
X382221Y309784D01*
X379756Y312249D01*
Y316728D01*
X373244D01*
Y311398D01*
X377723D01*
X380480Y308641D01*
Y300846D01*
X379594D01*
Y300917D01*
X373870D01*
Y300846D01*
X351841D01*
X350779Y301908D01*
X350971Y302370D01*
X352732D01*
Y302870D01*
X371917D01*
Y308594D01*
X371846D01*
Y349404D01*
X396422Y373980D01*
X500578D01*
X515980Y358578D01*
Y350500D01*
X516058Y350110D01*
X516279Y349779D01*
X524744Y341314D01*
Y336398D01*
X531256D01*
Y341728D01*
X527214D01*
X525170Y343772D01*
X525377Y344272D01*
X531256D01*
Y349602D01*
X529020D01*
Y379153D01*
X528942Y379544D01*
X528721Y379874D01*
X507291Y401304D01*
X507652Y402175D01*
X507780Y403154D01*
X507652Y404132D01*
X507274Y405044D01*
X506673Y405827D01*
X505890Y406427D01*
X504978Y406805D01*
X504000Y406934D01*
D02*
G37*
G36*
X216500Y352777D02*
X215393Y352631D01*
X214362Y352204D01*
X213476Y351524D01*
X212796Y350638D01*
X212369Y349607D01*
X212223Y348500D01*
X212369Y347393D01*
X212796Y346362D01*
X213476Y345476D01*
X214362Y344796D01*
X215393Y344369D01*
X216500Y344223D01*
X217607Y344369D01*
X218638Y344796D01*
X219524Y345476D01*
X220204Y346362D01*
X220631Y347393D01*
X220777Y348500D01*
X220631Y349607D01*
X220204Y350638D01*
X219524Y351524D01*
X218638Y352204D01*
X217607Y352631D01*
X216500Y352777D01*
D02*
G37*
G36*
X211240Y348000D02*
X207000D01*
Y343760D01*
X211240D01*
Y348000D01*
D02*
G37*
G36*
X206000D02*
X201760D01*
Y343760D01*
X206000D01*
Y348000D01*
D02*
G37*
G36*
X505728Y338256D02*
X503063D01*
Y335000D01*
X505728D01*
Y338256D01*
D02*
G37*
G36*
X513102Y337756D02*
X507772D01*
Y332277D01*
X506459Y330964D01*
X505728D01*
Y334000D01*
X502563D01*
X499398D01*
Y330964D01*
X486642D01*
Y332469D01*
X476193D01*
Y331020D01*
X463807D01*
Y336996D01*
X453358D01*
Y327800D01*
X448482Y322924D01*
X447954Y322819D01*
X447506Y322520D01*
X417437D01*
X417047Y322442D01*
X416716Y322221D01*
X409414Y314919D01*
X409237Y314949D01*
X408904Y315116D01*
X408819Y315546D01*
X408509Y316009D01*
X408046Y316319D01*
X407500Y316427D01*
X406954Y316319D01*
X406491Y316009D01*
X406181Y315546D01*
X406076Y315018D01*
X400779Y309721D01*
X400558Y309390D01*
X400480Y309000D01*
Y295494D01*
X400181Y295046D01*
X400073Y294500D01*
X400181Y293954D01*
X400491Y293491D01*
X400954Y293181D01*
X401500Y293073D01*
X402046Y293181D01*
X402509Y293491D01*
X402819Y293954D01*
X402927Y294500D01*
X402819Y295046D01*
X402520Y295494D01*
Y308578D01*
X404626Y310684D01*
X405168Y310519D01*
X405181Y310454D01*
X405491Y309991D01*
X405954Y309681D01*
X406500Y309573D01*
X407046Y309681D01*
X407509Y309991D01*
X407791Y310412D01*
X417859Y320480D01*
X447506D01*
X447954Y320181D01*
X448500Y320073D01*
X449046Y320181D01*
X449509Y320491D01*
X449819Y320954D01*
X449924Y321482D01*
X452896Y324454D01*
X453358Y324263D01*
Y323004D01*
X463807D01*
Y328980D01*
X476193D01*
Y327532D01*
X486642D01*
Y328924D01*
X506881D01*
X507271Y329002D01*
X507602Y329223D01*
X509623Y331244D01*
X513102D01*
Y337756D01*
D02*
G37*
G36*
X380256Y325102D02*
X377000D01*
Y322437D01*
X380256D01*
Y325102D01*
D02*
G37*
G36*
X376000D02*
X372744D01*
Y322437D01*
X376000D01*
Y325102D01*
D02*
G37*
G36*
X487142Y323913D02*
X481917D01*
Y321445D01*
X487142D01*
Y323913D01*
D02*
G37*
G36*
X480917D02*
X475693D01*
Y321445D01*
X480917D01*
Y323913D01*
D02*
G37*
G36*
X335228Y323256D02*
X332563D01*
Y320000D01*
X335228D01*
Y323256D01*
D02*
G37*
G36*
X331563D02*
X328898D01*
Y320000D01*
X331563D01*
Y323256D01*
D02*
G37*
G36*
X380256Y321437D02*
X377000D01*
Y318772D01*
X380256D01*
Y321437D01*
D02*
G37*
G36*
X376000D02*
X372744D01*
Y318772D01*
X376000D01*
Y321437D01*
D02*
G37*
G36*
X487142Y320445D02*
X481917D01*
Y317976D01*
X487142D01*
Y320445D01*
D02*
G37*
G36*
X480917D02*
X475693D01*
Y317976D01*
X480917D01*
Y320445D01*
D02*
G37*
G36*
X335228Y319000D02*
X332563D01*
Y315744D01*
X335228D01*
Y319000D01*
D02*
G37*
G36*
X465728Y302256D02*
X463063D01*
Y299000D01*
X465728D01*
Y302256D01*
D02*
G37*
G36*
X462063D02*
X459398D01*
Y299000D01*
X462063D01*
Y302256D01*
D02*
G37*
G36*
X473102Y301756D02*
X467772D01*
Y295244D01*
X473102D01*
Y297480D01*
X483006D01*
X483454Y297181D01*
X484000Y297073D01*
X484546Y297181D01*
X485009Y297491D01*
X485319Y297954D01*
X485427Y298500D01*
X485319Y299046D01*
X485009Y299509D01*
X484546Y299819D01*
X484000Y299927D01*
X483454Y299819D01*
X483006Y299520D01*
X473102D01*
Y301756D01*
D02*
G37*
G36*
X465728Y298000D02*
X463063D01*
Y294744D01*
X465728D01*
Y298000D01*
D02*
G37*
G36*
X462063D02*
X459398D01*
Y294744D01*
X462063D01*
Y298000D01*
D02*
G37*
G36*
X517500Y306832D02*
X516167Y306701D01*
X514886Y306312D01*
X513704Y305681D01*
X512669Y304831D01*
X511819Y303796D01*
X511188Y302614D01*
X510799Y301333D01*
X510668Y300000D01*
X510799Y298667D01*
X511188Y297386D01*
X511819Y296204D01*
X512669Y295169D01*
X513704Y294319D01*
X514886Y293688D01*
X516167Y293299D01*
X517500Y293168D01*
X518833Y293299D01*
X520115Y293688D01*
X521296Y294319D01*
X522331Y295169D01*
X523181Y296204D01*
X523812Y297386D01*
X524201Y298667D01*
X524332Y300000D01*
X524201Y301333D01*
X523812Y302614D01*
X523181Y303796D01*
X522331Y304831D01*
X521296Y305681D01*
X520115Y306312D01*
X518833Y306701D01*
X517500Y306832D01*
D02*
G37*
G36*
X209000D02*
X207667Y306701D01*
X206385Y306312D01*
X205204Y305681D01*
X204169Y304831D01*
X203319Y303796D01*
X202688Y302614D01*
X202299Y301333D01*
X202168Y300000D01*
X202299Y298667D01*
X202688Y297386D01*
X203319Y296204D01*
X204169Y295169D01*
X205204Y294319D01*
X206385Y293688D01*
X207667Y293299D01*
X209000Y293168D01*
X210333Y293299D01*
X211614Y293688D01*
X212796Y294319D01*
X213831Y295169D01*
X214681Y296204D01*
X215312Y297386D01*
X215701Y298667D01*
X215832Y300000D01*
X215701Y301333D01*
X215312Y302614D01*
X214681Y303796D01*
X213831Y304831D01*
X212796Y305681D01*
X211614Y306312D01*
X210333Y306701D01*
X209000Y306832D01*
D02*
G37*
G36*
X309697Y334520D02*
X273500D01*
X273110Y334442D01*
X272779Y334221D01*
X228779Y290221D01*
X228558Y289890D01*
X228480Y289500D01*
Y236422D01*
X210708Y218650D01*
X210638Y218704D01*
X209607Y219131D01*
X208500Y219277D01*
X207393Y219131D01*
X206362Y218704D01*
X205476Y218024D01*
X204796Y217138D01*
X204369Y216107D01*
X204223Y215000D01*
X204369Y213893D01*
X204796Y212862D01*
X205476Y211976D01*
X206362Y211296D01*
X207393Y210869D01*
X208500Y210723D01*
X209607Y210869D01*
X210638Y211296D01*
X211524Y211976D01*
X212204Y212862D01*
X212631Y213893D01*
X212777Y215000D01*
X212631Y216107D01*
X212204Y217138D01*
X212150Y217208D01*
X230221Y235279D01*
X230442Y235610D01*
X230520Y236000D01*
Y289078D01*
X273922Y332480D01*
X289566D01*
X289980Y332000D01*
Y320000D01*
X290058Y319610D01*
X290279Y319279D01*
X290610Y319058D01*
X291000Y318980D01*
X302500D01*
X302890Y319058D01*
X302980Y319118D01*
X303480Y318851D01*
Y254922D01*
X264951Y216393D01*
X264802Y216392D01*
X264362Y216511D01*
X264221Y216721D01*
X264120Y216789D01*
X264066Y217378D01*
X264381Y217619D01*
X265141Y218609D01*
X265618Y219763D01*
X265715Y220500D01*
X261000D01*
X256285D01*
X256382Y219763D01*
X256859Y218609D01*
X257619Y217619D01*
X257784Y217493D01*
X257623Y217020D01*
X247500D01*
X247110Y216942D01*
X246779Y216721D01*
X246558Y216390D01*
X246480Y216000D01*
Y202000D01*
X246558Y201610D01*
X246779Y201279D01*
X247110Y201058D01*
X247500Y200980D01*
X270500D01*
X270890Y201058D01*
X271221Y201279D01*
X271442Y201610D01*
X271520Y202000D01*
Y216000D01*
X271442Y216390D01*
X271221Y216721D01*
X270890Y216942D01*
X270500Y217020D01*
X269169D01*
X268962Y217520D01*
X305221Y253779D01*
X305442Y254110D01*
X305520Y254500D01*
Y318566D01*
X306000Y318980D01*
X314500D01*
X314890Y319058D01*
X315221Y319279D01*
X315442Y319610D01*
X315520Y320000D01*
Y325582D01*
X315982Y325773D01*
X340532Y301223D01*
X340406Y300917D01*
X340406D01*
Y298736D01*
Y294799D01*
Y290862D01*
Y287067D01*
X339312D01*
X333756Y292623D01*
Y297102D01*
X327244D01*
Y291772D01*
X331723D01*
X333305Y290190D01*
X333114Y289728D01*
X331000D01*
Y287063D01*
X334256D01*
Y288586D01*
X334718Y288777D01*
X338169Y285326D01*
X338500Y285105D01*
X338890Y285028D01*
X340406D01*
Y281732D01*
X339906D01*
Y280642D01*
X343268D01*
X346630D01*
Y281732D01*
X346130D01*
Y286925D01*
Y290933D01*
X348109D01*
X349076Y289966D01*
X349181Y289438D01*
X349491Y288975D01*
X349954Y288666D01*
X350500Y288557D01*
X351046Y288666D01*
X351509Y288975D01*
X351819Y289438D01*
X351927Y289984D01*
X351819Y290530D01*
X351509Y290994D01*
X351046Y291303D01*
X350518Y291408D01*
X349765Y292161D01*
X349921Y292712D01*
X350194Y292776D01*
X350454Y292602D01*
X351000Y292494D01*
X351546Y292602D01*
X352009Y292912D01*
X352319Y293375D01*
X352427Y293921D01*
X352338Y294370D01*
X352605Y294870D01*
X353396D01*
X353843Y294571D01*
X354390Y294462D01*
X354936Y294571D01*
X355399Y294880D01*
X355709Y295343D01*
X355817Y295890D01*
X355709Y296436D01*
X355399Y296899D01*
X354936Y297208D01*
X354390Y297317D01*
X353843Y297208D01*
X353396Y296909D01*
X346130D01*
Y300917D01*
X343721D01*
X329395Y315244D01*
X329602Y315744D01*
X331563D01*
Y319000D01*
X328898D01*
Y316448D01*
X328398Y316241D01*
X310418Y334221D01*
X310087Y334442D01*
X309697Y334520D01*
D02*
G37*
G36*
X330000Y289728D02*
X326744D01*
Y287063D01*
X330000D01*
Y289728D01*
D02*
G37*
G36*
X334256Y286063D02*
X331000D01*
Y283398D01*
X334256D01*
Y286063D01*
D02*
G37*
G36*
X330000D02*
X326744D01*
Y283398D01*
X330000D01*
Y286063D01*
D02*
G37*
G36*
X317728Y281929D02*
X315063D01*
Y278673D01*
X317728D01*
Y281929D01*
D02*
G37*
G36*
X314063D02*
X311398D01*
Y278673D01*
X314063D01*
Y281929D01*
D02*
G37*
G36*
X475004Y279969D02*
Y276500D01*
X478473D01*
X478401Y277044D01*
X477998Y278017D01*
X477357Y278853D01*
X476521Y279494D01*
X475548Y279897D01*
X475004Y279969D01*
D02*
G37*
G36*
X465004D02*
Y276500D01*
X468473D01*
X468401Y277044D01*
X467998Y278017D01*
X467357Y278853D01*
X466521Y279494D01*
X465548Y279897D01*
X465004Y279969D01*
D02*
G37*
G36*
X464004Y279969D02*
X463460Y279897D01*
X462487Y279494D01*
X461651Y278853D01*
X461010Y278017D01*
X460607Y277044D01*
X460535Y276500D01*
X464004D01*
Y279969D01*
D02*
G37*
G36*
X474004D02*
X473460Y279897D01*
X472487Y279494D01*
X471651Y278853D01*
X471010Y278017D01*
X470607Y277044D01*
X470535Y276500D01*
X474004D01*
Y279969D01*
D02*
G37*
G36*
X317728Y277673D02*
X315063D01*
Y274417D01*
X317728D01*
Y277673D01*
D02*
G37*
G36*
X314063D02*
X311398D01*
Y274417D01*
X314063D01*
Y277673D01*
D02*
G37*
G36*
X409063Y276319D02*
X406398D01*
Y273063D01*
X409063D01*
Y276319D01*
D02*
G37*
G36*
X464500Y363927D02*
X463954Y363819D01*
X463491Y363509D01*
X463181Y363046D01*
X463073Y362500D01*
X463181Y361954D01*
X463491Y361491D01*
X463954Y361181D01*
X464482Y361076D01*
X480398Y345160D01*
Y341524D01*
X476193D01*
Y336587D01*
X486642D01*
Y338035D01*
X498992D01*
X499398Y337606D01*
Y335000D01*
X502063D01*
Y338256D01*
X500342D01*
X500135Y338756D01*
X508623Y347244D01*
X512251D01*
X514980Y344515D01*
Y328422D01*
X505279Y318721D01*
X505058Y318390D01*
X504980Y318000D01*
Y279366D01*
X504235Y279057D01*
X503504Y278496D01*
X502943Y277765D01*
X502590Y276914D01*
X502470Y276000D01*
X502590Y275086D01*
X502899Y274341D01*
X471015Y242457D01*
X431756D01*
Y244102D01*
X425244D01*
Y238772D01*
X431756D01*
Y240417D01*
X471437D01*
X471827Y240495D01*
X472158Y240716D01*
X504341Y272899D01*
X505086Y272590D01*
X506000Y272470D01*
X506914Y272590D01*
X507765Y272943D01*
X508496Y273504D01*
X509057Y274235D01*
X509366Y274980D01*
X512634D01*
X512943Y274235D01*
X513504Y273504D01*
X514235Y272943D01*
X515086Y272590D01*
X516000Y272470D01*
X516914Y272590D01*
X517765Y272943D01*
X518496Y273504D01*
X519057Y274235D01*
X519410Y275086D01*
X519530Y276000D01*
X519410Y276914D01*
X519057Y277765D01*
X518496Y278496D01*
X517765Y279057D01*
X516914Y279410D01*
X516000Y279530D01*
X515086Y279410D01*
X514235Y279057D01*
X513504Y278496D01*
X512943Y277765D01*
X512634Y277020D01*
X509366D01*
X509057Y277765D01*
X508496Y278496D01*
X507765Y279057D01*
X507020Y279366D01*
Y317578D01*
X516721Y327279D01*
X516942Y327610D01*
X517020Y328000D01*
Y344937D01*
X516942Y345327D01*
X516721Y345658D01*
X513102Y349277D01*
Y353756D01*
X507772D01*
Y349277D01*
X506190Y347695D01*
X505728Y347886D01*
Y350000D01*
X503063D01*
Y346744D01*
X504586D01*
X504777Y346282D01*
X498570Y340075D01*
X486642D01*
Y341524D01*
X482437D01*
Y345583D01*
X482359Y345973D01*
X482138Y346304D01*
X465924Y362518D01*
X465819Y363046D01*
X465509Y363509D01*
X465046Y363819D01*
X464500Y363927D01*
D02*
G37*
G36*
X478473Y275500D02*
X475004D01*
Y272031D01*
X475548Y272103D01*
X476521Y272506D01*
X477357Y273147D01*
X477998Y273983D01*
X478401Y274956D01*
X478473Y275500D01*
D02*
G37*
G36*
X468473D02*
X465004D01*
Y272031D01*
X465548Y272103D01*
X466521Y272506D01*
X467357Y273147D01*
X467998Y273983D01*
X468401Y274956D01*
X468473Y275500D01*
D02*
G37*
G36*
X474004D02*
X470535D01*
X470607Y274956D01*
X471010Y273983D01*
X471651Y273147D01*
X472487Y272506D01*
X473460Y272103D01*
X474004Y272031D01*
Y275500D01*
D02*
G37*
G36*
X464004D02*
X460535D01*
X460607Y274956D01*
X461010Y273983D01*
X461651Y273147D01*
X462487Y272506D01*
X463460Y272103D01*
X464004Y272031D01*
Y275500D01*
D02*
G37*
G36*
X409063Y272063D02*
X406398D01*
Y268807D01*
X409063D01*
Y272063D01*
D02*
G37*
G36*
X395500Y301427D02*
X394954Y301319D01*
X394491Y301009D01*
X394181Y300546D01*
X394073Y300000D01*
X394181Y299454D01*
X394480Y299006D01*
Y286922D01*
X390660Y283102D01*
X386441D01*
Y278883D01*
X384779Y277221D01*
X384558Y276890D01*
X384480Y276500D01*
Y266422D01*
X378578Y260520D01*
X373422D01*
X365941Y268001D01*
Y269406D01*
X371917D01*
Y275130D01*
X365941D01*
Y276579D01*
X365863Y276969D01*
X365642Y277300D01*
X364048Y278894D01*
X363717Y279115D01*
X363327Y279193D01*
X346630D01*
Y279642D01*
X343268D01*
X339906D01*
Y279193D01*
X325102D01*
Y281429D01*
X319772D01*
Y274917D01*
X325102D01*
Y277154D01*
X331058D01*
X331250Y276692D01*
X279779Y225221D01*
X279558Y224890D01*
X279480Y224500D01*
Y194494D01*
X279181Y194046D01*
X279073Y193500D01*
X279181Y192954D01*
X279491Y192491D01*
X279954Y192181D01*
X280500Y192073D01*
X281046Y192181D01*
X281509Y192491D01*
X281819Y192954D01*
X281927Y193500D01*
X281819Y194046D01*
X281520Y194494D01*
Y224078D01*
X334596Y277154D01*
X340406D01*
Y277083D01*
X346130D01*
Y277154D01*
X362904D01*
X363902Y276156D01*
Y275630D01*
X363453D01*
Y272268D01*
X362453D01*
Y275630D01*
X361362D01*
Y275130D01*
X348083D01*
Y269406D01*
X356028D01*
Y250988D01*
X356105Y250598D01*
X356326Y250267D01*
X360020Y246574D01*
Y245520D01*
X348102D01*
Y247756D01*
X342772D01*
Y241244D01*
X348102D01*
Y243480D01*
X360020D01*
Y241898D01*
X366531D01*
Y247622D01*
X361855D01*
X361061Y248416D01*
X361253Y248878D01*
X362776D01*
Y251740D01*
X359520D01*
Y250611D01*
X359058Y250420D01*
X358067Y251411D01*
Y264749D01*
X358567Y264956D01*
X369468Y254054D01*
Y249378D01*
X375980D01*
Y251221D01*
X383398D01*
Y248000D01*
X386563D01*
X389728D01*
Y250114D01*
X390190Y250305D01*
X391772Y248723D01*
Y244244D01*
X397102D01*
Y250756D01*
X392623D01*
X390418Y252961D01*
X390087Y253182D01*
X389697Y253260D01*
X375980D01*
Y255102D01*
X371304D01*
X370426Y255980D01*
X370633Y256480D01*
X381500D01*
X381890Y256558D01*
X382221Y256779D01*
X390418Y264976D01*
X390639Y265307D01*
X390716Y265697D01*
Y269898D01*
X392953D01*
Y275228D01*
X386520D01*
Y276078D01*
X388214Y277772D01*
X392953D01*
Y279480D01*
X409015D01*
X411714Y276781D01*
X411523Y276319D01*
X410063D01*
Y272563D01*
Y268807D01*
X411649D01*
X411840Y268345D01*
X411279Y267784D01*
X411058Y267453D01*
X410980Y267063D01*
Y244102D01*
X408744D01*
Y238772D01*
X415256D01*
Y244102D01*
X413020D01*
Y266641D01*
X415686Y269307D01*
X420102D01*
Y275819D01*
X415560D01*
X410158Y281221D01*
X409827Y281442D01*
X409437Y281520D01*
X392953D01*
Y282511D01*
X396221Y285779D01*
X396442Y286110D01*
X396520Y286500D01*
Y299006D01*
X396819Y299454D01*
X396927Y300000D01*
X396819Y300546D01*
X396509Y301009D01*
X396046Y301319D01*
X395500Y301427D01*
D02*
G37*
G36*
X367032Y255602D02*
X363776D01*
Y252740D01*
X367032D01*
Y255602D01*
D02*
G37*
G36*
X362776D02*
X359520D01*
Y252740D01*
X362776D01*
Y255602D01*
D02*
G37*
G36*
X367032Y251740D02*
X363776D01*
Y248878D01*
X367032D01*
Y251740D01*
D02*
G37*
G36*
X376480Y248122D02*
X373224D01*
Y245260D01*
X376480D01*
Y248122D01*
D02*
G37*
G36*
X372224D02*
X368969D01*
Y245260D01*
X372224D01*
Y248122D01*
D02*
G37*
G36*
X340728Y248256D02*
X338063D01*
Y245000D01*
X340728D01*
Y248256D01*
D02*
G37*
G36*
X337063D02*
X334398D01*
Y245000D01*
X337063D01*
Y248256D01*
D02*
G37*
G36*
X389728Y247000D02*
X387063D01*
Y243744D01*
X389728D01*
Y247000D01*
D02*
G37*
G36*
X386063D02*
X383398D01*
Y243744D01*
X386063D01*
Y247000D01*
D02*
G37*
G36*
X376480Y244260D02*
X373224D01*
Y241398D01*
X376480D01*
Y244260D01*
D02*
G37*
G36*
X372224D02*
X368969D01*
Y241398D01*
X372224D01*
Y244260D01*
D02*
G37*
G36*
X340728Y244000D02*
X338063D01*
Y240744D01*
X340728D01*
Y244000D01*
D02*
G37*
G36*
X337063D02*
X334398D01*
Y240744D01*
X337063D01*
Y244000D01*
D02*
G37*
G36*
X415756Y236728D02*
X412500D01*
Y234063D01*
X415756D01*
Y236728D01*
D02*
G37*
G36*
X432256D02*
X429000D01*
Y234063D01*
X432256D01*
Y236728D01*
D02*
G37*
G36*
X411500D02*
X408244D01*
Y234063D01*
X411500D01*
Y236728D01*
D02*
G37*
G36*
X428000D02*
X424744D01*
Y234063D01*
X428000D01*
Y236728D01*
D02*
G37*
G36*
X364000Y235520D02*
X352000D01*
X351610Y235442D01*
X351279Y235221D01*
X351058Y234890D01*
X350980Y234500D01*
X351058Y234110D01*
X351279Y233779D01*
X351610Y233558D01*
X352000Y233480D01*
X364000D01*
X364390Y233558D01*
X364721Y233779D01*
X364942Y234110D01*
X365020Y234500D01*
X364942Y234890D01*
X364721Y235221D01*
X364390Y235442D01*
X364000Y235520D01*
D02*
G37*
G36*
X208500Y239277D02*
X207393Y239131D01*
X206362Y238704D01*
X205476Y238024D01*
X204796Y237138D01*
X204369Y236107D01*
X204223Y235000D01*
X204369Y233893D01*
X204796Y232862D01*
X205476Y231976D01*
X206362Y231296D01*
X207393Y230869D01*
X208500Y230723D01*
X209607Y230869D01*
X210638Y231296D01*
X211524Y231976D01*
X212204Y232862D01*
X212631Y233893D01*
X212777Y235000D01*
X212631Y236107D01*
X212204Y237138D01*
X211524Y238024D01*
X210638Y238704D01*
X209607Y239131D01*
X208500Y239277D01*
D02*
G37*
G36*
X432256Y233063D02*
X429000D01*
Y230398D01*
X432256D01*
Y233063D01*
D02*
G37*
G36*
X428000D02*
X424744D01*
Y230398D01*
X428000D01*
Y233063D01*
D02*
G37*
G36*
X415756D02*
X412500D01*
Y230398D01*
X415756D01*
Y233063D01*
D02*
G37*
G36*
X411500D02*
X408244D01*
Y230398D01*
X411500D01*
Y233063D01*
D02*
G37*
G36*
X261500Y225715D02*
Y221500D01*
X265715D01*
X265618Y222237D01*
X265141Y223391D01*
X264381Y224381D01*
X263390Y225141D01*
X262237Y225618D01*
X261500Y225715D01*
D02*
G37*
G36*
X260500D02*
X259763Y225618D01*
X258610Y225141D01*
X257619Y224381D01*
X256859Y223391D01*
X256382Y222237D01*
X256285Y221500D01*
X260500D01*
Y225715D01*
D02*
G37*
G36*
X516000Y210239D02*
X515086Y210119D01*
X514235Y209766D01*
X513504Y209205D01*
X512943Y208474D01*
X512634Y207728D01*
X509366D01*
X509057Y208474D01*
X508496Y209205D01*
X507765Y209766D01*
X506914Y210119D01*
X506000Y210239D01*
X505086Y210119D01*
X504235Y209766D01*
X503504Y209205D01*
X502943Y208474D01*
X502590Y207622D01*
X502470Y206709D01*
X502590Y205795D01*
X502899Y205049D01*
X487869Y190020D01*
X437403D01*
X426271Y201151D01*
X426356Y201262D01*
X426803Y202342D01*
X426956Y203500D01*
X426803Y204658D01*
X426356Y205738D01*
X425645Y206664D01*
X424718Y207376D01*
X423639Y207823D01*
X422480Y207975D01*
X421322Y207823D01*
X420243Y207376D01*
X419316Y206664D01*
X418605Y205738D01*
X418157Y204658D01*
X418005Y203500D01*
X418157Y202342D01*
X418605Y201262D01*
X419316Y200336D01*
X420243Y199624D01*
X421322Y199177D01*
X422480Y199025D01*
X423639Y199177D01*
X424718Y199624D01*
X424829Y199709D01*
X436259Y188279D01*
X436590Y188058D01*
X436980Y187980D01*
X488291D01*
X488682Y188058D01*
X489012Y188279D01*
X504341Y203608D01*
X505086Y203299D01*
X506000Y203179D01*
X506914Y203299D01*
X507765Y203651D01*
X508496Y204212D01*
X509057Y204944D01*
X509366Y205689D01*
X512634D01*
X512943Y204944D01*
X513504Y204212D01*
X514235Y203651D01*
X515086Y203299D01*
X516000Y203179D01*
X516914Y203299D01*
X517765Y203651D01*
X518496Y204212D01*
X519057Y204944D01*
X519410Y205795D01*
X519530Y206709D01*
X519410Y207622D01*
X519057Y208474D01*
X518496Y209205D01*
X517765Y209766D01*
X516914Y210119D01*
X516000Y210239D01*
D02*
G37*
G36*
X475004Y210677D02*
Y207209D01*
X478473D01*
X478401Y207753D01*
X477998Y208726D01*
X477357Y209561D01*
X476521Y210203D01*
X475548Y210606D01*
X475004Y210677D01*
D02*
G37*
G36*
X465004D02*
Y207209D01*
X468473D01*
X468401Y207753D01*
X467998Y208726D01*
X467357Y209561D01*
X466521Y210203D01*
X465548Y210606D01*
X465004Y210677D01*
D02*
G37*
G36*
X464004Y210677D02*
X463460Y210606D01*
X462487Y210203D01*
X461651Y209561D01*
X461010Y208726D01*
X460607Y207753D01*
X460535Y207209D01*
X464004D01*
Y210677D01*
D02*
G37*
G36*
X474004D02*
X473460Y210606D01*
X472487Y210203D01*
X471651Y209561D01*
X471010Y208726D01*
X470607Y207753D01*
X470535Y207209D01*
X474004D01*
Y210677D01*
D02*
G37*
G36*
X213240Y209740D02*
X209000D01*
Y205500D01*
X213240D01*
Y209740D01*
D02*
G37*
G36*
X208000D02*
X203760D01*
Y205500D01*
X208000D01*
Y209740D01*
D02*
G37*
G36*
X478473Y206209D02*
X475004D01*
Y202740D01*
X475548Y202812D01*
X476521Y203215D01*
X477357Y203856D01*
X477998Y204691D01*
X478401Y205664D01*
X478473Y206209D01*
D02*
G37*
G36*
X468473D02*
X465004D01*
Y202740D01*
X465548Y202812D01*
X466521Y203215D01*
X467357Y203856D01*
X467998Y204691D01*
X468401Y205664D01*
X468473Y206209D01*
D02*
G37*
G36*
X474004D02*
X470535D01*
X470607Y205664D01*
X471010Y204691D01*
X471651Y203856D01*
X472487Y203215D01*
X473460Y202812D01*
X474004Y202740D01*
Y206209D01*
D02*
G37*
G36*
X464004D02*
X460535D01*
X460607Y205664D01*
X461010Y204691D01*
X461651Y203856D01*
X462487Y203215D01*
X463460Y202812D01*
X464004Y202740D01*
Y206209D01*
D02*
G37*
G36*
X213240Y204500D02*
X209000D01*
Y200260D01*
X213240D01*
Y204500D01*
D02*
G37*
G36*
X208000D02*
X203760D01*
Y200260D01*
X208000D01*
Y204500D01*
D02*
G37*
G36*
X382520Y207975D02*
X381361Y207823D01*
X380282Y207376D01*
X379355Y206664D01*
X378644Y205738D01*
X378197Y204658D01*
X378044Y203500D01*
X378197Y202342D01*
X378644Y201262D01*
X379355Y200336D01*
X380282Y199624D01*
X381361Y199177D01*
X382520Y199025D01*
X383678Y199177D01*
X384757Y199624D01*
X385684Y200336D01*
X386395Y201262D01*
X386842Y202342D01*
X386995Y203500D01*
X386842Y204658D01*
X386395Y205738D01*
X385684Y206664D01*
X384757Y207376D01*
X383678Y207823D01*
X382520Y207975D01*
D02*
G37*
%LPD*%
D10*
X390500Y294000D02*
Y318827D01*
X387500Y294610D02*
Y322764D01*
X387000Y294110D02*
X387500Y294610D01*
X384516Y288016D02*
X390500Y294000D01*
X401500Y309000D02*
X407500Y315000D01*
X291000Y320000D02*
X302500D01*
X406937Y311000D02*
X417437Y321500D01*
X406500Y311000D02*
X406937D01*
X401500Y294500D02*
Y309000D01*
X409437Y280500D02*
X417437Y272500D01*
X389500Y280500D02*
X409437D01*
X506881Y329944D02*
X510937Y334000D01*
X481417Y329944D02*
X506881D01*
X389500Y280500D02*
X395500Y286500D01*
X376500Y314063D02*
X381500Y309063D01*
Y299827D02*
Y309063D01*
X322437Y278173D02*
X322437Y278173D01*
X334173D01*
X338890Y286047D02*
X343268D01*
X330500Y294437D02*
X338890Y286047D01*
X349173Y302072D02*
Y305732D01*
Y302072D02*
X351419Y299827D01*
X349173Y305732D02*
Y310264D01*
X339937Y319500D02*
X349173Y310264D01*
X379000Y259500D02*
X385500Y266000D01*
X373000Y259500D02*
X379000D01*
X364921Y267579D02*
X373000Y259500D01*
X385500Y266000D02*
Y276500D01*
X389500Y280500D01*
X353032Y305810D02*
Y316405D01*
X331937Y337500D02*
X353032Y316405D01*
X270000Y337500D02*
X331937D01*
X517000Y350500D02*
X528219Y339282D01*
X517000Y350500D02*
Y359000D01*
X389697Y265697D02*
Y272563D01*
X381500Y257500D02*
X389697Y265697D01*
X370010Y257500D02*
X381500D01*
X268500Y216000D02*
X270500D01*
Y202000D02*
Y216000D01*
X247500Y202000D02*
X270500D01*
X247500D02*
Y216000D01*
X254500D01*
X263500D01*
X314500Y320000D02*
Y326500D01*
X306000Y320000D02*
X314500D01*
X352000Y234500D02*
X364000D01*
X291000Y320000D02*
Y332000D01*
X417437Y321500D02*
X448500D01*
X457000Y330000D01*
X458583D01*
X395500Y286500D02*
Y300000D01*
X384000Y295500D02*
Y308500D01*
X382421Y293921D02*
X384000Y295500D01*
X376732Y299827D02*
X381500D01*
X471437Y241437D02*
X506000Y276000D01*
X428500Y241437D02*
X471437D01*
X510437Y350500D02*
X516000Y344937D01*
Y328000D02*
Y344937D01*
X506000Y318000D02*
X516000Y328000D01*
X506000Y276000D02*
Y318000D01*
X334173Y278173D02*
X343268D01*
X280500Y224500D02*
X334173Y278173D01*
X280500Y193500D02*
Y224500D01*
X226000Y242500D02*
Y293500D01*
X208500Y225000D02*
X226000Y242500D01*
X351419Y299827D02*
X376732D01*
X364921Y267579D02*
Y272268D01*
Y276579D01*
X363327Y278173D02*
X364921Y276579D01*
X343268Y278173D02*
X363327D01*
X343268Y295890D02*
X354390D01*
X376732Y293921D02*
X382421D01*
X383095Y289984D02*
X387110Y294000D01*
X387000Y294110D02*
X387110Y294000D01*
X376732Y289984D02*
X383095D01*
X376732Y288016D02*
X384516D01*
X348532Y291953D02*
X350500Y289984D01*
X343268Y291953D02*
X348532D01*
X343268Y293921D02*
X351000D01*
X464500Y362500D02*
X481417Y345583D01*
Y339055D02*
Y345583D01*
X470437Y298500D02*
X484000D01*
X506000Y276000D02*
X516000D01*
X506000Y206709D02*
X516000D01*
X488291Y189000D02*
X506000Y206709D01*
X436980Y189000D02*
X488291D01*
X422480Y203500D02*
X436980Y189000D01*
X412000Y241437D02*
Y267063D01*
X417437Y272500D01*
X501000Y375000D02*
X517000Y359000D01*
X396000Y375000D02*
X501000D01*
X370827Y349827D02*
X396000Y375000D01*
X370827Y305732D02*
Y349827D01*
X362953Y305732D02*
Y314035D01*
X368858Y305732D02*
Y314358D01*
X208500Y215000D02*
X229500Y236000D01*
Y289500D01*
X273500Y333500D01*
X309697D01*
X343268Y299929D01*
Y299827D02*
Y299929D01*
X226000Y293500D02*
X270000Y337500D01*
X353032Y305810D02*
X353110Y305732D01*
X304500Y254500D02*
Y328000D01*
X261000Y211000D02*
X304500Y254500D01*
X358938Y305810D02*
Y315062D01*
X291500Y382500D02*
X358938Y315062D01*
Y305810D02*
X359016Y305732D01*
X291500Y392500D02*
X360984Y323016D01*
Y305732D02*
Y323016D01*
X498992Y339055D02*
X510437Y350500D01*
X481417Y339055D02*
X498992D01*
X481417Y329944D02*
Y330000D01*
X458583D02*
X481417D01*
X528000Y347500D02*
Y379153D01*
X504000Y403154D02*
X528000Y379153D01*
X360984Y266526D02*
Y272268D01*
Y266526D02*
X370010Y257500D01*
X363016Y244500D02*
X363276Y244760D01*
X345437Y244500D02*
X363016D01*
X372724Y252240D02*
X389697D01*
X394437Y247500D01*
X359016Y265949D02*
X372724Y252240D01*
X359016Y265949D02*
Y272268D01*
X357047Y250988D02*
X363276Y244760D01*
X357047Y250988D02*
Y272268D01*
X540331Y183000D02*
Y419220D01*
X186000Y183000D02*
X540331D01*
X186000D02*
Y419220D01*
X540331D01*
D12*
X410264Y277488D02*
X427193D01*
Y338512D01*
X410264D02*
X427193D01*
X410264Y277488D02*
Y338512D01*
D14*
X349173Y272268D02*
D03*
X351142D02*
D03*
X353110D02*
D03*
X355079D02*
D03*
X357047D02*
D03*
X359016D02*
D03*
X360984D02*
D03*
X362953D02*
D03*
X364921D02*
D03*
X366890D02*
D03*
X368858D02*
D03*
X370827D02*
D03*
Y305732D02*
D03*
X368858D02*
D03*
X366890D02*
D03*
X364921D02*
D03*
X362953D02*
D03*
X360984D02*
D03*
X359016D02*
D03*
X357047D02*
D03*
X355079D02*
D03*
X353110D02*
D03*
X351142D02*
D03*
X349173D02*
D03*
D15*
X376732Y278173D02*
D03*
Y280142D02*
D03*
Y282110D02*
D03*
Y284079D02*
D03*
Y286047D02*
D03*
Y288016D02*
D03*
Y289984D02*
D03*
Y291953D02*
D03*
Y293921D02*
D03*
Y295890D02*
D03*
Y297858D02*
D03*
Y299827D02*
D03*
X343268D02*
D03*
Y297858D02*
D03*
Y295890D02*
D03*
Y293921D02*
D03*
Y291953D02*
D03*
Y289984D02*
D03*
Y288016D02*
D03*
Y286047D02*
D03*
Y284079D02*
D03*
Y282110D02*
D03*
Y280142D02*
D03*
Y278173D02*
D03*
D16*
X389697Y272563D02*
D03*
Y280437D02*
D03*
X528000Y346937D02*
D03*
Y339063D02*
D03*
X330500Y286563D02*
D03*
Y294437D02*
D03*
X376500Y314063D02*
D03*
Y321937D02*
D03*
X412000Y241437D02*
D03*
Y233563D02*
D03*
X428500Y241437D02*
D03*
Y233563D02*
D03*
D17*
X322437Y278173D02*
D03*
X314563D02*
D03*
X470437Y298500D02*
D03*
X462563D02*
D03*
X409563Y272563D02*
D03*
X417437D02*
D03*
X345437Y244500D02*
D03*
X337563D02*
D03*
X394437Y247500D02*
D03*
X386563D02*
D03*
X339937Y319500D02*
D03*
X332063D02*
D03*
X510437Y334500D02*
D03*
X502563D02*
D03*
X510437Y350500D02*
D03*
X502563D02*
D03*
D18*
X304500Y328000D02*
D03*
D19*
X363276Y244760D02*
D03*
X372724D02*
D03*
Y252240D02*
D03*
X363276D02*
D03*
D20*
X458583Y330000D02*
D03*
D21*
X481417Y339055D02*
D03*
Y330000D02*
D03*
Y320945D02*
D03*
D41*
X382520Y203500D02*
D03*
X422480D02*
D03*
D42*
X504000Y381500D02*
D03*
Y403154D02*
D03*
D43*
X261000Y211000D02*
D03*
D44*
Y221000D02*
D03*
X263000Y349500D02*
D03*
X216500Y348500D02*
D03*
Y393000D02*
D03*
D45*
X208500Y235000D02*
D03*
D46*
Y225000D02*
D03*
Y215000D02*
D03*
D47*
Y205000D02*
D03*
D48*
X516000Y276000D02*
D03*
X506000D02*
D03*
X474504D02*
D03*
X464504D02*
D03*
X516000Y206709D02*
D03*
X506000D02*
D03*
X474504D02*
D03*
X464504D02*
D03*
X291500Y402500D02*
D03*
Y392500D02*
D03*
Y352500D02*
D03*
Y362500D02*
D03*
Y372500D02*
D03*
Y382500D02*
D03*
D49*
X253000Y349500D02*
D03*
X206500Y348500D02*
D03*
Y393000D02*
D03*
D50*
X390500Y318827D02*
D03*
X387500Y322764D02*
D03*
X407500Y315000D02*
D03*
X406500Y311000D02*
D03*
X448500Y321500D02*
D03*
X395500Y300000D02*
D03*
X381500Y299827D02*
D03*
X384000Y308500D02*
D03*
X280500Y193500D02*
D03*
X354390Y295890D02*
D03*
X401500Y294500D02*
D03*
X350500Y289984D02*
D03*
X351000Y293921D02*
D03*
X464500Y362500D02*
D03*
X484000Y298500D02*
D03*
X362953Y314035D02*
D03*
X368858Y314358D02*
D03*
D51*
X209000Y300000D02*
D03*
X517500D02*
D03*
M02*
