M48
;Layer_Color=9474304
;FILE_FORMAT=2:5
INCH,LZ
;TYPE=PLATED
T1F00S00C0.01500
T2F00S00C0.03000
T3F00S00C0.03150
T4F00S00C0.03543
T5F00S00C0.04331
T6F00S00C0.12598
%
T01
X0484Y02985
X04015Y02945
X03955Y03
X03815Y0299827
X0384Y03085
X04065Y0311
X035439Y029589
X0351Y0293921
X03505Y0289984
X02805Y01935
X0362953Y0314035
X0368858Y0314358
X03905Y0318827
X03875Y0322764
X04075Y0315
X04485Y03215
X04645Y03625
T02
X0474504Y0206709
X0506
X0516
X0516Y0276
X0506
X0474504
X0464504
Y0206709
X02915Y03525
Y03625
Y03725
Y03825
Y03925
Y04025
T03
X038252Y02035
X042248
T04
X02085Y0205
Y0215
Y0225
Y0235
X0261Y0221
Y0211
X0263Y03495
X0253
X02165Y03485
X02065
Y0393
X02165
T05
X0504Y03815
Y0403154
T06
X05175Y03
X0209
M30
