G04*
G04 #@! TF.GenerationSoftware,Altium Limited,Altium Designer,18.1.7 (191)*
G04*
G04 Layer_Color=12632256*
%FSLAX25Y25*%
%MOIN*%
G70*
G01*
G75*
%ADD10C,0.01000*%
%ADD12C,0.00787*%
%ADD41C,0.07874*%
%ADD42C,0.06496*%
%ADD43R,0.07480X0.07480*%
%ADD44C,0.07480*%
%ADD45C,0.07480*%
%ADD46O,0.07480X0.07480*%
%ADD47R,0.07480X0.07480*%
%ADD48C,0.06000*%
%ADD49R,0.07480X0.07480*%
D10*
X540331Y183000D02*
Y419220D01*
X186000Y183000D02*
X540331D01*
X186000D02*
Y419220D01*
X540331D01*
D12*
X410264Y277488D02*
X427193D01*
Y338512D01*
X410264D02*
X427193D01*
X410264Y277488D02*
Y338512D01*
D41*
X382520Y203500D02*
D03*
X422480D02*
D03*
D42*
X504000Y381500D02*
D03*
Y403154D02*
D03*
D43*
X261000Y211000D02*
D03*
D44*
Y221000D02*
D03*
X263000Y349500D02*
D03*
X216500Y348500D02*
D03*
Y393000D02*
D03*
D45*
X208500Y235000D02*
D03*
D46*
Y225000D02*
D03*
Y215000D02*
D03*
D47*
Y205000D02*
D03*
D48*
X516000Y276000D02*
D03*
X506000D02*
D03*
X474504D02*
D03*
X464504D02*
D03*
X516000Y206709D02*
D03*
X506000D02*
D03*
X474504D02*
D03*
X464504D02*
D03*
X291500Y402500D02*
D03*
Y392500D02*
D03*
Y352500D02*
D03*
Y362500D02*
D03*
Y372500D02*
D03*
Y382500D02*
D03*
D49*
X253000Y349500D02*
D03*
X206500Y348500D02*
D03*
Y393000D02*
D03*
M02*
