G04*
G04 #@! TF.GenerationSoftware,Altium Limited,Altium Designer,18.1.7 (191)*
G04*
G04 Layer_Color=8421504*
%FSLAX25Y25*%
%MOIN*%
G70*
G01*
G75*
%ADD10C,0.00394*%
%ADD11C,0.01000*%
%ADD14C,0.00197*%
%ADD15R,0.05512X0.04331*%
%ADD16R,0.04331X0.05512*%
%ADD17R,0.07087X0.03937*%
%ADD18R,0.06004X0.01772*%
%ADD19R,0.11811X0.05906*%
%ADD20R,0.04724X0.01181*%
%ADD21R,0.01181X0.04724*%
%ADD22R,0.05512X0.04724*%
D10*
X429047Y324799D02*
X434953D01*
Y312201D02*
Y324799D01*
X429047Y312201D02*
X434953D01*
X429047D02*
Y324799D01*
X469476Y297339D02*
X491524D01*
Y264661D02*
Y297339D01*
X469476Y264661D02*
X491524D01*
X469476D02*
Y297339D01*
Y294779D02*
X472035Y297339D01*
X424520Y329327D02*
X439480D01*
X424520Y307673D02*
Y329327D01*
Y307673D02*
X439480D01*
Y329327D01*
D11*
X600980Y307500D02*
G03*
X600980Y307500I-157480J0D01*
G01*
D14*
X462488Y298323D02*
X498512D01*
Y263677D02*
Y298323D01*
X462488Y263677D02*
X498512D01*
X462488D02*
Y298323D01*
D15*
X449110Y247437D02*
D03*
Y239563D02*
D03*
X439500Y247437D02*
D03*
Y239563D02*
D03*
X448520Y340563D02*
D03*
Y348437D02*
D03*
X488000Y429437D02*
D03*
Y421563D02*
D03*
X460500Y317063D02*
D03*
Y324937D02*
D03*
X497000Y324937D02*
D03*
Y317063D02*
D03*
D16*
X466437Y422500D02*
D03*
X458563D02*
D03*
X514063Y336500D02*
D03*
X521937D02*
D03*
X416468Y322421D02*
D03*
X408595D02*
D03*
X416468Y330421D02*
D03*
X408595D02*
D03*
X436937Y371500D02*
D03*
X429063D02*
D03*
Y387500D02*
D03*
X436937D02*
D03*
X534937Y346500D02*
D03*
X527063D02*
D03*
Y362000D02*
D03*
X534937D02*
D03*
D17*
X432000Y313579D02*
D03*
Y323421D02*
D03*
D18*
X466476Y295075D02*
D03*
Y292516D02*
D03*
Y289957D02*
D03*
Y287398D02*
D03*
Y284839D02*
D03*
Y282279D02*
D03*
Y279720D02*
D03*
Y277161D02*
D03*
Y274602D02*
D03*
Y272043D02*
D03*
Y269484D02*
D03*
Y266925D02*
D03*
X494524D02*
D03*
Y269484D02*
D03*
Y272043D02*
D03*
Y274602D02*
D03*
Y277161D02*
D03*
Y279720D02*
D03*
Y282279D02*
D03*
Y284839D02*
D03*
Y287398D02*
D03*
Y289957D02*
D03*
Y292516D02*
D03*
Y295075D02*
D03*
D19*
X314961Y334646D02*
D03*
D20*
X459268Y345673D02*
D03*
Y347642D02*
D03*
Y349610D02*
D03*
Y351579D02*
D03*
Y353547D02*
D03*
Y355516D02*
D03*
Y357484D02*
D03*
Y359453D02*
D03*
Y361421D02*
D03*
Y363390D02*
D03*
Y365358D02*
D03*
Y367327D02*
D03*
X492732D02*
D03*
Y365358D02*
D03*
Y363390D02*
D03*
Y361421D02*
D03*
Y359453D02*
D03*
Y357484D02*
D03*
Y355516D02*
D03*
Y353547D02*
D03*
Y351579D02*
D03*
Y349610D02*
D03*
Y347642D02*
D03*
Y345673D02*
D03*
D21*
X465173Y373232D02*
D03*
X467142D02*
D03*
X469110D02*
D03*
X471079D02*
D03*
X473047D02*
D03*
X475016D02*
D03*
X476984D02*
D03*
X478953D02*
D03*
X480921D02*
D03*
X482890D02*
D03*
X484858D02*
D03*
X486827D02*
D03*
Y339768D02*
D03*
X484858D02*
D03*
X482890D02*
D03*
X480921D02*
D03*
X478953D02*
D03*
X476984D02*
D03*
X475016D02*
D03*
X473047D02*
D03*
X471079D02*
D03*
X469110D02*
D03*
X467142D02*
D03*
X465173D02*
D03*
D22*
X475276Y317260D02*
D03*
X484724D02*
D03*
Y324740D02*
D03*
X475276D02*
D03*
M02*
