G04*
G04 #@! TF.GenerationSoftware,Altium Limited,Altium Designer,18.1.7 (191)*
G04*
G04 Layer_Color=32896*
%FSLAX25Y25*%
%MOIN*%
G70*
G01*
G75*
%ADD10C,0.00394*%
%ADD11C,0.01000*%
%ADD13C,0.00787*%
%ADD14C,0.00197*%
D10*
X429047Y324799D02*
X434953D01*
Y312201D02*
Y324799D01*
X429047Y312201D02*
X434953D01*
X429047D02*
Y324799D01*
X469476Y297339D02*
X491524D01*
Y264661D02*
Y297339D01*
X469476Y264661D02*
X491524D01*
X469476D02*
Y297339D01*
Y294779D02*
X472035Y297339D01*
X424520Y329327D02*
X439480D01*
X424520Y307673D02*
Y329327D01*
Y307673D02*
X439480D01*
Y329327D01*
D11*
X488000Y407500D02*
X493000D01*
X487000Y383500D02*
X492000D01*
X407721Y314500D02*
X412720D01*
X409500Y271500D02*
X414500D01*
X399000D02*
X404000D01*
X387500D02*
X392500D01*
X395721Y314500D02*
X400721D01*
X384221D02*
X389220D01*
X407000Y344500D02*
X412000D01*
X395000D02*
X400000D01*
X383000D02*
X388000D01*
X372000Y428000D02*
Y430417D01*
X368032Y428000D02*
Y430417D01*
X371969Y428000D02*
X372000D01*
X368032D02*
X371969D01*
X356221Y430417D02*
X383780D01*
X356221Y407583D02*
X383780D01*
Y430417D02*
X385500D01*
Y407583D02*
Y430417D01*
X383780Y407583D02*
X385500D01*
X354500D02*
X356221D01*
X354500D02*
Y430417D01*
X356221D01*
X529000Y249441D02*
X543000D01*
X537750Y304559D02*
X541250D01*
X543000Y249441D02*
Y304559D01*
X529000Y249441D02*
Y304559D01*
X537750D01*
X541250D02*
X543000D01*
X475500Y424036D02*
Y420756D01*
X474844Y420100D01*
X473532D01*
X472876Y420756D01*
Y424036D01*
X471564Y420100D02*
X470252D01*
X470908D01*
Y424036D01*
X471564Y423380D01*
X564401Y400624D02*
X564926Y401149D01*
X565975D01*
X566500Y400624D01*
Y400099D01*
X565975Y399574D01*
X564926D01*
X564401Y399049D01*
Y398525D01*
X564926Y398000D01*
X565975D01*
X566500Y398525D01*
X563351Y401149D02*
X561252D01*
X562302D01*
Y398000D01*
X558104Y401149D02*
X560203D01*
Y398000D01*
X558104D01*
X560203Y399574D02*
X559153D01*
X557054Y398000D02*
Y401149D01*
X555480D01*
X554955Y400624D01*
Y399574D01*
X555480Y399049D01*
X557054D01*
X553906Y397475D02*
X551807D01*
X550757Y401149D02*
Y398000D01*
X549183D01*
X548658Y398525D01*
Y400624D01*
X549183Y401149D01*
X550757D01*
X546034D02*
X547084D01*
X547609Y400624D01*
Y398525D01*
X547084Y398000D01*
X546034D01*
X545509Y398525D01*
Y400624D01*
X546034Y401149D01*
X544460D02*
Y398000D01*
X543410Y399049D01*
X542361Y398000D01*
Y401149D01*
X541311Y398000D02*
Y401149D01*
X539212Y398000D01*
Y401149D01*
X538163Y397475D02*
X536064D01*
X535014Y398000D02*
Y401149D01*
X533965Y400099D01*
X532915Y401149D01*
Y398000D01*
X530291Y401149D02*
X531341D01*
X531866Y400624D01*
Y398525D01*
X531341Y398000D01*
X530291D01*
X529766Y398525D01*
Y400624D01*
X530291Y401149D01*
X528717D02*
Y398000D01*
X527143D01*
X526618Y398525D01*
Y400624D01*
X527143Y401149D01*
X528717D01*
X525568D02*
Y398525D01*
X525044Y398000D01*
X523994D01*
X523469Y398525D01*
Y401149D01*
X522420D02*
Y398000D01*
X520321D01*
X517172Y401149D02*
X519271D01*
Y398000D01*
X517172D01*
X519271Y399574D02*
X518222D01*
X516123Y397475D02*
X514023D01*
X510875Y401149D02*
X512974D01*
Y399574D01*
X511924Y400099D01*
X511400D01*
X510875Y399574D01*
Y398525D01*
X511400Y398000D01*
X512449D01*
X512974Y398525D01*
X509825Y401149D02*
Y399049D01*
X508776Y398000D01*
X507726Y399049D01*
Y401149D01*
X385000Y433900D02*
Y437836D01*
X383032D01*
X382376Y437180D01*
Y435868D01*
X383032Y435212D01*
X385000D01*
X381064Y437836D02*
Y434556D01*
X380408Y433900D01*
X379096D01*
X378440Y434556D01*
Y437836D01*
X377129Y433900D02*
Y437836D01*
X375817Y436524D01*
X374505Y437836D01*
Y433900D01*
X373193D02*
Y437836D01*
X371225D01*
X370569Y437180D01*
Y435868D01*
X371225Y435212D01*
X373193D01*
X546476Y304036D02*
X549100D01*
Y302068D01*
X547788D01*
X549100D01*
Y300100D01*
X409076Y357280D02*
X409732Y357936D01*
X411044D01*
X411700Y357280D01*
Y354656D01*
X411044Y354000D01*
X409732D01*
X409076Y354656D01*
X407764Y354000D02*
X406452D01*
X407108D01*
Y357936D01*
X407764Y357280D01*
X404485Y354656D02*
X403829Y354000D01*
X402517D01*
X401861Y354656D01*
Y357280D01*
X402517Y357936D01*
X403829D01*
X404485Y357280D01*
Y356624D01*
X403829Y355968D01*
X401861D01*
X397076Y357280D02*
X397732Y357936D01*
X399044D01*
X399700Y357280D01*
Y354656D01*
X399044Y354000D01*
X397732D01*
X397076Y354656D01*
X395764Y354000D02*
X394452D01*
X395108D01*
Y357936D01*
X395764Y357280D01*
X392484D02*
X391829Y357936D01*
X390517D01*
X389861Y357280D01*
Y356624D01*
X390517Y355968D01*
X389861Y355312D01*
Y354656D01*
X390517Y354000D01*
X391829D01*
X392484Y354656D01*
Y355312D01*
X391829Y355968D01*
X392484Y356624D01*
Y357280D01*
X391829Y355968D02*
X390517D01*
X385076Y357280D02*
X385732Y357936D01*
X387044D01*
X387700Y357280D01*
Y354656D01*
X387044Y354000D01*
X385732D01*
X385076Y354656D01*
X383764Y354000D02*
X382452D01*
X383108D01*
Y357936D01*
X383764Y357280D01*
X380485Y357936D02*
X377861D01*
Y357280D01*
X380485Y354656D01*
Y354000D01*
X409797Y327280D02*
X410453Y327936D01*
X411765D01*
X412421Y327280D01*
Y324656D01*
X411765Y324000D01*
X410453D01*
X409797Y324656D01*
X408485Y324000D02*
X407173D01*
X407829D01*
Y327936D01*
X408485Y327280D01*
X402581Y327936D02*
X403893Y327280D01*
X405205Y325968D01*
Y324656D01*
X404549Y324000D01*
X403237D01*
X402581Y324656D01*
Y325312D01*
X403237Y325968D01*
X405205D01*
X397797Y327280D02*
X398453Y327936D01*
X399765D01*
X400421Y327280D01*
Y324656D01*
X399765Y324000D01*
X398453D01*
X397797Y324656D01*
X396485Y324000D02*
X395173D01*
X395829D01*
Y327936D01*
X396485Y327280D01*
X390581Y327936D02*
X393205D01*
Y325968D01*
X391893Y326624D01*
X391237D01*
X390581Y325968D01*
Y324656D01*
X391237Y324000D01*
X392549D01*
X393205Y324656D01*
X386297Y327280D02*
X386953Y327936D01*
X388265D01*
X388920Y327280D01*
Y324656D01*
X388265Y324000D01*
X386953D01*
X386297Y324656D01*
X384985Y324000D02*
X383673D01*
X384329D01*
Y327936D01*
X384985Y327280D01*
X379737Y324000D02*
Y327936D01*
X381705Y325968D01*
X379081D01*
X489076Y396280D02*
X489732Y396936D01*
X491044D01*
X491700Y396280D01*
Y393656D01*
X491044Y393000D01*
X489732D01*
X489076Y393656D01*
X487764Y393000D02*
X486452D01*
X487108D01*
Y396936D01*
X487764Y396280D01*
X484484D02*
X483828Y396936D01*
X482517D01*
X481861Y396280D01*
Y395624D01*
X482517Y394968D01*
X483173D01*
X482517D01*
X481861Y394312D01*
Y393656D01*
X482517Y393000D01*
X483828D01*
X484484Y393656D01*
X490076Y420280D02*
X490732Y420936D01*
X492044D01*
X492700Y420280D01*
Y417656D01*
X492044Y417000D01*
X490732D01*
X490076Y417656D01*
X488764Y417000D02*
X487452D01*
X488108D01*
Y420936D01*
X488764Y420280D01*
X482861Y417000D02*
X485485D01*
X482861Y419624D01*
Y420280D01*
X483517Y420936D01*
X484829D01*
X485485Y420280D01*
X411576Y284280D02*
X412232Y284936D01*
X413544D01*
X414200Y284280D01*
Y281656D01*
X413544Y281000D01*
X412232D01*
X411576Y281656D01*
X410264Y281000D02*
X408952D01*
X409608D01*
Y284936D01*
X410264Y284280D01*
X406985Y281000D02*
X405673D01*
X406328D01*
Y284936D01*
X406985Y284280D01*
X401076D02*
X401732Y284936D01*
X403044D01*
X403700Y284280D01*
Y281656D01*
X403044Y281000D01*
X401732D01*
X401076Y281656D01*
X399764Y281000D02*
X398452D01*
X399108D01*
Y284936D01*
X399764Y284280D01*
X396484D02*
X395829Y284936D01*
X394517D01*
X393861Y284280D01*
Y281656D01*
X394517Y281000D01*
X395829D01*
X396484Y281656D01*
Y284280D01*
X389576D02*
X390232Y284936D01*
X391544D01*
X392200Y284280D01*
Y281656D01*
X391544Y281000D01*
X390232D01*
X389576Y281656D01*
X388264D02*
X387608Y281000D01*
X386296D01*
X385640Y281656D01*
Y284280D01*
X386296Y284936D01*
X387608D01*
X388264Y284280D01*
Y283624D01*
X387608Y282968D01*
X385640D01*
X513000Y181156D02*
X512344Y180500D01*
X511032D01*
X510376Y181156D01*
Y183780D01*
X511032Y184436D01*
X512344D01*
X513000Y183780D01*
Y183124D01*
X512344Y182468D01*
X510376D01*
X509064Y184436D02*
Y181812D01*
X507752Y180500D01*
X506440Y181812D01*
Y184436D01*
X505128Y179844D02*
X502505D01*
X501193Y180500D02*
Y184436D01*
X499225D01*
X498569Y183780D01*
Y182468D01*
X499225Y181812D01*
X501193D01*
X495289Y184436D02*
X496601D01*
X497257Y183780D01*
Y181156D01*
X496601Y180500D01*
X495289D01*
X494633Y181156D01*
Y183780D01*
X495289Y184436D01*
X493321D02*
Y180500D01*
X492009Y181812D01*
X490697Y180500D01*
Y184436D01*
X486762D02*
X489386D01*
Y180500D01*
X486762D01*
X489386Y182468D02*
X488074D01*
X485450Y180500D02*
Y184436D01*
X483482D01*
X482826Y183780D01*
Y182468D01*
X483482Y181812D01*
X485450D01*
X484138D02*
X482826Y180500D01*
X481514Y183780D02*
X480858Y184436D01*
X479546D01*
X478890Y183780D01*
Y183124D01*
X479546Y182468D01*
X480202D01*
X479546D01*
X478890Y181812D01*
Y181156D01*
X479546Y180500D01*
X480858D01*
X481514Y181156D01*
X553800Y211656D02*
X553144Y211000D01*
X551832D01*
X551176Y211656D01*
Y214280D01*
X551832Y214936D01*
X553144D01*
X553800Y214280D01*
Y213624D01*
X553144Y212968D01*
X551176D01*
X549864Y214936D02*
Y212312D01*
X548552Y211000D01*
X547240Y212312D01*
Y214936D01*
X545928Y210344D02*
X543305D01*
X541993Y211000D02*
Y214936D01*
X540025D01*
X539369Y214280D01*
Y212968D01*
X540025Y212312D01*
X541993D01*
X536089Y214936D02*
X537401D01*
X538057Y214280D01*
Y211656D01*
X537401Y211000D01*
X536089D01*
X535433Y211656D01*
Y214280D01*
X536089Y214936D01*
X534121D02*
Y211000D01*
X532809Y212312D01*
X531497Y211000D01*
Y214936D01*
X527562D02*
X530186D01*
Y211000D01*
X527562D01*
X530186Y212968D02*
X528874D01*
X526250Y211000D02*
Y214936D01*
X524282D01*
X523626Y214280D01*
Y212968D01*
X524282Y212312D01*
X526250D01*
X524938D02*
X523626Y211000D01*
X519690D02*
X522314D01*
X519690Y213624D01*
Y214280D01*
X520346Y214936D01*
X521658D01*
X522314Y214280D01*
X529500Y432156D02*
X528844Y431500D01*
X527532D01*
X526876Y432156D01*
Y434780D01*
X527532Y435436D01*
X528844D01*
X529500Y434780D01*
Y434124D01*
X528844Y433468D01*
X526876D01*
X525564Y435436D02*
Y432812D01*
X524252Y431500D01*
X522940Y432812D01*
Y435436D01*
X521629Y430844D02*
X519005D01*
X517693Y431500D02*
Y435436D01*
X515725D01*
X515069Y434780D01*
Y433468D01*
X515725Y432812D01*
X517693D01*
X511789Y435436D02*
X513101D01*
X513757Y434780D01*
Y432156D01*
X513101Y431500D01*
X511789D01*
X511133Y432156D01*
Y434780D01*
X511789Y435436D01*
X509821D02*
Y431500D01*
X508509Y432812D01*
X507198Y431500D01*
Y435436D01*
X503262D02*
X505886D01*
Y431500D01*
X503262D01*
X505886Y433468D02*
X504574D01*
X501950Y431500D02*
Y435436D01*
X499982D01*
X499326Y434780D01*
Y433468D01*
X499982Y432812D01*
X501950D01*
X500638D02*
X499326Y431500D01*
X498014D02*
X496702D01*
X497358D01*
Y435436D01*
X498014Y434780D01*
X513000Y193656D02*
X512344Y193000D01*
X511032D01*
X510376Y193656D01*
Y196280D01*
X511032Y196936D01*
X512344D01*
X513000Y196280D01*
Y195624D01*
X512344Y194968D01*
X510376D01*
X509064Y196936D02*
Y194312D01*
X507752Y193000D01*
X506440Y194312D01*
Y196936D01*
X505128Y192344D02*
X502505D01*
X498569Y196280D02*
X499225Y196936D01*
X500537D01*
X501193Y196280D01*
Y193656D01*
X500537Y193000D01*
X499225D01*
X498569Y193656D01*
Y194968D01*
X499881D01*
X497257Y193000D02*
Y196936D01*
X494633Y193000D01*
Y196936D01*
X493321D02*
Y193000D01*
X491353D01*
X490697Y193656D01*
Y196280D01*
X491353Y196936D01*
X493321D01*
X489386Y196280D02*
X488730Y196936D01*
X487418D01*
X486762Y196280D01*
Y195624D01*
X487418Y194968D01*
X488074D01*
X487418D01*
X486762Y194312D01*
Y193656D01*
X487418Y193000D01*
X488730D01*
X489386Y193656D01*
X553800Y228656D02*
X553144Y228000D01*
X551832D01*
X551176Y228656D01*
Y231280D01*
X551832Y231936D01*
X553144D01*
X553800Y231280D01*
Y230624D01*
X553144Y229968D01*
X551176D01*
X549864Y231936D02*
Y229312D01*
X548552Y228000D01*
X547240Y229312D01*
Y231936D01*
X545928Y227344D02*
X543305D01*
X539369Y231280D02*
X540025Y231936D01*
X541337D01*
X541993Y231280D01*
Y228656D01*
X541337Y228000D01*
X540025D01*
X539369Y228656D01*
Y229968D01*
X540681D01*
X538057Y228000D02*
Y231936D01*
X535433Y228000D01*
Y231936D01*
X534121D02*
Y228000D01*
X532153D01*
X531497Y228656D01*
Y231280D01*
X532153Y231936D01*
X534121D01*
X527562Y228000D02*
X530186D01*
X527562Y230624D01*
Y231280D01*
X528218Y231936D01*
X529530D01*
X530186Y231280D01*
X530300Y416156D02*
X529644Y415500D01*
X528332D01*
X527676Y416156D01*
Y418780D01*
X528332Y419436D01*
X529644D01*
X530300Y418780D01*
Y418124D01*
X529644Y417468D01*
X527676D01*
X526364Y419436D02*
Y416812D01*
X525052Y415500D01*
X523740Y416812D01*
Y419436D01*
X522429Y414844D02*
X519805D01*
X515869Y418780D02*
X516525Y419436D01*
X517837D01*
X518493Y418780D01*
Y416156D01*
X517837Y415500D01*
X516525D01*
X515869Y416156D01*
Y417468D01*
X517181D01*
X514557Y415500D02*
Y419436D01*
X511933Y415500D01*
Y419436D01*
X510621D02*
Y415500D01*
X508653D01*
X507998Y416156D01*
Y418780D01*
X508653Y419436D01*
X510621D01*
X506686Y415500D02*
X505374D01*
X506030D01*
Y419436D01*
X506686Y418780D01*
X600980Y307500D02*
G03*
X600980Y307500I-157480J0D01*
G01*
D13*
X454488Y390311D02*
X465512D01*
X454488Y416689D02*
X465512D01*
X454488Y390311D02*
Y416689D01*
X465512Y390311D02*
Y416689D01*
D14*
X462488Y298323D02*
X498512D01*
Y263677D02*
Y298323D01*
X462488Y263677D02*
X498512D01*
X462488D02*
Y298323D01*
M02*
