G04*
G04 #@! TF.GenerationSoftware,Altium Limited,Altium Designer,18.1.7 (191)*
G04*
G04 Layer_Color=65535*
%FSLAX25Y25*%
%MOIN*%
G70*
G01*
G75*
%ADD10C,0.00394*%
%ADD11C,0.01000*%
%ADD12C,0.00080*%
%ADD13C,0.00787*%
%ADD14C,0.00197*%
D10*
X432000Y327555D02*
G03*
X432000Y327161I0J-197D01*
G01*
D02*
G03*
X432000Y327555I0J197D01*
G01*
X429047Y324799D02*
X434953D01*
Y312201D02*
Y324799D01*
X429047Y312201D02*
X434953D01*
X429047D02*
Y324799D01*
X469476Y297339D02*
X491524D01*
Y264661D02*
Y297339D01*
X469476Y264661D02*
X491524D01*
X469476D02*
Y297339D01*
Y294779D02*
X472035Y297339D01*
X424520Y329327D02*
X439480D01*
X424520Y307673D02*
Y329327D01*
Y307673D02*
X439480D01*
Y329327D01*
D11*
X467207Y347000D02*
G03*
X467207Y347000I-707J0D01*
G01*
X475500Y312500D02*
G03*
X475500Y312500I-500J0D01*
G01*
X446610Y243500D02*
X451610D01*
X437000D02*
X442000D01*
X462500Y420000D02*
Y425000D01*
X518000Y334000D02*
Y339000D01*
X446020Y344500D02*
X451020D01*
X485500Y425500D02*
X490500D01*
X412532Y319921D02*
Y324921D01*
X460110Y203689D02*
Y227311D01*
X457693Y190894D02*
Y240106D01*
X480527Y190894D02*
Y240106D01*
X457693Y203689D02*
X460110D01*
X457693Y227311D02*
X460110D01*
X457693Y190894D02*
X480527D01*
X457693Y240106D02*
X480527D01*
X414937Y203689D02*
Y227311D01*
X412520Y190894D02*
Y240106D01*
X435354Y190894D02*
Y240106D01*
X412520Y203689D02*
X414937D01*
X412520Y227311D02*
X414937D01*
X412520Y190894D02*
X435354D01*
X412520Y240106D02*
X435354D01*
X412532Y327921D02*
Y332921D01*
X433000Y369000D02*
Y374000D01*
X458000Y321000D02*
X463000D01*
Y369500D02*
X489000D01*
Y343500D02*
Y369500D01*
X466500Y343500D02*
X489000D01*
X463000Y347000D02*
X466500Y343500D01*
X463000Y347000D02*
Y369500D01*
X433000Y385000D02*
Y390000D01*
X479000Y325921D02*
X481000D01*
X479000Y316079D02*
X481000D01*
X486299Y320500D02*
X486299Y321500D01*
X473701D02*
X473701Y320500D01*
X494500Y321000D02*
X499500D01*
X531000Y344000D02*
Y349000D01*
X375500Y215894D02*
Y218311D01*
X371532Y215894D02*
Y218311D01*
X375468D02*
X375500D01*
X371532D02*
X375468D01*
X359720Y215894D02*
X387280D01*
X359720Y238728D02*
X387280D01*
Y215894D02*
X389000D01*
Y238728D01*
X387280D02*
X389000D01*
X358000D02*
X359720D01*
X358000Y215894D02*
Y238728D01*
Y215894D02*
X359720D01*
X531000Y359500D02*
Y364500D01*
X412500Y423500D02*
Y425917D01*
X416468Y423500D02*
Y425917D01*
X412500Y423500D02*
X412532D01*
X416468D01*
X400721Y425917D02*
X428279D01*
X400721Y403083D02*
X428279D01*
X399000Y425917D02*
X400721D01*
X399000Y403083D02*
Y425917D01*
Y403083D02*
X400721D01*
X428279D02*
X430000D01*
Y425917D01*
X428279D02*
X430000D01*
X498512Y192436D02*
Y188500D01*
X499824Y189812D01*
X501136Y188500D01*
Y192436D01*
X502448Y188500D02*
X503759D01*
X503103D01*
Y191124D01*
X502448D01*
X505727Y188500D02*
Y191124D01*
X507695D01*
X508351Y190468D01*
Y188500D01*
X509663D02*
Y191124D01*
X511631D01*
X512287Y190468D01*
Y188500D01*
X513599D02*
X514911D01*
X514255D01*
Y191124D01*
X513599D01*
X518847Y188500D02*
X517535D01*
X516879Y189156D01*
Y190468D01*
X517535Y191124D01*
X518847D01*
X519502Y190468D01*
Y189812D01*
X516879D01*
X495124Y178500D02*
X492500D01*
X495124Y181124D01*
Y181780D01*
X494468Y182436D01*
X493156D01*
X492500Y181780D01*
X496436D02*
X497092Y182436D01*
X498404D01*
X499060Y181780D01*
Y179156D01*
X498404Y178500D01*
X497092D01*
X496436Y179156D01*
Y181780D01*
X502995Y178500D02*
X500372D01*
X502995Y181124D01*
Y181780D01*
X502339Y182436D01*
X501027D01*
X500372Y181780D01*
X504307D02*
X504963Y182436D01*
X506275D01*
X506931Y181780D01*
Y181124D01*
X506275Y180468D01*
X505619D01*
X506275D01*
X506931Y179812D01*
Y179156D01*
X506275Y178500D01*
X504963D01*
X504307Y179156D01*
X508243Y178500D02*
Y179156D01*
X508899D01*
Y178500D01*
X508243D01*
X511523Y181780D02*
X512179Y182436D01*
X513491D01*
X514147Y181780D01*
Y179156D01*
X513491Y178500D01*
X512179D01*
X511523Y179156D01*
Y181780D01*
X517426Y178500D02*
Y182436D01*
X515458Y180468D01*
X518082D01*
X519394Y178500D02*
Y179156D01*
X520050D01*
Y178500D01*
X519394D01*
X522674D02*
X523986D01*
X523330D01*
Y182436D01*
X522674Y181780D01*
X525954Y179156D02*
X526610Y178500D01*
X527922D01*
X528578Y179156D01*
Y181780D01*
X527922Y182436D01*
X526610D01*
X525954Y181780D01*
Y181124D01*
X526610Y180468D01*
X528578D01*
X437300Y252978D02*
Y256914D01*
X439268D01*
X439924Y256258D01*
Y254946D01*
X439268Y254290D01*
X437300D01*
X438612D02*
X439924Y252978D01*
X443860Y256914D02*
X441236D01*
Y254946D01*
X442548Y255602D01*
X443204D01*
X443860Y254946D01*
Y253634D01*
X443204Y252978D01*
X441892D01*
X441236Y253634D01*
X447000Y253000D02*
Y256936D01*
X448968D01*
X449624Y256280D01*
Y254968D01*
X448968Y254312D01*
X447000D01*
X448312D02*
X449624Y253000D01*
X452904D02*
Y256936D01*
X450936Y254968D01*
X453560D01*
X346500Y398381D02*
Y394445D01*
Y396413D01*
X349124D01*
Y398381D01*
Y394445D01*
X353060Y397725D02*
X352404Y398381D01*
X351092D01*
X350436Y397725D01*
Y395101D01*
X351092Y394445D01*
X352404D01*
X353060Y395101D01*
X354372Y396413D02*
X356995D01*
X358307Y397725D02*
X358963Y398381D01*
X360275D01*
X360931Y397725D01*
Y395101D01*
X360275Y394445D01*
X358963D01*
X358307Y395101D01*
Y397725D01*
X364867Y398381D02*
X362243D01*
Y396413D01*
X363555Y397069D01*
X364211D01*
X364867Y396413D01*
Y395101D01*
X364211Y394445D01*
X362899D01*
X362243Y395101D01*
X485800Y435700D02*
Y439636D01*
X487768D01*
X488424Y438980D01*
Y437668D01*
X487768Y437012D01*
X485800D01*
X491704Y439636D02*
X490392D01*
X489736Y438980D01*
Y436356D01*
X490392Y435700D01*
X491704D01*
X492360Y436356D01*
Y438980D01*
X491704Y439636D01*
X493672D02*
Y435700D01*
X494983Y437012D01*
X496295Y435700D01*
Y439636D01*
X500231D02*
X497607D01*
Y435700D01*
X500231D01*
X497607Y437668D02*
X498919D01*
X501543Y435700D02*
Y439636D01*
X503511D01*
X504167Y438980D01*
Y437668D01*
X503511Y437012D01*
X501543D01*
X502855D02*
X504167Y435700D01*
X505479Y435044D02*
X508103D01*
X509414Y439636D02*
Y435700D01*
X512038D01*
X515974Y439636D02*
X513350D01*
Y435700D01*
X515974D01*
X513350Y437668D02*
X514662D01*
X517286Y439636D02*
Y435700D01*
X519254D01*
X519910Y436356D01*
Y438980D01*
X519254Y439636D01*
X517286D01*
X463400Y305336D02*
X464712D01*
X464056D01*
Y301400D01*
X463400D01*
X464712D01*
X469304Y304680D02*
X468648Y305336D01*
X467336D01*
X466680Y304680D01*
Y302056D01*
X467336Y301400D01*
X468648D01*
X469304Y302056D01*
X473239Y301400D02*
X470615D01*
X473239Y304024D01*
Y304680D01*
X472583Y305336D01*
X471272D01*
X470615Y304680D01*
X412000Y305436D02*
Y304780D01*
X413312Y303468D01*
X414624Y304780D01*
Y305436D01*
X413312Y303468D02*
Y301500D01*
X415936D02*
X417248D01*
X416592D01*
Y305436D01*
X415936Y304780D01*
X419215Y300844D02*
X421839D01*
X425775Y305436D02*
X423151D01*
Y303468D01*
X424463D01*
X423151D01*
Y301500D01*
X429711Y304780D02*
X429055Y305436D01*
X427743D01*
X427087Y304780D01*
Y302156D01*
X427743Y301500D01*
X429055D01*
X429711Y302156D01*
X431023Y303468D02*
X433647D01*
X434959Y301500D02*
X436270D01*
X435614D01*
Y305436D01*
X434959Y304780D01*
X438238D02*
X438894Y305436D01*
X440206D01*
X440862Y304780D01*
Y304124D01*
X440206Y303468D01*
X439550D01*
X440206D01*
X440862Y302812D01*
Y302156D01*
X440206Y301500D01*
X438894D01*
X438238Y302156D01*
X444798Y305436D02*
X442174D01*
Y303468D01*
X443486Y304124D01*
X444142D01*
X444798Y303468D01*
Y302156D01*
X444142Y301500D01*
X442830D01*
X442174Y302156D01*
X473100Y334436D02*
X475724Y330500D01*
Y334436D02*
X473100Y330500D01*
X477036Y334436D02*
X479660D01*
X478348D01*
Y330500D01*
X402124Y432680D02*
X401468Y433336D01*
X400156D01*
X399500Y432680D01*
Y432024D01*
X400156Y431368D01*
X401468D01*
X402124Y430712D01*
Y430056D01*
X401468Y429400D01*
X400156D01*
X399500Y430056D01*
X403436Y433336D02*
Y429400D01*
X404748Y430712D01*
X406060Y429400D01*
Y433336D01*
X407372D02*
X408683D01*
X408027D01*
Y429400D01*
X407372D01*
X408683D01*
X410651Y433336D02*
X413275D01*
X411963D01*
Y429400D01*
X417211Y432680D02*
X416555Y433336D01*
X415243D01*
X414587Y432680D01*
Y430056D01*
X415243Y429400D01*
X416555D01*
X417211Y430056D01*
X418523Y433336D02*
Y429400D01*
Y431368D01*
X421147D01*
Y433336D01*
Y429400D01*
X457000Y428700D02*
Y432636D01*
X458968D01*
X459624Y431980D01*
Y430668D01*
X458968Y430012D01*
X457000D01*
X458312D02*
X459624Y428700D01*
X460936Y431980D02*
X461592Y432636D01*
X462904D01*
X463560Y431980D01*
Y431324D01*
X462904Y430668D01*
X462248D01*
X462904D01*
X463560Y430012D01*
Y429356D01*
X462904Y428700D01*
X461592D01*
X460936Y429356D01*
X512500Y342700D02*
Y346636D01*
X514468D01*
X515124Y345980D01*
Y344668D01*
X514468Y344012D01*
X512500D01*
X513812D02*
X515124Y342700D01*
X519060D02*
X516436D01*
X519060Y345324D01*
Y345980D01*
X518404Y346636D01*
X517092D01*
X516436Y345980D01*
X446320Y354000D02*
Y357936D01*
X448288D01*
X448944Y357280D01*
Y355968D01*
X448288Y355312D01*
X446320D01*
X447632D02*
X448944Y354000D01*
X450255D02*
X451567D01*
X450911D01*
Y357936D01*
X450255Y357280D01*
X457500Y249436D02*
Y245500D01*
X459468D01*
X460124Y246156D01*
Y248780D01*
X459468Y249436D01*
X457500D01*
X463404Y245500D02*
X462092D01*
X461436Y246156D01*
Y247468D01*
X462092Y248124D01*
X463404D01*
X464060Y247468D01*
Y246812D01*
X461436D01*
X465372Y244188D02*
Y248124D01*
X467339D01*
X467995Y247468D01*
Y246156D01*
X467339Y245500D01*
X465372D01*
X469963Y248780D02*
Y248124D01*
X469307D01*
X470619D01*
X469963D01*
Y246156D01*
X470619Y245500D01*
X472587Y249436D02*
Y245500D01*
Y247468D01*
X473243Y248124D01*
X474555D01*
X475211Y247468D01*
Y245500D01*
X479147Y248780D02*
X478491Y249436D01*
X477179D01*
X476523Y248780D01*
Y248124D01*
X477179Y247468D01*
X478491D01*
X479147Y246812D01*
Y246156D01*
X478491Y245500D01*
X477179D01*
X476523Y246156D01*
X482426Y245500D02*
X481114D01*
X480458Y246156D01*
Y247468D01*
X481114Y248124D01*
X482426D01*
X483082Y247468D01*
Y246812D01*
X480458D01*
X484394Y245500D02*
Y248124D01*
X486362D01*
X487018Y247468D01*
Y245500D01*
X488330D02*
X490298D01*
X490954Y246156D01*
X490298Y246812D01*
X488986D01*
X488330Y247468D01*
X488986Y248124D01*
X490954D01*
X492922Y245500D02*
X494234D01*
X494889Y246156D01*
Y247468D01*
X494234Y248124D01*
X492922D01*
X492266Y247468D01*
Y246156D01*
X492922Y245500D01*
X496201Y248124D02*
Y245500D01*
Y246812D01*
X496857Y247468D01*
X497513Y248124D01*
X498169D01*
X417061Y249280D02*
X416405Y249936D01*
X415093D01*
X414437Y249280D01*
Y248624D01*
X415093Y247968D01*
X416405D01*
X417061Y247312D01*
Y246656D01*
X416405Y246000D01*
X415093D01*
X414437Y246656D01*
X418373Y249936D02*
X420997D01*
X419685D01*
Y246000D01*
X422308D02*
Y249936D01*
X423620Y248624D01*
X424932Y249936D01*
Y246000D01*
X457500Y382936D02*
X458812D01*
X458156D01*
Y379000D01*
X457500D01*
X458812D01*
X463404Y382280D02*
X462748Y382936D01*
X461436D01*
X460780Y382280D01*
Y379656D01*
X461436Y379000D01*
X462748D01*
X463404Y379656D01*
X464715Y379000D02*
X466027D01*
X465372D01*
Y382936D01*
X464715Y382280D01*
X410218Y314201D02*
X409562Y314857D01*
X408251D01*
X407594Y314201D01*
Y311577D01*
X408251Y310921D01*
X409562D01*
X410218Y311577D01*
X411530Y314201D02*
X412186Y314857D01*
X413498D01*
X414154Y314201D01*
Y313545D01*
X413498Y312889D01*
X414154Y312233D01*
Y311577D01*
X413498Y310921D01*
X412186D01*
X411530Y311577D01*
Y312233D01*
X412186Y312889D01*
X411530Y313545D01*
Y314201D01*
X412186Y312889D02*
X413498D01*
X409618Y339901D02*
X408962Y340557D01*
X407651D01*
X406994Y339901D01*
Y337277D01*
X407651Y336621D01*
X408962D01*
X409618Y337277D01*
X410930Y340557D02*
X413554D01*
Y339901D01*
X410930Y337277D01*
Y336621D01*
X460924Y333780D02*
X460268Y334436D01*
X458956D01*
X458300Y333780D01*
Y331156D01*
X458956Y330500D01*
X460268D01*
X460924Y331156D01*
X464860Y334436D02*
X463548Y333780D01*
X462236Y332468D01*
Y331156D01*
X462892Y330500D01*
X464204D01*
X464860Y331156D01*
Y331812D01*
X464204Y332468D01*
X462236D01*
X497424Y333780D02*
X496768Y334436D01*
X495456D01*
X494800Y333780D01*
Y331156D01*
X495456Y330500D01*
X496768D01*
X497424Y331156D01*
X501360Y334436D02*
X498736D01*
Y332468D01*
X500048Y333124D01*
X500704D01*
X501360Y332468D01*
Y331156D01*
X500704Y330500D01*
X499392D01*
X498736Y331156D01*
X528124Y371480D02*
X527468Y372136D01*
X526156D01*
X525500Y371480D01*
Y368856D01*
X526156Y368200D01*
X527468D01*
X528124Y368856D01*
X531404Y368200D02*
Y372136D01*
X529436Y370168D01*
X532060D01*
X528124Y355980D02*
X527468Y356636D01*
X526156D01*
X525500Y355980D01*
Y353356D01*
X526156Y352700D01*
X527468D01*
X528124Y353356D01*
X529436Y355980D02*
X530092Y356636D01*
X531404D01*
X532060Y355980D01*
Y355324D01*
X531404Y354668D01*
X530748D01*
X531404D01*
X532060Y354012D01*
Y353356D01*
X531404Y352700D01*
X530092D01*
X529436Y353356D01*
X430124Y380980D02*
X429468Y381636D01*
X428156D01*
X427500Y380980D01*
Y378356D01*
X428156Y377700D01*
X429468D01*
X430124Y378356D01*
X434060Y377700D02*
X431436D01*
X434060Y380324D01*
Y380980D01*
X433404Y381636D01*
X432092D01*
X431436Y380980D01*
X430124Y396980D02*
X429468Y397636D01*
X428156D01*
X427500Y396980D01*
Y394356D01*
X428156Y393700D01*
X429468D01*
X430124Y394356D01*
X431436Y393700D02*
X432748D01*
X432092D01*
Y397636D01*
X431436Y396980D01*
X358500Y242235D02*
Y244858D01*
X359812Y246170D01*
X361124Y244858D01*
Y242235D01*
Y244202D01*
X358500D01*
X362436Y242235D02*
Y246170D01*
X365060Y242235D01*
Y246170D01*
X366371D02*
X368995D01*
X367683D01*
Y242235D01*
X372931Y246170D02*
X370307D01*
Y242235D01*
X372931D01*
X370307Y244202D02*
X371619D01*
X374243Y242235D02*
Y246170D01*
X376867Y242235D01*
Y246170D01*
X378179Y242235D02*
Y246170D01*
X380802Y242235D01*
Y246170D01*
X382114Y242235D02*
Y244858D01*
X383426Y246170D01*
X384738Y244858D01*
Y242235D01*
Y244202D01*
X382114D01*
X291500Y322500D02*
Y325124D01*
X292812Y326436D01*
X294124Y325124D01*
Y322500D01*
Y324468D01*
X291500D01*
X295436Y322500D02*
Y326436D01*
X298060Y322500D01*
Y326436D01*
X299372D02*
X301995D01*
X300683D01*
Y322500D01*
X305931Y326436D02*
X303307D01*
Y322500D01*
X305931D01*
X303307Y324468D02*
X304619D01*
X307243Y322500D02*
Y326436D01*
X309867Y322500D01*
Y326436D01*
X311179Y322500D02*
Y326436D01*
X313803Y322500D01*
Y326436D01*
X315114Y322500D02*
Y325124D01*
X316426Y326436D01*
X317738Y325124D01*
Y322500D01*
Y324468D01*
X315114D01*
X319050Y321844D02*
X321674D01*
X322986Y322500D02*
Y326436D01*
X324954D01*
X325610Y325780D01*
Y324468D01*
X324954Y323812D01*
X322986D01*
X326922Y322500D02*
Y325124D01*
X328234Y326436D01*
X329545Y325124D01*
Y322500D01*
Y324468D01*
X326922D01*
X330857Y326436D02*
Y322500D01*
X332825D01*
X333481Y323156D01*
Y325780D01*
X332825Y326436D01*
X330857D01*
X600980Y307500D02*
G03*
X600980Y307500I-157480J0D01*
G01*
D12*
X518760Y219440D02*
X522840D01*
X519160Y219360D02*
X522920D01*
X519480Y219280D02*
X522920D01*
X519880Y219200D02*
X523000D01*
X520280Y219120D02*
X523080D01*
X520600Y219040D02*
X523160D01*
X521000Y218960D02*
X523240D01*
X521400Y218880D02*
X523320D01*
X521720Y218800D02*
X523400D01*
X522120Y218720D02*
X523480D01*
X522520Y218640D02*
X523640D01*
X522840Y218560D02*
X523800D01*
X523240Y218480D02*
X523880D01*
X523560Y218400D02*
X524040D01*
X523960Y218320D02*
X524200D01*
X521640Y226560D02*
X526040D01*
X521640Y226480D02*
X525720D01*
X521560Y226400D02*
X525400D01*
X521480Y226320D02*
X525240D01*
X521400Y226240D02*
X525000D01*
X521400Y226160D02*
X524840D01*
X521320Y226080D02*
X524680D01*
X521240Y226000D02*
X524520D01*
X521160Y225920D02*
X524440D01*
X521160Y225840D02*
X524280D01*
X521080Y225760D02*
X524200D01*
X521000Y225680D02*
X524120D01*
X520920Y225600D02*
X523960D01*
X520920Y225520D02*
X523880D01*
X520840Y225440D02*
X523800D01*
X520760Y225360D02*
X523720D01*
X520680Y225280D02*
X523640D01*
X520680Y225200D02*
X523560D01*
X520600Y225120D02*
X523480D01*
X520520Y225040D02*
X523400D01*
X520440Y224960D02*
X523320D01*
X520360Y224880D02*
X523320D01*
X520360Y224800D02*
X523240D01*
X520280Y224720D02*
X523160D01*
X520200Y224640D02*
X523080D01*
X520120Y224560D02*
X523080D01*
X520120Y224480D02*
X523000D01*
X520040Y224400D02*
X523000D01*
X519960Y224320D02*
X522920D01*
X519880Y224240D02*
X522840D01*
X519880Y224160D02*
X522840D01*
X519800Y224080D02*
X522760D01*
X519720Y224000D02*
X522760D01*
X519640Y223920D02*
X522680D01*
X519640Y223840D02*
X522680D01*
X519560Y223760D02*
X522680D01*
X519480Y223680D02*
X522600D01*
X519400Y223600D02*
X522600D01*
X519320Y223520D02*
X522520D01*
X519320Y223440D02*
X522520D01*
X519240Y223360D02*
X522520D01*
X519160Y223280D02*
X522440D01*
X519080Y223200D02*
X522440D01*
X519080Y223120D02*
X522440D01*
X519000Y223040D02*
X522440D01*
X518920Y222960D02*
X522360D01*
X518840Y222880D02*
X522360D01*
X518840Y222800D02*
X522360D01*
X518760Y222720D02*
X522360D01*
X531480Y221920D02*
X532680D01*
X531480Y221840D02*
X532680D01*
X531480Y221760D02*
X532600D01*
X531480Y221680D02*
X532600D01*
X531480Y221600D02*
X532600D01*
X531480Y221520D02*
X532600D01*
X531480Y221440D02*
X532600D01*
X531480Y221360D02*
X532600D01*
X531480Y221280D02*
X532600D01*
X531480Y221200D02*
X532600D01*
X531400Y221120D02*
X532600D01*
X531400Y221040D02*
X532600D01*
X531400Y220960D02*
X532600D01*
X531400Y220880D02*
X532600D01*
X531400Y220800D02*
X532520D01*
X531400Y220720D02*
X532520D01*
X531400Y220640D02*
X532520D01*
X531400Y220560D02*
X532520D01*
X531400Y220480D02*
X532520D01*
X531400Y220400D02*
X532520D01*
X531400Y220320D02*
X532520D01*
X531400Y220240D02*
X532520D01*
X531320Y220160D02*
X532520D01*
X531320Y220080D02*
X532520D01*
X531320Y220000D02*
X532520D01*
X531320Y219920D02*
X532440D01*
X531320Y219840D02*
X532440D01*
X531320Y219760D02*
X532440D01*
X531320Y219680D02*
X532440D01*
X531320Y219600D02*
X532440D01*
X531320Y219520D02*
X532440D01*
X531320Y219440D02*
X532520D01*
X531320Y219360D02*
X532520D01*
X528280Y219280D02*
X529880D01*
X531240D02*
X532520D01*
X528520Y219200D02*
X529880D01*
X531240D02*
X532520D01*
X528600Y219120D02*
X529880D01*
X531240D02*
X532520D01*
X528760Y219040D02*
X529880D01*
X531240D02*
X532520D01*
X528840Y218960D02*
X529880D01*
X531240D02*
X532600D01*
X528840Y218880D02*
X529880D01*
X531240D02*
X532600D01*
X528920Y218800D02*
X529880D01*
X531240D02*
X532600D01*
X528920Y218720D02*
X529880D01*
X531240D02*
X532680D01*
X528760Y218640D02*
X529960D01*
X531240D02*
X532680D01*
X528600Y218560D02*
X529960D01*
X531240D02*
X532760D01*
X528440Y218480D02*
X529960D01*
X531240D02*
X532760D01*
X528360Y218400D02*
X530040D01*
X531240D02*
X532840D01*
X528120Y218320D02*
X530120D01*
X531160D02*
X532920D01*
X527960Y218240D02*
X530200D01*
X531160D02*
X533000D01*
X527720Y218160D02*
X530280D01*
X531160D02*
X533160D01*
X527480Y218080D02*
X530360D01*
X531160D02*
X533320D01*
X527080Y218000D02*
X530520D01*
X531160D02*
X533480D01*
X531160Y217920D02*
X533880D01*
X528600Y226400D02*
X531160D01*
X528840Y226320D02*
X530920D01*
X529080Y226240D02*
X530760D01*
X529240Y226160D02*
X530680D01*
X529400Y226080D02*
X530600D01*
X529400Y226000D02*
X530520D01*
X529400Y225920D02*
X530520D01*
X531880D02*
X534280D01*
X529400Y225840D02*
X530520D01*
X531880D02*
X533960D01*
X529400Y225760D02*
X530440D01*
X531880D02*
X533640D01*
X529400Y225680D02*
X530440D01*
X531880D02*
X533240D01*
X529400Y225600D02*
X530440D01*
X531880D02*
X533000D01*
X529400Y225520D02*
X530440D01*
X531800D02*
X532920D01*
X529400Y225440D02*
X530440D01*
X531800D02*
X532920D01*
X529320Y225360D02*
X530520D01*
X531720D02*
X532920D01*
X529320Y225280D02*
X530520D01*
X531720D02*
X532920D01*
X529320Y225200D02*
X530600D01*
X531640D02*
X532920D01*
X529320Y225120D02*
X530680D01*
X531560D02*
X532920D01*
X529320Y225040D02*
X530840D01*
X531400D02*
X532920D01*
X529320Y224960D02*
X532920D01*
X529320Y224880D02*
X532920D01*
X529320Y224800D02*
X532920D01*
X531720Y224480D02*
X532840D01*
X531720Y224400D02*
X532840D01*
X531720Y224320D02*
X532840D01*
X531720Y224240D02*
X532840D01*
X531720Y224160D02*
X532840D01*
X531720Y224080D02*
X532840D01*
X531720Y224000D02*
X532840D01*
X531720Y223920D02*
X532840D01*
X531640Y223840D02*
X532840D01*
X531640Y223760D02*
X532840D01*
X531640Y223680D02*
X532840D01*
X531640Y223600D02*
X532760D01*
X531640Y223520D02*
X532760D01*
X531640Y223440D02*
X532760D01*
X531640Y223360D02*
X532760D01*
X531640Y223280D02*
X532760D01*
X531640Y223200D02*
X532760D01*
X531640Y223120D02*
X532760D01*
X531640Y223040D02*
X532760D01*
X531640Y222960D02*
X532760D01*
X531560Y222880D02*
X532760D01*
X531560Y222800D02*
X532760D01*
X531560Y222720D02*
X532680D01*
X531560Y222640D02*
X532680D01*
X531560Y222560D02*
X532680D01*
X531560Y222480D02*
X532680D01*
X531560Y222400D02*
X532680D01*
X531560Y222320D02*
X532680D01*
X531560Y222240D02*
X532680D01*
X531560Y222160D02*
X532680D01*
X531560Y222080D02*
X532680D01*
X538440Y221920D02*
X540040D01*
X538440Y221840D02*
X539960D01*
X538440Y221760D02*
X539960D01*
X538520Y221680D02*
X539880D01*
X538520Y221600D02*
X539880D01*
X538520Y221520D02*
X539800D01*
X538600Y221440D02*
X539800D01*
X538600Y221360D02*
X539720D01*
X538600Y221280D02*
X539640D01*
X538680Y221200D02*
X539640D01*
X538680Y221120D02*
X539560D01*
X538680Y221040D02*
X539560D01*
X538680Y220960D02*
X539480D01*
X538760Y220880D02*
X539480D01*
X538760Y220800D02*
X539400D01*
X538760Y220720D02*
X539400D01*
X538840Y220640D02*
X539320D01*
X538840Y220560D02*
X539320D01*
X538840Y220480D02*
X539240D01*
X538920Y220400D02*
X539160D01*
X538920Y220320D02*
X539160D01*
X538920Y220240D02*
X539080D01*
X539000Y220160D02*
X539080D01*
X534760Y218800D02*
X537960D01*
X535000Y218720D02*
X537960D01*
X535080Y218640D02*
X537960D01*
X535160Y218560D02*
X537960D01*
X535240Y218480D02*
X538040D01*
X535240Y218400D02*
X538040D01*
X535320Y218320D02*
X538040D01*
X535320Y218240D02*
X538040D01*
X535320Y218160D02*
X537960D01*
X535320Y218080D02*
X537960D01*
X535160Y218000D02*
X537880D01*
X535080Y215920D02*
X536760D01*
X535480Y215840D02*
X536680D01*
X535800Y215760D02*
X536680D01*
X536200Y215680D02*
X536600D01*
X535400Y224480D02*
X535800D01*
X537560D02*
X541960D01*
X535400Y224400D02*
X535800D01*
X537640D02*
X541720D01*
X535320Y224320D02*
X535800D01*
X537640D02*
X541560D01*
X535320Y224240D02*
X535720D01*
X537640D02*
X541480D01*
X535320Y224160D02*
X535720D01*
X537720D02*
X541320D01*
X535320Y224080D02*
X535720D01*
X537720D02*
X541240D01*
X535320Y224000D02*
X535720D01*
X537720D02*
X541160D01*
X535320Y223920D02*
X535720D01*
X537800D02*
X541160D01*
X535320Y223840D02*
X535720D01*
X537800D02*
X541080D01*
X535320Y223760D02*
X535720D01*
X537800D02*
X541000D01*
X535320Y223680D02*
X535720D01*
X537880D02*
X541000D01*
X535240Y223600D02*
X535720D01*
X537880D02*
X540920D01*
X537880Y223520D02*
X540920D01*
X537960Y223440D02*
X540840D01*
X537960Y223360D02*
X540840D01*
X537960Y223280D02*
X540760D01*
X538040Y223200D02*
X540760D01*
X538040Y223120D02*
X540680D01*
X538040Y223040D02*
X540600D01*
X538120Y222960D02*
X540600D01*
X538120Y222880D02*
X540520D01*
X538120Y222800D02*
X540520D01*
X538120Y222720D02*
X540440D01*
X538200Y222640D02*
X540440D01*
X538200Y222560D02*
X540360D01*
X538200Y222480D02*
X540360D01*
X538280Y222400D02*
X540280D01*
X538280Y222320D02*
X540280D01*
X538280Y222240D02*
X540200D01*
X538360Y222160D02*
X540120D01*
X538360Y222080D02*
X540120D01*
X545000Y221920D02*
X548520D01*
X545000Y221840D02*
X548520D01*
X545000Y221760D02*
X548520D01*
X545000Y221680D02*
X548520D01*
X544920Y221600D02*
X548520D01*
X544920Y221520D02*
X548520D01*
X544920Y221440D02*
X548520D01*
X544920Y221360D02*
X548520D01*
X544920Y221280D02*
X548520D01*
X544920Y221200D02*
X548520D01*
X544920Y221120D02*
X548520D01*
X544920Y221040D02*
X548440D01*
X544920Y220960D02*
X548440D01*
X544920Y220880D02*
X548440D01*
X544920Y220800D02*
X548440D01*
X544920Y220720D02*
X548440D01*
X544920Y220640D02*
X548440D01*
X544920Y220560D02*
X548360D01*
X544920Y220480D02*
X548360D01*
X544920Y220400D02*
X548360D01*
X544920Y220320D02*
X548360D01*
X544920Y220240D02*
X548280D01*
X544920Y220160D02*
X548280D01*
X544920Y220080D02*
X548280D01*
X544920Y220000D02*
X548280D01*
X545000Y219920D02*
X548200D01*
X545000Y219840D02*
X548200D01*
X545000Y219760D02*
X548120D01*
X545080Y219680D02*
X548120D01*
X545080Y219600D02*
X548040D01*
X545160Y219520D02*
X548040D01*
X545160Y219440D02*
X547960D01*
X545240Y219360D02*
X547880D01*
X545320Y219280D02*
X547800D01*
X545400Y219200D02*
X547640D01*
X545480Y219120D02*
X547560D01*
X545640Y219040D02*
X547400D01*
X545800Y218960D02*
X547240D01*
X546040Y218880D02*
X546920D01*
X545320Y225440D02*
X549480D01*
X545320Y225360D02*
X549320D01*
X545240Y225280D02*
X549160D01*
X545240Y225200D02*
X549080D01*
X545240Y225120D02*
X549000D01*
X545240Y225040D02*
X548920D01*
X545240Y224960D02*
X548920D01*
X545240Y224880D02*
X548840D01*
X545240Y224800D02*
X548840D01*
X545240Y224720D02*
X548760D01*
X545240Y224640D02*
X548760D01*
X545240Y224560D02*
X548760D01*
X542760Y224480D02*
X543800D01*
X545240D02*
X548760D01*
X542760Y224400D02*
X543720D01*
X545240D02*
X548760D01*
X545160Y224320D02*
X548760D01*
X545160Y224240D02*
X548760D01*
X545160Y224160D02*
X548760D01*
X545160Y224080D02*
X548760D01*
X545160Y224000D02*
X548760D01*
X545160Y223920D02*
X548760D01*
X545160Y223840D02*
X548680D01*
X545160Y223760D02*
X548680D01*
X545160Y223680D02*
X548680D01*
X545160Y223600D02*
X548680D01*
X545160Y223520D02*
X548680D01*
X545080Y223440D02*
X548680D01*
X545080Y223360D02*
X548680D01*
X545080Y223280D02*
X548680D01*
X545080Y223200D02*
X548680D01*
X545080Y223120D02*
X548680D01*
X545080Y223040D02*
X548680D01*
X545080Y222960D02*
X548680D01*
X545080Y222880D02*
X548600D01*
X545080Y222800D02*
X548600D01*
X545080Y222720D02*
X548600D01*
X545080Y222640D02*
X548600D01*
X545000Y222560D02*
X548600D01*
X545000Y222480D02*
X548600D01*
X545000Y222400D02*
X548600D01*
X545000Y222320D02*
X548600D01*
X545000Y222240D02*
X548600D01*
X545000Y222160D02*
X548600D01*
X545000Y222080D02*
X548600D01*
X551000Y212480D02*
X552760D01*
X551400Y212400D02*
X552760D01*
X551720Y212320D02*
X552680D01*
X552120Y212240D02*
X552680D01*
X552440Y212160D02*
X552600D01*
X554920Y237920D02*
X557640D01*
X554600Y237840D02*
X557640D01*
X554280Y237760D02*
X557720D01*
X553960Y237680D02*
X557720D01*
X553640Y237600D02*
X557720D01*
X553320Y237520D02*
X557720D01*
X553080Y237440D02*
X557800D01*
X552760Y237360D02*
X557800D01*
X552440Y237280D02*
X557800D01*
X552120Y237200D02*
X557880D01*
X551800Y237120D02*
X557880D01*
X551560Y237040D02*
X557880D01*
X551240Y236960D02*
X557960D01*
X550920Y236880D02*
X557960D01*
X557320Y238560D02*
X557400D01*
X557000Y238480D02*
X557480D01*
X556680Y238400D02*
X557480D01*
X556440Y238320D02*
X557480D01*
X556120Y238240D02*
X557560D01*
X555800Y238160D02*
X557560D01*
X555480Y238080D02*
X557560D01*
X531480Y222000D02*
X532680D01*
X538360D02*
X540040D01*
X545000D02*
X548600D01*
X555160Y238000D02*
X557640D01*
X518120Y221920D02*
X522200D01*
X523800D02*
X530120D01*
X534040D02*
X536920D01*
X518040Y221840D02*
X522200D01*
X523800D02*
X530120D01*
X534040D02*
X536920D01*
X518040Y221760D02*
X522200D01*
X523800D02*
X530120D01*
X534040D02*
X537000D01*
X517960Y221680D02*
X522200D01*
X523800D02*
X530040D01*
X534040D02*
X537000D01*
X517880Y221600D02*
X522200D01*
X523800D02*
X530040D01*
X534040D02*
X537000D01*
X517800Y221520D02*
X522200D01*
X523800D02*
X530040D01*
X534040D02*
X537080D01*
X517800Y221440D02*
X522200D01*
X523800D02*
X530040D01*
X534040D02*
X537080D01*
X517720Y221360D02*
X522200D01*
X523800D02*
X530040D01*
X534040D02*
X537080D01*
X517640Y221280D02*
X522200D01*
X523800D02*
X530040D01*
X534040D02*
X537160D01*
X517560Y221200D02*
X522200D01*
X523800D02*
X530040D01*
X534040D02*
X537160D01*
X517560Y221120D02*
X522200D01*
X523800D02*
X530040D01*
X533960D02*
X537160D01*
X517480Y221040D02*
X522200D01*
X523880D02*
X530040D01*
X533960D02*
X537240D01*
X517400Y220960D02*
X522280D01*
X523880D02*
X530040D01*
X533960D02*
X537240D01*
X517320Y220880D02*
X522280D01*
X523880D02*
X530040D01*
X533960D02*
X537240D01*
X517320Y220800D02*
X522280D01*
X523880D02*
X530040D01*
X533960D02*
X537320D01*
X517240Y220720D02*
X522280D01*
X523960D02*
X529960D01*
X533960D02*
X537320D01*
X517160Y220640D02*
X522280D01*
X523960D02*
X529960D01*
X533960D02*
X537320D01*
X517080Y220560D02*
X522360D01*
X523960D02*
X529960D01*
X533960D02*
X537320D01*
X517000Y220480D02*
X522360D01*
X524040D02*
X529960D01*
X533960D02*
X537400D01*
X517000Y220400D02*
X522360D01*
X524040D02*
X529960D01*
X533960D02*
X537400D01*
X516920Y220320D02*
X522440D01*
X524120D02*
X529960D01*
X533960D02*
X537400D01*
X516840Y220240D02*
X522440D01*
X524120D02*
X529960D01*
X533960D02*
X537480D01*
X516760Y220160D02*
X522440D01*
X524120D02*
X529960D01*
X533880D02*
X537480D01*
X516760Y220080D02*
X522520D01*
X524200D02*
X529960D01*
X533880D02*
X537480D01*
X516680Y220000D02*
X522520D01*
X524280D02*
X529960D01*
X533880D02*
X537560D01*
X516760Y219920D02*
X522520D01*
X524280D02*
X529960D01*
X533880D02*
X537560D01*
X516920Y219840D02*
X522600D01*
X524360D02*
X529880D01*
X533880D02*
X537560D01*
X517320Y219760D02*
X522600D01*
X524440D02*
X529880D01*
X533880D02*
X537640D01*
X517640Y219680D02*
X522680D01*
X524520D02*
X529880D01*
X533880D02*
X537640D01*
X518040Y219600D02*
X522760D01*
X524600D02*
X529880D01*
X533880D02*
X537640D01*
X518360Y219520D02*
X522760D01*
X524680D02*
X529880D01*
X533880D02*
X537720D01*
X524840Y219440D02*
X529880D01*
X533880D02*
X537720D01*
X525000Y219360D02*
X529880D01*
X533880D02*
X537720D01*
X525160Y219280D02*
X528040D01*
X533960D02*
X537800D01*
X525320Y219200D02*
X527800D01*
X533960D02*
X537800D01*
X525560Y219120D02*
X527480D01*
X533960D02*
X537800D01*
X525960Y219040D02*
X527000D01*
X534040D02*
X537880D01*
X534120Y218960D02*
X537880D01*
X534200Y218880D02*
X537880D01*
X526520Y217920D02*
X530840D01*
X534680D02*
X537880D01*
X526200Y217840D02*
X537800D01*
X526520Y217760D02*
X537720D01*
X526920Y217680D02*
X537720D01*
X527320Y217600D02*
X537640D01*
X527640Y217520D02*
X537640D01*
X528040Y217440D02*
X537560D01*
X528440Y217360D02*
X537560D01*
X528760Y217280D02*
X537480D01*
X529160Y217200D02*
X537480D01*
X529480Y217120D02*
X537400D01*
X529880Y217040D02*
X537400D01*
X530280Y216960D02*
X537320D01*
X530600Y216880D02*
X537240D01*
X531000Y216800D02*
X537240D01*
X531400Y216720D02*
X537160D01*
X531720Y216640D02*
X537160D01*
X532120Y216560D02*
X537080D01*
X532520Y216480D02*
X537080D01*
X532840Y216400D02*
X537000D01*
X533240Y216320D02*
X537000D01*
X533560Y216240D02*
X536920D01*
X533960Y216160D02*
X536920D01*
X534360Y216080D02*
X536840D01*
X534680Y216000D02*
X536760D01*
X526360Y225440D02*
X527720D01*
X525960Y225360D02*
X528040D01*
X525720Y225280D02*
X528280D01*
X525560Y225200D02*
X528360D01*
X525400Y225120D02*
X528360D01*
X525320Y225040D02*
X528360D01*
X525160Y224960D02*
X528360D01*
X525080Y224880D02*
X528280D01*
X525000Y224800D02*
X528280D01*
X524920Y224720D02*
X532920D01*
X524840Y224640D02*
X532920D01*
X524760Y224560D02*
X532840D01*
X524680Y224480D02*
X529560D01*
X524600Y224400D02*
X529560D01*
X524520Y224320D02*
X529560D01*
X524520Y224240D02*
X529560D01*
X524440Y224160D02*
X529560D01*
X524360Y224080D02*
X529560D01*
X524360Y224000D02*
X529560D01*
X524280Y223920D02*
X529560D01*
X524280Y223840D02*
X529560D01*
X524200Y223760D02*
X529480D01*
X524200Y223680D02*
X529480D01*
X524120Y223600D02*
X529480D01*
X524120Y223520D02*
X530200D01*
X534200D02*
X536440D01*
X524040Y223440D02*
X530200D01*
X534200D02*
X536440D01*
X524040Y223360D02*
X530200D01*
X534200D02*
X536440D01*
X524040Y223280D02*
X530200D01*
X534200D02*
X536520D01*
X523960Y223200D02*
X530200D01*
X534200D02*
X536520D01*
X523960Y223120D02*
X530200D01*
X534200D02*
X536520D01*
X523960Y223040D02*
X530200D01*
X534200D02*
X536600D01*
X523960Y222960D02*
X530200D01*
X534120D02*
X536600D01*
X523880Y222880D02*
X530200D01*
X534120D02*
X536600D01*
X523880Y222800D02*
X530200D01*
X534120D02*
X536680D01*
X523880Y222720D02*
X530200D01*
X534120D02*
X536680D01*
X518680Y222640D02*
X522280D01*
X523880D02*
X530120D01*
X534120D02*
X536680D01*
X518600Y222560D02*
X522280D01*
X523800D02*
X530120D01*
X534120D02*
X536760D01*
X518600Y222480D02*
X522280D01*
X523800D02*
X530120D01*
X534120D02*
X536760D01*
X518520Y222400D02*
X522280D01*
X523800D02*
X530120D01*
X534120D02*
X536760D01*
X518440Y222320D02*
X522280D01*
X523800D02*
X530120D01*
X534120D02*
X536760D01*
X518360Y222240D02*
X522280D01*
X523800D02*
X530120D01*
X534120D02*
X536840D01*
X518360Y222160D02*
X522200D01*
X523800D02*
X530120D01*
X534120D02*
X536840D01*
X518280Y222080D02*
X522200D01*
X523800D02*
X530120D01*
X534120D02*
X536840D01*
X544360Y213920D02*
X553080D01*
X544680Y213840D02*
X553080D01*
X545080Y213760D02*
X553080D01*
X545480Y213680D02*
X553080D01*
X545800Y213600D02*
X553000D01*
X546200Y213520D02*
X553000D01*
X546600Y213440D02*
X553000D01*
X546920Y213360D02*
X553000D01*
X547320Y213280D02*
X552920D01*
X547640Y213200D02*
X552920D01*
X548040Y213120D02*
X552920D01*
X548440Y213040D02*
X552920D01*
X548760Y212960D02*
X552840D01*
X549160Y212880D02*
X552840D01*
X549560Y212800D02*
X552840D01*
X549880Y212720D02*
X552840D01*
X550280Y212640D02*
X552760D01*
X550680Y212560D02*
X552760D01*
X541320Y221920D02*
X543560D01*
X549720D02*
X555160D01*
X541320Y221840D02*
X543560D01*
X549720D02*
X555160D01*
X541240Y221760D02*
X543560D01*
X549720D02*
X555080D01*
X541160Y221680D02*
X543560D01*
X549720D02*
X555080D01*
X541160Y221600D02*
X543560D01*
X549720D02*
X555080D01*
X541080Y221520D02*
X543480D01*
X549720D02*
X555080D01*
X541080Y221440D02*
X543480D01*
X549720D02*
X555000D01*
X541000Y221360D02*
X543480D01*
X549640D02*
X555000D01*
X541000Y221280D02*
X543480D01*
X549640D02*
X555000D01*
X540920Y221200D02*
X543480D01*
X549640D02*
X555000D01*
X540840Y221120D02*
X543480D01*
X549640D02*
X554920D01*
X540840Y221040D02*
X543480D01*
X549640D02*
X554920D01*
X540760Y220960D02*
X543480D01*
X549640D02*
X554920D01*
X540760Y220880D02*
X543480D01*
X549640D02*
X554920D01*
X540680Y220800D02*
X543480D01*
X549640D02*
X554840D01*
X540680Y220720D02*
X543480D01*
X549560D02*
X554840D01*
X540600Y220640D02*
X543480D01*
X549560D02*
X554840D01*
X540520Y220560D02*
X543480D01*
X549560D02*
X554840D01*
X540520Y220480D02*
X543480D01*
X549560D02*
X554760D01*
X540440Y220400D02*
X543480D01*
X549560D02*
X554760D01*
X540440Y220320D02*
X543480D01*
X549560D02*
X554760D01*
X540360Y220240D02*
X543480D01*
X549480D02*
X554760D01*
X540360Y220160D02*
X543480D01*
X549480D02*
X554680D01*
X540280Y220080D02*
X543480D01*
X549480D02*
X554680D01*
X540280Y220000D02*
X543480D01*
X549480D02*
X554680D01*
X540200Y219920D02*
X543480D01*
X549400D02*
X554680D01*
X540120Y219840D02*
X543560D01*
X549400D02*
X554600D01*
X540120Y219760D02*
X543560D01*
X549400D02*
X554600D01*
X540040Y219680D02*
X543560D01*
X549320D02*
X554600D01*
X540040Y219600D02*
X543560D01*
X549320D02*
X554600D01*
X539960Y219520D02*
X543560D01*
X549240D02*
X554520D01*
X539960Y219440D02*
X543640D01*
X549240D02*
X554520D01*
X539880Y219360D02*
X543640D01*
X549160D02*
X554520D01*
X539880Y219280D02*
X543640D01*
X549080D02*
X554520D01*
X539800Y219200D02*
X543720D01*
X549080D02*
X554440D01*
X539720Y219120D02*
X543720D01*
X549000D02*
X554440D01*
X539720Y219040D02*
X543800D01*
X548920D02*
X554440D01*
X539640Y218960D02*
X543800D01*
X548840D02*
X554440D01*
X539640Y218880D02*
X543880D01*
X548840D02*
X554360D01*
X539560Y218800D02*
X543960D01*
X548760D02*
X554360D01*
X539560Y218720D02*
X543960D01*
X548680D02*
X554360D01*
X539480Y218640D02*
X544040D01*
X548600D02*
X554280D01*
X539400Y218560D02*
X544120D01*
X548440D02*
X554280D01*
X539400Y218480D02*
X544200D01*
X548360D02*
X554280D01*
X539320Y218400D02*
X544360D01*
X548280D02*
X554280D01*
X539320Y218320D02*
X544440D01*
X548120D02*
X554200D01*
X539240Y218240D02*
X544600D01*
X547960D02*
X554200D01*
X539240Y218160D02*
X544760D01*
X547800D02*
X554200D01*
X539160Y218080D02*
X544920D01*
X547640D02*
X554200D01*
X539160Y218000D02*
X545240D01*
X547320D02*
X554120D01*
X539080Y217920D02*
X545720D01*
X546920D02*
X554120D01*
X539000Y217840D02*
X554120D01*
X539000Y217760D02*
X554120D01*
X538920Y217680D02*
X554040D01*
X538920Y217600D02*
X554040D01*
X538840Y217520D02*
X554040D01*
X538840Y217440D02*
X554040D01*
X538760Y217360D02*
X553960D01*
X538760Y215120D02*
X553400D01*
X539160Y215040D02*
X553400D01*
X539480Y214960D02*
X553400D01*
X539880Y214880D02*
X553320D01*
X540280Y214800D02*
X553320D01*
X540600Y214720D02*
X553320D01*
X541000Y214640D02*
X553320D01*
X541400Y214560D02*
X553240D01*
X541720Y214480D02*
X553240D01*
X542120Y214400D02*
X553240D01*
X542520Y214320D02*
X553240D01*
X542840Y214240D02*
X553160D01*
X543240Y214160D02*
X553160D01*
X543640Y214080D02*
X553160D01*
X550040Y225440D02*
X556040D01*
X550040Y225360D02*
X556040D01*
X550040Y225280D02*
X556040D01*
X550040Y225200D02*
X555960D01*
X550040Y225120D02*
X555960D01*
X550040Y225040D02*
X555960D01*
X549960Y224960D02*
X555960D01*
X549960Y224880D02*
X555880D01*
X549960Y224800D02*
X555880D01*
X549960Y224720D02*
X555880D01*
X549960Y224640D02*
X555880D01*
X549960Y224560D02*
X555800D01*
X549960Y224480D02*
X555800D01*
X549960Y224400D02*
X555800D01*
X542680Y224320D02*
X543720D01*
X549960D02*
X555800D01*
X542600Y224240D02*
X543720D01*
X549960D02*
X555720D01*
X542600Y224160D02*
X543720D01*
X549960D02*
X555720D01*
X542520Y224080D02*
X543720D01*
X549880D02*
X555720D01*
X542520Y224000D02*
X543720D01*
X549880D02*
X555720D01*
X542440Y223920D02*
X543720D01*
X549880D02*
X555640D01*
X542440Y223840D02*
X543720D01*
X549880D02*
X555640D01*
X542360Y223760D02*
X543720D01*
X549880D02*
X555640D01*
X542280Y223680D02*
X543720D01*
X549880D02*
X555640D01*
X542280Y223600D02*
X543720D01*
X549880D02*
X555560D01*
X542200Y223520D02*
X543720D01*
X549880D02*
X555560D01*
X542200Y223440D02*
X543640D01*
X549880D02*
X555560D01*
X542120Y223360D02*
X543640D01*
X549880D02*
X555560D01*
X542120Y223280D02*
X543640D01*
X549880D02*
X555480D01*
X542040Y223200D02*
X543640D01*
X549800D02*
X555480D01*
X542040Y223120D02*
X543640D01*
X549800D02*
X555480D01*
X541960Y223040D02*
X543640D01*
X549800D02*
X555480D01*
X541880Y222960D02*
X543640D01*
X549800D02*
X555400D01*
X541880Y222880D02*
X543640D01*
X549800D02*
X555400D01*
X541800Y222800D02*
X543640D01*
X549800D02*
X555400D01*
X541800Y222720D02*
X543640D01*
X549800D02*
X555320D01*
X541720Y222640D02*
X543640D01*
X549800D02*
X555320D01*
X541720Y222560D02*
X543640D01*
X549800D02*
X555320D01*
X541640Y222480D02*
X543560D01*
X549800D02*
X555320D01*
X541560Y222400D02*
X543560D01*
X549800D02*
X555240D01*
X541560Y222320D02*
X543560D01*
X549800D02*
X555240D01*
X541480Y222240D02*
X543560D01*
X549720D02*
X555240D01*
X541480Y222160D02*
X543560D01*
X549720D02*
X555240D01*
X541400Y222080D02*
X543560D01*
X549720D02*
X555160D01*
X550600Y236800D02*
X557960D01*
X550280Y236720D02*
X557960D01*
X549960Y236640D02*
X558040D01*
X549720Y236560D02*
X558040D01*
X549400Y236480D02*
X558040D01*
X549080Y236400D02*
X558120D01*
X548760Y236320D02*
X558120D01*
X548440Y236240D02*
X558120D01*
X548200Y236160D02*
X558200D01*
X547880Y236080D02*
X558200D01*
X547560Y236000D02*
X558200D01*
X547240Y235920D02*
X558200D01*
X546920Y235840D02*
X558280D01*
X546680Y235760D02*
X558280D01*
X546360Y235680D02*
X558280D01*
X546040Y235600D02*
X558360D01*
X545720Y235520D02*
X558360D01*
X545400Y235440D02*
X558360D01*
X545080Y235360D02*
X558440D01*
X544840Y235280D02*
X558440D01*
X544520Y235200D02*
X558440D01*
X544200Y235120D02*
X558440D01*
X543880Y235040D02*
X558520D01*
X543560Y234960D02*
X558520D01*
X543320Y234880D02*
X558520D01*
X543000Y234800D02*
X558520D01*
X542680Y234720D02*
X558520D01*
X542360Y234640D02*
X558520D01*
X542040Y234560D02*
X558440D01*
X541720Y234480D02*
X558440D01*
X541480Y234400D02*
X558440D01*
X541160Y234320D02*
X558440D01*
X540840Y234240D02*
X558360D01*
X540520Y234160D02*
X558360D01*
X540200Y234080D02*
X558360D01*
X539960Y234000D02*
X558360D01*
X539640Y233920D02*
X558280D01*
X539320Y233840D02*
X558280D01*
X539000Y233760D02*
X558280D01*
X518200Y222000D02*
X522200D01*
X523800D02*
X530120D01*
X534040D02*
X536920D01*
X541400D02*
X543560D01*
X549720D02*
X555160D01*
X543960Y214000D02*
X553160D01*
X538680Y217280D02*
X553960D01*
X538680Y217200D02*
X553960D01*
X538600Y217120D02*
X553960D01*
X538600Y217040D02*
X553880D01*
X538520Y216960D02*
X553880D01*
X538520Y216880D02*
X553880D01*
X538440Y216800D02*
X553880D01*
X538440Y216720D02*
X553800D01*
X538360Y216640D02*
X553800D01*
X538280Y216560D02*
X553800D01*
X538280Y216480D02*
X553800D01*
X538200Y216400D02*
X553720D01*
X538200Y216320D02*
X553720D01*
X538120Y216240D02*
X553720D01*
X538120Y216160D02*
X553720D01*
X538040Y216080D02*
X553640D01*
X537960Y216000D02*
X553640D01*
X537960Y215920D02*
X553640D01*
X537880Y215840D02*
X553640D01*
X537880Y215760D02*
X553560D01*
X537800Y215680D02*
X553560D01*
X537800Y215600D02*
X553560D01*
X537720Y215520D02*
X553560D01*
X537640Y215440D02*
X553480D01*
X537640Y215360D02*
X553480D01*
X538040Y215280D02*
X553480D01*
X538440Y215200D02*
X553480D01*
X534360Y225440D02*
X543000D01*
X534360Y225360D02*
X543000D01*
X534360Y225280D02*
X542920D01*
X534360Y225200D02*
X542920D01*
X534360Y225120D02*
X542920D01*
X534360Y225040D02*
X542920D01*
X534360Y224960D02*
X542920D01*
X534360Y224880D02*
X542920D01*
X534280Y224800D02*
X542920D01*
X534280Y224720D02*
X542920D01*
X534280Y224640D02*
X542920D01*
X534280Y224560D02*
X542920D01*
X524360Y229920D02*
X557240D01*
X524200Y229840D02*
X557240D01*
X524120Y229760D02*
X557240D01*
X524040Y229680D02*
X557240D01*
X523960Y229600D02*
X557160D01*
X523960Y229520D02*
X557160D01*
X523880Y229440D02*
X557160D01*
X523800Y229360D02*
X557160D01*
X523720Y229280D02*
X557080D01*
X523720Y229200D02*
X557080D01*
X523640Y229120D02*
X557080D01*
X523560Y229040D02*
X557080D01*
X523480Y228960D02*
X557000D01*
X523480Y228880D02*
X557000D01*
X523400Y228800D02*
X557000D01*
X523320Y228720D02*
X557000D01*
X523240Y228640D02*
X556920D01*
X523240Y228560D02*
X556920D01*
X523160Y228480D02*
X556920D01*
X523080Y228400D02*
X556920D01*
X523000Y228320D02*
X556840D01*
X523000Y228240D02*
X556840D01*
X522920Y228160D02*
X556840D01*
X522840Y228080D02*
X556760D01*
X522760Y228000D02*
X556760D01*
X522680Y227920D02*
X556760D01*
X522680Y227840D02*
X556760D01*
X522600Y227760D02*
X556680D01*
X522520Y227680D02*
X556680D01*
X522440Y227600D02*
X556680D01*
X522440Y227520D02*
X556680D01*
X522360Y227440D02*
X556600D01*
X522280Y227360D02*
X556600D01*
X522200Y227280D02*
X556600D01*
X522200Y227200D02*
X556600D01*
X522120Y227120D02*
X556520D01*
X522040Y227040D02*
X556520D01*
X521960Y226960D02*
X556520D01*
X521960Y226880D02*
X556520D01*
X521880Y226800D02*
X556440D01*
X521800Y226720D02*
X556440D01*
X521720Y226640D02*
X556440D01*
X527880Y226560D02*
X556440D01*
X528280Y226480D02*
X556360D01*
X531240Y226400D02*
X556360D01*
X531560Y226320D02*
X556360D01*
X531640Y226240D02*
X556280D01*
X531720Y226160D02*
X556200D01*
X531800Y226080D02*
X556200D01*
X531800Y226000D02*
X556200D01*
X534440Y225920D02*
X556200D01*
X534440Y225840D02*
X556120D01*
X534440Y225760D02*
X556120D01*
X534360Y225680D02*
X556120D01*
X534360Y225600D02*
X556120D01*
X534360Y225520D02*
X556040D01*
X538680Y233680D02*
X558280D01*
X538360Y233600D02*
X558200D01*
X538200Y233520D02*
X558200D01*
X537880Y233440D02*
X558200D01*
X537640Y233360D02*
X558200D01*
X537320Y233280D02*
X558120D01*
X537000Y233200D02*
X558120D01*
X536680Y233120D02*
X558120D01*
X536360Y233040D02*
X558040D01*
X536040Y232960D02*
X558040D01*
X535720Y232880D02*
X558040D01*
X535480Y232800D02*
X558040D01*
X535160Y232720D02*
X557960D01*
X534840Y232640D02*
X557960D01*
X534520Y232560D02*
X557960D01*
X534200Y232480D02*
X557960D01*
X533880Y232400D02*
X557880D01*
X533560Y232320D02*
X557880D01*
X533240Y232240D02*
X557880D01*
X533000Y232160D02*
X557880D01*
X532680Y232080D02*
X557800D01*
X532360Y232000D02*
X557800D01*
X532040Y231920D02*
X557800D01*
X531720Y231840D02*
X557800D01*
X531400Y231760D02*
X557720D01*
X531080Y231680D02*
X557720D01*
X530840Y231600D02*
X557720D01*
X530520Y231520D02*
X557720D01*
X530200Y231440D02*
X557640D01*
X529880Y231360D02*
X557640D01*
X529560Y231280D02*
X557640D01*
X529240Y231200D02*
X557640D01*
X529000Y231120D02*
X557560D01*
X528680Y231040D02*
X557560D01*
X528360Y230960D02*
X557560D01*
X528040Y230880D02*
X557560D01*
X527720Y230800D02*
X557480D01*
X527400Y230720D02*
X557480D01*
X527160Y230640D02*
X557480D01*
X526840Y230560D02*
X557400D01*
X526520Y230480D02*
X557400D01*
X526200Y230400D02*
X557400D01*
X525880Y230320D02*
X557400D01*
X525560Y230240D02*
X557320D01*
X525240Y230160D02*
X557320D01*
X524920Y230080D02*
X557320D01*
X524680Y230000D02*
X557320D01*
X485620Y203920D02*
X486180D01*
X486580D02*
X491220D01*
X485700Y203840D02*
X486180D01*
X486580D02*
X491220D01*
X485700Y203760D02*
X486260D01*
X486660D02*
X491300D01*
X485700Y203680D02*
X486340D01*
X486740D02*
X491300D01*
X485780Y203600D02*
X486420D01*
X486740D02*
X491380D01*
X485780Y203520D02*
X486420D01*
X486820D02*
X491380D01*
X485780Y203440D02*
X486500D01*
X486900D02*
X491460D01*
X485780Y203360D02*
X486580D01*
X486980D02*
X491460D01*
X485860Y203280D02*
X486660D01*
X486980D02*
X491540D01*
X485860Y203200D02*
X486660D01*
X487060D02*
X491540D01*
X485860Y203120D02*
X486740D01*
X487300D02*
X491620D01*
X485940Y203040D02*
X486820D01*
X487460D02*
X491700D01*
X485940Y202960D02*
X486820D01*
X487460D02*
X491700D01*
X485940Y202880D02*
X486820D01*
X487540D02*
X491780D01*
X486020Y202800D02*
X486740D01*
X487540D02*
X491860D01*
X486020Y202720D02*
X486820D01*
X487540D02*
X491940D01*
X486100Y202640D02*
X486820D01*
X487540D02*
X492020D01*
X486100Y202560D02*
X486900D01*
X487460D02*
X492180D01*
X486100Y202480D02*
X486980D01*
X487540D02*
X492260D01*
X486180Y202400D02*
X487140D01*
X487620D02*
X492340D01*
X486180Y202320D02*
X487300D01*
X486260Y202240D02*
X487380D01*
X486260Y202160D02*
X487380D01*
X486260Y202080D02*
X487460D01*
X486340Y202000D02*
X487540D01*
X486340Y201920D02*
X487540D01*
X486420Y201840D02*
X487620D01*
X486420Y201760D02*
X487700D01*
X486500Y201680D02*
X487700D01*
X486500Y201600D02*
X487780D01*
X486580Y201520D02*
X487780D01*
X486580Y201440D02*
X487860D01*
X486660Y201360D02*
X487780D01*
X486660Y201280D02*
X487620D01*
X486740Y201200D02*
X487540D01*
X486740Y201120D02*
X487460D01*
X486820Y201040D02*
X487300D01*
X486820Y200960D02*
X487220D01*
X487780D02*
X489460D01*
X486900Y200880D02*
X487060D01*
X487620D02*
X489380D01*
X487540Y200800D02*
X489380D01*
X487380Y200720D02*
X489380D01*
X487300Y200640D02*
X489380D01*
X487140Y200560D02*
X489380D01*
X487140Y200480D02*
X489380D01*
X487220Y200400D02*
X489220D01*
X487220Y200320D02*
X489140D01*
X487300Y200240D02*
X489060D01*
X487300Y200160D02*
X488980D01*
X489540D02*
X489620D01*
X487380Y200080D02*
X488820D01*
X489380D02*
X489780D01*
X487460Y200000D02*
X488740D01*
X487460Y199920D02*
X488660D01*
X487540Y199840D02*
X488500D01*
X487620Y199760D02*
X488420D01*
X487700Y199680D02*
X488340D01*
X487700Y199600D02*
X488180D01*
X487780Y199520D02*
X488100D01*
X487860Y199440D02*
X488020D01*
X485140Y211920D02*
X485380D01*
X485860D02*
X490500D01*
X485140Y211840D02*
X485380D01*
X485780D02*
X490500D01*
X485140Y211760D02*
X485380D01*
X485700D02*
X490500D01*
X485140Y211680D02*
X485380D01*
X485700D02*
X490500D01*
X485140Y211600D02*
X485300D01*
X485700D02*
X490500D01*
X485140Y211520D02*
X485380D01*
X485780D02*
X490500D01*
X485140Y211440D02*
X485460D01*
X485860D02*
X490500D01*
X485140Y211360D02*
X485460D01*
X485940D02*
X490500D01*
X485140Y211280D02*
X485540D01*
X485940D02*
X490500D01*
X485140Y211200D02*
X485620D01*
X486020D02*
X490500D01*
X485140Y211120D02*
X485700D01*
X486100D02*
X490500D01*
X485140Y211040D02*
X485700D01*
X486180D02*
X490500D01*
X485140Y210960D02*
X485780D01*
X486180D02*
X490500D01*
X485140Y210880D02*
X485860D01*
X486260D02*
X490500D01*
X485140Y210800D02*
X485940D01*
X486340D02*
X490500D01*
X485140Y210720D02*
X486020D01*
X486660D02*
X490500D01*
X485140Y210640D02*
X486020D01*
X486740D02*
X490500D01*
X485140Y210560D02*
X486020D01*
X486740D02*
X490500D01*
X485140Y210480D02*
X486020D01*
X486820D02*
X490500D01*
X485140Y210400D02*
X486020D01*
X486820D02*
X490500D01*
X485140Y210320D02*
X486020D01*
X486820D02*
X490500D01*
X485140Y210240D02*
X485940D01*
X486820D02*
X490500D01*
X485140Y210160D02*
X485860D01*
X486740D02*
X490500D01*
X485140Y210080D02*
X485780D01*
X486660D02*
X490500D01*
X485140Y210000D02*
X485700D01*
X486180D02*
X490500D01*
X485140Y209920D02*
X485540D01*
X486100D02*
X490500D01*
X485140Y209840D02*
X485460D01*
X486020D02*
X490500D01*
X485140Y209760D02*
X485380D01*
X485860D02*
X490500D01*
X485140Y209680D02*
X485300D01*
X485780D02*
X490500D01*
X485700Y209600D02*
X490500D01*
X485540Y209520D02*
X490500D01*
X485460Y209440D02*
X490500D01*
X485380Y209360D02*
X490500D01*
X485220Y209280D02*
X490500D01*
X485140Y209200D02*
X490500D01*
X485140Y209120D02*
X490500D01*
X485140Y209040D02*
X490500D01*
X485140Y208960D02*
X490500D01*
X485140Y208880D02*
X490500D01*
X485140Y208800D02*
X487380D01*
X487780D02*
X490500D01*
X485140Y208720D02*
X487300D01*
X487860D02*
X490500D01*
X485140Y208640D02*
X487140D01*
X487940D02*
X490500D01*
X485140Y208560D02*
X487060D01*
X488020D02*
X490500D01*
X485140Y208480D02*
X486980D01*
X488180D02*
X490500D01*
X485140Y208400D02*
X486900D01*
X487380D02*
X487780D01*
X488260D02*
X490500D01*
X485140Y208320D02*
X486740D01*
X487300D02*
X487860D01*
X488340D02*
X490500D01*
X485140Y208240D02*
X486660D01*
X487140D02*
X487940D01*
X488420D02*
X490500D01*
X485140Y208160D02*
X486580D01*
X487060D02*
X488020D01*
X488580D02*
X490500D01*
X485140Y208080D02*
X486020D01*
X486980D02*
X488180D01*
X488660D02*
X490500D01*
X485140Y208000D02*
X485940D01*
X486900D02*
X488260D01*
X488740D02*
X490500D01*
X485140Y207920D02*
X485940D01*
X486740D02*
X488340D01*
X488820D02*
X490500D01*
X485140Y207840D02*
X485860D01*
X486740D02*
X488420D01*
X488980D02*
X490500D01*
X485140Y207760D02*
X485860D01*
X486740D02*
X488500D01*
X489060D02*
X490500D01*
X485140Y207680D02*
X485860D01*
X486740D02*
X488660D01*
X489140D02*
X490500D01*
X485140Y207600D02*
X485780D01*
X486660D02*
X488740D01*
X489220D02*
X490580D01*
X485140Y207520D02*
X485700D01*
X486580D02*
X488820D01*
X489380D02*
X490580D01*
X485140Y207440D02*
X485620D01*
X486500D02*
X488900D01*
X489460D02*
X490580D01*
X485140Y207360D02*
X485460D01*
X486100D02*
X486180D01*
X486340D02*
X489060D01*
X489540D02*
X490580D01*
X485140Y207280D02*
X485380D01*
X486020D02*
X489140D01*
X489620D02*
X490580D01*
X485140Y207200D02*
X485300D01*
X485860D02*
X489220D01*
X490020D02*
X490580D01*
X485780Y207120D02*
X489300D01*
X490180D02*
X490580D01*
X485700Y207040D02*
X489460D01*
X490260D02*
X490580D01*
X485540Y206960D02*
X489540D01*
X490260D02*
X490580D01*
X485460Y206880D02*
X489540D01*
X490340D02*
X490580D01*
X485380Y206800D02*
X489540D01*
X490260D02*
X490580D01*
X485220Y206720D02*
X489540D01*
X490260D02*
X490580D01*
X485220Y206640D02*
X489620D01*
X490260D02*
X490660D01*
X485220Y206560D02*
X489700D01*
X490180D02*
X490580D01*
X485220Y206480D02*
X488740D01*
X489140D02*
X489780D01*
X490100D02*
X490660D01*
X485220Y206400D02*
X488660D01*
X489220D02*
X490660D01*
X485220Y206320D02*
X488580D01*
X489300D02*
X490660D01*
X485220Y206240D02*
X488580D01*
X489300D02*
X490660D01*
X485220Y206160D02*
X488580D01*
X489300D02*
X490660D01*
X485300Y206080D02*
X488500D01*
X489300D02*
X490660D01*
X485300Y206000D02*
X488420D01*
X489300D02*
X490660D01*
X485300Y205920D02*
X488340D01*
X489220D02*
X490660D01*
X485300Y205840D02*
X488180D01*
X489060D02*
X490740D01*
X485300Y205760D02*
X488100D01*
X488660D02*
X490740D01*
X485300Y205680D02*
X488020D01*
X488580D02*
X490740D01*
X485300Y205600D02*
X487860D01*
X488420D02*
X490740D01*
X485380Y205520D02*
X487780D01*
X488340D02*
X490740D01*
X485380Y205440D02*
X487620D01*
X488260D02*
X490740D01*
X485380Y205360D02*
X487540D01*
X488100D02*
X490820D01*
X485380Y205280D02*
X487460D01*
X488020D02*
X490820D01*
X485380Y205200D02*
X487300D01*
X487860D02*
X490820D01*
X485380Y205120D02*
X487220D01*
X487780D02*
X490820D01*
X485380Y205040D02*
X487140D01*
X487700D02*
X490900D01*
X485460Y204960D02*
X486980D01*
X487540D02*
X490900D01*
X485460Y204880D02*
X486900D01*
X487460D02*
X490900D01*
X485460Y204800D02*
X486820D01*
X487300D02*
X490900D01*
X485460Y204720D02*
X486660D01*
X487220D02*
X490980D01*
X485460Y204640D02*
X486580D01*
X487140D02*
X490980D01*
X485540Y204560D02*
X486420D01*
X486980D02*
X490980D01*
X485540Y204480D02*
X486340D01*
X486900D02*
X490980D01*
X485540Y204400D02*
X486260D01*
X486820D02*
X491060D01*
X485540Y204320D02*
X486180D01*
X486660D02*
X491060D01*
X485620Y204240D02*
X486180D01*
X486580D02*
X491060D01*
X485620Y204160D02*
X486180D01*
X486500D02*
X491140D01*
X485620Y204080D02*
X486180D01*
X486500D02*
X491140D01*
X485140Y219920D02*
X490500D01*
X485140Y219840D02*
X490500D01*
X485140Y219760D02*
X490500D01*
X485140Y219680D02*
X490500D01*
X485140Y219600D02*
X490500D01*
X485140Y219520D02*
X490500D01*
X485140Y219440D02*
X490500D01*
X485140Y219360D02*
X490500D01*
X485140Y219280D02*
X490500D01*
X485140Y219200D02*
X490500D01*
X485140Y219120D02*
X490500D01*
X485140Y219040D02*
X490500D01*
X485140Y218960D02*
X490500D01*
X485140Y218880D02*
X490500D01*
X485140Y218800D02*
X490500D01*
X485140Y218720D02*
X490500D01*
X485140Y218640D02*
X490500D01*
X485140Y218560D02*
X490500D01*
X485140Y218480D02*
X490500D01*
X485140Y218400D02*
X490500D01*
X485140Y218320D02*
X490500D01*
X485140Y218240D02*
X490500D01*
X485140Y218160D02*
X490500D01*
X485140Y218080D02*
X490500D01*
X485140Y218000D02*
X490500D01*
X485140Y217920D02*
X490500D01*
X485140Y217840D02*
X490500D01*
X485140Y217760D02*
X490500D01*
X485140Y217680D02*
X490500D01*
X485140Y217600D02*
X490500D01*
X485140Y217520D02*
X490500D01*
X485140Y217440D02*
X490500D01*
X485140Y217360D02*
X490500D01*
X485140Y217280D02*
X490500D01*
X485140Y217200D02*
X490500D01*
X485140Y217120D02*
X490500D01*
X485140Y217040D02*
X490500D01*
X485140Y216960D02*
X490500D01*
X485140Y216880D02*
X485860D01*
X486180D02*
X490500D01*
X485140Y216800D02*
X485780D01*
X486260D02*
X490500D01*
X485140Y216720D02*
X485700D01*
X486260D02*
X490500D01*
X485140Y216640D02*
X485620D01*
X486340D02*
X490500D01*
X485140Y216560D02*
X485620D01*
X486340D02*
X490500D01*
X485140Y216480D02*
X485620D01*
X486340D02*
X490500D01*
X485140Y216400D02*
X485700D01*
X486340D02*
X490500D01*
X485140Y216320D02*
X485700D01*
X486340D02*
X490500D01*
X485140Y216240D02*
X485780D01*
X486420D02*
X490500D01*
X485140Y216160D02*
X485860D01*
X486500D02*
X490500D01*
X485140Y216080D02*
X486100D01*
X486580D02*
X490500D01*
X485140Y216000D02*
X486180D01*
X486580D02*
X490500D01*
X485140Y215920D02*
X486260D01*
X486660D02*
X490500D01*
X485140Y215840D02*
X486340D01*
X486740D02*
X490500D01*
X485140Y215760D02*
X486420D01*
X486820D02*
X490500D01*
X485140Y215680D02*
X486420D01*
X486820D02*
X490500D01*
X485140Y215600D02*
X486500D01*
X486900D02*
X490500D01*
X485140Y215520D02*
X486580D01*
X486980D02*
X490500D01*
X485140Y215440D02*
X486660D01*
X487060D02*
X490500D01*
X485140Y215360D02*
X486660D01*
X487060D02*
X490500D01*
X485140Y215280D02*
X486740D01*
X487140D02*
X490500D01*
X485140Y215200D02*
X486820D01*
X487220D02*
X490500D01*
X485140Y215120D02*
X486900D01*
X487300D02*
X490500D01*
X485140Y215040D02*
X486900D01*
X487300D02*
X490500D01*
X485140Y214960D02*
X486980D01*
X487380D02*
X490500D01*
X485140Y214880D02*
X487060D01*
X487460D02*
X490500D01*
X485140Y214800D02*
X487140D01*
X487540D02*
X490500D01*
X485140Y214720D02*
X487140D01*
X487540D02*
X490500D01*
X485140Y214640D02*
X487220D01*
X487620D02*
X490500D01*
X485140Y214560D02*
X487300D01*
X487700D02*
X490500D01*
X485140Y214480D02*
X487380D01*
X487780D02*
X490500D01*
X485140Y214400D02*
X487460D01*
X487780D02*
X490500D01*
X485140Y214320D02*
X487460D01*
X487860D02*
X490500D01*
X485140Y214240D02*
X487540D01*
X487940D02*
X490500D01*
X485140Y214160D02*
X487620D01*
X488020D02*
X490500D01*
X485140Y214080D02*
X487700D01*
X488020D02*
X490500D01*
X485140Y214000D02*
X487700D01*
X488100D02*
X490500D01*
X485140Y213920D02*
X487780D01*
X488100D02*
X490500D01*
X485140Y213840D02*
X487780D01*
X488100D02*
X490500D01*
X485140Y213760D02*
X487700D01*
X488100D02*
X490500D01*
X485140Y213680D02*
X487620D01*
X488100D02*
X490500D01*
X485140Y213600D02*
X487540D01*
X488100D02*
X490500D01*
X485140Y213520D02*
X487460D01*
X487940D02*
X490500D01*
X485140Y213440D02*
X487380D01*
X487860D02*
X490500D01*
X485140Y213360D02*
X487300D01*
X487780D02*
X490500D01*
X485140Y213280D02*
X487220D01*
X487700D02*
X490500D01*
X485140Y213200D02*
X487060D01*
X487540D02*
X490500D01*
X485140Y213120D02*
X486660D01*
X486740D02*
X486980D01*
X487460D02*
X490500D01*
X485140Y213040D02*
X486500D01*
X487380D02*
X490500D01*
X485140Y212960D02*
X486420D01*
X487300D02*
X490500D01*
X485140Y212880D02*
X486340D01*
X487140D02*
X490500D01*
X485140Y212800D02*
X486340D01*
X487060D02*
X490500D01*
X485140Y212720D02*
X486340D01*
X487140D02*
X490500D01*
X485140Y212640D02*
X486260D01*
X487060D02*
X490500D01*
X485140Y212560D02*
X486180D01*
X487060D02*
X490500D01*
X485140Y212480D02*
X486100D01*
X486980D02*
X490500D01*
X485140Y212400D02*
X485940D01*
X486500D02*
X490500D01*
X485140Y212320D02*
X485860D01*
X486420D02*
X490500D01*
X485140Y212240D02*
X485780D01*
X486260D02*
X490500D01*
X485140Y212160D02*
X485620D01*
X486180D02*
X490500D01*
X485140Y212080D02*
X485540D01*
X486100D02*
X490500D01*
X489140Y221760D02*
X489860D01*
X488820Y221680D02*
X490340D01*
X488660Y221600D02*
X490500D01*
X488500Y221520D02*
X490500D01*
X485140Y221440D02*
X485300D01*
X488420D02*
X490500D01*
X485140Y221360D02*
X485460D01*
X488260D02*
X490500D01*
X485140Y221280D02*
X485620D01*
X488100D02*
X490500D01*
X485140Y221200D02*
X485860D01*
X487860D02*
X490500D01*
X485140Y221120D02*
X486100D01*
X487700D02*
X490500D01*
X485140Y221040D02*
X486500D01*
X487300D02*
X490500D01*
X485140Y220960D02*
X490500D01*
X485140Y220880D02*
X490500D01*
X485140Y220800D02*
X490500D01*
X485140Y220720D02*
X490500D01*
X485140Y220640D02*
X490500D01*
X485140Y220560D02*
X490500D01*
X485140Y220480D02*
X490500D01*
X485140Y220400D02*
X490500D01*
X485140Y220320D02*
X490500D01*
X485140Y220240D02*
X490500D01*
X485140Y220160D02*
X490500D01*
X485140Y220080D02*
X490500D01*
X492660Y196640D02*
X495780D01*
X493220Y196560D02*
X495140D01*
X501220Y199440D02*
X501940D01*
X503460D02*
X504740D01*
X507060D02*
X507540D01*
X501140Y199360D02*
X502020D01*
X502500D02*
X502980D01*
X503380D02*
X504820D01*
X505060D02*
X505540D01*
X506100D02*
X506660D01*
X507060D02*
X507540D01*
X500980Y199280D02*
X502020D01*
X502500D02*
X503060D01*
X503380D02*
X504820D01*
X505060D02*
X505620D01*
X506100D02*
X506660D01*
X507060D02*
X507540D01*
X500980Y199200D02*
X502020D01*
X502500D02*
X503060D01*
X503380D02*
X504820D01*
X505060D02*
X505620D01*
X506100D02*
X506580D01*
X507060D02*
X507540D01*
X500900Y199120D02*
X502020D01*
X502500D02*
X503060D01*
X503380D02*
X504820D01*
X505060D02*
X505620D01*
X506100D02*
X506580D01*
X507060D02*
X507540D01*
X500820Y199040D02*
X501540D01*
X501700D02*
X502020D01*
X502500D02*
X503060D01*
X503380D02*
X504820D01*
X505140D02*
X505700D01*
X506020D02*
X506580D01*
X507060D02*
X507540D01*
X500820Y198960D02*
X501460D01*
X501860D02*
X501940D01*
X502500D02*
X503060D01*
X503860D02*
X504340D01*
X505140D02*
X505700D01*
X506020D02*
X506580D01*
X507060D02*
X507540D01*
X500820Y198880D02*
X501380D01*
X502500D02*
X503060D01*
X503860D02*
X504340D01*
X505220D02*
X505700D01*
X506020D02*
X506500D01*
X507060D02*
X507540D01*
X500740Y198800D02*
X501380D01*
X502500D02*
X503060D01*
X503860D02*
X504340D01*
X505220D02*
X505780D01*
X505940D02*
X506500D01*
X507060D02*
X507540D01*
X500740Y198720D02*
X501300D01*
X502500D02*
X503060D01*
X503860D02*
X504340D01*
X505220D02*
X505780D01*
X505940D02*
X506500D01*
X507060D02*
X507540D01*
X500740Y198640D02*
X501300D01*
X502500D02*
X503060D01*
X503860D02*
X504340D01*
X505300D02*
X505780D01*
X505940D02*
X506420D01*
X507060D02*
X507540D01*
X500740Y198560D02*
X501220D01*
X502500D02*
X503060D01*
X503860D02*
X504340D01*
X505300D02*
X505780D01*
X505940D02*
X506420D01*
X507060D02*
X507540D01*
X500660Y198480D02*
X501220D01*
X502500D02*
X503060D01*
X503860D02*
X504340D01*
X505300D02*
X505860D01*
X505940D02*
X506420D01*
X507060D02*
X507540D01*
X500660Y198400D02*
X501220D01*
X502500D02*
X503060D01*
X503860D02*
X504340D01*
X505380D02*
X506340D01*
X507060D02*
X507540D01*
X500660Y198320D02*
X501220D01*
X502500D02*
X503060D01*
X503860D02*
X504340D01*
X505380D02*
X506340D01*
X507060D02*
X507540D01*
X500660Y198240D02*
X501220D01*
X502500D02*
X503060D01*
X503860D02*
X504340D01*
X505460D02*
X506340D01*
X507060D02*
X507540D01*
X500660Y198160D02*
X501220D01*
X502500D02*
X503060D01*
X503860D02*
X504340D01*
X505460D02*
X506260D01*
X507060D02*
X507540D01*
X500660Y198080D02*
X501220D01*
X502500D02*
X503060D01*
X503860D02*
X504340D01*
X505460D02*
X506260D01*
X507060D02*
X507540D01*
X500660Y198000D02*
X501220D01*
X502500D02*
X503060D01*
X503860D02*
X504340D01*
X505540D02*
X506260D01*
X507060D02*
X507540D01*
X500660Y197920D02*
X501220D01*
X502500D02*
X503060D01*
X503860D02*
X504340D01*
X505540D02*
X506180D01*
X507060D02*
X507540D01*
X500660Y197840D02*
X501220D01*
X502500D02*
X503060D01*
X503860D02*
X504340D01*
X505620D02*
X506180D01*
X507060D02*
X507540D01*
X500660Y197760D02*
X501220D01*
X502500D02*
X503060D01*
X503860D02*
X504340D01*
X505620D02*
X506180D01*
X507060D02*
X507540D01*
X500660Y197680D02*
X501220D01*
X502500D02*
X503060D01*
X503860D02*
X504340D01*
X505620D02*
X506180D01*
X507060D02*
X507540D01*
X500660Y197600D02*
X501220D01*
X502500D02*
X503060D01*
X503860D02*
X504340D01*
X505620D02*
X506180D01*
X507060D02*
X507540D01*
X500660Y197520D02*
X501220D01*
X502500D02*
X503060D01*
X503860D02*
X504340D01*
X505620D02*
X506180D01*
X507060D02*
X507540D01*
X500660Y197440D02*
X501220D01*
X502500D02*
X503060D01*
X503860D02*
X504340D01*
X505620D02*
X506180D01*
X507060D02*
X507540D01*
X500660Y197360D02*
X501220D01*
X502500D02*
X503060D01*
X503860D02*
X504340D01*
X505620D02*
X506180D01*
X507060D02*
X507540D01*
X500740Y197280D02*
X501300D01*
X502500D02*
X503060D01*
X503860D02*
X504340D01*
X505620D02*
X506180D01*
X507060D02*
X507540D01*
X500740Y197200D02*
X501300D01*
X502500D02*
X503060D01*
X503860D02*
X504340D01*
X505620D02*
X506180D01*
X507060D02*
X507540D01*
X500740Y197120D02*
X501380D01*
X502500D02*
X503060D01*
X503860D02*
X504340D01*
X505620D02*
X506180D01*
X507060D02*
X507540D01*
X500740Y197040D02*
X501460D01*
X502500D02*
X503060D01*
X503860D02*
X504340D01*
X505620D02*
X506180D01*
X507060D02*
X507620D01*
X500820Y196960D02*
X502020D01*
X502500D02*
X503060D01*
X503860D02*
X504340D01*
X505620D02*
X506180D01*
X507060D02*
X507700D01*
X500820Y196880D02*
X502020D01*
X502500D02*
X503060D01*
X503860D02*
X504340D01*
X505620D02*
X506180D01*
X500900Y196800D02*
X502020D01*
X502500D02*
X503060D01*
X503860D02*
X504340D01*
X505620D02*
X506180D01*
X500980Y196720D02*
X502020D01*
X502500D02*
X503060D01*
X503860D02*
X504340D01*
X505620D02*
X506180D01*
X507140D02*
X508420D01*
X501060Y196640D02*
X502020D01*
X502500D02*
X503060D01*
X503860D02*
X504340D01*
X505620D02*
X506180D01*
X507220D02*
X508340D01*
X501220Y196560D02*
X502020D01*
X502500D02*
X503060D01*
X503860D02*
X504340D01*
X505620D02*
X506180D01*
X507300D02*
X508260D01*
X502500Y196480D02*
X502980D01*
X505620D02*
X506100D01*
X507460D02*
X508100D01*
X503140Y206640D02*
X508420D01*
X503140Y206560D02*
X508420D01*
X502260Y223280D02*
X503060D01*
X501460Y223200D02*
X503220D01*
X505460D02*
X506020D01*
X501380Y223120D02*
X503300D01*
X505380D02*
X506580D01*
X501380Y223040D02*
X503380D01*
X505380D02*
X507140D01*
X501380Y222960D02*
X503380D01*
X505300D02*
X507300D01*
X501300Y222880D02*
X503460D01*
X505300D02*
X507380D01*
X501300Y222800D02*
X503460D01*
X505300D02*
X507380D01*
X501300Y222720D02*
X503460D01*
X505220D02*
X507380D01*
X501300Y222640D02*
X503540D01*
X505220D02*
X507380D01*
X501300Y222560D02*
X503540D01*
X505140D02*
X507380D01*
X501300Y222480D02*
X503540D01*
X505140D02*
X507380D01*
X501300Y222400D02*
X503620D01*
X505060D02*
X507460D01*
X501220Y222320D02*
X503620D01*
X505060D02*
X507460D01*
X501220Y222240D02*
X503620D01*
X505060D02*
X507460D01*
X501220Y222160D02*
X503700D01*
X504980D02*
X507460D01*
X501220Y222080D02*
X503700D01*
X504980D02*
X507460D01*
X501220Y222000D02*
X503700D01*
X504900D02*
X507460D01*
X501140Y221920D02*
X503780D01*
X504900D02*
X507460D01*
X514020Y201680D02*
X515300D01*
X514020Y201600D02*
X515300D01*
X514020Y201520D02*
X515300D01*
X514020Y201440D02*
X515300D01*
X514020Y201360D02*
X515300D01*
X514020Y201280D02*
X515300D01*
X514020Y201200D02*
X515300D01*
X514020Y201120D02*
X515300D01*
X514020Y201040D02*
X515300D01*
X514020Y200960D02*
X515300D01*
X514020Y200880D02*
X515300D01*
X514020Y200800D02*
X515300D01*
X514020Y200720D02*
X515300D01*
X514020Y200640D02*
X515300D01*
X514020Y200560D02*
X515300D01*
X514020Y200480D02*
X515300D01*
X514020Y200400D02*
X515300D01*
X514020Y200320D02*
X515300D01*
X508980Y199440D02*
X509460D01*
X510020D02*
X510420D01*
X510900D02*
X511380D01*
X511860D02*
X512340D01*
X508980Y199360D02*
X509460D01*
X509940D02*
X510420D01*
X510900D02*
X511380D01*
X511780D02*
X512340D01*
X508980Y199280D02*
X509460D01*
X509940D02*
X510420D01*
X510900D02*
X511380D01*
X511780D02*
X512340D01*
X508980Y199200D02*
X509460D01*
X509940D02*
X510420D01*
X510900D02*
X511380D01*
X511780D02*
X512340D01*
X508980Y199120D02*
X509460D01*
X509940D02*
X510420D01*
X510900D02*
X511380D01*
X511700D02*
X512260D01*
X508980Y199040D02*
X509460D01*
X509940D02*
X510420D01*
X510900D02*
X511380D01*
X511700D02*
X512260D01*
X514020D02*
X515300D01*
X508980Y198960D02*
X509460D01*
X509940D02*
X510420D01*
X510900D02*
X511380D01*
X511620D02*
X512180D01*
X514020D02*
X515300D01*
X508980Y198880D02*
X509460D01*
X509940D02*
X510420D01*
X510900D02*
X511380D01*
X511620D02*
X512180D01*
X514020D02*
X515300D01*
X508980Y198800D02*
X509460D01*
X509940D02*
X510420D01*
X510900D02*
X511380D01*
X511620D02*
X512180D01*
X514020D02*
X515300D01*
X508980Y198720D02*
X509460D01*
X509940D02*
X510420D01*
X510900D02*
X511380D01*
X511540D02*
X512100D01*
X514020D02*
X515300D01*
X508980Y198640D02*
X509460D01*
X509940D02*
X510420D01*
X510900D02*
X511380D01*
X511540D02*
X512100D01*
X514020D02*
X515300D01*
X508980Y198560D02*
X509460D01*
X509940D02*
X510420D01*
X510900D02*
X511380D01*
X511460D02*
X512020D01*
X514020D02*
X515300D01*
X508980Y198480D02*
X509460D01*
X509940D02*
X510420D01*
X510900D02*
X512020D01*
X514020D02*
X515300D01*
X508980Y198400D02*
X509460D01*
X509940D02*
X510420D01*
X510900D02*
X511940D01*
X514020D02*
X515300D01*
X508980Y198320D02*
X510420D01*
X510900D02*
X511940D01*
X514020D02*
X515300D01*
X508980Y198240D02*
X510420D01*
X510900D02*
X511940D01*
X514020D02*
X515300D01*
X508980Y198160D02*
X510420D01*
X510900D02*
X511860D01*
X514020D02*
X515300D01*
X508980Y198080D02*
X510420D01*
X510900D02*
X511860D01*
X514020D02*
X515300D01*
X508980Y198000D02*
X510420D01*
X510900D02*
X511780D01*
X514020D02*
X515300D01*
X508980Y197920D02*
X510420D01*
X510900D02*
X511860D01*
X514020D02*
X515300D01*
X508980Y197840D02*
X509460D01*
X509940D02*
X510420D01*
X510900D02*
X511860D01*
X514020D02*
X515300D01*
X508980Y197760D02*
X509460D01*
X509940D02*
X510420D01*
X510900D02*
X511940D01*
X514020D02*
X515300D01*
X508980Y197680D02*
X509460D01*
X509940D02*
X510420D01*
X510900D02*
X511940D01*
X514020D02*
X515300D01*
X508980Y197600D02*
X509460D01*
X509940D02*
X510420D01*
X510900D02*
X511940D01*
X514020D02*
X515300D01*
X508980Y197520D02*
X509460D01*
X509940D02*
X510420D01*
X510900D02*
X511380D01*
X511460D02*
X512020D01*
X514020D02*
X515300D01*
X508980Y197440D02*
X509460D01*
X509940D02*
X510420D01*
X510900D02*
X511380D01*
X511460D02*
X512020D01*
X514020D02*
X515300D01*
X508980Y197360D02*
X509460D01*
X509940D02*
X510420D01*
X510900D02*
X511380D01*
X511540D02*
X512100D01*
X514020D02*
X515300D01*
X508980Y197280D02*
X509460D01*
X509940D02*
X510420D01*
X510900D02*
X511380D01*
X511540D02*
X512100D01*
X514020D02*
X515300D01*
X508980Y197200D02*
X509460D01*
X509940D02*
X510420D01*
X510900D02*
X511380D01*
X511540D02*
X512180D01*
X514020D02*
X515300D01*
X508980Y197120D02*
X509460D01*
X509940D02*
X510420D01*
X510900D02*
X511380D01*
X511620D02*
X512180D01*
X514020D02*
X515300D01*
X508980Y197040D02*
X509460D01*
X509940D02*
X510420D01*
X510900D02*
X511380D01*
X511620D02*
X512180D01*
X514020D02*
X515300D01*
X508980Y196960D02*
X509460D01*
X509940D02*
X510420D01*
X510900D02*
X511380D01*
X511700D02*
X512260D01*
X514020D02*
X515300D01*
X508980Y196880D02*
X509460D01*
X509940D02*
X510420D01*
X510900D02*
X511380D01*
X511700D02*
X512260D01*
X514020D02*
X515300D01*
X508980Y196800D02*
X509460D01*
X509940D02*
X510420D01*
X510900D02*
X511380D01*
X511700D02*
X512340D01*
X514020D02*
X515300D01*
X508980Y196720D02*
X509460D01*
X509940D02*
X510420D01*
X510900D02*
X511380D01*
X511780D02*
X512340D01*
X514020D02*
X515300D01*
X508980Y196640D02*
X509460D01*
X509940D02*
X510420D01*
X510900D02*
X511380D01*
X511780D02*
X512420D01*
X514020D02*
X515300D01*
X508980Y196560D02*
X509460D01*
X509940D02*
X510420D01*
X510900D02*
X511380D01*
X511780D02*
X512420D01*
X514020D02*
X515300D01*
X510900Y196480D02*
X511380D01*
X511860D02*
X512340D01*
X514020D02*
X515300D01*
X511220Y209280D02*
X512820D01*
X511780Y209200D02*
X512740D01*
X513700Y208720D02*
X514580D01*
X513700Y208640D02*
X514580D01*
X513700Y208560D02*
X514580D01*
X513700Y208480D02*
X514580D01*
X513700Y208400D02*
X514580D01*
X513700Y208320D02*
X514580D01*
X513700Y208240D02*
X514580D01*
X513700Y208160D02*
X514580D01*
X513700Y208080D02*
X514580D01*
X513700Y208000D02*
X514580D01*
X513700Y207920D02*
X514580D01*
X513700Y207840D02*
X514580D01*
X513700Y207760D02*
X514580D01*
X513700Y207680D02*
X514580D01*
X513700Y207600D02*
X514580D01*
X513700Y207520D02*
X514580D01*
X513700Y207440D02*
X514580D01*
X513700Y207360D02*
X514580D01*
X513700Y207280D02*
X514580D01*
X513700Y207200D02*
X514580D01*
X513700Y207120D02*
X514580D01*
X513700Y207040D02*
X514580D01*
X513700Y206960D02*
X514580D01*
X513700Y206880D02*
X514580D01*
X513700Y206800D02*
X514580D01*
X513700Y206720D02*
X514580D01*
X513700Y206640D02*
X514580D01*
X513700Y206560D02*
X514580D01*
X513700Y206480D02*
X514580D01*
X513700Y206400D02*
X514580D01*
X513700Y206320D02*
X514580D01*
X513700Y206240D02*
X514580D01*
X513700Y206160D02*
X514580D01*
X513700Y206080D02*
X514580D01*
X513700Y206000D02*
X514580D01*
X513700Y205920D02*
X514580D01*
X513700Y205840D02*
X514580D01*
X513700Y205760D02*
X514580D01*
X513700Y205680D02*
X514580D01*
X513700Y205600D02*
X514580D01*
X513700Y205520D02*
X514580D01*
X513700Y205440D02*
X514580D01*
X513700Y205360D02*
X514580D01*
X513700Y205280D02*
X514580D01*
X513700Y205200D02*
X514580D01*
X513700Y205120D02*
X514660D01*
X513700Y205040D02*
X514740D01*
X513780Y204720D02*
X516420D01*
X513860Y204640D02*
X516340D01*
X513940Y204560D02*
X516260D01*
X514020Y204480D02*
X516180D01*
X514100Y204400D02*
X516100D01*
X514180Y204320D02*
X516020D01*
X514260Y204240D02*
X515940D01*
X514340Y204160D02*
X515860D01*
X511780Y218880D02*
X512740D01*
X511140Y218800D02*
X512820D01*
X509540Y222000D02*
X510100D01*
X509460Y221920D02*
X510180D01*
X509380Y221840D02*
X510340D01*
X509220Y221760D02*
X510420D01*
X509140Y221680D02*
X510500D01*
X509060Y221600D02*
X510580D01*
X508900Y221520D02*
X510740D01*
X508820Y221440D02*
X510820D01*
X508740Y221360D02*
X510900D01*
X508580Y221280D02*
X510980D01*
X519700Y202880D02*
X521700D01*
X519620Y202800D02*
X521780D01*
X519540Y202720D02*
X521860D01*
X519460Y202640D02*
X521940D01*
X519380Y202560D02*
X522020D01*
X519300Y202480D02*
X522100D01*
X519220Y202400D02*
X522180D01*
X519140Y202320D02*
X522260D01*
X519060Y202240D02*
X522340D01*
X518980Y202160D02*
X522420D01*
X518900Y202080D02*
X522500D01*
X518820Y202000D02*
X522580D01*
X518740Y201920D02*
X522660D01*
X518740Y201840D02*
X522660D01*
X518740Y201760D02*
X522660D01*
X518740Y201680D02*
X520340D01*
X521060D02*
X522660D01*
X518740Y201600D02*
X520260D01*
X521140D02*
X522660D01*
X518740Y201520D02*
X520180D01*
X521220D02*
X522660D01*
X516580Y201440D02*
X517940D01*
X518740D02*
X520100D01*
X521300D02*
X522660D01*
X516660Y201360D02*
X517940D01*
X518740D02*
X520020D01*
X521380D02*
X522660D01*
X516740Y201280D02*
X517940D01*
X518740D02*
X520020D01*
X521380D02*
X522660D01*
X516740Y201200D02*
X517940D01*
X518740D02*
X520020D01*
X521380D02*
X522660D01*
X516740Y201120D02*
X517940D01*
X518740D02*
X520020D01*
X521380D02*
X522660D01*
X516740Y201040D02*
X517940D01*
X518740D02*
X520020D01*
X521380D02*
X522660D01*
X516740Y200960D02*
X517940D01*
X518740D02*
X520020D01*
X521380D02*
X522660D01*
X516740Y200880D02*
X517940D01*
X518740D02*
X520020D01*
X521380D02*
X522660D01*
X516740Y200800D02*
X517940D01*
X518740D02*
X520020D01*
X521380D02*
X522660D01*
X516740Y200720D02*
X517940D01*
X518740D02*
X520020D01*
X521380D02*
X522660D01*
X516660Y200640D02*
X517940D01*
X518740D02*
X520020D01*
X521380D02*
X522660D01*
X516580Y200560D02*
X517940D01*
X518740D02*
X520020D01*
X521380D02*
X522660D01*
X518740Y200480D02*
X520020D01*
X521380D02*
X522660D01*
X518740Y200400D02*
X520020D01*
X521380D02*
X522660D01*
X518740Y200320D02*
X520020D01*
X521380D02*
X522660D01*
X518740Y200240D02*
X520020D01*
X521380D02*
X522660D01*
X518740Y200160D02*
X520020D01*
X521380D02*
X522660D01*
X518740Y200080D02*
X520020D01*
X521380D02*
X522660D01*
X518740Y200000D02*
X520020D01*
X521380D02*
X522660D01*
X518740Y199920D02*
X520020D01*
X521380D02*
X522660D01*
X518740Y199840D02*
X520020D01*
X521380D02*
X522660D01*
X518740Y199760D02*
X520020D01*
X521380D02*
X522660D01*
X518740Y199680D02*
X520020D01*
X521380D02*
X522660D01*
X518740Y199600D02*
X520020D01*
X521380D02*
X522660D01*
X518740Y199520D02*
X520020D01*
X521380D02*
X522660D01*
X518740Y199440D02*
X520020D01*
X521380D02*
X522660D01*
X518740Y199360D02*
X520020D01*
X521380D02*
X522660D01*
X518740Y199280D02*
X520020D01*
X521380D02*
X522660D01*
X518740Y199200D02*
X520020D01*
X521380D02*
X522660D01*
X518740Y199120D02*
X520020D01*
X521380D02*
X522660D01*
X518740Y199040D02*
X520020D01*
X521380D02*
X522660D01*
X518740Y198960D02*
X520020D01*
X521380D02*
X522660D01*
X518740Y198880D02*
X520020D01*
X521380D02*
X522660D01*
X518740Y198800D02*
X520020D01*
X521380D02*
X522660D01*
X518740Y198720D02*
X520020D01*
X521380D02*
X522660D01*
X518740Y198640D02*
X520020D01*
X521380D02*
X522660D01*
X518740Y198560D02*
X520020D01*
X521380D02*
X522660D01*
X518740Y198480D02*
X520020D01*
X521380D02*
X522660D01*
X518740Y198400D02*
X520020D01*
X521380D02*
X522660D01*
X518740Y198320D02*
X520020D01*
X521380D02*
X522660D01*
X518740Y198240D02*
X520020D01*
X521380D02*
X522660D01*
X518740Y198160D02*
X520020D01*
X521380D02*
X522660D01*
X518740Y198080D02*
X520020D01*
X521380D02*
X522660D01*
X518740Y198000D02*
X520020D01*
X521380D02*
X522660D01*
X518740Y197920D02*
X520100D01*
X521300D02*
X522660D01*
X518740Y197840D02*
X520180D01*
X521220D02*
X522660D01*
X518740Y197760D02*
X520260D01*
X521140D02*
X522660D01*
X518740Y197680D02*
X520340D01*
X521060D02*
X522660D01*
X518740Y197600D02*
X522660D01*
X518740Y197520D02*
X522660D01*
X518740Y197440D02*
X522660D01*
X518820Y197360D02*
X522580D01*
X518900Y197280D02*
X522500D01*
X518980Y197200D02*
X522420D01*
X519060Y197120D02*
X522340D01*
X519140Y197040D02*
X522260D01*
X519220Y196960D02*
X522180D01*
X519300Y196880D02*
X522100D01*
X519380Y196800D02*
X522020D01*
X519460Y196720D02*
X521940D01*
X519540Y196640D02*
X521860D01*
X519620Y196560D02*
X521780D01*
X519700Y196480D02*
X521700D01*
X517060Y208720D02*
X518020D01*
X518980D02*
X519860D01*
X520420D02*
X522660D01*
X517060Y208640D02*
X518020D01*
X518980D02*
X519860D01*
X520420D02*
X522740D01*
X517060Y208560D02*
X518100D01*
X518980D02*
X519860D01*
X520420D02*
X522820D01*
X517060Y208480D02*
X518100D01*
X518980D02*
X519860D01*
X520420D02*
X522900D01*
X517060Y208400D02*
X518100D01*
X518980D02*
X519860D01*
X520420D02*
X522980D01*
X517060Y208320D02*
X518180D01*
X518980D02*
X519860D01*
X520420D02*
X523060D01*
X517060Y208240D02*
X518180D01*
X518980D02*
X519860D01*
X520420D02*
X523140D01*
X517060Y208160D02*
X518260D01*
X518980D02*
X519860D01*
X520420D02*
X523220D01*
X517060Y208080D02*
X518260D01*
X518980D02*
X519860D01*
X520420D02*
X523300D01*
X517060Y208000D02*
X518340D01*
X518980D02*
X519860D01*
X520420D02*
X523300D01*
X517060Y207920D02*
X518340D01*
X518980D02*
X519860D01*
X520420D02*
X523300D01*
X517060Y207840D02*
X518420D01*
X518980D02*
X519860D01*
X520420D02*
X521380D01*
X522180D02*
X523300D01*
X517060Y207760D02*
X518420D01*
X518980D02*
X519860D01*
X520420D02*
X521380D01*
X522260D02*
X523300D01*
X517060Y207680D02*
X518420D01*
X518980D02*
X519860D01*
X520420D02*
X521380D01*
X522340D02*
X523300D01*
X517060Y207600D02*
X518500D01*
X518980D02*
X519860D01*
X520420D02*
X521380D01*
X522340D02*
X523300D01*
X517060Y207520D02*
X518500D01*
X518980D02*
X519860D01*
X520420D02*
X521380D01*
X522340D02*
X523300D01*
X517060Y207440D02*
X518580D01*
X518980D02*
X519860D01*
X520420D02*
X521380D01*
X522340D02*
X523300D01*
X517060Y207360D02*
X518580D01*
X518980D02*
X519860D01*
X520420D02*
X521380D01*
X522340D02*
X523300D01*
X517060Y207280D02*
X518660D01*
X518980D02*
X519860D01*
X520420D02*
X521380D01*
X522340D02*
X523300D01*
X517060Y207200D02*
X518660D01*
X518980D02*
X519860D01*
X520420D02*
X521380D01*
X522340D02*
X523300D01*
X517060Y207120D02*
X518740D01*
X518980D02*
X519860D01*
X520420D02*
X521380D01*
X522340D02*
X523300D01*
X517060Y207040D02*
X518740D01*
X518980D02*
X519860D01*
X520420D02*
X521380D01*
X522340D02*
X523300D01*
X517060Y206960D02*
X518740D01*
X518980D02*
X519860D01*
X520420D02*
X521380D01*
X522340D02*
X523300D01*
X517060Y206880D02*
X518820D01*
X518980D02*
X519860D01*
X520420D02*
X521380D01*
X522340D02*
X523300D01*
X517060Y206800D02*
X518820D01*
X518980D02*
X519860D01*
X520420D02*
X521380D01*
X522340D02*
X523300D01*
X517060Y206720D02*
X518900D01*
X518980D02*
X519860D01*
X520420D02*
X521380D01*
X522340D02*
X523300D01*
X517060Y206640D02*
X518900D01*
X518980D02*
X519860D01*
X520420D02*
X521380D01*
X522340D02*
X523300D01*
X517060Y206560D02*
X519860D01*
X520420D02*
X521380D01*
X522340D02*
X523300D01*
X517060Y206480D02*
X519860D01*
X520420D02*
X521380D01*
X522340D02*
X523300D01*
X517060Y206400D02*
X519860D01*
X520420D02*
X521380D01*
X522340D02*
X523300D01*
X517060Y206320D02*
X519860D01*
X520420D02*
X521380D01*
X522340D02*
X523300D01*
X517060Y206240D02*
X517940D01*
X518020D02*
X519860D01*
X520420D02*
X521380D01*
X522340D02*
X523300D01*
X517060Y206160D02*
X517940D01*
X518020D02*
X519860D01*
X520420D02*
X521380D01*
X522340D02*
X523300D01*
X517060Y206080D02*
X517940D01*
X518100D02*
X519860D01*
X520420D02*
X521380D01*
X522340D02*
X523300D01*
X517060Y206000D02*
X517940D01*
X518100D02*
X519860D01*
X520420D02*
X521380D01*
X522340D02*
X523300D01*
X517060Y205920D02*
X517940D01*
X518180D02*
X519860D01*
X520420D02*
X521380D01*
X522340D02*
X523300D01*
X517060Y205840D02*
X517940D01*
X518180D02*
X519860D01*
X520420D02*
X521380D01*
X522340D02*
X523300D01*
X517060Y205760D02*
X517940D01*
X518260D02*
X519860D01*
X520420D02*
X521380D01*
X522340D02*
X523300D01*
X517060Y205680D02*
X517940D01*
X518260D02*
X519860D01*
X520420D02*
X521380D01*
X522340D02*
X523300D01*
X517060Y205600D02*
X517940D01*
X518340D02*
X519860D01*
X520420D02*
X521380D01*
X522340D02*
X523300D01*
X517060Y205520D02*
X517940D01*
X518340D02*
X519860D01*
X520420D02*
X521380D01*
X522340D02*
X523300D01*
X517060Y205440D02*
X517940D01*
X518340D02*
X519860D01*
X520420D02*
X521380D01*
X522340D02*
X523300D01*
X517060Y205360D02*
X517940D01*
X518420D02*
X519860D01*
X520420D02*
X521380D01*
X522340D02*
X523300D01*
X517060Y205280D02*
X517940D01*
X518420D02*
X519860D01*
X520420D02*
X521380D01*
X522340D02*
X523300D01*
X517060Y205200D02*
X517940D01*
X518500D02*
X519860D01*
X520420D02*
X521380D01*
X522340D02*
X523300D01*
X517060Y205120D02*
X517940D01*
X518500D02*
X519860D01*
X520420D02*
X521380D01*
X522260D02*
X523300D01*
X517060Y205040D02*
X517940D01*
X518580D02*
X519860D01*
X520420D02*
X521380D01*
X522180D02*
X523300D01*
X517060Y204960D02*
X517940D01*
X518580D02*
X519860D01*
X520420D02*
X523300D01*
X517060Y204880D02*
X517940D01*
X518660D02*
X519860D01*
X520420D02*
X523300D01*
X517060Y204800D02*
X517940D01*
X518660D02*
X519860D01*
X520420D02*
X523220D01*
X517060Y204720D02*
X517940D01*
X518660D02*
X519860D01*
X520420D02*
X523140D01*
X517060Y204640D02*
X517940D01*
X518740D02*
X519860D01*
X520420D02*
X523060D01*
X517060Y204560D02*
X517940D01*
X518740D02*
X519860D01*
X520420D02*
X522980D01*
X517060Y204480D02*
X517940D01*
X518820D02*
X519860D01*
X520420D02*
X522900D01*
X517060Y204400D02*
X517940D01*
X518820D02*
X519860D01*
X520420D02*
X522820D01*
X517060Y204320D02*
X517940D01*
X518900D02*
X519860D01*
X520420D02*
X522740D01*
X517060Y204240D02*
X517940D01*
X518900D02*
X519860D01*
X520420D02*
X522660D01*
X517060Y204160D02*
X517940D01*
X518980D02*
X519860D01*
X520420D02*
X522580D01*
X529140Y202880D02*
X531060D01*
X529060Y202800D02*
X531140D01*
X528980Y202720D02*
X531220D01*
X528900Y202640D02*
X531300D01*
X528820Y202560D02*
X531380D01*
X528740Y202480D02*
X531460D01*
X528660Y202400D02*
X531540D01*
X528580Y202320D02*
X531620D01*
X528500Y202240D02*
X531700D01*
X528420Y202160D02*
X531780D01*
X528340Y202080D02*
X531860D01*
X528260Y202000D02*
X531940D01*
X528180Y201920D02*
X532020D01*
X528180Y201840D02*
X532020D01*
X528180Y201760D02*
X532020D01*
X525700Y201680D02*
X527380D01*
X528180D02*
X529780D01*
X530420D02*
X532020D01*
X525860Y201600D02*
X527380D01*
X528180D02*
X529700D01*
X530500D02*
X532020D01*
X525940Y201520D02*
X527380D01*
X528180D02*
X529540D01*
X530580D02*
X532020D01*
X526020Y201440D02*
X527380D01*
X528180D02*
X529460D01*
X530660D02*
X532020D01*
X526100Y201360D02*
X527380D01*
X528180D02*
X529380D01*
X530740D02*
X532020D01*
X526100Y201280D02*
X527380D01*
X528180D02*
X529380D01*
X530820D02*
X532020D01*
X526100Y201200D02*
X527380D01*
X528180D02*
X529380D01*
X530820D02*
X532020D01*
X526100Y201120D02*
X527380D01*
X528180D02*
X529380D01*
X530820D02*
X532020D01*
X526100Y201040D02*
X527380D01*
X528180D02*
X529380D01*
X530820D02*
X532020D01*
X526100Y200960D02*
X527380D01*
X528180D02*
X529380D01*
X530820D02*
X532020D01*
X526100Y200880D02*
X527380D01*
X528180D02*
X529380D01*
X530820D02*
X532020D01*
X526100Y200800D02*
X527380D01*
X528180D02*
X529380D01*
X530820D02*
X532020D01*
X526100Y200720D02*
X527380D01*
X528180D02*
X529380D01*
X530820D02*
X532020D01*
X526100Y200640D02*
X527380D01*
X528180D02*
X529380D01*
X530820D02*
X532020D01*
X526020Y200560D02*
X527380D01*
X528180D02*
X529380D01*
X530820D02*
X532020D01*
X525940Y200480D02*
X527380D01*
X528180D02*
X529380D01*
X530820D02*
X532020D01*
X525860Y200400D02*
X527380D01*
X528180D02*
X529380D01*
X530820D02*
X532020D01*
X525780Y200320D02*
X527380D01*
X528180D02*
X529380D01*
X530820D02*
X532020D01*
X528180Y200240D02*
X529380D01*
X530820D02*
X532020D01*
X528180Y200160D02*
X529380D01*
X530820D02*
X532020D01*
X528180Y200080D02*
X529380D01*
X530820D02*
X532020D01*
X528180Y200000D02*
X529380D01*
X530820D02*
X532020D01*
X528180Y199920D02*
X529380D01*
X530820D02*
X532020D01*
X528180Y199840D02*
X529380D01*
X530820D02*
X532020D01*
X528180Y199760D02*
X529380D01*
X530820D02*
X532020D01*
X528180Y199680D02*
X529380D01*
X530820D02*
X532020D01*
X528180Y199600D02*
X529380D01*
X530820D02*
X532020D01*
X528180Y199520D02*
X529380D01*
X530820D02*
X532020D01*
X528180Y199440D02*
X529380D01*
X530820D02*
X532020D01*
X528180Y199360D02*
X529380D01*
X530820D02*
X532020D01*
X528180Y199280D02*
X529380D01*
X530820D02*
X532020D01*
X528180Y199200D02*
X529380D01*
X530820D02*
X532020D01*
X528180Y199120D02*
X529380D01*
X530820D02*
X532020D01*
X525780Y199040D02*
X527380D01*
X528180D02*
X529380D01*
X530820D02*
X532020D01*
X525860Y198960D02*
X527380D01*
X528180D02*
X529380D01*
X530820D02*
X532020D01*
X525940Y198880D02*
X527380D01*
X528180D02*
X529380D01*
X530820D02*
X532020D01*
X526020Y198800D02*
X527380D01*
X528180D02*
X529380D01*
X530820D02*
X532020D01*
X526100Y198720D02*
X527380D01*
X528180D02*
X529380D01*
X530820D02*
X532020D01*
X526100Y198640D02*
X527380D01*
X528180D02*
X529380D01*
X530820D02*
X532020D01*
X526100Y198560D02*
X527380D01*
X528180D02*
X529380D01*
X530820D02*
X532020D01*
X526100Y198480D02*
X527380D01*
X528180D02*
X529380D01*
X530820D02*
X532020D01*
X526100Y198400D02*
X527380D01*
X528180D02*
X529380D01*
X530820D02*
X532020D01*
X526100Y198320D02*
X527380D01*
X528180D02*
X529380D01*
X530820D02*
X532020D01*
X526100Y198240D02*
X527380D01*
X528180D02*
X529380D01*
X530820D02*
X532020D01*
X526100Y198160D02*
X527380D01*
X528180D02*
X529380D01*
X530820D02*
X532020D01*
X526100Y198080D02*
X527380D01*
X528180D02*
X529380D01*
X530820D02*
X532020D01*
X526100Y198000D02*
X527380D01*
X528180D02*
X529380D01*
X530740D02*
X532020D01*
X526020Y197920D02*
X527380D01*
X528180D02*
X529460D01*
X530660D02*
X532020D01*
X525940Y197840D02*
X527380D01*
X528180D02*
X529540D01*
X530580D02*
X532020D01*
X525860Y197760D02*
X527380D01*
X528180D02*
X529620D01*
X530500D02*
X532020D01*
X525700Y197680D02*
X527380D01*
X528180D02*
X529780D01*
X530420D02*
X532020D01*
X528180Y197600D02*
X532020D01*
X528180Y197520D02*
X532020D01*
X528180Y197440D02*
X532020D01*
X528260Y197360D02*
X531940D01*
X528340Y197280D02*
X531860D01*
X528420Y197200D02*
X531780D01*
X528500Y197120D02*
X531700D01*
X528580Y197040D02*
X531620D01*
X528660Y196960D02*
X531540D01*
X528740Y196880D02*
X531460D01*
X528820Y196800D02*
X531380D01*
X528900Y196720D02*
X531300D01*
X528980Y196640D02*
X531220D01*
X529060Y196560D02*
X531140D01*
X529140Y196480D02*
X531060D01*
X527300Y208720D02*
X529460D01*
X530660D02*
X531620D01*
X527300Y208640D02*
X529540D01*
X530660D02*
X531620D01*
X527300Y208560D02*
X529620D01*
X530660D02*
X531620D01*
X527300Y208480D02*
X529700D01*
X530740D02*
X531620D01*
X527300Y208400D02*
X529780D01*
X530740D02*
X531620D01*
X527300Y208320D02*
X529860D01*
X530740D02*
X531620D01*
X527300Y208240D02*
X529940D01*
X530740D02*
X531620D01*
X527300Y208160D02*
X530020D01*
X530740D02*
X531620D01*
X527300Y208080D02*
X530100D01*
X530740D02*
X531620D01*
X527300Y208000D02*
X530100D01*
X530740D02*
X531700D01*
X527300Y207920D02*
X530100D01*
X530740D02*
X531700D01*
X527300Y207840D02*
X528180D01*
X528980D02*
X530100D01*
X530740D02*
X531700D01*
X527300Y207760D02*
X528180D01*
X529060D02*
X530100D01*
X530740D02*
X531700D01*
X527300Y207680D02*
X528180D01*
X529140D02*
X530100D01*
X530820D02*
X531700D01*
X527300Y207600D02*
X528180D01*
X529220D02*
X530100D01*
X530820D02*
X531700D01*
X527300Y207520D02*
X528180D01*
X529220D02*
X530100D01*
X530820D02*
X531700D01*
X527300Y207440D02*
X528180D01*
X529220D02*
X530100D01*
X530820D02*
X531700D01*
X527300Y207360D02*
X528180D01*
X529220D02*
X530100D01*
X530820D02*
X531700D01*
X527300Y207280D02*
X528180D01*
X529220D02*
X530100D01*
X530820D02*
X531700D01*
X527300Y207200D02*
X528180D01*
X529220D02*
X530100D01*
X530820D02*
X531780D01*
X527300Y207120D02*
X528180D01*
X529140D02*
X530100D01*
X530820D02*
X531780D01*
X527300Y207040D02*
X528180D01*
X529060D02*
X530100D01*
X530820D02*
X531780D01*
X527300Y206960D02*
X528180D01*
X528980D02*
X530100D01*
X530820D02*
X531780D01*
X527300Y206880D02*
X530100D01*
X530900D02*
X531780D01*
X527300Y206800D02*
X530100D01*
X530900D02*
X531780D01*
X527300Y206720D02*
X530100D01*
X527300Y206640D02*
X530020D01*
X527300Y206560D02*
X529940D01*
X527300Y206480D02*
X529860D01*
X527300Y206400D02*
X529780D01*
X527300Y206320D02*
X529700D01*
X527300Y206240D02*
X529620D01*
X527300Y206160D02*
X529540D01*
X527300Y206080D02*
X529460D01*
X527300Y206000D02*
X529460D01*
X527300Y205920D02*
X528180D01*
X528580D02*
X529460D01*
X527300Y205840D02*
X528180D01*
X528580D02*
X529540D01*
X527300Y205760D02*
X528180D01*
X528580D02*
X529540D01*
X527300Y205680D02*
X528180D01*
X528580D02*
X529540D01*
X527300Y205600D02*
X528180D01*
X528660D02*
X529540D01*
X530980D02*
X532420D01*
X527300Y205520D02*
X528180D01*
X528660D02*
X529620D01*
X530980D02*
X532420D01*
X527300Y205440D02*
X528180D01*
X528660D02*
X529620D01*
X530980D02*
X532420D01*
X527300Y205360D02*
X528180D01*
X528660D02*
X529620D01*
X530980D02*
X532420D01*
X527300Y205280D02*
X528180D01*
X528740D02*
X529700D01*
X531060D02*
X532340D01*
X527300Y205200D02*
X528180D01*
X528740D02*
X529700D01*
X531060D02*
X532340D01*
X527300Y205120D02*
X528180D01*
X528740D02*
X529700D01*
X531060D02*
X532340D01*
X527300Y205040D02*
X528180D01*
X528820D02*
X529700D01*
X531060D02*
X532260D01*
X527300Y204960D02*
X528180D01*
X528820D02*
X529780D01*
X531060D02*
X532260D01*
X527300Y204880D02*
X528180D01*
X528820D02*
X529780D01*
X531060D02*
X532260D01*
X527300Y204800D02*
X528180D01*
X528820D02*
X529780D01*
X531060D02*
X532260D01*
X527300Y204720D02*
X528180D01*
X528900D02*
X529780D01*
X531060D02*
X532180D01*
X527300Y204640D02*
X528180D01*
X528900D02*
X529860D01*
X531060D02*
X532180D01*
X527300Y204560D02*
X528180D01*
X528900D02*
X529860D01*
X531060D02*
X532180D01*
X527300Y204480D02*
X528180D01*
X528980D02*
X529860D01*
X531140D02*
X532180D01*
X527300Y204400D02*
X528180D01*
X528980D02*
X529940D01*
X531140D02*
X532100D01*
X527300Y204320D02*
X528180D01*
X528980D02*
X529940D01*
X531140D02*
X532100D01*
X527300Y204240D02*
X528180D01*
X528980D02*
X529940D01*
X531140D02*
X532100D01*
X527300Y204160D02*
X528180D01*
X529060D02*
X529940D01*
X531140D02*
X532100D01*
X532820Y202880D02*
X536340D01*
X537140D02*
X538420D01*
X532820Y202800D02*
X536340D01*
X537140D02*
X538420D01*
X532820Y202720D02*
X536340D01*
X537140D02*
X538420D01*
X532820Y202640D02*
X536340D01*
X537140D02*
X538420D01*
X532820Y202560D02*
X536340D01*
X537140D02*
X538420D01*
X532820Y202480D02*
X536340D01*
X537140D02*
X538420D01*
X532820Y202400D02*
X536340D01*
X537140D02*
X538420D01*
X532820Y202320D02*
X536340D01*
X537140D02*
X538420D01*
X532820Y202240D02*
X536340D01*
X537140D02*
X538420D01*
X532820Y202160D02*
X536340D01*
X537140D02*
X538420D01*
X532820Y202080D02*
X536340D01*
X537140D02*
X538420D01*
X532820Y202000D02*
X536340D01*
X537140D02*
X538420D01*
X532820Y201920D02*
X536340D01*
X537140D02*
X538420D01*
X532820Y201840D02*
X536340D01*
X537140D02*
X538420D01*
X532820Y201760D02*
X536340D01*
X537140D02*
X538420D01*
X533940Y201680D02*
X535220D01*
X537140D02*
X538420D01*
X534020Y201600D02*
X535220D01*
X537140D02*
X538420D01*
X534020Y201520D02*
X535220D01*
X537140D02*
X538420D01*
X534020Y201440D02*
X535220D01*
X537140D02*
X538420D01*
X534020Y201360D02*
X535220D01*
X537140D02*
X538420D01*
X534020Y201280D02*
X535220D01*
X537140D02*
X538420D01*
X534020Y201200D02*
X535220D01*
X537140D02*
X538420D01*
X534020Y201120D02*
X535220D01*
X537140D02*
X538420D01*
X534020Y201040D02*
X535220D01*
X537140D02*
X538420D01*
X534020Y200960D02*
X535220D01*
X537140D02*
X538420D01*
X534020Y200880D02*
X535220D01*
X537140D02*
X538420D01*
X534020Y200800D02*
X535220D01*
X537140D02*
X538420D01*
X534020Y200720D02*
X535220D01*
X537140D02*
X538420D01*
X534020Y200640D02*
X535220D01*
X537140D02*
X538420D01*
X534020Y200560D02*
X535220D01*
X537140D02*
X538420D01*
X534020Y200480D02*
X535220D01*
X537140D02*
X538420D01*
X534020Y200400D02*
X535220D01*
X537140D02*
X538420D01*
X534020Y200320D02*
X535220D01*
X537140D02*
X538420D01*
X534020Y200240D02*
X535220D01*
X537140D02*
X538420D01*
X534020Y200160D02*
X535220D01*
X537140D02*
X538420D01*
X534020Y200080D02*
X535220D01*
X537140D02*
X538420D01*
X534020Y200000D02*
X535220D01*
X537140D02*
X538420D01*
X534020Y199920D02*
X535220D01*
X537140D02*
X538420D01*
X534020Y199840D02*
X535220D01*
X537140D02*
X538420D01*
X534020Y199760D02*
X535220D01*
X537140D02*
X538420D01*
X534020Y199680D02*
X535220D01*
X537140D02*
X538420D01*
X534020Y199600D02*
X535220D01*
X537140D02*
X538420D01*
X534020Y199520D02*
X535220D01*
X537140D02*
X538420D01*
X534020Y199440D02*
X535220D01*
X537140D02*
X538420D01*
X534020Y199360D02*
X535220D01*
X537140D02*
X538420D01*
X534020Y199280D02*
X535220D01*
X537140D02*
X538420D01*
X534020Y199200D02*
X535220D01*
X537140D02*
X538420D01*
X534020Y199120D02*
X535220D01*
X537140D02*
X538420D01*
X534020Y199040D02*
X535220D01*
X537140D02*
X538420D01*
X534020Y198960D02*
X535220D01*
X537140D02*
X538420D01*
X534020Y198880D02*
X535220D01*
X537140D02*
X538420D01*
X534020Y198800D02*
X535220D01*
X537140D02*
X538420D01*
X534020Y198720D02*
X535220D01*
X537140D02*
X538420D01*
X534020Y198640D02*
X535220D01*
X537140D02*
X538420D01*
X534020Y198560D02*
X535220D01*
X537140D02*
X538420D01*
X534020Y198480D02*
X535220D01*
X537140D02*
X538420D01*
X534020Y198400D02*
X535220D01*
X537140D02*
X538420D01*
X534020Y198320D02*
X535220D01*
X537140D02*
X538420D01*
X534020Y198240D02*
X535220D01*
X537140D02*
X538420D01*
X534020Y198160D02*
X535220D01*
X537140D02*
X538420D01*
X534020Y198080D02*
X535220D01*
X537140D02*
X538420D01*
X534020Y198000D02*
X535220D01*
X537140D02*
X538420D01*
X534020Y197920D02*
X535220D01*
X537140D02*
X538420D01*
X534020Y197840D02*
X535220D01*
X537140D02*
X538420D01*
X534020Y197760D02*
X535220D01*
X537140D02*
X538420D01*
X534020Y197680D02*
X535220D01*
X537140D02*
X538420D01*
X534020Y197600D02*
X535220D01*
X537140D02*
X538420D01*
X534020Y197520D02*
X535220D01*
X537140D02*
X538420D01*
X534020Y197440D02*
X535220D01*
X537140D02*
X538420D01*
X534020Y197360D02*
X535220D01*
X537140D02*
X538420D01*
X534020Y197280D02*
X535220D01*
X537140D02*
X538420D01*
X534020Y197200D02*
X535220D01*
X537140D02*
X538420D01*
X534020Y197120D02*
X535220D01*
X537140D02*
X538420D01*
X534020Y197040D02*
X535220D01*
X537140D02*
X538420D01*
X534020Y196960D02*
X535220D01*
X537140D02*
X538420D01*
X534020Y196880D02*
X535220D01*
X537140D02*
X538420D01*
X534020Y196800D02*
X535220D01*
X537140D02*
X538420D01*
X534020Y196720D02*
X535220D01*
X537140D02*
X538420D01*
X534020Y196640D02*
X535220D01*
X537140D02*
X538420D01*
X534020Y196560D02*
X535220D01*
X537140D02*
X538420D01*
X534020Y196480D02*
X535220D01*
X537140D02*
X538420D01*
X533380Y208720D02*
X534260D01*
X535780D02*
X536820D01*
X533380Y208640D02*
X534260D01*
X535780D02*
X536820D01*
X533380Y208560D02*
X534260D01*
X535780D02*
X536820D01*
X533380Y208480D02*
X534260D01*
X535700D02*
X536820D01*
X533300Y208400D02*
X534260D01*
X535700D02*
X536820D01*
X533300Y208320D02*
X534260D01*
X535700D02*
X536820D01*
X533300Y208240D02*
X534260D01*
X535700D02*
X536900D01*
X533300Y208160D02*
X534260D01*
X535700D02*
X536900D01*
X533300Y208080D02*
X534180D01*
X535620D02*
X536900D01*
X533300Y208000D02*
X534180D01*
X535620D02*
X536900D01*
X533300Y207920D02*
X534180D01*
X535620D02*
X536900D01*
X533300Y207840D02*
X534180D01*
X535620D02*
X536980D01*
X539140D02*
X540020D01*
X533300Y207760D02*
X534180D01*
X535620D02*
X536980D01*
X539140D02*
X540020D01*
X533300Y207680D02*
X534180D01*
X535620D02*
X536980D01*
X539140D02*
X540020D01*
X533220Y207600D02*
X534180D01*
X535540D02*
X536980D01*
X539140D02*
X540020D01*
X533220Y207520D02*
X534180D01*
X535540D02*
X536980D01*
X539140D02*
X540020D01*
X533220Y207440D02*
X534180D01*
X535540D02*
X537060D01*
X539140D02*
X540020D01*
X533220Y207360D02*
X534180D01*
X535540D02*
X537060D01*
X539140D02*
X540020D01*
X533220Y207280D02*
X534100D01*
X535540D02*
X537060D01*
X539140D02*
X540020D01*
X533220Y207200D02*
X534100D01*
X535460D02*
X537060D01*
X539140D02*
X540020D01*
X533220Y207120D02*
X534100D01*
X535460D02*
X537060D01*
X539140D02*
X540020D01*
X533220Y207040D02*
X534100D01*
X535460D02*
X537140D01*
X539140D02*
X540020D01*
X533220Y206960D02*
X534100D01*
X535460D02*
X537140D01*
X539140D02*
X540020D01*
X533220Y206880D02*
X534100D01*
X535460D02*
X537140D01*
X539140D02*
X540020D01*
X535380Y206800D02*
X537140D01*
X539140D02*
X540020D01*
X535380Y206720D02*
X537140D01*
X539140D02*
X540020D01*
X535380Y206640D02*
X537220D01*
X539140D02*
X540020D01*
X535380Y206560D02*
X537220D01*
X539140D02*
X540020D01*
X535380Y206480D02*
X537220D01*
X539140D02*
X540020D01*
X535300Y206400D02*
X536260D01*
X536340D02*
X537220D01*
X539140D02*
X540020D01*
X535300Y206320D02*
X536260D01*
X536340D02*
X537220D01*
X539140D02*
X540020D01*
X535300Y206240D02*
X536180D01*
X536340D02*
X537300D01*
X539140D02*
X540020D01*
X535300Y206160D02*
X536180D01*
X536340D02*
X537300D01*
X539140D02*
X540020D01*
X535300Y206080D02*
X536180D01*
X536340D02*
X537300D01*
X539140D02*
X540020D01*
X535220Y206000D02*
X536180D01*
X536420D02*
X537300D01*
X539140D02*
X540020D01*
X535220Y205920D02*
X536180D01*
X536420D02*
X537300D01*
X539140D02*
X540020D01*
X535220Y205840D02*
X536100D01*
X536420D02*
X537380D01*
X539140D02*
X540020D01*
X535220Y205760D02*
X536100D01*
X536420D02*
X537380D01*
X539140D02*
X540020D01*
X535220Y205680D02*
X536100D01*
X536420D02*
X537380D01*
X539140D02*
X540020D01*
X535140Y205600D02*
X536100D01*
X536500D02*
X537380D01*
X539140D02*
X540020D01*
X535140Y205520D02*
X536100D01*
X536500D02*
X537380D01*
X539140D02*
X540020D01*
X532580Y205440D02*
X533940D01*
X535140D02*
X536100D01*
X536500D02*
X537460D01*
X539140D02*
X540020D01*
X532580Y205360D02*
X533940D01*
X535140D02*
X536020D01*
X536500D02*
X537460D01*
X539140D02*
X540020D01*
X532580Y205280D02*
X533940D01*
X535140D02*
X537460D01*
X539140D02*
X540020D01*
X532580Y205200D02*
X533940D01*
X535060D02*
X537460D01*
X539140D02*
X540020D01*
X532660Y205120D02*
X533940D01*
X535060D02*
X537460D01*
X539140D02*
X540020D01*
X532660Y205040D02*
X533940D01*
X535060D02*
X537540D01*
X539140D02*
X540020D01*
X532660Y204960D02*
X533940D01*
X535060D02*
X537540D01*
X539140D02*
X540020D01*
X532660Y204880D02*
X533860D01*
X535060D02*
X537540D01*
X539140D02*
X540020D01*
X532740Y204800D02*
X533860D01*
X534980D02*
X537540D01*
X539140D02*
X540020D01*
X532740Y204720D02*
X533860D01*
X534980D02*
X537540D01*
X539140D02*
X540020D01*
X532740Y204640D02*
X533860D01*
X534980D02*
X537620D01*
X539140D02*
X540020D01*
X532820Y204560D02*
X533860D01*
X534980D02*
X537620D01*
X539140D02*
X540020D01*
X532820Y204480D02*
X533860D01*
X534980D02*
X537620D01*
X539140D02*
X540020D01*
X532820Y204400D02*
X533860D01*
X534900D02*
X535860D01*
X536660D02*
X537620D01*
X539140D02*
X540020D01*
X532820Y204320D02*
X533860D01*
X534900D02*
X535860D01*
X536740D02*
X537620D01*
X539140D02*
X540020D01*
X532900Y204240D02*
X533860D01*
X534900D02*
X535780D01*
X536740D02*
X537700D01*
X539140D02*
X540020D01*
X532900Y204160D02*
X533860D01*
X534900D02*
X535780D01*
X536740D02*
X537700D01*
X539140D02*
X540020D01*
X544900Y202880D02*
X546900D01*
X544820Y202800D02*
X546980D01*
X544740Y202720D02*
X547060D01*
X544660Y202640D02*
X547140D01*
X544580Y202560D02*
X547220D01*
X544500Y202480D02*
X547300D01*
X544420Y202400D02*
X547380D01*
X544340Y202320D02*
X547460D01*
X544260Y202240D02*
X547540D01*
X544180Y202160D02*
X547620D01*
X544100Y202080D02*
X547700D01*
X544020Y202000D02*
X547780D01*
X543940Y201920D02*
X547860D01*
X543940Y201840D02*
X547860D01*
X543940Y201760D02*
X547860D01*
X541540Y201680D02*
X543140D01*
X543940D02*
X545540D01*
X546260D02*
X547860D01*
X541620Y201600D02*
X543140D01*
X543940D02*
X545460D01*
X546340D02*
X547860D01*
X541700Y201520D02*
X543140D01*
X543940D02*
X545380D01*
X546420D02*
X547860D01*
X541780Y201440D02*
X543140D01*
X543940D02*
X545300D01*
X546500D02*
X547860D01*
X541860Y201360D02*
X543140D01*
X543940D02*
X545220D01*
X546580D02*
X547860D01*
X541940Y201280D02*
X543140D01*
X543940D02*
X545220D01*
X546580D02*
X547860D01*
X541940Y201200D02*
X543140D01*
X543940D02*
X545220D01*
X546580D02*
X547860D01*
X541940Y201120D02*
X543140D01*
X543940D02*
X545220D01*
X546580D02*
X547860D01*
X541940Y201040D02*
X543140D01*
X543940D02*
X545220D01*
X546580D02*
X547860D01*
X541940Y200960D02*
X543140D01*
X543940D02*
X545220D01*
X546580D02*
X547860D01*
X541940Y200880D02*
X543140D01*
X543940D02*
X545220D01*
X546580D02*
X547860D01*
X543940Y200800D02*
X545220D01*
X543940Y200720D02*
X545220D01*
X543940Y200640D02*
X545220D01*
X543940Y200560D02*
X545300D01*
X543940Y200480D02*
X545380D01*
X543940Y200400D02*
X545460D01*
X543940Y200320D02*
X545540D01*
X543940Y200240D02*
X546900D01*
X543940Y200160D02*
X546980D01*
X543940Y200080D02*
X547060D01*
X544020Y200000D02*
X547140D01*
X544100Y199920D02*
X547220D01*
X544180Y199840D02*
X547300D01*
X544260Y199760D02*
X547380D01*
X544340Y199680D02*
X547460D01*
X544420Y199600D02*
X547540D01*
X544500Y199520D02*
X547620D01*
X544580Y199440D02*
X547700D01*
X544660Y199360D02*
X547780D01*
X544740Y199280D02*
X547860D01*
X544820Y199200D02*
X547860D01*
X544900Y199120D02*
X547860D01*
X546260Y199040D02*
X547860D01*
X546340Y198960D02*
X547860D01*
X546420Y198880D02*
X547860D01*
X546500Y198800D02*
X547860D01*
X546580Y198720D02*
X547860D01*
X546580Y198640D02*
X547860D01*
X546580Y198560D02*
X547860D01*
X541940Y198480D02*
X543140D01*
X543940D02*
X545220D01*
X546580D02*
X547860D01*
X541940Y198400D02*
X543140D01*
X543940D02*
X545220D01*
X546580D02*
X547860D01*
X541940Y198320D02*
X543140D01*
X543940D02*
X545220D01*
X546580D02*
X547860D01*
X541940Y198240D02*
X543140D01*
X543940D02*
X545220D01*
X546580D02*
X547860D01*
X541940Y198160D02*
X543140D01*
X543940D02*
X545220D01*
X546580D02*
X547860D01*
X541940Y198080D02*
X543140D01*
X543940D02*
X545220D01*
X546580D02*
X547860D01*
X541860Y198000D02*
X543140D01*
X543940D02*
X545220D01*
X546580D02*
X547860D01*
X541780Y197920D02*
X543140D01*
X543940D02*
X545300D01*
X546500D02*
X547860D01*
X541700Y197840D02*
X543140D01*
X543940D02*
X545380D01*
X546420D02*
X547860D01*
X541620Y197760D02*
X543140D01*
X543940D02*
X545460D01*
X546340D02*
X547860D01*
X541540Y197680D02*
X543140D01*
X543940D02*
X545540D01*
X546260D02*
X547860D01*
X543940Y197600D02*
X547860D01*
X543940Y197520D02*
X547860D01*
X543940Y197440D02*
X547860D01*
X544020Y197360D02*
X547780D01*
X544100Y197280D02*
X547700D01*
X544180Y197200D02*
X547620D01*
X544260Y197120D02*
X547540D01*
X544340Y197040D02*
X547460D01*
X544420Y196960D02*
X547380D01*
X544500Y196880D02*
X547300D01*
X544580Y196800D02*
X547220D01*
X544660Y196720D02*
X547140D01*
X544740Y196640D02*
X547060D01*
X544820Y196560D02*
X546980D01*
X544900Y196480D02*
X546900D01*
X541460Y208720D02*
X544260D01*
X544820D02*
X546980D01*
X541460Y208640D02*
X544260D01*
X544820D02*
X547060D01*
X541460Y208560D02*
X544260D01*
X544820D02*
X547140D01*
X541460Y208480D02*
X544260D01*
X544820D02*
X547220D01*
X541460Y208400D02*
X544260D01*
X544820D02*
X547300D01*
X541460Y208320D02*
X544260D01*
X544820D02*
X547380D01*
X541460Y208240D02*
X544260D01*
X544820D02*
X547460D01*
X541460Y208160D02*
X544260D01*
X544820D02*
X547540D01*
X541460Y208080D02*
X544260D01*
X544820D02*
X547620D01*
X541460Y208000D02*
X544260D01*
X544820D02*
X547620D01*
X541460Y207920D02*
X544260D01*
X544820D02*
X547620D01*
X541460Y207840D02*
X542340D01*
X544820D02*
X545700D01*
X546580D02*
X547620D01*
X541460Y207760D02*
X542340D01*
X544820D02*
X545700D01*
X546660D02*
X547620D01*
X541460Y207680D02*
X542340D01*
X544820D02*
X545700D01*
X546740D02*
X547620D01*
X541460Y207600D02*
X542340D01*
X544820D02*
X545700D01*
X546740D02*
X547620D01*
X541460Y207520D02*
X542340D01*
X544820D02*
X545700D01*
X546740D02*
X547620D01*
X541460Y207440D02*
X542340D01*
X544820D02*
X545700D01*
X546740D02*
X547620D01*
X541460Y207360D02*
X542340D01*
X544820D02*
X545700D01*
X546740D02*
X547620D01*
X541460Y207280D02*
X542340D01*
X544820D02*
X545700D01*
X546740D02*
X547620D01*
X541460Y207200D02*
X542340D01*
X544820D02*
X545700D01*
X546740D02*
X547620D01*
X541460Y207120D02*
X542340D01*
X544820D02*
X545700D01*
X546740D02*
X547620D01*
X541460Y207040D02*
X542340D01*
X544820D02*
X545700D01*
X546660D02*
X547620D01*
X541460Y206960D02*
X542340D01*
X544820D02*
X545700D01*
X546580D02*
X547620D01*
X541460Y206880D02*
X543220D01*
X544820D02*
X547620D01*
X541460Y206800D02*
X543220D01*
X544820D02*
X547620D01*
X541460Y206720D02*
X543220D01*
X544820D02*
X547620D01*
X541460Y206640D02*
X543220D01*
X544820D02*
X547540D01*
X541460Y206560D02*
X543220D01*
X544820D02*
X547460D01*
X541460Y206480D02*
X543220D01*
X544820D02*
X547380D01*
X541460Y206400D02*
X543220D01*
X544820D02*
X547300D01*
X541460Y206320D02*
X543220D01*
X544820D02*
X547220D01*
X541460Y206240D02*
X543220D01*
X544820D02*
X547140D01*
X541460Y206160D02*
X543220D01*
X544820D02*
X547060D01*
X541460Y206080D02*
X543220D01*
X544820D02*
X546980D01*
X541460Y206000D02*
X543220D01*
X544820D02*
X547060D01*
X541460Y205920D02*
X542340D01*
X544820D02*
X545700D01*
X546100D02*
X547060D01*
X541460Y205840D02*
X542340D01*
X544820D02*
X545700D01*
X546100D02*
X547060D01*
X541460Y205760D02*
X542340D01*
X544820D02*
X545700D01*
X546180D02*
X547140D01*
X541460Y205680D02*
X542340D01*
X544820D02*
X545700D01*
X546180D02*
X547140D01*
X541460Y205600D02*
X542340D01*
X544820D02*
X545700D01*
X546180D02*
X547140D01*
X541460Y205520D02*
X542340D01*
X544820D02*
X545700D01*
X546260D02*
X547140D01*
X541460Y205440D02*
X542340D01*
X544820D02*
X545700D01*
X546260D02*
X547220D01*
X541460Y205360D02*
X542340D01*
X544820D02*
X545700D01*
X546260D02*
X547220D01*
X541460Y205280D02*
X542340D01*
X544820D02*
X545700D01*
X546260D02*
X547220D01*
X541460Y205200D02*
X542340D01*
X544820D02*
X545700D01*
X546340D02*
X547220D01*
X541460Y205120D02*
X542340D01*
X544820D02*
X545700D01*
X546340D02*
X547300D01*
X541460Y205040D02*
X542340D01*
X544820D02*
X545700D01*
X546340D02*
X547300D01*
X541460Y204960D02*
X544260D01*
X544820D02*
X545700D01*
X546420D02*
X547300D01*
X541460Y204880D02*
X544260D01*
X544820D02*
X545700D01*
X546420D02*
X547380D01*
X541460Y204800D02*
X544260D01*
X544820D02*
X545700D01*
X546420D02*
X547380D01*
X541460Y204720D02*
X544260D01*
X544820D02*
X545700D01*
X546420D02*
X547380D01*
X541460Y204640D02*
X544260D01*
X544820D02*
X545700D01*
X546500D02*
X547380D01*
X541460Y204560D02*
X544260D01*
X544820D02*
X545700D01*
X546500D02*
X547460D01*
X541460Y204480D02*
X544260D01*
X544820D02*
X545700D01*
X546500D02*
X547460D01*
X541460Y204400D02*
X544260D01*
X544820D02*
X545700D01*
X546500D02*
X547460D01*
X541460Y204320D02*
X544260D01*
X544820D02*
X545700D01*
X546580D02*
X547540D01*
X541460Y204240D02*
X544260D01*
X544820D02*
X545700D01*
X546580D02*
X547540D01*
X541460Y204160D02*
X544260D01*
X544820D02*
X545700D01*
X546580D02*
X547540D01*
X485140Y212000D02*
X485460D01*
X486020D02*
X490500D01*
X485620Y204000D02*
X486100D01*
X486500D02*
X491220D01*
X485140Y220000D02*
X490500D01*
X496980Y203920D02*
X502580D01*
X496980Y203840D02*
X502580D01*
X496980Y203760D02*
X502580D01*
X496900Y203680D02*
X502500D01*
X496900Y203600D02*
X502500D01*
X496820Y203520D02*
X502500D01*
X496820Y203440D02*
X502420D01*
X496740Y203360D02*
X502420D01*
X496660Y203280D02*
X502420D01*
X496660Y203200D02*
X502420D01*
X496580Y203120D02*
X502340D01*
X496500Y203040D02*
X502340D01*
X496500Y202960D02*
X502260D01*
X496420Y202880D02*
X502260D01*
X496340Y202800D02*
X502260D01*
X496260Y202720D02*
X502180D01*
X496180Y202640D02*
X502180D01*
X496100Y202560D02*
X502180D01*
X496020Y202480D02*
X502100D01*
X495860Y202400D02*
X502100D01*
X487620Y202320D02*
X492500D01*
X495780D02*
X502020D01*
X487700Y202240D02*
X492660D01*
X495620D02*
X502020D01*
X487780Y202160D02*
X492820D01*
X495460D02*
X502020D01*
X487860Y202080D02*
X493060D01*
X495220D02*
X501940D01*
X487940Y202000D02*
X493380D01*
X494900D02*
X501940D01*
X487940Y201920D02*
X501860D01*
X488020Y201840D02*
X501860D01*
X488100Y201760D02*
X501780D01*
X488180Y201680D02*
X501780D01*
X488180Y201600D02*
X501700D01*
X488180Y201520D02*
X501700D01*
X488180Y201440D02*
X501620D01*
X488180Y201360D02*
X501620D01*
X488180Y201280D02*
X501540D01*
X488100Y201200D02*
X501540D01*
X488020Y201120D02*
X501460D01*
X487860Y201040D02*
X501460D01*
X489860Y200960D02*
X501380D01*
X490020Y200880D02*
X501380D01*
X490100Y200800D02*
X501300D01*
X490100Y200720D02*
X501300D01*
X490180Y200640D02*
X501220D01*
X490260Y200560D02*
X501140D01*
X490260Y200480D02*
X501140D01*
X490260Y200400D02*
X501060D01*
X490260Y200320D02*
X501060D01*
X490180Y200240D02*
X500980D01*
X490100Y200160D02*
X500900D01*
X489940Y200080D02*
X500900D01*
X489300Y200000D02*
X500820D01*
X489220Y199920D02*
X500740D01*
X489060Y199840D02*
X500740D01*
X488980Y199760D02*
X500660D01*
X488820Y199680D02*
X500580D01*
X488740Y199600D02*
X500500D01*
X488660Y199520D02*
X500500D01*
X488500Y199440D02*
X500420D01*
X488420Y199360D02*
X500340D01*
X488260Y199280D02*
X500260D01*
X488180Y199200D02*
X500260D01*
X488100Y199120D02*
X500180D01*
X488180Y199040D02*
X500100D01*
X488180Y198960D02*
X500020D01*
X488260Y198880D02*
X499940D01*
X488340Y198800D02*
X499860D01*
X488420Y198720D02*
X499780D01*
X488500Y198640D02*
X499700D01*
X488580Y198560D02*
X499620D01*
X488660Y198480D02*
X499540D01*
X488740Y198400D02*
X499460D01*
X488900Y198320D02*
X499380D01*
X488980Y198240D02*
X499300D01*
X489060Y198160D02*
X499220D01*
X489140Y198080D02*
X499140D01*
X489300Y198000D02*
X498980D01*
X489380Y197920D02*
X498900D01*
X489540Y197840D02*
X498820D01*
X489620Y197760D02*
X498660D01*
X489780Y197680D02*
X498500D01*
X489940Y197600D02*
X498420D01*
X490020Y197520D02*
X498260D01*
X490180Y197440D02*
X498100D01*
X490340Y197360D02*
X497940D01*
X490500Y197280D02*
X497780D01*
X490660Y197200D02*
X497620D01*
X490900Y197120D02*
X497460D01*
X491060Y197040D02*
X497220D01*
X491300Y196960D02*
X496980D01*
X491540Y196880D02*
X496740D01*
X491860Y196800D02*
X496500D01*
X492180Y196720D02*
X496180D01*
X497700Y211920D02*
X503140D01*
X497700Y211840D02*
X503140D01*
X497700Y211760D02*
X503140D01*
X497700Y211680D02*
X503140D01*
X497700Y211600D02*
X503140D01*
X497700Y211520D02*
X503140D01*
X497700Y211440D02*
X503140D01*
X497700Y211360D02*
X503140D01*
X497700Y211280D02*
X503140D01*
X497700Y211200D02*
X503140D01*
X497620Y206640D02*
X503060D01*
X497540Y206560D02*
X503060D01*
X497540Y206480D02*
X503060D01*
X497540Y206400D02*
X503060D01*
X497540Y206320D02*
X503060D01*
X497540Y206240D02*
X502980D01*
X497540Y206160D02*
X502980D01*
X497540Y206080D02*
X502980D01*
X497540Y206000D02*
X502980D01*
X497540Y205920D02*
X502980D01*
X497540Y205840D02*
X502980D01*
X497460Y205760D02*
X502980D01*
X497460Y205680D02*
X502980D01*
X497460Y205600D02*
X502980D01*
X497460Y205520D02*
X502900D01*
X497460Y205440D02*
X502900D01*
X497460Y205360D02*
X502900D01*
X497380Y205280D02*
X502900D01*
X497380Y205200D02*
X502900D01*
X497380Y205120D02*
X502900D01*
X497380Y205040D02*
X502820D01*
X497300Y204960D02*
X502820D01*
X497300Y204880D02*
X502820D01*
X497300Y204800D02*
X502820D01*
X497300Y204720D02*
X502820D01*
X497220Y204640D02*
X502740D01*
X497220Y204560D02*
X502740D01*
X497220Y204480D02*
X502740D01*
X497220Y204400D02*
X502740D01*
X497140Y204320D02*
X502660D01*
X497140Y204240D02*
X502660D01*
X497140Y204160D02*
X502660D01*
X497060Y204080D02*
X502660D01*
X497700Y217360D02*
X503140D01*
X497700Y217280D02*
X503140D01*
X497700Y217200D02*
X503140D01*
X497700Y217120D02*
X503140D01*
X497700Y217040D02*
X503140D01*
X497700Y216960D02*
X503140D01*
X497700Y216880D02*
X503140D01*
X497700Y216800D02*
X503140D01*
X497700Y216720D02*
X503140D01*
X497700Y216640D02*
X503140D01*
X497700Y216560D02*
X503140D01*
X497700Y216480D02*
X503140D01*
X497700Y216400D02*
X503140D01*
X497700Y216320D02*
X503140D01*
X497700Y216240D02*
X503140D01*
X497700Y216160D02*
X503140D01*
X497700Y216080D02*
X503140D01*
X497700Y216000D02*
X503140D01*
X497700Y215920D02*
X503140D01*
X497700Y215840D02*
X503140D01*
X497700Y215760D02*
X503140D01*
X497700Y215680D02*
X503140D01*
X497700Y215600D02*
X503140D01*
X497700Y215520D02*
X503140D01*
X497700Y215440D02*
X503140D01*
X497700Y215360D02*
X503140D01*
X497700Y215280D02*
X503140D01*
X497700Y215200D02*
X503140D01*
X497700Y215120D02*
X503140D01*
X497700Y215040D02*
X503140D01*
X497700Y214960D02*
X503140D01*
X497700Y214880D02*
X503140D01*
X497700Y214800D02*
X503140D01*
X497700Y214720D02*
X503140D01*
X497700Y214640D02*
X503140D01*
X497700Y214560D02*
X503140D01*
X497700Y214480D02*
X503140D01*
X497700Y214400D02*
X503140D01*
X497700Y214320D02*
X503140D01*
X497700Y214240D02*
X503140D01*
X497700Y214160D02*
X503140D01*
X497700Y214080D02*
X503140D01*
X497700Y214000D02*
X503140D01*
X497700Y213920D02*
X503140D01*
X497700Y213840D02*
X503140D01*
X497700Y213760D02*
X503140D01*
X497700Y213680D02*
X503140D01*
X497700Y213600D02*
X503140D01*
X497700Y213520D02*
X503140D01*
X497700Y213440D02*
X503140D01*
X497700Y213360D02*
X503140D01*
X497700Y213280D02*
X503140D01*
X497700Y213200D02*
X503140D01*
X497700Y213120D02*
X503140D01*
X497700Y213040D02*
X503140D01*
X497700Y212960D02*
X503140D01*
X497700Y212880D02*
X503140D01*
X497700Y212800D02*
X503140D01*
X497700Y212720D02*
X503140D01*
X497700Y212640D02*
X503140D01*
X497700Y212560D02*
X503140D01*
X497700Y212480D02*
X503140D01*
X497700Y212400D02*
X503140D01*
X497700Y212320D02*
X503140D01*
X497700Y212240D02*
X503140D01*
X497700Y212160D02*
X503140D01*
X497700Y212080D02*
X503140D01*
X504660Y203920D02*
X510100D01*
X504740Y203840D02*
X510100D01*
X504740Y203760D02*
X510180D01*
X504820Y203680D02*
X510180D01*
X504900Y203600D02*
X510260D01*
X504900Y203520D02*
X510340D01*
X504980Y203440D02*
X510340D01*
X504980Y203360D02*
X510420D01*
X505060Y203280D02*
X510420D01*
X505140Y203200D02*
X510500D01*
X505140Y203120D02*
X510580D01*
X505220Y203040D02*
X510580D01*
X505220Y202960D02*
X510660D01*
X505300Y202880D02*
X510660D01*
X514020D02*
X516980D01*
X523460D02*
X526340D01*
X505300Y202800D02*
X510740D01*
X514020D02*
X517060D01*
X523460D02*
X526420D01*
X505380Y202720D02*
X510820D01*
X514020D02*
X517140D01*
X523460D02*
X526500D01*
X505460Y202640D02*
X510820D01*
X514020D02*
X517220D01*
X523460D02*
X526580D01*
X505460Y202560D02*
X510900D01*
X514020D02*
X517300D01*
X523460D02*
X526660D01*
X505540Y202480D02*
X510980D01*
X514020D02*
X517380D01*
X523460D02*
X526740D01*
X505540Y202400D02*
X510980D01*
X514020D02*
X517460D01*
X523460D02*
X526820D01*
X505620Y202320D02*
X511060D01*
X514020D02*
X517540D01*
X523460D02*
X526900D01*
X505700Y202240D02*
X511060D01*
X514020D02*
X517620D01*
X523460D02*
X526980D01*
X505700Y202160D02*
X511140D01*
X514020D02*
X517700D01*
X523460D02*
X527060D01*
X505780Y202080D02*
X511220D01*
X514020D02*
X517780D01*
X523460D02*
X527140D01*
X505780Y202000D02*
X511220D01*
X514020D02*
X517860D01*
X523460D02*
X527220D01*
X505860Y201920D02*
X511300D01*
X514020D02*
X517940D01*
X523460D02*
X527300D01*
X505860Y201840D02*
X511300D01*
X514020D02*
X517940D01*
X523460D02*
X527380D01*
X505940Y201760D02*
X511380D01*
X514020D02*
X517940D01*
X523460D02*
X527380D01*
X506020Y201680D02*
X511460D01*
X516340D02*
X517940D01*
X523460D02*
X524740D01*
X506020Y201600D02*
X511460D01*
X516420D02*
X517940D01*
X523460D02*
X524660D01*
X506100Y201520D02*
X511540D01*
X516500D02*
X517940D01*
X523460D02*
X524660D01*
X506100Y201440D02*
X511620D01*
X523460D02*
X524660D01*
X506180Y201360D02*
X511620D01*
X523460D02*
X524660D01*
X506260Y201280D02*
X511700D01*
X523460D02*
X524660D01*
X506260Y201200D02*
X511700D01*
X523460D02*
X524660D01*
X506340Y201120D02*
X511780D01*
X523460D02*
X524660D01*
X506340Y201040D02*
X511860D01*
X523460D02*
X524660D01*
X506420Y200960D02*
X511860D01*
X523460D02*
X524660D01*
X506500Y200880D02*
X511940D01*
X523460D02*
X524660D01*
X506500Y200800D02*
X511940D01*
X523460D02*
X524660D01*
X506580Y200720D02*
X512020D01*
X523460D02*
X524660D01*
X506580Y200640D02*
X512100D01*
X523460D02*
X524660D01*
X506660Y200560D02*
X512100D01*
X523460D02*
X524660D01*
X506740Y200480D02*
X512180D01*
X516500D02*
X517940D01*
X523460D02*
X524660D01*
X506740Y200400D02*
X512260D01*
X516420D02*
X517940D01*
X523460D02*
X524660D01*
X506820Y200320D02*
X512260D01*
X516340D02*
X517940D01*
X523460D02*
X524740D01*
X506820Y200240D02*
X512340D01*
X514020D02*
X517940D01*
X523460D02*
X527380D01*
X506900Y200160D02*
X512340D01*
X514020D02*
X517940D01*
X523460D02*
X527380D01*
X514020Y200080D02*
X517940D01*
X523460D02*
X527300D01*
X514020Y200000D02*
X517860D01*
X523460D02*
X527300D01*
X514020Y199920D02*
X517780D01*
X523460D02*
X527220D01*
X514020Y199840D02*
X517700D01*
X523460D02*
X527140D01*
X514020Y199760D02*
X517620D01*
X523460D02*
X527060D01*
X514020Y199680D02*
X517540D01*
X523460D02*
X526980D01*
X514020Y199600D02*
X517460D01*
X523460D02*
X526980D01*
X514020Y199520D02*
X517380D01*
X523460D02*
X527060D01*
X508020Y199440D02*
X508500D01*
X514020D02*
X517300D01*
X523460D02*
X527140D01*
X508020Y199360D02*
X508500D01*
X514020D02*
X517220D01*
X523460D02*
X527220D01*
X508020Y199280D02*
X508500D01*
X514020D02*
X517140D01*
X523460D02*
X527300D01*
X508020Y199200D02*
X508500D01*
X514020D02*
X517060D01*
X523460D02*
X527380D01*
X508020Y199120D02*
X508500D01*
X514020D02*
X517060D01*
X523460D02*
X527380D01*
X508020Y199040D02*
X508500D01*
X515780D02*
X517060D01*
X523460D02*
X524740D01*
X508020Y198960D02*
X508500D01*
X515860D02*
X517140D01*
X523460D02*
X524660D01*
X508020Y198880D02*
X508500D01*
X515860D02*
X517140D01*
X523460D02*
X524660D01*
X508020Y198800D02*
X508500D01*
X515860D02*
X517140D01*
X523460D02*
X524660D01*
X508020Y198720D02*
X508500D01*
X515860D02*
X517220D01*
X523460D02*
X524660D01*
X508020Y198640D02*
X508500D01*
X515940D02*
X517220D01*
X523460D02*
X524660D01*
X508020Y198560D02*
X508500D01*
X515940D02*
X517220D01*
X523460D02*
X524660D01*
X508020Y198480D02*
X508500D01*
X515940D02*
X517220D01*
X523460D02*
X524660D01*
X508020Y198400D02*
X508500D01*
X515940D02*
X517300D01*
X523460D02*
X524660D01*
X508020Y198320D02*
X508500D01*
X516020D02*
X517300D01*
X523460D02*
X524660D01*
X508020Y198240D02*
X508500D01*
X516020D02*
X517300D01*
X523460D02*
X524660D01*
X508020Y198160D02*
X508500D01*
X516020D02*
X517300D01*
X523460D02*
X524660D01*
X508020Y198080D02*
X508500D01*
X516100D02*
X517380D01*
X523460D02*
X524660D01*
X508020Y198000D02*
X508500D01*
X516100D02*
X517380D01*
X523460D02*
X524660D01*
X508020Y197920D02*
X508500D01*
X516100D02*
X517380D01*
X523460D02*
X524660D01*
X508020Y197840D02*
X508500D01*
X516100D02*
X517460D01*
X523460D02*
X524660D01*
X508020Y197760D02*
X508500D01*
X516180D02*
X517460D01*
X523460D02*
X524660D01*
X508020Y197680D02*
X508500D01*
X516180D02*
X517460D01*
X523460D02*
X524740D01*
X508020Y197600D02*
X508500D01*
X516180D02*
X517460D01*
X523460D02*
X527380D01*
X508020Y197520D02*
X508500D01*
X516260D02*
X517540D01*
X523460D02*
X527380D01*
X508020Y197440D02*
X508500D01*
X516260D02*
X517540D01*
X523460D02*
X527300D01*
X508020Y197360D02*
X508500D01*
X516260D02*
X517540D01*
X523460D02*
X527220D01*
X508020Y197280D02*
X508500D01*
X516260D02*
X517540D01*
X523460D02*
X527140D01*
X508020Y197200D02*
X508500D01*
X516340D02*
X517620D01*
X523460D02*
X527060D01*
X508020Y197120D02*
X508500D01*
X516340D02*
X517620D01*
X523460D02*
X526980D01*
X507940Y197040D02*
X508500D01*
X516340D02*
X517620D01*
X523460D02*
X526900D01*
X507940Y196960D02*
X508500D01*
X516340D02*
X517700D01*
X523460D02*
X526820D01*
X507060Y196880D02*
X508500D01*
X516420D02*
X517700D01*
X523460D02*
X526740D01*
X507140Y196800D02*
X508500D01*
X516420D02*
X517700D01*
X523460D02*
X526660D01*
X516420Y196720D02*
X517780D01*
X523460D02*
X526580D01*
X516500Y196640D02*
X517780D01*
X523460D02*
X526500D01*
X516500Y196560D02*
X517780D01*
X523460D02*
X526420D01*
X516500Y196480D02*
X517780D01*
X523460D02*
X526340D01*
X506820Y211920D02*
X512100D01*
X506740Y211840D02*
X512180D01*
X506660Y211760D02*
X512340D01*
X506580Y211680D02*
X512420D01*
X506500Y211600D02*
X512500D01*
X506420Y211520D02*
X512660D01*
X506340Y211440D02*
X512740D01*
X506180Y211360D02*
X512900D01*
X506020Y211280D02*
X512980D01*
X505780Y211200D02*
X513060D01*
X515620Y208720D02*
X516500D01*
X523860D02*
X526660D01*
X532340D02*
X532660D01*
X515620Y208640D02*
X516500D01*
X523860D02*
X526660D01*
X532340D02*
X532660D01*
X515620Y208560D02*
X516500D01*
X523860D02*
X526660D01*
X532260D02*
X532660D01*
X515620Y208480D02*
X516500D01*
X523860D02*
X526660D01*
X532260D02*
X532660D01*
X515620Y208400D02*
X516500D01*
X523860D02*
X526660D01*
X532260D02*
X532740D01*
X515620Y208320D02*
X516500D01*
X523860D02*
X526660D01*
X532260D02*
X532740D01*
X515620Y208240D02*
X516500D01*
X523860D02*
X526660D01*
X532180D02*
X532740D01*
X515620Y208160D02*
X516500D01*
X523860D02*
X526660D01*
X532180D02*
X532740D01*
X515620Y208080D02*
X516500D01*
X523860D02*
X526660D01*
X532180D02*
X532820D01*
X515620Y208000D02*
X516500D01*
X523860D02*
X526660D01*
X532100D02*
X532820D01*
X515620Y207920D02*
X516500D01*
X523860D02*
X526660D01*
X532100D02*
X532820D01*
X515620Y207840D02*
X516500D01*
X523860D02*
X524740D01*
X532100D02*
X532820D01*
X515620Y207760D02*
X516500D01*
X523860D02*
X524740D01*
X532100D02*
X532900D01*
X515620Y207680D02*
X516500D01*
X523860D02*
X524740D01*
X532020D02*
X532900D01*
X515620Y207600D02*
X516500D01*
X523860D02*
X524740D01*
X532020D02*
X532900D01*
X515620Y207520D02*
X516500D01*
X523860D02*
X524740D01*
X532020D02*
X532980D01*
X515620Y207440D02*
X516500D01*
X523860D02*
X524740D01*
X532020D02*
X532980D01*
X515620Y207360D02*
X516500D01*
X523860D02*
X524740D01*
X531940D02*
X532980D01*
X515620Y207280D02*
X516500D01*
X523860D02*
X524740D01*
X531940D02*
X532980D01*
X515620Y207200D02*
X516500D01*
X523860D02*
X524740D01*
X531940D02*
X533060D01*
X515620Y207120D02*
X516500D01*
X523860D02*
X524740D01*
X531940D02*
X533060D01*
X515620Y207040D02*
X516500D01*
X523860D02*
X524740D01*
X531860D02*
X533060D01*
X515620Y206960D02*
X516500D01*
X523860D02*
X524740D01*
X531860D02*
X533060D01*
X515620Y206880D02*
X516500D01*
X523860D02*
X525620D01*
X531860D02*
X533140D01*
X515620Y206800D02*
X516500D01*
X523860D02*
X525700D01*
X531860D02*
X534100D01*
X515620Y206720D02*
X516500D01*
X523860D02*
X525620D01*
X530900D02*
X534100D01*
X515620Y206640D02*
X516500D01*
X523860D02*
X525620D01*
X530900D02*
X534100D01*
X515620Y206560D02*
X516500D01*
X523860D02*
X525620D01*
X530900D02*
X534100D01*
X515620Y206480D02*
X516500D01*
X523860D02*
X525620D01*
X530900D02*
X534020D01*
X515620Y206400D02*
X516500D01*
X523860D02*
X525620D01*
X530900D02*
X534020D01*
X515620Y206320D02*
X516500D01*
X523860D02*
X525620D01*
X530900D02*
X534020D01*
X515620Y206240D02*
X516500D01*
X523860D02*
X525620D01*
X530900D02*
X534020D01*
X515620Y206160D02*
X516500D01*
X523860D02*
X525620D01*
X530900D02*
X534020D01*
X515620Y206080D02*
X516500D01*
X523860D02*
X525700D01*
X530980D02*
X534020D01*
X515620Y206000D02*
X516500D01*
X523860D02*
X525620D01*
X530980D02*
X534020D01*
X515620Y205920D02*
X516500D01*
X523860D02*
X524740D01*
X530980D02*
X534020D01*
X515620Y205840D02*
X516500D01*
X523860D02*
X524740D01*
X530980D02*
X534020D01*
X515620Y205760D02*
X516500D01*
X523860D02*
X524740D01*
X530980D02*
X534020D01*
X515620Y205680D02*
X516500D01*
X523860D02*
X524740D01*
X530980D02*
X533940D01*
X515620Y205600D02*
X516500D01*
X523860D02*
X524740D01*
X532500D02*
X533940D01*
X515620Y205520D02*
X516500D01*
X523860D02*
X524740D01*
X532500D02*
X533940D01*
X515620Y205440D02*
X516500D01*
X523860D02*
X524740D01*
X515620Y205360D02*
X516500D01*
X523860D02*
X524740D01*
X515620Y205280D02*
X516500D01*
X523860D02*
X524740D01*
X515540Y205200D02*
X516500D01*
X523860D02*
X524740D01*
X515460Y205120D02*
X516500D01*
X523860D02*
X524740D01*
X515380Y205040D02*
X516500D01*
X523860D02*
X524740D01*
X513700Y204960D02*
X516500D01*
X523860D02*
X526660D01*
X513700Y204880D02*
X516500D01*
X523860D02*
X526660D01*
X513700Y204800D02*
X516500D01*
X523860D02*
X526660D01*
X523860Y204720D02*
X526660D01*
X523860Y204640D02*
X526660D01*
X523860Y204560D02*
X526660D01*
X523860Y204480D02*
X526660D01*
X523860Y204400D02*
X526660D01*
X523860Y204320D02*
X526660D01*
X523860Y204240D02*
X526660D01*
X504580Y204160D02*
X509940D01*
X523860D02*
X526660D01*
X504580Y204080D02*
X509940D01*
X505700Y217360D02*
X513460D01*
X505940Y217280D02*
X513380D01*
X506100Y217200D02*
X513380D01*
X506260Y217120D02*
X513300D01*
X506340Y217040D02*
X513220D01*
X506420Y216960D02*
X513140D01*
X506580Y216880D02*
X513060D01*
X506660Y216800D02*
X512900D01*
X506660Y216720D02*
X512820D01*
X506740Y216640D02*
X512740D01*
X506820Y216560D02*
X512580D01*
X506900Y216480D02*
X512500D01*
X506900Y216400D02*
X512420D01*
X506980Y216320D02*
X512340D01*
X507060Y216240D02*
X512180D01*
X507060Y216160D02*
X512180D01*
X507140Y216080D02*
X512180D01*
X507140Y216000D02*
X512180D01*
X507140Y215920D02*
X512180D01*
X507220Y215840D02*
X512260D01*
X507220Y215760D02*
X512260D01*
X507220Y215680D02*
X512260D01*
X507220Y215600D02*
X512260D01*
X507300Y215520D02*
X512260D01*
X507300Y215440D02*
X512260D01*
X507300Y215360D02*
X512340D01*
X507300Y215280D02*
X512420D01*
X507300Y215200D02*
X512740D01*
X507300Y215120D02*
X513060D01*
X507380Y215040D02*
X513300D01*
X507380Y214960D02*
X513540D01*
X507380Y214880D02*
X513700D01*
X507380Y214800D02*
X513780D01*
X507380Y214720D02*
X513780D01*
X507380Y214640D02*
X513780D01*
X507380Y214560D02*
X513780D01*
X507460Y214480D02*
X513780D01*
X507460Y214400D02*
X513780D01*
X507460Y214320D02*
X513780D01*
X507380Y214240D02*
X513780D01*
X507460Y214160D02*
X513780D01*
X507460Y214080D02*
X513780D01*
X507460Y214000D02*
X513780D01*
X507380Y213920D02*
X513780D01*
X507460Y213840D02*
X513780D01*
X507460Y213760D02*
X513780D01*
X507460Y213680D02*
X513780D01*
X507380Y213600D02*
X513780D01*
X507380Y213520D02*
X513780D01*
X507380Y213440D02*
X513780D01*
X507380Y213360D02*
X513780D01*
X507380Y213280D02*
X513780D01*
X507380Y213200D02*
X513780D01*
X507380Y213120D02*
X513700D01*
X507300Y213040D02*
X513620D01*
X507300Y212960D02*
X513460D01*
X507300Y212880D02*
X513140D01*
X507220Y212800D02*
X512820D01*
X507220Y212720D02*
X512500D01*
X507220Y212640D02*
X512260D01*
X507140Y212560D02*
X512260D01*
X507140Y212480D02*
X512260D01*
X507140Y212400D02*
X512260D01*
X507060Y212320D02*
X512180D01*
X507060Y212240D02*
X512180D01*
X506980Y212160D02*
X512180D01*
X506980Y212080D02*
X512180D01*
X508500Y221200D02*
X511060D01*
X540180Y202880D02*
X542180D01*
X540100Y202800D02*
X542260D01*
X540020Y202720D02*
X542340D01*
X539940Y202640D02*
X542420D01*
X539860Y202560D02*
X542500D01*
X539780Y202480D02*
X542580D01*
X539700Y202400D02*
X542660D01*
X539620Y202320D02*
X542740D01*
X539540Y202240D02*
X542820D01*
X539460Y202160D02*
X542900D01*
X539380Y202080D02*
X542980D01*
X539300Y202000D02*
X543060D01*
X539220Y201920D02*
X543140D01*
X539220Y201840D02*
X543140D01*
X539220Y201760D02*
X543140D01*
X539220Y201680D02*
X540820D01*
X539220Y201600D02*
X540740D01*
X539220Y201520D02*
X540660D01*
X539220Y201440D02*
X540580D01*
X539220Y201360D02*
X540500D01*
X539220Y201280D02*
X540500D01*
X539220Y201200D02*
X540500D01*
X539220Y201120D02*
X540500D01*
X539220Y201040D02*
X540500D01*
X539220Y200960D02*
X540500D01*
X539220Y200880D02*
X540500D01*
X539220Y200800D02*
X540500D01*
X539220Y200720D02*
X540500D01*
X539220Y200640D02*
X540500D01*
X539220Y200560D02*
X540500D01*
X539220Y200480D02*
X540500D01*
X539220Y200400D02*
X540500D01*
X539220Y200320D02*
X540500D01*
X539220Y200240D02*
X540500D01*
X539220Y200160D02*
X540500D01*
X539220Y200080D02*
X540500D01*
X539220Y200000D02*
X540500D01*
X539220Y199920D02*
X540500D01*
X539220Y199840D02*
X540500D01*
X539220Y199760D02*
X540500D01*
X539220Y199680D02*
X540500D01*
X539220Y199600D02*
X540500D01*
X539220Y199520D02*
X540500D01*
X539220Y199440D02*
X540500D01*
X539220Y199360D02*
X540500D01*
X539220Y199280D02*
X540500D01*
X539220Y199200D02*
X540500D01*
X539220Y199120D02*
X540500D01*
X539220Y199040D02*
X540500D01*
X539220Y198960D02*
X540500D01*
X539220Y198880D02*
X540500D01*
X539220Y198800D02*
X540500D01*
X539220Y198720D02*
X540500D01*
X539220Y198640D02*
X540500D01*
X539220Y198560D02*
X540500D01*
X539220Y198480D02*
X540500D01*
X539220Y198400D02*
X540500D01*
X539220Y198320D02*
X540500D01*
X539220Y198240D02*
X540500D01*
X539220Y198160D02*
X540500D01*
X539220Y198080D02*
X540500D01*
X539220Y198000D02*
X540500D01*
X539220Y197920D02*
X540580D01*
X539220Y197840D02*
X540660D01*
X539220Y197760D02*
X540740D01*
X539220Y197680D02*
X540820D01*
X539220Y197600D02*
X543140D01*
X539220Y197520D02*
X543140D01*
X539220Y197440D02*
X543140D01*
X539300Y197360D02*
X543060D01*
X539380Y197280D02*
X542980D01*
X539460Y197200D02*
X542900D01*
X539540Y197120D02*
X542820D01*
X539620Y197040D02*
X542740D01*
X539700Y196960D02*
X542660D01*
X539780Y196880D02*
X542580D01*
X539860Y196800D02*
X542500D01*
X539940Y196720D02*
X542420D01*
X540020Y196640D02*
X542340D01*
X540100Y196560D02*
X542260D01*
X540180Y196480D02*
X542180D01*
X538260Y208720D02*
X540820D01*
X538260Y208640D02*
X540820D01*
X538260Y208560D02*
X540820D01*
X538260Y208480D02*
X540820D01*
X538260Y208400D02*
X540820D01*
X538260Y208320D02*
X540820D01*
X538260Y208240D02*
X540820D01*
X538260Y208160D02*
X540820D01*
X538260Y208080D02*
X540820D01*
X538260Y208000D02*
X540820D01*
X538260Y207920D02*
X540820D01*
X497700Y212000D02*
X503140D01*
X497060Y204000D02*
X502580D01*
X506900Y212000D02*
X512180D01*
X504660Y204000D02*
X510020D01*
X497700Y211120D02*
X513220D01*
X497700Y211040D02*
X513300D01*
X497700Y210960D02*
X513380D01*
X497700Y210880D02*
X513460D01*
X497700Y210800D02*
X513460D01*
X497700Y210720D02*
X513460D01*
X497700Y210640D02*
X513460D01*
X497700Y210560D02*
X513380D01*
X497700Y210480D02*
X513380D01*
X497700Y210400D02*
X513300D01*
X497700Y210320D02*
X513300D01*
X497700Y210240D02*
X513220D01*
X497700Y210160D02*
X513220D01*
X497700Y210080D02*
X513220D01*
X497700Y210000D02*
X513140D01*
X497700Y209920D02*
X513140D01*
X497700Y209840D02*
X513060D01*
X497700Y209760D02*
X513060D01*
X497700Y209680D02*
X512980D01*
X497700Y209600D02*
X512980D01*
X497700Y209520D02*
X512900D01*
X497700Y209440D02*
X512900D01*
X497700Y209360D02*
X512900D01*
X497700Y209280D02*
X510820D01*
X497700Y209200D02*
X510740D01*
X497700Y209120D02*
X510660D01*
X497700Y209040D02*
X510580D01*
X497700Y208960D02*
X510580D01*
X497700Y208880D02*
X510500D01*
X497700Y208800D02*
X510420D01*
X497700Y208720D02*
X510340D01*
X497700Y208640D02*
X510260D01*
X497700Y208560D02*
X510100D01*
X497700Y208480D02*
X510020D01*
X497700Y208400D02*
X509940D01*
X497700Y208320D02*
X509860D01*
X497700Y208240D02*
X509700D01*
X497700Y208160D02*
X509540D01*
X497700Y208080D02*
X509460D01*
X497620Y208000D02*
X509300D01*
X497620Y207920D02*
X509140D01*
X497620Y207840D02*
X508980D01*
X497620Y207760D02*
X508820D01*
X497620Y207680D02*
X508660D01*
X497620Y207600D02*
X508420D01*
X497620Y207520D02*
X508260D01*
X497620Y207440D02*
X508020D01*
X497620Y207360D02*
X507940D01*
X497620Y207280D02*
X508020D01*
X497620Y207200D02*
X508020D01*
X497620Y207120D02*
X508100D01*
X497620Y207040D02*
X508180D01*
X497620Y206960D02*
X508180D01*
X497620Y206880D02*
X508260D01*
X497620Y206800D02*
X508260D01*
X497620Y206720D02*
X508340D01*
X503220Y206480D02*
X508500D01*
X503220Y206400D02*
X508500D01*
X503300Y206320D02*
X508580D01*
X503300Y206240D02*
X508660D01*
X503380Y206160D02*
X508660D01*
X503460Y206080D02*
X508740D01*
X503460Y206000D02*
X508820D01*
X503540Y205920D02*
X508820D01*
X503540Y205840D02*
X508900D01*
X503620Y205760D02*
X508900D01*
X503620Y205680D02*
X508980D01*
X503700Y205600D02*
X509060D01*
X503780Y205520D02*
X509060D01*
X503780Y205440D02*
X509140D01*
X503860Y205360D02*
X509140D01*
X503860Y205280D02*
X509220D01*
X503940Y205200D02*
X509300D01*
X504020Y205120D02*
X509300D01*
X504020Y205040D02*
X509380D01*
X504100Y204960D02*
X509460D01*
X504100Y204880D02*
X509460D01*
X504180Y204800D02*
X509540D01*
X504180Y204720D02*
X509540D01*
X504260Y204640D02*
X509620D01*
X504340Y204560D02*
X509700D01*
X504340Y204480D02*
X509700D01*
X504420Y204400D02*
X509780D01*
X504420Y204320D02*
X509780D01*
X504500Y204240D02*
X509860D01*
X497700Y219920D02*
X510900D01*
X497700Y219840D02*
X510820D01*
X497700Y219760D02*
X510820D01*
X497700Y219680D02*
X510820D01*
X497700Y219600D02*
X510740D01*
X497700Y219520D02*
X510740D01*
X497700Y219440D02*
X510660D01*
X497700Y219360D02*
X510660D01*
X497700Y219280D02*
X510660D01*
X497700Y219200D02*
X510740D01*
X497700Y219120D02*
X510820D01*
X497700Y219040D02*
X510820D01*
X497700Y218960D02*
X510900D01*
X497700Y218880D02*
X510980D01*
X497700Y218800D02*
X511060D01*
X497700Y218720D02*
X512900D01*
X497700Y218640D02*
X512980D01*
X497700Y218560D02*
X512980D01*
X497700Y218480D02*
X513060D01*
X497700Y218400D02*
X513060D01*
X497700Y218320D02*
X513060D01*
X497700Y218240D02*
X513140D01*
X497700Y218160D02*
X513140D01*
X497700Y218080D02*
X513220D01*
X497700Y218000D02*
X513220D01*
X497700Y217920D02*
X513300D01*
X497700Y217840D02*
X513300D01*
X497700Y217760D02*
X513300D01*
X497700Y217680D02*
X513380D01*
X497700Y217600D02*
X513380D01*
X497700Y217520D02*
X513460D01*
X497700Y217440D02*
X513460D01*
X497700Y221840D02*
X507460D01*
X497700Y221760D02*
X507540D01*
X497700Y221680D02*
X507540D01*
X497700Y221600D02*
X507540D01*
X497700Y221520D02*
X507540D01*
X497700Y221440D02*
X507620D01*
X497700Y221360D02*
X507860D01*
X497700Y221280D02*
X508020D01*
X497700Y221200D02*
X508180D01*
X497700Y221120D02*
X511220D01*
X497700Y221040D02*
X511220D01*
X497700Y220960D02*
X511220D01*
X497700Y220880D02*
X511220D01*
X497700Y220800D02*
X511220D01*
X497700Y220720D02*
X511220D01*
X497700Y220640D02*
X511220D01*
X497700Y220560D02*
X511140D01*
X497700Y220480D02*
X511140D01*
X497700Y220400D02*
X511060D01*
X497700Y220320D02*
X511060D01*
X497700Y220240D02*
X511060D01*
X497700Y220160D02*
X510980D01*
X497700Y220080D02*
X510980D01*
X497700Y220000D02*
X510900D01*
D13*
X429047Y316925D02*
Y320075D01*
X434953Y316925D02*
Y320075D01*
X470854Y297339D02*
X490146D01*
Y264661D02*
Y297339D01*
X470854Y264661D02*
X490146D01*
X470854D02*
Y297339D01*
X463472D02*
X469476D01*
D14*
X462488Y298323D02*
X498512D01*
Y263677D02*
Y298323D01*
X462488Y263677D02*
X498512D01*
X462488D02*
Y298323D01*
M02*
