G04*
G04 #@! TF.GenerationSoftware,Altium Limited,Altium Designer,18.1.7 (191)*
G04*
G04 Layer_Color=12632256*
%FSLAX25Y25*%
%MOIN*%
G70*
G01*
G75*
%ADD10C,0.00394*%
%ADD11C,0.01000*%
%ADD14C,0.00197*%
%ADD41C,0.06000*%
%ADD42C,0.07480*%
%ADD43O,0.07480X0.07480*%
%ADD44R,0.07480X0.07480*%
%ADD45C,0.07480*%
%ADD46R,0.07480X0.07480*%
%ADD47C,0.07874*%
%ADD48C,0.12598*%
D10*
X429047Y324799D02*
X434953D01*
Y312201D02*
Y324799D01*
X429047Y312201D02*
X434953D01*
X429047D02*
Y324799D01*
X469476Y297339D02*
X491524D01*
Y264661D02*
Y297339D01*
X469476Y264661D02*
X491524D01*
X469476D02*
Y297339D01*
Y294779D02*
X472035Y297339D01*
X424520Y329327D02*
X439480D01*
X424520Y307673D02*
Y329327D01*
Y307673D02*
X439480D01*
Y329327D01*
D11*
X600980Y307500D02*
G03*
X600980Y307500I-157480J0D01*
G01*
D14*
X462488Y298323D02*
X498512D01*
Y263677D02*
Y298323D01*
X462488Y263677D02*
X498512D01*
X462488D02*
Y298323D01*
D41*
X557520Y324209D02*
D03*
X547520D02*
D03*
X516024D02*
D03*
X506024D02*
D03*
X557520Y393500D02*
D03*
X547520D02*
D03*
X516024D02*
D03*
X506024D02*
D03*
X400500Y386500D02*
D03*
X390500D02*
D03*
X350500D02*
D03*
X360500D02*
D03*
X370500D02*
D03*
X380500D02*
D03*
D42*
X469110Y230500D02*
D03*
X423937D02*
D03*
D43*
X469110Y220500D02*
D03*
Y210500D02*
D03*
X423937Y220500D02*
D03*
Y210500D02*
D03*
D44*
X469110Y200500D02*
D03*
X423937D02*
D03*
D45*
X365000Y419000D02*
D03*
X368500Y227311D02*
D03*
X419500Y414500D02*
D03*
D46*
X375000Y419000D02*
D03*
X378500Y227311D02*
D03*
X409500Y414500D02*
D03*
D47*
X536000Y296980D02*
D03*
Y257020D02*
D03*
D48*
X562629Y307500D02*
D03*
X327371Y307673D02*
D03*
X562629Y375587D02*
D03*
Y239760D02*
D03*
X445000Y171846D02*
D03*
Y443500D02*
D03*
X327371Y375587D02*
D03*
Y239760D02*
D03*
M02*
