G04*
G04 #@! TF.GenerationSoftware,Altium Limited,Altium Designer,18.1.7 (191)*
G04*
G04 Layer_Physical_Order=1*
G04 Layer_Color=255*
%FSLAX25Y25*%
%MOIN*%
G70*
G01*
G75*
%ADD10C,0.00394*%
%ADD11C,0.01000*%
%ADD14C,0.00197*%
%ADD15R,0.05512X0.04331*%
%ADD16R,0.04331X0.05512*%
%ADD17R,0.07087X0.03937*%
%ADD18R,0.06004X0.01772*%
%ADD19R,0.11811X0.05906*%
%ADD20R,0.04724X0.01181*%
%ADD21R,0.01181X0.04724*%
%ADD22R,0.05512X0.04724*%
%ADD41C,0.06000*%
%ADD42C,0.07480*%
%ADD43O,0.07480X0.07480*%
%ADD44R,0.07480X0.07480*%
%ADD45C,0.07480*%
%ADD46R,0.07480X0.07480*%
%ADD47C,0.07874*%
%ADD48C,0.12598*%
%ADD49C,0.01800*%
G36*
X455588Y464601D02*
X463283Y463843D01*
X470931Y462709D01*
X478514Y461200D01*
X486015Y459321D01*
X493414Y457077D01*
X500694Y454472D01*
X507837Y451513D01*
X514826Y448208D01*
X521645Y444563D01*
X528277Y440588D01*
X534706Y436292D01*
X540916Y431686D01*
X546893Y426781D01*
X552622Y421589D01*
X558089Y416122D01*
X563281Y410393D01*
X568186Y404416D01*
X572792Y398206D01*
X577088Y391777D01*
X581063Y385145D01*
X584708Y378326D01*
X588013Y371337D01*
X590972Y364193D01*
X593577Y356914D01*
X595822Y349515D01*
X597700Y342015D01*
X599209Y334431D01*
X600343Y326783D01*
X601101Y319089D01*
X601480Y311366D01*
Y307500D01*
Y303634D01*
X601101Y295912D01*
X600343Y288217D01*
X599209Y280569D01*
X597700Y272986D01*
X595822Y265485D01*
X593577Y258086D01*
X590972Y250806D01*
X588013Y243663D01*
X584708Y236674D01*
X581063Y229855D01*
X577088Y223223D01*
X572792Y216794D01*
X568186Y210584D01*
X563281Y204607D01*
X558089Y198878D01*
X552622Y193411D01*
X546893Y188219D01*
X540916Y183314D01*
X534706Y178708D01*
X528277Y174412D01*
X521645Y170437D01*
X514826Y166792D01*
X507837Y163487D01*
X500694Y160528D01*
X493414Y157923D01*
X486015Y155678D01*
X478514Y153800D01*
X470931Y152291D01*
X463283Y151157D01*
X455588Y150399D01*
X447866Y150020D01*
X440134D01*
X432411Y150399D01*
X424717Y151157D01*
X417069Y152291D01*
X409485Y153800D01*
X401985Y155678D01*
X394586Y157923D01*
X387306Y160528D01*
X380163Y163487D01*
X373174Y166792D01*
X366355Y170437D01*
X359723Y174412D01*
X353294Y178708D01*
X347084Y183314D01*
X341107Y188219D01*
X335378Y193411D01*
X329911Y198878D01*
X324719Y204607D01*
X319813Y210584D01*
X315208Y216794D01*
X310912Y223223D01*
X306937Y229855D01*
X303292Y236674D01*
X299987Y243663D01*
X297028Y250806D01*
X294423Y258086D01*
X292179Y265485D01*
X290300Y272986D01*
X288791Y280569D01*
X287657Y288217D01*
X286899Y295912D01*
X286520Y303634D01*
Y307500D01*
Y311366D01*
X286899Y319089D01*
X287657Y326783D01*
X288791Y334431D01*
X290300Y342015D01*
X292179Y349515D01*
X294423Y356914D01*
X297028Y364193D01*
X299987Y371337D01*
X303292Y378326D01*
X306937Y385145D01*
X310912Y391777D01*
X315208Y398206D01*
X319813Y404416D01*
X324719Y410393D01*
X329911Y416122D01*
X335378Y421589D01*
X341107Y426781D01*
X347084Y431686D01*
X353294Y436292D01*
X359723Y440588D01*
X366355Y444563D01*
X373174Y448208D01*
X380163Y451513D01*
X387306Y454472D01*
X394586Y457077D01*
X401985Y459321D01*
X409485Y461200D01*
X417069Y462709D01*
X424717Y463843D01*
X432411Y464601D01*
X440134Y464980D01*
X447866D01*
X455588Y464601D01*
D02*
G37*
%LPC*%
G36*
X445000Y450634D02*
X443608Y450496D01*
X442270Y450091D01*
X441037Y449431D01*
X439956Y448544D01*
X439069Y447463D01*
X438410Y446230D01*
X438003Y444892D01*
X437866Y443500D01*
X438003Y442108D01*
X438410Y440770D01*
X439069Y439537D01*
X439956Y438456D01*
X441037Y437569D01*
X442270Y436909D01*
X443608Y436504D01*
X445000Y436366D01*
X446392Y436504D01*
X447730Y436909D01*
X448963Y437569D01*
X450044Y438456D01*
X450931Y439537D01*
X451590Y440770D01*
X451997Y442108D01*
X452134Y443500D01*
X451997Y444892D01*
X451590Y446230D01*
X450931Y447463D01*
X450044Y448544D01*
X448963Y449431D01*
X447730Y450091D01*
X446392Y450496D01*
X445000Y450634D01*
D02*
G37*
G36*
X491556Y432402D02*
X484444D01*
Y427756D01*
X480514Y423826D01*
X469402D01*
Y426056D01*
X463472D01*
Y418944D01*
X469402D01*
Y421174D01*
X481063D01*
X481570Y421275D01*
X482000Y421563D01*
X483982Y423545D01*
X484444Y423353D01*
Y418598D01*
X489091D01*
X508626Y399063D01*
X509056Y398775D01*
X509563Y398675D01*
X521451D01*
X525737Y394388D01*
Y365904D01*
X525238Y365700D01*
X522674Y368264D01*
X522243Y368551D01*
X521736Y368652D01*
X495894D01*
Y368717D01*
X489570D01*
Y368652D01*
X469332D01*
X468919Y368928D01*
X468432Y369025D01*
X468049Y369408D01*
X468240Y369870D01*
X468732D01*
Y370070D01*
X488217D01*
Y376395D01*
X478310D01*
Y382055D01*
X478209Y382562D01*
X477921Y382992D01*
X460071Y400842D01*
X460284Y401310D01*
X460500Y401267D01*
X461163Y401399D01*
X461726Y401774D01*
X462101Y402337D01*
X462233Y403000D01*
X462101Y403663D01*
X461726Y404226D01*
X461163Y404601D01*
X460500Y404733D01*
X459837Y404601D01*
X459424Y404325D01*
X377000D01*
X376493Y404225D01*
X376063Y403937D01*
X362083Y389957D01*
X361492Y390202D01*
X360500Y390333D01*
X359508Y390202D01*
X358584Y389819D01*
X357790Y389210D01*
X357181Y388416D01*
X356798Y387492D01*
X356667Y386500D01*
X356798Y385508D01*
X357181Y384584D01*
X357790Y383790D01*
X358584Y383181D01*
X359508Y382798D01*
X360500Y382667D01*
X361492Y382798D01*
X362416Y383181D01*
X363210Y383790D01*
X363819Y384584D01*
X364202Y385508D01*
X364333Y386500D01*
X364202Y387492D01*
X363957Y388083D01*
X377549Y401675D01*
X403335D01*
X403398Y401494D01*
X403418Y401174D01*
X403063Y400937D01*
X392083Y389957D01*
X391492Y390202D01*
X390500Y390333D01*
X389508Y390202D01*
X388584Y389819D01*
X387790Y389210D01*
X387181Y388416D01*
X386798Y387492D01*
X386667Y386500D01*
X386798Y385508D01*
X387181Y384584D01*
X387790Y383790D01*
X388584Y383181D01*
X389508Y382798D01*
X390500Y382667D01*
X391492Y382798D01*
X392416Y383181D01*
X393210Y383790D01*
X393819Y384584D01*
X394202Y385508D01*
X394333Y386500D01*
X394202Y387492D01*
X393957Y388083D01*
X404549Y398675D01*
X422093D01*
X422300Y398175D01*
X403778Y379652D01*
X389222D01*
X383957Y384917D01*
X384202Y385508D01*
X384333Y386500D01*
X384202Y387492D01*
X383819Y388416D01*
X383210Y389210D01*
X382416Y389819D01*
X381492Y390202D01*
X380500Y390333D01*
X379508Y390202D01*
X378584Y389819D01*
X377790Y389210D01*
X377181Y388416D01*
X376798Y387492D01*
X376667Y386500D01*
X376798Y385508D01*
X377181Y384584D01*
X377790Y383790D01*
X378584Y383181D01*
X379508Y382798D01*
X380500Y382667D01*
X381492Y382798D01*
X382083Y383043D01*
X387736Y377390D01*
X388166Y377102D01*
X388673Y377001D01*
X404327D01*
X404834Y377102D01*
X405264Y377390D01*
X424049Y396175D01*
X427093D01*
X427300Y395674D01*
X416063Y384437D01*
X415775Y384007D01*
X415674Y383500D01*
Y375641D01*
X415399Y375228D01*
X415267Y374564D01*
X415399Y373901D01*
X415774Y373339D01*
X416337Y372963D01*
X417000Y372831D01*
X417663Y372963D01*
X418226Y373339D01*
X418601Y373901D01*
X418733Y374564D01*
X418601Y375228D01*
X418326Y375641D01*
Y382951D01*
X425636Y390261D01*
X426098Y390070D01*
Y383944D01*
X427738D01*
Y375056D01*
X426098D01*
Y367944D01*
X427916D01*
X428108Y367482D01*
X422753Y362127D01*
X422266Y362031D01*
X421703Y361655D01*
X421328Y361092D01*
X421196Y360429D01*
X421328Y359766D01*
X421703Y359204D01*
X422266Y358828D01*
X422929Y358696D01*
X423592Y358828D01*
X424155Y359204D01*
X424531Y359766D01*
X424627Y360253D01*
X430376Y366001D01*
X456106D01*
Y361999D01*
Y358810D01*
X445484D01*
X444977Y358709D01*
X444547Y358421D01*
X437063Y350937D01*
X436775Y350507D01*
X436674Y350000D01*
Y337576D01*
X436399Y337163D01*
X436267Y336500D01*
X436399Y335837D01*
X436774Y335274D01*
X437337Y334899D01*
X438000Y334767D01*
X438663Y334899D01*
X439226Y335274D01*
X439601Y335837D01*
X439733Y336500D01*
X439601Y337163D01*
X439326Y337576D01*
Y349451D01*
X440977Y351103D01*
X441366Y350784D01*
X441275Y350649D01*
X441175Y350142D01*
Y337698D01*
X440899Y337285D01*
X440767Y336621D01*
X440899Y335958D01*
X441274Y335396D01*
X441837Y335020D01*
X442500Y334888D01*
X443163Y335020D01*
X443726Y335396D01*
X444101Y335958D01*
X444233Y336621D01*
X444101Y337285D01*
X443825Y337698D01*
Y349593D01*
X444502Y350269D01*
X444964Y350078D01*
Y345472D01*
X452076D01*
Y351402D01*
X450930D01*
X450739Y351864D01*
X451096Y352222D01*
X456106D01*
Y349232D01*
X455905D01*
Y348142D01*
X459268D01*
X462630D01*
Y349232D01*
X462430D01*
Y352157D01*
Y356094D01*
Y360031D01*
Y363968D01*
Y368717D01*
X456106D01*
Y368652D01*
X440102D01*
Y371000D01*
X436937D01*
X433772D01*
Y368652D01*
X432028D01*
Y375056D01*
X430388D01*
Y383944D01*
X432028D01*
Y388591D01*
X433310Y389872D01*
X433772Y389681D01*
Y388000D01*
X436437D01*
Y391256D01*
X435878D01*
X435610Y391756D01*
X435664Y391837D01*
X435796Y392500D01*
X435675Y393111D01*
X435705Y393255D01*
X435895Y393612D01*
X456002D01*
X467785Y381829D01*
Y380743D01*
X467323Y380552D01*
X462427Y385448D01*
X462437Y385500D01*
X462290Y386241D01*
X461870Y386870D01*
X461241Y387290D01*
X461000Y387338D01*
Y385500D01*
X460500D01*
Y385000D01*
X458662D01*
X458710Y384759D01*
X459130Y384130D01*
X459759Y383710D01*
X460500Y383563D01*
X460552Y383573D01*
X465816Y378309D01*
Y377516D01*
X465316Y377124D01*
X465173Y377152D01*
X464666Y377051D01*
X464236Y376764D01*
X463989Y376395D01*
X463783D01*
Y370070D01*
X463978D01*
X464027Y369824D01*
X464314Y369394D01*
X466558Y367150D01*
X466655Y366664D01*
X466675Y366634D01*
Y349049D01*
X464624Y346999D01*
X462630D01*
Y347142D01*
X459268D01*
X455905D01*
Y346051D01*
X456106D01*
Y344283D01*
X462430D01*
Y344348D01*
X465173D01*
X465681Y344449D01*
X466111Y344736D01*
X468937Y347563D01*
X469225Y347993D01*
X469325Y348500D01*
Y365997D01*
X469332Y366001D01*
X489370D01*
Y365858D01*
X492732D01*
X496095D01*
Y366001D01*
X521187D01*
X524098Y363091D01*
Y358444D01*
X525737D01*
Y350056D01*
X524098D01*
Y342944D01*
X525737D01*
Y342175D01*
X523618Y340056D01*
X520256D01*
X518374Y341937D01*
X517944Y342225D01*
X517437Y342325D01*
X492049D01*
X490554Y343821D01*
X490745Y344283D01*
X495894D01*
Y344348D01*
X510751D01*
X511164Y344072D01*
X511827Y343940D01*
X512490Y344072D01*
X513052Y344448D01*
X513428Y345010D01*
X513560Y345673D01*
X513428Y346337D01*
X513052Y346899D01*
X512490Y347275D01*
X511827Y347407D01*
X511164Y347275D01*
X510751Y346999D01*
X495894D01*
Y348285D01*
X497924D01*
X498337Y348009D01*
X499000Y347877D01*
X499663Y348009D01*
X500226Y348385D01*
X500601Y348947D01*
X500733Y349610D01*
X500601Y350273D01*
X500226Y350836D01*
X499663Y351212D01*
X499000Y351343D01*
X498337Y351212D01*
X497924Y350936D01*
X495894D01*
Y351001D01*
Y356094D01*
Y360031D01*
Y363768D01*
X496095D01*
Y364858D01*
X492732D01*
X489370D01*
Y363768D01*
X489570D01*
Y361999D01*
Y358062D01*
Y354125D01*
Y350188D01*
Y345458D01*
X489108Y345266D01*
X487437Y346937D01*
X487007Y347225D01*
X486500Y347325D01*
X483343D01*
X482835Y347225D01*
X482405Y346937D01*
X479984Y344516D01*
X479697Y344086D01*
X479596Y343579D01*
Y343130D01*
X479453D01*
Y339768D01*
X478453D01*
Y343130D01*
X477362D01*
Y342930D01*
X463783D01*
Y336606D01*
X467655D01*
X467731Y336105D01*
X465951Y334326D01*
X456000D01*
X455493Y334225D01*
X455063Y333937D01*
X445872Y324747D01*
X436343D01*
Y326190D01*
X427657D01*
Y325362D01*
X427157Y325155D01*
X420953Y331359D01*
X420523Y331646D01*
X420016Y331747D01*
X419434D01*
Y333977D01*
X413503D01*
Y326865D01*
X419434D01*
Y328421D01*
X419934Y328629D01*
X426079Y322484D01*
X426509Y322197D01*
X427016Y322096D01*
X427657D01*
Y320653D01*
X436343D01*
Y322096D01*
X446421D01*
X446537Y322119D01*
X446784Y321658D01*
X440030Y314904D01*
X436343D01*
Y316347D01*
X427657D01*
Y314904D01*
X425860D01*
X419434Y321330D01*
Y325977D01*
X413503D01*
Y318865D01*
X418150D01*
X424374Y312642D01*
X424804Y312354D01*
X425311Y312253D01*
X427657D01*
Y310810D01*
X436343D01*
Y312253D01*
X440579D01*
X441086Y312354D01*
X441516Y312642D01*
X456282Y327408D01*
X456744Y327216D01*
Y325437D01*
X460000D01*
Y328102D01*
X457630D01*
X457439Y328564D01*
X458549Y329675D01*
X466773D01*
X466930Y329483D01*
Y324279D01*
X467031Y323772D01*
X467319Y323342D01*
X471720Y318941D01*
Y318389D01*
X464056D01*
Y320028D01*
X456944D01*
Y314097D01*
X464056D01*
Y315738D01*
X471720D01*
Y314098D01*
X478831D01*
Y320422D01*
X473988D01*
X473494Y320916D01*
X473685Y321378D01*
X474776D01*
Y324240D01*
X471520D01*
Y323544D01*
X471058Y323352D01*
X469582Y324828D01*
Y328934D01*
X473984Y333337D01*
X474229Y333361D01*
X478988Y328602D01*
X478781Y328102D01*
X478635Y328102D01*
X475776D01*
Y325240D01*
X479032D01*
Y327700D01*
X479032Y327852D01*
X479531Y328059D01*
X481169Y326422D01*
Y321578D01*
X488280D01*
Y323415D01*
X493444D01*
Y321972D01*
X500556D01*
Y327902D01*
X493444D01*
Y326066D01*
X488280D01*
Y327902D01*
X483437D01*
X480626Y330713D01*
X480818Y331174D01*
X510063D01*
X510570Y331275D01*
X511000Y331563D01*
X512382Y332944D01*
X517028D01*
Y338881D01*
X517490Y339072D01*
X518972Y337591D01*
Y332944D01*
X520611D01*
Y314486D01*
X499967Y293841D01*
X498326D01*
Y296761D01*
X490722D01*
Y296400D01*
X484902D01*
X484394Y296299D01*
X483964Y296012D01*
X480063Y292110D01*
X479775Y291681D01*
X479674Y291173D01*
Y278413D01*
X479775Y277906D01*
X480063Y277476D01*
X488618Y268920D01*
X489048Y268633D01*
X489556Y268532D01*
X490722D01*
Y265239D01*
X493198D01*
Y192476D01*
X493299Y191969D01*
X493586Y191539D01*
X503302Y181824D01*
X503399Y181337D01*
X503774Y180774D01*
X504337Y180399D01*
X505000Y180267D01*
X505663Y180399D01*
X506226Y180774D01*
X506601Y181337D01*
X506733Y182000D01*
X506601Y182663D01*
X506226Y183226D01*
X505663Y183601D01*
X505176Y183698D01*
X495849Y193025D01*
Y241123D01*
X496259Y241412D01*
X496349Y241396D01*
X497000Y241267D01*
X497663Y241399D01*
X498226Y241774D01*
X498601Y242337D01*
X498733Y243000D01*
X498601Y243663D01*
X498325Y244076D01*
Y258951D01*
X531700Y292326D01*
X531988Y292756D01*
X532089Y293263D01*
Y293519D01*
X532562Y293679D01*
X532621Y293602D01*
X533611Y292843D01*
X534763Y292365D01*
X536000Y292202D01*
X537237Y292365D01*
X538389Y292843D01*
X539378Y293602D01*
X540138Y294591D01*
X540615Y295744D01*
X540778Y296980D01*
X540615Y298217D01*
X540138Y299369D01*
X539378Y300359D01*
X538389Y301118D01*
X537237Y301595D01*
X536000Y301758D01*
X534763Y301595D01*
X533611Y301118D01*
X532621Y300359D01*
X532499Y300199D01*
X532025Y300360D01*
Y329911D01*
X531925Y330418D01*
X531637Y330849D01*
X525048Y337437D01*
X525229Y337918D01*
X528000Y340689D01*
X528288Y341119D01*
X528389Y341626D01*
Y342944D01*
X530028D01*
Y350056D01*
X528389D01*
Y358444D01*
X530028D01*
Y365556D01*
X528389D01*
Y394937D01*
X528288Y395444D01*
X528000Y395874D01*
X522937Y400937D01*
X522507Y401225D01*
X522000Y401326D01*
X510112D01*
X491700Y419737D01*
X491904Y420237D01*
X506423D01*
X506836Y419962D01*
X507499Y419830D01*
X508163Y419962D01*
X508725Y420337D01*
X509101Y420900D01*
X509233Y421563D01*
X509101Y422226D01*
X508725Y422789D01*
X508163Y423164D01*
X507499Y423296D01*
X506836Y423164D01*
X506423Y422889D01*
X491556D01*
Y424528D01*
X485619D01*
X485428Y424990D01*
X486909Y426472D01*
X491556D01*
Y432402D01*
D02*
G37*
G36*
X461728Y426256D02*
X459063D01*
Y423000D01*
X461728D01*
Y426256D01*
D02*
G37*
G36*
X458063D02*
X455398D01*
Y423000D01*
X458063D01*
Y426256D01*
D02*
G37*
G36*
X461728Y422000D02*
X459063D01*
Y418744D01*
X461728D01*
Y422000D01*
D02*
G37*
G36*
X458063D02*
X455398D01*
Y418744D01*
X458063D01*
Y422000D01*
D02*
G37*
G36*
X365000Y423579D02*
X363815Y423423D01*
X362710Y422966D01*
X361762Y422238D01*
X361034Y421290D01*
X360577Y420185D01*
X360421Y419000D01*
X360577Y417815D01*
X360976Y416851D01*
X337063Y392937D01*
X336775Y392507D01*
X336674Y392000D01*
Y344500D01*
X336775Y343993D01*
X337063Y343563D01*
X399283Y281342D01*
X399713Y281055D01*
X400220Y280954D01*
X462674D01*
Y278035D01*
Y275476D01*
Y272917D01*
Y270357D01*
Y267798D01*
Y265239D01*
X470278D01*
Y267798D01*
Y270357D01*
Y272917D01*
Y275476D01*
Y278035D01*
Y280594D01*
Y285512D01*
X470478D01*
Y286898D01*
X462474D01*
Y285512D01*
X462674D01*
Y283605D01*
X400770D01*
X339325Y345049D01*
Y391451D01*
X362851Y414976D01*
X363815Y414577D01*
X365000Y414421D01*
X366185Y414577D01*
X367290Y415034D01*
X368238Y415762D01*
X368966Y416710D01*
X369423Y417815D01*
X369579Y419000D01*
X369423Y420185D01*
X368966Y421290D01*
X368238Y422238D01*
X367290Y422966D01*
X366185Y423423D01*
X365000Y423579D01*
D02*
G37*
G36*
X414040Y419040D02*
X404960D01*
Y409960D01*
X414040D01*
Y419040D01*
D02*
G37*
G36*
X419500Y419079D02*
X418315Y418923D01*
X417210Y418466D01*
X416262Y417738D01*
X415534Y416790D01*
X415077Y415685D01*
X414921Y414500D01*
X415077Y413315D01*
X415534Y412210D01*
X416262Y411262D01*
X417210Y410534D01*
X418315Y410077D01*
X419500Y409921D01*
X420685Y410077D01*
X421790Y410534D01*
X422738Y411262D01*
X423466Y412210D01*
X423923Y413315D01*
X424079Y414500D01*
X423923Y415685D01*
X423466Y416790D01*
X422738Y417738D01*
X421790Y418466D01*
X420685Y418923D01*
X419500Y419079D01*
D02*
G37*
G36*
X558020Y397469D02*
Y394000D01*
X561488D01*
X561417Y394544D01*
X561014Y395517D01*
X560372Y396353D01*
X559537Y396994D01*
X558564Y397397D01*
X558020Y397469D01*
D02*
G37*
G36*
X548020D02*
Y394000D01*
X551488D01*
X551417Y394544D01*
X551014Y395517D01*
X550373Y396353D01*
X549537Y396994D01*
X548564Y397397D01*
X548020Y397469D01*
D02*
G37*
G36*
X557020Y397469D02*
X556475Y397397D01*
X555502Y396994D01*
X554667Y396353D01*
X554026Y395517D01*
X553623Y394544D01*
X553551Y394000D01*
X557020D01*
Y397469D01*
D02*
G37*
G36*
X547020D02*
X546476Y397397D01*
X545502Y396994D01*
X544667Y396353D01*
X544026Y395517D01*
X543623Y394544D01*
X543551Y394000D01*
X547020D01*
Y397469D01*
D02*
G37*
G36*
X516024Y397333D02*
X515032Y397202D01*
X514107Y396819D01*
X513313Y396210D01*
X512704Y395416D01*
X512321Y394492D01*
X512191Y393500D01*
X512321Y392508D01*
X512704Y391584D01*
X513313Y390790D01*
X514107Y390181D01*
X515032Y389798D01*
X516024Y389667D01*
X517016Y389798D01*
X517940Y390181D01*
X518734Y390790D01*
X519343Y391584D01*
X519726Y392508D01*
X519856Y393500D01*
X519726Y394492D01*
X519343Y395416D01*
X518734Y396210D01*
X517940Y396819D01*
X517016Y397202D01*
X516024Y397333D01*
D02*
G37*
G36*
X506024D02*
X505032Y397202D01*
X504107Y396819D01*
X503313Y396210D01*
X502704Y395416D01*
X502321Y394492D01*
X502191Y393500D01*
X502321Y392508D01*
X502704Y391584D01*
X503313Y390790D01*
X504107Y390181D01*
X505032Y389798D01*
X506024Y389667D01*
X507016Y389798D01*
X507940Y390181D01*
X508734Y390790D01*
X509343Y391584D01*
X509726Y392508D01*
X509856Y393500D01*
X509726Y394492D01*
X509343Y395416D01*
X508734Y396210D01*
X507940Y396819D01*
X507016Y397202D01*
X506024Y397333D01*
D02*
G37*
G36*
X557020Y393000D02*
X553551D01*
X553623Y392456D01*
X554026Y391483D01*
X554667Y390647D01*
X555502Y390006D01*
X556475Y389603D01*
X557020Y389531D01*
Y393000D01*
D02*
G37*
G36*
X547020D02*
X543551D01*
X543623Y392456D01*
X544026Y391483D01*
X544667Y390647D01*
X545502Y390006D01*
X546476Y389603D01*
X547020Y389531D01*
Y393000D01*
D02*
G37*
G36*
X561488D02*
X558020D01*
Y389531D01*
X558564Y389603D01*
X559537Y390006D01*
X560372Y390647D01*
X561014Y391483D01*
X561417Y392456D01*
X561488Y393000D01*
D02*
G37*
G36*
X551488D02*
X548020D01*
Y389531D01*
X548564Y389603D01*
X549537Y390006D01*
X550373Y390647D01*
X551014Y391483D01*
X551417Y392456D01*
X551488Y393000D01*
D02*
G37*
G36*
X440102Y391256D02*
X437437D01*
Y388000D01*
X440102D01*
Y391256D01*
D02*
G37*
G36*
X371000Y390469D02*
Y387000D01*
X374469D01*
X374397Y387544D01*
X373994Y388517D01*
X373353Y389353D01*
X372517Y389994D01*
X371544Y390397D01*
X371000Y390469D01*
D02*
G37*
G36*
X370000D02*
X369456Y390397D01*
X368483Y389994D01*
X367647Y389353D01*
X367006Y388517D01*
X366603Y387544D01*
X366531Y387000D01*
X370000D01*
Y390469D01*
D02*
G37*
G36*
X460000Y387338D02*
X459759Y387290D01*
X459130Y386870D01*
X458710Y386241D01*
X458662Y386000D01*
X460000D01*
Y387338D01*
D02*
G37*
G36*
X440102Y387000D02*
X437437D01*
Y383744D01*
X440102D01*
Y387000D01*
D02*
G37*
G36*
X436437D02*
X433772D01*
Y383744D01*
X436437D01*
Y387000D01*
D02*
G37*
G36*
X400500Y390333D02*
X399508Y390202D01*
X398584Y389819D01*
X397790Y389210D01*
X397181Y388416D01*
X396798Y387492D01*
X396667Y386500D01*
X396798Y385508D01*
X397181Y384584D01*
X397790Y383790D01*
X398584Y383181D01*
X399508Y382798D01*
X400500Y382667D01*
X401492Y382798D01*
X402416Y383181D01*
X403210Y383790D01*
X403819Y384584D01*
X404202Y385508D01*
X404333Y386500D01*
X404202Y387492D01*
X403819Y388416D01*
X403210Y389210D01*
X402416Y389819D01*
X401492Y390202D01*
X400500Y390333D01*
D02*
G37*
G36*
X350500D02*
X349508Y390202D01*
X348584Y389819D01*
X347790Y389210D01*
X347181Y388416D01*
X346798Y387492D01*
X346667Y386500D01*
X346798Y385508D01*
X347181Y384584D01*
X347790Y383790D01*
X348584Y383181D01*
X349508Y382798D01*
X350500Y382667D01*
X351492Y382798D01*
X352416Y383181D01*
X353210Y383790D01*
X353819Y384584D01*
X354202Y385508D01*
X354333Y386500D01*
X354202Y387492D01*
X353819Y388416D01*
X353210Y389210D01*
X352416Y389819D01*
X351492Y390202D01*
X350500Y390333D01*
D02*
G37*
G36*
X374469Y386000D02*
X371000D01*
Y382531D01*
X371544Y382603D01*
X372517Y383006D01*
X373353Y383647D01*
X373994Y384483D01*
X374397Y385456D01*
X374469Y386000D01*
D02*
G37*
G36*
X370000D02*
X366531D01*
X366603Y385456D01*
X367006Y384483D01*
X367647Y383647D01*
X368483Y383006D01*
X369456Y382603D01*
X370000Y382531D01*
Y386000D01*
D02*
G37*
G36*
X440102Y375256D02*
X437437D01*
Y372000D01*
X440102D01*
Y375256D01*
D02*
G37*
G36*
X436437D02*
X433772D01*
Y372000D01*
X436437D01*
Y375256D01*
D02*
G37*
G36*
X562629Y382720D02*
X561238Y382583D01*
X559900Y382177D01*
X558666Y381518D01*
X557585Y380631D01*
X556698Y379550D01*
X556039Y378316D01*
X555633Y376978D01*
X555496Y375587D01*
X555633Y374195D01*
X556039Y372857D01*
X556698Y371623D01*
X557585Y370542D01*
X558666Y369655D01*
X559900Y368996D01*
X561238Y368590D01*
X562629Y368453D01*
X564021Y368590D01*
X565359Y368996D01*
X566593Y369655D01*
X567674Y370542D01*
X568561Y371623D01*
X569220Y372857D01*
X569626Y374195D01*
X569763Y375587D01*
X569626Y376978D01*
X569220Y378316D01*
X568561Y379550D01*
X567674Y380631D01*
X566593Y381518D01*
X565359Y382177D01*
X564021Y382583D01*
X562629Y382720D01*
D02*
G37*
G36*
X327371D02*
X325979Y382583D01*
X324641Y382177D01*
X323407Y381518D01*
X322326Y380631D01*
X321439Y379550D01*
X320780Y378316D01*
X320374Y376978D01*
X320237Y375587D01*
X320374Y374195D01*
X320780Y372857D01*
X321439Y371623D01*
X322326Y370542D01*
X323407Y369655D01*
X324641Y368996D01*
X325979Y368590D01*
X327371Y368453D01*
X328762Y368590D01*
X330100Y368996D01*
X331334Y369655D01*
X332415Y370542D01*
X333302Y371623D01*
X333961Y372857D01*
X334367Y374195D01*
X334504Y375587D01*
X334367Y376978D01*
X333961Y378316D01*
X333302Y379550D01*
X332415Y380631D01*
X331334Y381518D01*
X330100Y382177D01*
X328762Y382583D01*
X327371Y382720D01*
D02*
G37*
G36*
X538102Y365756D02*
X535437D01*
Y362500D01*
X538102D01*
Y365756D01*
D02*
G37*
G36*
X534437D02*
X531772D01*
Y362500D01*
X534437D01*
Y365756D01*
D02*
G37*
G36*
X538102Y361500D02*
X535437D01*
Y358244D01*
X538102D01*
Y361500D01*
D02*
G37*
G36*
X534437D02*
X531772D01*
Y358244D01*
X534437D01*
Y361500D01*
D02*
G37*
G36*
X538102Y350256D02*
X535437D01*
Y347000D01*
X538102D01*
Y350256D01*
D02*
G37*
G36*
X534437D02*
X531772D01*
Y347000D01*
X534437D01*
Y350256D01*
D02*
G37*
G36*
X538102Y346000D02*
X535437D01*
Y342744D01*
X538102D01*
Y346000D01*
D02*
G37*
G36*
X534437D02*
X531772D01*
Y342744D01*
X534437D01*
Y346000D01*
D02*
G37*
G36*
X452276Y343728D02*
X449020D01*
Y341063D01*
X452276D01*
Y343728D01*
D02*
G37*
G36*
X448020D02*
X444764D01*
Y341063D01*
X448020D01*
Y343728D01*
D02*
G37*
G36*
X452276Y340063D02*
X449020D01*
Y337398D01*
X452276D01*
Y340063D01*
D02*
G37*
G36*
X448020D02*
X444764D01*
Y337398D01*
X448020D01*
Y340063D01*
D02*
G37*
G36*
X411760Y334177D02*
X409094D01*
Y330921D01*
X411760D01*
Y334177D01*
D02*
G37*
G36*
X408095D02*
X405429D01*
Y330921D01*
X408095D01*
Y334177D01*
D02*
G37*
G36*
X464256Y328102D02*
X461000D01*
Y325437D01*
X464256D01*
Y328102D01*
D02*
G37*
G36*
X474776Y328102D02*
X471520D01*
Y325240D01*
X474776D01*
Y328102D01*
D02*
G37*
G36*
X558020Y328177D02*
Y324709D01*
X561488D01*
X561417Y325253D01*
X561014Y326226D01*
X560372Y327062D01*
X559537Y327703D01*
X558564Y328106D01*
X558020Y328177D01*
D02*
G37*
G36*
X548020D02*
Y324709D01*
X551488D01*
X551417Y325253D01*
X551014Y326226D01*
X550373Y327062D01*
X549537Y327703D01*
X548564Y328106D01*
X548020Y328177D01*
D02*
G37*
G36*
X557020Y328177D02*
X556475Y328106D01*
X555502Y327703D01*
X554667Y327062D01*
X554026Y326226D01*
X553623Y325253D01*
X553551Y324709D01*
X557020D01*
Y328177D01*
D02*
G37*
G36*
X547020D02*
X546476Y328106D01*
X545502Y327703D01*
X544667Y327062D01*
X544026Y326226D01*
X543623Y325253D01*
X543551Y324709D01*
X547020D01*
Y328177D01*
D02*
G37*
G36*
X411760Y329921D02*
X408595D01*
X405429D01*
Y326677D01*
X405429Y326665D01*
Y326177D01*
X405429Y326165D01*
Y322921D01*
X408595D01*
X411760D01*
Y326165D01*
X411760Y326177D01*
Y326665D01*
X411760Y326677D01*
Y329921D01*
D02*
G37*
G36*
X464256Y324437D02*
X461000D01*
Y321771D01*
X464256D01*
Y324437D01*
D02*
G37*
G36*
X460000D02*
X456744D01*
Y321771D01*
X460000D01*
Y324437D01*
D02*
G37*
G36*
X479032Y324240D02*
X475776D01*
Y321378D01*
X479032D01*
Y324240D01*
D02*
G37*
G36*
X516024Y328041D02*
X515032Y327911D01*
X514107Y327528D01*
X513313Y326919D01*
X512704Y326125D01*
X512321Y325201D01*
X512191Y324209D01*
X512321Y323217D01*
X512704Y322292D01*
X513313Y321498D01*
X514107Y320889D01*
X515032Y320507D01*
X516024Y320376D01*
X517016Y320507D01*
X517940Y320889D01*
X518734Y321498D01*
X519343Y322292D01*
X519726Y323217D01*
X519856Y324209D01*
X519726Y325201D01*
X519343Y326125D01*
X518734Y326919D01*
X517940Y327528D01*
X517016Y327911D01*
X516024Y328041D01*
D02*
G37*
G36*
X506024D02*
X505032Y327911D01*
X504107Y327528D01*
X503313Y326919D01*
X502704Y326125D01*
X502321Y325201D01*
X502191Y324209D01*
X502321Y323217D01*
X502704Y322292D01*
X503313Y321498D01*
X504107Y320889D01*
X505032Y320507D01*
X506024Y320376D01*
X507016Y320507D01*
X507940Y320889D01*
X508734Y321498D01*
X509343Y322292D01*
X509726Y323217D01*
X509856Y324209D01*
X509726Y325201D01*
X509343Y326125D01*
X508734Y326919D01*
X507940Y327528D01*
X507016Y327911D01*
X506024Y328041D01*
D02*
G37*
G36*
X557020Y323709D02*
X553551D01*
X553623Y323164D01*
X554026Y322191D01*
X554667Y321356D01*
X555502Y320715D01*
X556475Y320312D01*
X557020Y320240D01*
Y323709D01*
D02*
G37*
G36*
X547020D02*
X543551D01*
X543623Y323164D01*
X544026Y322191D01*
X544667Y321356D01*
X545502Y320715D01*
X546476Y320312D01*
X547020Y320240D01*
Y323709D01*
D02*
G37*
G36*
X561488D02*
X558020D01*
Y320240D01*
X558564Y320312D01*
X559537Y320715D01*
X560372Y321356D01*
X561014Y322191D01*
X561417Y323164D01*
X561488Y323709D01*
D02*
G37*
G36*
X551488D02*
X548020D01*
Y320240D01*
X548564Y320312D01*
X549537Y320715D01*
X550373Y321356D01*
X551014Y322191D01*
X551417Y323164D01*
X551488Y323709D01*
D02*
G37*
G36*
X411760Y321921D02*
X409094D01*
Y318665D01*
X411760D01*
Y321921D01*
D02*
G37*
G36*
X408095D02*
X405429D01*
Y318665D01*
X408095D01*
Y321921D01*
D02*
G37*
G36*
X488480Y320622D02*
X485224D01*
Y317760D01*
X488480D01*
Y320622D01*
D02*
G37*
G36*
X484224D02*
X480969D01*
Y317760D01*
X484224D01*
Y320622D01*
D02*
G37*
G36*
X500756Y320228D02*
X497500D01*
Y317563D01*
X500756D01*
Y320228D01*
D02*
G37*
G36*
X496500D02*
X493244D01*
Y317563D01*
X496500D01*
Y320228D01*
D02*
G37*
G36*
X500756Y316563D02*
X497500D01*
Y313898D01*
X500756D01*
Y316563D01*
D02*
G37*
G36*
X496500D02*
X493244D01*
Y313898D01*
X496500D01*
Y316563D01*
D02*
G37*
G36*
X488480Y316760D02*
X485224D01*
Y313898D01*
X488480D01*
Y316760D01*
D02*
G37*
G36*
X484224D02*
X480969D01*
Y313898D01*
X484224D01*
Y316760D01*
D02*
G37*
G36*
X327371Y314807D02*
X325979Y314670D01*
X324641Y314264D01*
X323407Y313605D01*
X322326Y312717D01*
X321439Y311636D01*
X320780Y310403D01*
X320374Y309065D01*
X320237Y307673D01*
X320374Y306281D01*
X320780Y304943D01*
X321439Y303710D01*
X322326Y302629D01*
X323407Y301742D01*
X324641Y301083D01*
X325979Y300677D01*
X327371Y300540D01*
X328762Y300677D01*
X330100Y301083D01*
X331334Y301742D01*
X332415Y302629D01*
X333302Y303710D01*
X333961Y304943D01*
X334367Y306281D01*
X334504Y307673D01*
X334367Y309065D01*
X333961Y310403D01*
X333302Y311636D01*
X332415Y312717D01*
X331334Y313605D01*
X330100Y314264D01*
X328762Y314670D01*
X327371Y314807D01*
D02*
G37*
G36*
X562629Y314634D02*
X561238Y314496D01*
X559900Y314090D01*
X558666Y313431D01*
X557585Y312544D01*
X556698Y311463D01*
X556039Y310230D01*
X555633Y308892D01*
X555496Y307500D01*
X555633Y306108D01*
X556039Y304770D01*
X556698Y303537D01*
X557585Y302456D01*
X558666Y301569D01*
X559900Y300909D01*
X561238Y300503D01*
X562629Y300366D01*
X564021Y300503D01*
X565359Y300909D01*
X566593Y301569D01*
X567674Y302456D01*
X568561Y303537D01*
X569220Y304770D01*
X569626Y306108D01*
X569763Y307500D01*
X569626Y308892D01*
X569220Y310230D01*
X568561Y311463D01*
X567674Y312544D01*
X566593Y313431D01*
X565359Y314090D01*
X564021Y314496D01*
X562629Y314634D01*
D02*
G37*
G36*
X379540Y423540D02*
X370460D01*
Y416334D01*
X342063Y387937D01*
X341775Y387507D01*
X341674Y387000D01*
Y351220D01*
X341775Y350713D01*
X342063Y350283D01*
X398208Y294138D01*
X398639Y293850D01*
X399146Y293749D01*
X462674D01*
Y291843D01*
X462474D01*
Y290457D01*
X470478D01*
Y291843D01*
X470278D01*
Y296761D01*
X462674D01*
Y296400D01*
X399695D01*
X344325Y351769D01*
Y386451D01*
X372334Y414460D01*
X379540D01*
Y423540D01*
D02*
G37*
G36*
X470478Y289457D02*
X462474D01*
Y288071D01*
Y287898D01*
X470478D01*
Y288071D01*
Y289457D01*
D02*
G37*
G36*
X536000Y261798D02*
X534763Y261635D01*
X533611Y261157D01*
X532621Y260398D01*
X531862Y259409D01*
X531385Y258256D01*
X531222Y257020D01*
X531385Y255783D01*
X531862Y254631D01*
X532621Y253641D01*
X533611Y252882D01*
X534763Y252405D01*
X536000Y252242D01*
X537237Y252405D01*
X538389Y252882D01*
X539378Y253641D01*
X540138Y254631D01*
X540615Y255783D01*
X540778Y257020D01*
X540615Y258256D01*
X540138Y259409D01*
X539378Y260398D01*
X538389Y261157D01*
X537237Y261635D01*
X536000Y261798D01*
D02*
G37*
G36*
X442500Y269233D02*
X441837Y269101D01*
X441274Y268726D01*
X440899Y268163D01*
X440767Y267500D01*
X440899Y266837D01*
X441175Y266424D01*
Y254047D01*
X441275Y253540D01*
X441563Y253110D01*
X445554Y249118D01*
Y244472D01*
X452666D01*
Y250402D01*
X448019D01*
X443825Y254596D01*
Y266424D01*
X444101Y266837D01*
X444233Y267500D01*
X444101Y268163D01*
X443726Y268726D01*
X443163Y269101D01*
X442500Y269233D01*
D02*
G37*
G36*
X438000Y269733D02*
X437337Y269601D01*
X436774Y269226D01*
X436399Y268663D01*
X436267Y268000D01*
X436399Y267337D01*
X436674Y266924D01*
Y250437D01*
X436646Y250402D01*
X435944D01*
Y244472D01*
X443056D01*
Y250402D01*
X439909D01*
X439326Y250986D01*
Y266924D01*
X439601Y267337D01*
X439733Y268000D01*
X439601Y268663D01*
X439226Y269226D01*
X438663Y269601D01*
X438000Y269733D01*
D02*
G37*
G36*
X452666Y242528D02*
X445554D01*
Y237536D01*
X445092Y237345D01*
X443056Y239382D01*
Y242528D01*
X435944D01*
Y236598D01*
X442091D01*
X459126Y219563D01*
X459556Y219275D01*
X460063Y219175D01*
X464745D01*
X465144Y218210D01*
X465872Y217262D01*
X466821Y216534D01*
X467925Y216077D01*
X469110Y215921D01*
X470295Y216077D01*
X471400Y216534D01*
X472348Y217262D01*
X473076Y218210D01*
X473533Y219315D01*
X473690Y220500D01*
X473533Y221685D01*
X473076Y222790D01*
X472348Y223738D01*
X471400Y224466D01*
X470295Y224923D01*
X469110Y225079D01*
X467925Y224923D01*
X466821Y224466D01*
X465872Y223738D01*
X465144Y222790D01*
X464745Y221826D01*
X460612D01*
X446302Y236136D01*
X446493Y236598D01*
X450201D01*
X457236Y229563D01*
X457666Y229275D01*
X458173Y229174D01*
X464745D01*
X465144Y228210D01*
X465872Y227262D01*
X466821Y226534D01*
X467925Y226077D01*
X469110Y225921D01*
X470295Y226077D01*
X471400Y226534D01*
X472348Y227262D01*
X473076Y228210D01*
X473533Y229315D01*
X473690Y230500D01*
X473533Y231685D01*
X473076Y232790D01*
X472348Y233738D01*
X471400Y234466D01*
X470295Y234923D01*
X469110Y235079D01*
X467925Y234923D01*
X466821Y234466D01*
X465872Y233738D01*
X465144Y232790D01*
X464745Y231825D01*
X458722D01*
X452666Y237882D01*
Y242528D01*
D02*
G37*
G36*
X562629Y246893D02*
X561238Y246756D01*
X559900Y246350D01*
X558666Y245691D01*
X557585Y244804D01*
X556698Y243723D01*
X556039Y242490D01*
X555633Y241151D01*
X555496Y239760D01*
X555633Y238368D01*
X556039Y237030D01*
X556698Y235797D01*
X557585Y234716D01*
X558666Y233828D01*
X559900Y233169D01*
X561238Y232763D01*
X562629Y232626D01*
X564021Y232763D01*
X565359Y233169D01*
X566593Y233828D01*
X567674Y234716D01*
X568561Y235797D01*
X569220Y237030D01*
X569626Y238368D01*
X569763Y239760D01*
X569626Y241151D01*
X569220Y242490D01*
X568561Y243723D01*
X567674Y244804D01*
X566593Y245691D01*
X565359Y246350D01*
X564021Y246756D01*
X562629Y246893D01*
D02*
G37*
G36*
X327371D02*
X325979Y246756D01*
X324641Y246350D01*
X323407Y245691D01*
X322326Y244804D01*
X321439Y243723D01*
X320780Y242490D01*
X320374Y241151D01*
X320237Y239760D01*
X320374Y238368D01*
X320780Y237030D01*
X321439Y235797D01*
X322326Y234716D01*
X323407Y233828D01*
X324641Y233169D01*
X325979Y232763D01*
X327371Y232626D01*
X328762Y232763D01*
X330100Y233169D01*
X331334Y233828D01*
X332415Y234716D01*
X333302Y235797D01*
X333961Y237030D01*
X334367Y238368D01*
X334504Y239760D01*
X334367Y241151D01*
X333961Y242490D01*
X333302Y243723D01*
X332415Y244804D01*
X331334Y245691D01*
X330100Y246350D01*
X328762Y246756D01*
X327371Y246893D01*
D02*
G37*
G36*
X369000Y232026D02*
Y227811D01*
X373215D01*
X373118Y228548D01*
X372640Y229701D01*
X371881Y230692D01*
X370890Y231452D01*
X369737Y231929D01*
X369000Y232026D01*
D02*
G37*
G36*
X368000D02*
X367263Y231929D01*
X366109Y231452D01*
X365119Y230692D01*
X364359Y229701D01*
X363882Y228548D01*
X363785Y227811D01*
X368000D01*
Y232026D01*
D02*
G37*
G36*
X321666Y338398D02*
X308255D01*
Y330893D01*
X313635D01*
Y303039D01*
X313736Y302532D01*
X314023Y302102D01*
X377174Y238951D01*
Y231851D01*
X373960D01*
Y222771D01*
X383040D01*
Y231851D01*
X379825D01*
Y239500D01*
X379725Y240007D01*
X379437Y240437D01*
X316286Y303588D01*
Y330893D01*
X321666D01*
Y338398D01*
D02*
G37*
G36*
X373215Y226811D02*
X369000D01*
Y222596D01*
X369737Y222693D01*
X370890Y223170D01*
X371881Y223930D01*
X372640Y224921D01*
X373118Y226074D01*
X373215Y226811D01*
D02*
G37*
G36*
X368000D02*
X363785D01*
X363882Y226074D01*
X364359Y224921D01*
X365119Y223930D01*
X366109Y223170D01*
X367263Y222693D01*
X368000Y222596D01*
Y226811D01*
D02*
G37*
G36*
X423937Y225079D02*
X422752Y224923D01*
X421647Y224466D01*
X420699Y223738D01*
X419971Y222790D01*
X419514Y221685D01*
X419358Y220500D01*
X419514Y219315D01*
X419971Y218210D01*
X420699Y217262D01*
X421647Y216534D01*
X422752Y216077D01*
X423937Y215921D01*
X425122Y216077D01*
X426227Y216534D01*
X427175Y217262D01*
X427903Y218210D01*
X428360Y219315D01*
X428516Y220500D01*
X428360Y221685D01*
X427903Y222790D01*
X427175Y223738D01*
X426227Y224466D01*
X425122Y224923D01*
X423937Y225079D01*
D02*
G37*
G36*
X377000Y259233D02*
X376337Y259101D01*
X375774Y258726D01*
X375399Y258163D01*
X375267Y257500D01*
X375399Y256837D01*
X375675Y256424D01*
Y245500D01*
X375775Y244993D01*
X376063Y244563D01*
X391063Y229563D01*
X391493Y229275D01*
X392000Y229174D01*
X419572D01*
X419971Y228210D01*
X420699Y227262D01*
X421647Y226534D01*
X422752Y226077D01*
X423937Y225921D01*
X425122Y226077D01*
X426227Y226534D01*
X427175Y227262D01*
X427903Y228210D01*
X428302Y229174D01*
X435351D01*
X454963Y209563D01*
X455393Y209275D01*
X455900Y209174D01*
X464745D01*
X465144Y208210D01*
X465872Y207262D01*
X466821Y206534D01*
X467925Y206077D01*
X469110Y205921D01*
X470295Y206077D01*
X471400Y206534D01*
X472348Y207262D01*
X473076Y208210D01*
X473533Y209315D01*
X473690Y210500D01*
X473533Y211685D01*
X473076Y212790D01*
X472348Y213738D01*
X471400Y214466D01*
X470295Y214923D01*
X469110Y215079D01*
X467925Y214923D01*
X466821Y214466D01*
X465872Y213738D01*
X465144Y212790D01*
X464745Y211825D01*
X456449D01*
X436837Y231437D01*
X436407Y231725D01*
X435900Y231825D01*
X428302D01*
X427903Y232790D01*
X427175Y233738D01*
X426227Y234466D01*
X425122Y234923D01*
X423937Y235079D01*
X422752Y234923D01*
X421647Y234466D01*
X420699Y233738D01*
X419971Y232790D01*
X419572Y231825D01*
X392549D01*
X378326Y246049D01*
Y256424D01*
X378601Y256837D01*
X378733Y257500D01*
X378601Y258163D01*
X378226Y258726D01*
X377663Y259101D01*
X377000Y259233D01*
D02*
G37*
G36*
X423937Y215079D02*
X422752Y214923D01*
X421647Y214466D01*
X420699Y213738D01*
X419971Y212790D01*
X419514Y211685D01*
X419358Y210500D01*
X419514Y209315D01*
X419971Y208210D01*
X420699Y207262D01*
X421647Y206534D01*
X422752Y206077D01*
X423937Y205921D01*
X425122Y206077D01*
X426227Y206534D01*
X427175Y207262D01*
X427903Y208210D01*
X428360Y209315D01*
X428516Y210500D01*
X428360Y211685D01*
X427903Y212790D01*
X427175Y213738D01*
X426227Y214466D01*
X425122Y214923D01*
X423937Y215079D01*
D02*
G37*
G36*
X428677Y205240D02*
X424437D01*
Y201000D01*
X428677D01*
Y205240D01*
D02*
G37*
G36*
X423437D02*
X419197D01*
Y201000D01*
X423437D01*
Y205240D01*
D02*
G37*
G36*
X473850D02*
X469610D01*
Y201000D01*
X473850D01*
Y205240D01*
D02*
G37*
G36*
X468610D02*
X464370D01*
Y201000D01*
X468610D01*
Y205240D01*
D02*
G37*
G36*
X473850Y200000D02*
X469610D01*
Y195760D01*
X473850D01*
Y200000D01*
D02*
G37*
G36*
X468610D02*
X464370D01*
Y195760D01*
X468610D01*
Y200000D01*
D02*
G37*
G36*
X428677Y200000D02*
X424437D01*
Y195760D01*
X428677D01*
Y200000D01*
D02*
G37*
G36*
X423437D02*
X419197D01*
Y195760D01*
X423437D01*
Y200000D01*
D02*
G37*
G36*
X445000Y178980D02*
X443608Y178843D01*
X442270Y178437D01*
X441037Y177778D01*
X439956Y176891D01*
X439069Y175810D01*
X438410Y174576D01*
X438003Y173238D01*
X437866Y171846D01*
X438003Y170455D01*
X438410Y169117D01*
X439069Y167883D01*
X439956Y166802D01*
X441037Y165915D01*
X442270Y165256D01*
X443608Y164850D01*
X445000Y164713D01*
X446392Y164850D01*
X447730Y165256D01*
X448963Y165915D01*
X450044Y166802D01*
X450931Y167883D01*
X451590Y169117D01*
X451997Y170455D01*
X452134Y171846D01*
X451997Y173238D01*
X451590Y174576D01*
X450931Y175810D01*
X450044Y176891D01*
X448963Y177778D01*
X447730Y178437D01*
X446392Y178843D01*
X445000Y178980D01*
D02*
G37*
%LPD*%
G36*
X490563Y340063D02*
X490993Y339775D01*
X491500Y339674D01*
X511098D01*
Y335409D01*
X509514Y333825D01*
X480549D01*
X478469Y335906D01*
X478584Y336405D01*
X480543D01*
Y336606D01*
X488217D01*
Y341755D01*
X488679Y341946D01*
X490563Y340063D01*
D02*
G37*
G36*
X527693Y331044D02*
X527592Y330438D01*
X527274Y330226D01*
X526899Y329663D01*
X526767Y329000D01*
X526899Y328337D01*
X527175Y327924D01*
Y324400D01*
X526734Y324165D01*
X526663Y324212D01*
X526000Y324343D01*
X525337Y324212D01*
X524774Y323836D01*
X524399Y323273D01*
X524267Y322610D01*
X524399Y321947D01*
X524675Y321534D01*
Y313565D01*
X502392Y291282D01*
X501864D01*
X501657Y291782D01*
X522874Y313000D01*
X523162Y313430D01*
X523263Y313937D01*
Y332944D01*
X524902D01*
Y333181D01*
X525364Y333372D01*
X527693Y331044D01*
D02*
G37*
G36*
X490722Y290830D02*
Y288271D01*
Y285712D01*
Y283605D01*
X487770D01*
X485825Y285549D01*
Y289941D01*
X487075Y291190D01*
X490722D01*
Y290830D01*
D02*
G37*
G36*
X529375Y309347D02*
Y299213D01*
X529437Y298896D01*
Y293812D01*
X496349Y260724D01*
X495849Y260931D01*
Y265239D01*
X498326D01*
Y267798D01*
Y270357D01*
Y272917D01*
Y277835D01*
X498526D01*
Y278395D01*
X502240D01*
X502270Y278351D01*
X502898Y277931D01*
X503139Y277883D01*
Y279720D01*
Y281558D01*
X502898Y281510D01*
X502270Y281090D01*
X502240Y281046D01*
X498526D01*
Y281606D01*
X498326D01*
Y286072D01*
X504898D01*
X505405Y286173D01*
X505835Y286460D01*
X528913Y309538D01*
X529375Y309347D01*
D02*
G37*
G36*
X483243Y290835D02*
X483175Y290490D01*
Y285000D01*
X483275Y284493D01*
X483563Y284063D01*
X486283Y281342D01*
X486713Y281055D01*
X487220Y280954D01*
X490522D01*
Y280221D01*
X494524D01*
Y279221D01*
X490522D01*
Y277835D01*
X490722D01*
Y275476D01*
Y271183D01*
X490104D01*
X482326Y278962D01*
Y290624D01*
X482782Y291081D01*
X483243Y290835D01*
D02*
G37*
%LPC*%
G36*
X504140Y281558D02*
Y280221D01*
X505477D01*
X505429Y280462D01*
X505009Y281090D01*
X504381Y281510D01*
X504140Y281558D01*
D02*
G37*
G36*
X505477Y279221D02*
X504140D01*
Y277883D01*
X504381Y277931D01*
X505009Y278351D01*
X505429Y278979D01*
X505477Y279221D01*
D02*
G37*
%LPD*%
D10*
X429047Y324799D02*
X434953D01*
Y312201D02*
Y324799D01*
X429047Y312201D02*
X434953D01*
X429047D02*
Y324799D01*
X469476Y297339D02*
X491524D01*
Y264661D02*
Y297339D01*
X469476Y264661D02*
X491524D01*
X469476D02*
Y297339D01*
Y294779D02*
X472035Y297339D01*
X424520Y329327D02*
X439480D01*
X424520Y307673D02*
Y329327D01*
Y307673D02*
X439480D01*
Y329327D01*
D11*
X494524Y279720D02*
X503640D01*
X481000Y278413D02*
X489556Y269858D01*
X481000Y278413D02*
Y291173D01*
X460063Y220500D02*
X469110D01*
X441000Y239563D02*
X460063Y220500D01*
X468000Y348500D02*
Y367583D01*
X455900Y210500D02*
X469110D01*
X435900Y230500D02*
X455900Y210500D01*
X423937Y230500D02*
X435900D01*
X458173D02*
X469110D01*
X449110Y239563D02*
X458173Y230500D01*
X438000Y250437D02*
X441000Y247437D01*
X438000Y250437D02*
Y268000D01*
X442500Y254047D02*
X449110Y247437D01*
X442500Y254047D02*
Y267500D01*
X465173Y345673D02*
X468000Y348500D01*
X459268Y345673D02*
X465173D01*
X475016Y334449D02*
X484724Y324740D01*
X475016Y334449D02*
Y339768D01*
X510063Y332500D02*
X514063Y336500D01*
X480000Y332500D02*
X510063D01*
X477062Y335438D02*
X480000Y332500D01*
X477062Y335438D02*
Y339690D01*
X468256Y329483D02*
X473047Y334274D01*
X468256Y324279D02*
Y329483D01*
Y324279D02*
X475276Y317260D01*
X491500Y341000D02*
X517437D01*
X486500Y346000D02*
X491500Y341000D01*
X483343Y346000D02*
X486500D01*
X480921Y343579D02*
X483343Y346000D01*
X497000Y259500D02*
X530763Y293263D01*
Y299149D01*
X494524Y192476D02*
Y266925D01*
Y192476D02*
X505000Y182000D01*
X494524Y287398D02*
X504898D01*
X494524Y289957D02*
X502941D01*
X528500Y311000D02*
Y329000D01*
X504898Y287398D02*
X528500Y311000D01*
X530700Y299213D02*
Y329911D01*
X524111Y336500D02*
X530700Y329911D01*
X497000Y243000D02*
Y259500D01*
X378500Y227311D02*
Y239500D01*
X314961Y303039D02*
X378500Y239500D01*
X314961Y303039D02*
Y334646D01*
X460500Y385500D02*
X467142Y378858D01*
Y373232D02*
Y378858D01*
X469110Y373232D02*
Y382378D01*
X456551Y394937D02*
X469110Y382378D01*
X428437Y394937D02*
X456551D01*
X465173Y373232D02*
Y375827D01*
X392000Y230500D02*
X423937D01*
X377000Y245500D02*
X392000Y230500D01*
X377000Y245500D02*
Y257500D01*
X530700Y299213D02*
X530763Y299149D01*
X521937Y336500D02*
X524111D01*
X494524Y292516D02*
X500516D01*
X521937Y313937D02*
Y336500D01*
X500516Y292516D02*
X521937Y313937D01*
X526000Y313016D02*
Y322610D01*
X492732Y345673D02*
X511827D01*
X502941Y289957D02*
X526000Y313016D01*
X377000Y403000D02*
X460500D01*
X360500Y386500D02*
X377000Y403000D01*
X487220Y282279D02*
X494524D01*
X484500Y285000D02*
X487220Y282279D01*
X488000Y421563D02*
X507499D01*
X438000Y336500D02*
Y350000D01*
X445484Y357484D01*
X459268D01*
X442500Y336621D02*
Y350142D01*
X447874Y355516D01*
X448520Y348437D02*
Y351520D01*
X450547Y353547D01*
X459268D01*
X447874Y355516D02*
X459268D01*
X459190Y353469D02*
X459268Y353547D01*
X427016Y323421D02*
X432000D01*
X420016Y330421D02*
X427016Y323421D01*
X422929Y360429D02*
X429827Y367327D01*
X459268D01*
X417000Y374564D02*
Y383500D01*
X428437Y394937D01*
X457500Y397500D02*
X475016Y379984D01*
X423500Y397500D02*
X457500D01*
X404327Y378327D02*
X423500Y397500D01*
X492732Y349610D02*
X499000D01*
X338000Y344500D02*
X400220Y282279D01*
X338000Y344500D02*
Y392000D01*
X365000Y419000D01*
X399146Y295075D02*
X466476D01*
X343000Y351220D02*
X399146Y295075D01*
X343000Y351220D02*
Y387000D01*
X375000Y419000D01*
X400220Y282279D02*
X466476D01*
X489556Y269858D02*
X494150D01*
X481000Y291173D02*
X484902Y295075D01*
X494524D01*
X494150Y269858D02*
X494524Y269484D01*
X466476Y287398D02*
Y289957D01*
X494524Y266925D02*
Y269484D01*
X484500Y285000D02*
Y290490D01*
X486526Y292516D01*
X494524D01*
Y282279D02*
Y284839D01*
X466476Y282279D02*
Y284839D01*
Y292516D02*
Y295075D01*
X527063Y362000D02*
Y394937D01*
X522000Y400000D02*
X527063Y394937D01*
X509563Y400000D02*
X522000D01*
X488000Y421563D02*
X509563Y400000D01*
X481063Y422500D02*
X488000Y429437D01*
X466437Y422500D02*
X481063D01*
X388673Y378327D02*
X404327D01*
X380500Y386500D02*
X388673Y378327D01*
X390500Y386500D02*
X404000Y400000D01*
X459039D01*
X476984Y382055D01*
Y373232D02*
Y382055D01*
X475016Y373232D02*
Y379984D01*
X429063Y387500D02*
X434063Y392500D01*
X416468Y330421D02*
X420016D01*
X416468Y322421D02*
X425311Y313579D01*
X432000D01*
Y323421D02*
X446421D01*
X456000Y333000D01*
X466500D01*
X458000Y331000D02*
X467228D01*
X440579Y313579D02*
X458000Y331000D01*
X432000Y313579D02*
X440579D01*
X467228Y331000D02*
X471001Y334773D01*
Y339690D01*
X471079Y339768D01*
X466500Y333000D02*
X469110Y335610D01*
Y339768D01*
X429063Y371500D02*
Y387500D01*
X517437Y341000D02*
X521937Y336500D01*
X480921Y339768D02*
Y343579D01*
X465251Y370332D02*
X468000Y367583D01*
X459268Y345673D02*
X459346Y345751D01*
X465173Y373232D02*
X465251Y373154D01*
Y370332D02*
Y373154D01*
X468256Y367327D02*
X492732D01*
X521736D02*
X527063Y362000D01*
X492732Y367327D02*
X521736D01*
X476984Y339768D02*
X477062Y339690D01*
X521937Y336500D02*
X527063Y341626D01*
Y346500D01*
Y362000D01*
X475079Y317064D02*
X475276Y317260D01*
X461221Y317064D02*
X475079D01*
X496803Y324740D02*
X497000Y324937D01*
X484724Y324740D02*
X496803D01*
X473047Y334274D02*
Y339768D01*
X600980Y307500D02*
G03*
X600980Y307500I-157480J0D01*
G01*
D14*
X462488Y298323D02*
X498512D01*
Y263677D02*
Y298323D01*
X462488Y263677D02*
X498512D01*
X462488D02*
Y298323D01*
D15*
X449110Y247437D02*
D03*
Y239563D02*
D03*
X439500Y247437D02*
D03*
Y239563D02*
D03*
X448520Y340563D02*
D03*
Y348437D02*
D03*
X488000Y429437D02*
D03*
Y421563D02*
D03*
X460500Y317063D02*
D03*
Y324937D02*
D03*
X497000Y324937D02*
D03*
Y317063D02*
D03*
D16*
X466437Y422500D02*
D03*
X458563D02*
D03*
X514063Y336500D02*
D03*
X521937D02*
D03*
X416468Y322421D02*
D03*
X408595D02*
D03*
X416468Y330421D02*
D03*
X408595D02*
D03*
X436937Y371500D02*
D03*
X429063D02*
D03*
Y387500D02*
D03*
X436937D02*
D03*
X534937Y346500D02*
D03*
X527063D02*
D03*
Y362000D02*
D03*
X534937D02*
D03*
D17*
X432000Y313579D02*
D03*
Y323421D02*
D03*
D18*
X466476Y295075D02*
D03*
Y292516D02*
D03*
Y289957D02*
D03*
Y287398D02*
D03*
Y284839D02*
D03*
Y282279D02*
D03*
Y279720D02*
D03*
Y277161D02*
D03*
Y274602D02*
D03*
Y272043D02*
D03*
Y269484D02*
D03*
Y266925D02*
D03*
X494524D02*
D03*
Y269484D02*
D03*
Y272043D02*
D03*
Y274602D02*
D03*
Y277161D02*
D03*
Y279720D02*
D03*
Y282279D02*
D03*
Y284839D02*
D03*
Y287398D02*
D03*
Y289957D02*
D03*
Y292516D02*
D03*
Y295075D02*
D03*
D19*
X314961Y334646D02*
D03*
D20*
X459268Y345673D02*
D03*
Y347642D02*
D03*
Y349610D02*
D03*
Y351579D02*
D03*
Y353547D02*
D03*
Y355516D02*
D03*
Y357484D02*
D03*
Y359453D02*
D03*
Y361421D02*
D03*
Y363390D02*
D03*
Y365358D02*
D03*
Y367327D02*
D03*
X492732D02*
D03*
Y365358D02*
D03*
Y363390D02*
D03*
Y361421D02*
D03*
Y359453D02*
D03*
Y357484D02*
D03*
Y355516D02*
D03*
Y353547D02*
D03*
Y351579D02*
D03*
Y349610D02*
D03*
Y347642D02*
D03*
Y345673D02*
D03*
D21*
X465173Y373232D02*
D03*
X467142D02*
D03*
X469110D02*
D03*
X471079D02*
D03*
X473047D02*
D03*
X475016D02*
D03*
X476984D02*
D03*
X478953D02*
D03*
X480921D02*
D03*
X482890D02*
D03*
X484858D02*
D03*
X486827D02*
D03*
Y339768D02*
D03*
X484858D02*
D03*
X482890D02*
D03*
X480921D02*
D03*
X478953D02*
D03*
X476984D02*
D03*
X475016D02*
D03*
X473047D02*
D03*
X471079D02*
D03*
X469110D02*
D03*
X467142D02*
D03*
X465173D02*
D03*
D22*
X475276Y317260D02*
D03*
X484724D02*
D03*
Y324740D02*
D03*
X475276D02*
D03*
D41*
X557520Y324209D02*
D03*
X547520D02*
D03*
X516024D02*
D03*
X506024D02*
D03*
X557520Y393500D02*
D03*
X547520D02*
D03*
X516024D02*
D03*
X506024D02*
D03*
X400500Y386500D02*
D03*
X390500D02*
D03*
X350500D02*
D03*
X360500D02*
D03*
X370500D02*
D03*
X380500D02*
D03*
D42*
X469110Y230500D02*
D03*
X423937D02*
D03*
D43*
X469110Y220500D02*
D03*
Y210500D02*
D03*
X423937Y220500D02*
D03*
Y210500D02*
D03*
D44*
X469110Y200500D02*
D03*
X423937D02*
D03*
D45*
X365000Y419000D02*
D03*
X368500Y227311D02*
D03*
X419500Y414500D02*
D03*
D46*
X375000Y419000D02*
D03*
X378500Y227311D02*
D03*
X409500Y414500D02*
D03*
D47*
X536000Y296980D02*
D03*
Y257020D02*
D03*
D48*
X562629Y307500D02*
D03*
X327371Y307673D02*
D03*
X562629Y375587D02*
D03*
Y239760D02*
D03*
X445000Y171846D02*
D03*
Y443500D02*
D03*
X327371Y375587D02*
D03*
Y239760D02*
D03*
D49*
X503640Y279720D02*
D03*
X442500Y267500D02*
D03*
X438000Y268000D02*
D03*
X468256Y367327D02*
D03*
X434063Y392500D02*
D03*
X497000Y243000D02*
D03*
X460500Y385500D02*
D03*
X377000Y257500D02*
D03*
X511827Y345673D02*
D03*
X526000Y322610D02*
D03*
X460500Y403000D02*
D03*
X507499Y421563D02*
D03*
X438000Y336500D02*
D03*
X442500Y336621D02*
D03*
X422929Y360429D02*
D03*
X417000Y374564D02*
D03*
X528500Y329000D02*
D03*
X499000Y349610D02*
D03*
X505000Y182000D02*
D03*
M02*
