M48
;Layer_Color=9474304
;FILE_FORMAT=2:5
INCH,LZ
;TYPE=PLATED
T1F00S00C0.01000
T2F00S00C0.01500
T3F00S00C0.03000
T4F00S00C0.03150
T5F00S00C0.03543
T6F00S00C0.12598
%
T01
X0505Y0182
T02
X0497Y0243
X050364Y027972
X04425Y02675
X0438Y0268
X0377Y02575
X0438Y03365
X04425Y0336621
X0422929Y0360429
X0417Y0374564
X0434063Y03925
X04605Y03855
Y0403
X0468256Y0367327
X0499Y034961
X0511827Y0345673
X05285Y0329
X0526Y032261
X0507499Y0421563
T03
X03505Y03865
X03605
X03705
X03805
X03905
X04005
X0506024Y03935
X0516024
X054752
X055752
Y0324209
X054752
X0516024
X0506024
T04
X0536Y025702
Y029698
T05
X046911Y02005
Y02105
Y02205
Y02305
X0423937
Y02205
Y02105
Y02005
X03785Y0227311
X03685
X0365Y0419
X0375
X04095Y04145
X04195
T06
X0562629Y023976
Y03075
X0327371Y0307673
Y023976
X0445Y0171846
Y04435
X0327371Y0375587
X0562629
M30
