G04*
G04 #@! TF.GenerationSoftware,Altium Limited,Altium Designer,18.1.7 (191)*
G04*
G04 Layer_Color=2752767*
%FSLAX25Y25*%
%MOIN*%
G70*
G01*
G75*
%ADD10C,0.00394*%
%ADD11C,0.01000*%
%ADD14C,0.00197*%
%ADD54C,0.00200*%
%ADD55C,0.00267*%
D10*
X429047Y324799D02*
X434953D01*
Y312201D02*
Y324799D01*
X429047Y312201D02*
X434953D01*
X429047D02*
Y324799D01*
X469476Y297339D02*
X491524D01*
Y264661D02*
Y297339D01*
X469476Y264661D02*
X491524D01*
X469476D02*
Y297339D01*
Y294779D02*
X472035Y297339D01*
X424520Y329327D02*
X439480D01*
X424520Y307673D02*
Y329327D01*
Y307673D02*
X439480D01*
Y329327D01*
D11*
X600980Y307500D02*
G03*
X600980Y307500I-157480J0D01*
G01*
D14*
X462488Y298323D02*
X498512D01*
Y263677D02*
Y298323D01*
X462488Y263677D02*
X498512D01*
X462488D02*
Y298323D01*
D54*
X556720Y323409D02*
Y325009D01*
X558320D01*
Y323409D01*
X556720D01*
X546720D02*
Y325009D01*
X548320D01*
Y323409D01*
X546720D01*
X515224D02*
Y325009D01*
X516824D01*
Y323409D01*
X515224D01*
X505224D02*
Y325009D01*
X506824D01*
Y323409D01*
X505224D01*
X556720Y392700D02*
Y394300D01*
X558320D01*
Y392700D01*
X556720D01*
X546720D02*
Y394300D01*
X548320D01*
Y392700D01*
X546720D01*
X515224D02*
Y394300D01*
X516824D01*
Y392700D01*
X515224D01*
X505224D02*
Y394300D01*
X506824D01*
Y392700D01*
X505224D01*
X399700Y385700D02*
Y387300D01*
X401300D01*
Y385700D01*
X399700D01*
X389700D02*
Y387300D01*
X391300D01*
Y385700D01*
X389700D01*
X349700D02*
Y387300D01*
X351300D01*
Y385700D01*
X349700D01*
X359700D02*
Y387300D01*
X361300D01*
Y385700D01*
X359700D01*
X369700D02*
Y387300D01*
X371300D01*
Y385700D01*
X369700D01*
X379700D02*
Y387300D01*
X381300D01*
Y385700D01*
X379700D01*
X536000Y296180D02*
X535200Y297780D01*
X536800D01*
X536000Y296180D01*
Y256220D02*
X535200Y257820D01*
X536800D01*
X536000Y256220D01*
X562629Y306700D02*
X563029Y307100D01*
X563429D01*
X563029Y307500D01*
X563429Y307900D01*
X563029D01*
X562629Y308300D01*
X562229Y307900D01*
X561829D01*
X562229Y307500D01*
X561829Y307100D01*
X562229D01*
X562629Y306700D01*
X327371Y306873D02*
X327771Y307273D01*
X328171D01*
X327771Y307673D01*
X328171Y308073D01*
X327771D01*
X327371Y308473D01*
X326971Y308073D01*
X326571D01*
X326971Y307673D01*
X326571Y307273D01*
X326971D01*
X327371Y306873D01*
X562629Y374787D02*
X563029Y375187D01*
X563429D01*
X563029Y375587D01*
X563429Y375987D01*
X563029D01*
X562629Y376387D01*
X562229Y375987D01*
X561829D01*
X562229Y375587D01*
X561829Y375187D01*
X562229D01*
X562629Y374787D01*
Y238960D02*
X563029Y239360D01*
X563429D01*
X563029Y239760D01*
X563429Y240160D01*
X563029D01*
X562629Y240560D01*
X562229Y240160D01*
X561829D01*
X562229Y239760D01*
X561829Y239360D01*
X562229D01*
X562629Y238960D01*
X445000Y171046D02*
X445400Y171447D01*
X445800D01*
X445400Y171846D01*
X445800Y172247D01*
X445400D01*
X445000Y172646D01*
X444600Y172247D01*
X444200D01*
X444600Y171846D01*
X444200Y171447D01*
X444600D01*
X445000Y171046D01*
Y442700D02*
X445400Y443100D01*
X445800D01*
X445400Y443500D01*
X445800Y443900D01*
X445400D01*
X445000Y444300D01*
X444600Y443900D01*
X444200D01*
X444600Y443500D01*
X444200Y443100D01*
X444600D01*
X445000Y442700D01*
X327371Y374787D02*
X327771Y375187D01*
X328171D01*
X327771Y375587D01*
X328171Y375987D01*
X327771D01*
X327371Y376387D01*
X326971Y375987D01*
X326571D01*
X326971Y375587D01*
X326571Y375187D01*
X326971D01*
X327371Y374787D01*
Y238960D02*
X327771Y239360D01*
X328171D01*
X327771Y239760D01*
X328171Y240160D01*
X327771D01*
X327371Y240560D01*
X326971Y240160D01*
X326571D01*
X326971Y239760D01*
X326571Y239360D01*
X326971D01*
X327371Y238960D01*
X502840Y278921D02*
X503239Y279720D01*
X502840Y280521D01*
X503640Y280120D01*
X504439Y280521D01*
X504039Y279720D01*
X504439Y278921D01*
X503640Y279321D01*
X502840Y278921D01*
X441700Y266700D02*
X442100Y267500D01*
X441700Y268300D01*
X442500Y267900D01*
X443300Y268300D01*
X442900Y267500D01*
X443300Y266700D01*
X442500Y267100D01*
X441700Y266700D01*
X437200Y267200D02*
X437600Y268000D01*
X437200Y268800D01*
X438000Y268400D01*
X438800Y268800D01*
X438400Y268000D01*
X438800Y267200D01*
X438000Y267600D01*
X437200Y267200D01*
X467456Y366527D02*
X467856Y367327D01*
X467456Y368127D01*
X468256Y367727D01*
X469056Y368127D01*
X468656Y367327D01*
X469056Y366527D01*
X468256Y366927D01*
X467456Y366527D01*
X433263Y391700D02*
X433663Y392500D01*
X433263Y393300D01*
X434063Y392900D01*
X434863Y393300D01*
X434463Y392500D01*
X434863Y391700D01*
X434063Y392100D01*
X433263Y391700D01*
X496200Y242200D02*
X496600Y243000D01*
X496200Y243800D01*
X497000Y243400D01*
X497800Y243800D01*
X497400Y243000D01*
X497800Y242200D01*
X497000Y242600D01*
X496200Y242200D01*
X459700Y384700D02*
X460100Y385500D01*
X459700Y386300D01*
X460500Y385900D01*
X461300Y386300D01*
X460900Y385500D01*
X461300Y384700D01*
X460500Y385100D01*
X459700Y384700D01*
X376200Y256700D02*
X376600Y257500D01*
X376200Y258300D01*
X377000Y257900D01*
X377800Y258300D01*
X377400Y257500D01*
X377800Y256700D01*
X377000Y257100D01*
X376200Y256700D01*
X511027Y344873D02*
X511427Y345673D01*
X511027Y346473D01*
X511827Y346073D01*
X512627Y346473D01*
X512227Y345673D01*
X512627Y344873D01*
X511827Y345273D01*
X511027Y344873D01*
X525200Y321810D02*
X525600Y322610D01*
X525200Y323410D01*
X526000Y323010D01*
X526800Y323410D01*
X526400Y322610D01*
X526800Y321810D01*
X526000Y322210D01*
X525200Y321810D01*
X459700Y402200D02*
X460100Y403000D01*
X459700Y403800D01*
X460500Y403400D01*
X461300Y403800D01*
X460900Y403000D01*
X461300Y402200D01*
X460500Y402600D01*
X459700Y402200D01*
X506699Y420763D02*
X507099Y421563D01*
X506699Y422363D01*
X507499Y421963D01*
X508299Y422363D01*
X507899Y421563D01*
X508299Y420763D01*
X507499Y421163D01*
X506699Y420763D01*
X437200Y335700D02*
X437600Y336500D01*
X437200Y337300D01*
X438000Y336900D01*
X438800Y337300D01*
X438400Y336500D01*
X438800Y335700D01*
X438000Y336100D01*
X437200Y335700D01*
X441700Y335821D02*
X442100Y336621D01*
X441700Y337421D01*
X442500Y337021D01*
X443300Y337421D01*
X442900Y336621D01*
X443300Y335821D01*
X442500Y336221D01*
X441700Y335821D01*
X422129Y359629D02*
X422529Y360429D01*
X422129Y361229D01*
X422929Y360829D01*
X423729Y361229D01*
X423329Y360429D01*
X423729Y359629D01*
X422929Y360029D01*
X422129Y359629D01*
X416200Y373764D02*
X416600Y374564D01*
X416200Y375364D01*
X417000Y374964D01*
X417800Y375364D01*
X417400Y374564D01*
X417800Y373764D01*
X417000Y374164D01*
X416200Y373764D01*
X527700Y328200D02*
X528100Y329000D01*
X527700Y329800D01*
X528500Y329400D01*
X529300Y329800D01*
X528900Y329000D01*
X529300Y328200D01*
X528500Y328600D01*
X527700Y328200D01*
X498200Y348810D02*
X498600Y349610D01*
X498200Y350410D01*
X499000Y350010D01*
X499800Y350410D01*
X499400Y349610D01*
X499800Y348810D01*
X499000Y349210D01*
X498200Y348810D01*
X504600Y181600D02*
Y181200D01*
X505400D01*
Y181600D01*
X505800D01*
Y182400D01*
X505400D01*
Y182800D01*
X504600D01*
Y182400D01*
X504200D01*
Y181600D01*
X504600D01*
D55*
X469910Y230500D02*
G03*
X469910Y230500I-800J0D01*
G01*
Y220500D02*
G03*
X469910Y220500I-800J0D01*
G01*
Y210500D02*
G03*
X469910Y210500I-800J0D01*
G01*
Y200500D02*
G03*
X469910Y200500I-800J0D01*
G01*
X424737Y230500D02*
G03*
X424737Y230500I-800J0D01*
G01*
Y220500D02*
G03*
X424737Y220500I-800J0D01*
G01*
Y210500D02*
G03*
X424737Y210500I-800J0D01*
G01*
Y200500D02*
G03*
X424737Y200500I-800J0D01*
G01*
X365800Y419000D02*
G03*
X365800Y419000I-800J0D01*
G01*
X375800D02*
G03*
X375800Y419000I-800J0D01*
G01*
X369300Y227311D02*
G03*
X369300Y227311I-800J0D01*
G01*
X379300D02*
G03*
X379300Y227311I-800J0D01*
G01*
X420300Y414500D02*
G03*
X420300Y414500I-800J0D01*
G01*
X410300D02*
G03*
X410300Y414500I-800J0D01*
G01*
M02*
